<?xml version="1.0" encoding="utf-8" ?><svg xmlns="http://www.w3.org/2000/svg" xmlns:xlink="http://www.w3.org/1999/xlink" width="896" height="1152" viewBox="0 0 896 1152"><path d="M208.522 0L228.772 0C229.103 0.452397 229.514 1.0136 230.004 1.68362C235.037 3.72469 241.959 5.64613 246.777 7.7637C257.379 12.4227 271.295 21.5072 280.109 29.1873C314.758 59.3814 343.907 101.145 364.39 142.162C368.417 150.227 371.785 159.035 375.312 167.294C377.419 172.226 379.285 178.07 381.731 182.684C385.512 189.818 390.461 196.591 394.624 203.448C400.981 213.917 407.806 225.885 412.063 237.358C435.999 237.321 460.779 236.969 484.666 237.649C488.678 227.589 493.476 217.861 499.014 208.554C504.651 199.078 511.692 190.459 516.017 180.364C517.312 177.342 518.589 174.31 519.88 171.287C523.16 163.557 526.644 155.916 530.328 148.37C547.279 113.733 569.714 78.9027 595.065 49.8648C608.531 34.4405 624.382 21.6697 641.975 11.21C648.826 7.13695 658.031 4.91921 665.285 1.63664C665.658 0.995767 665.975 0.450222 666.238 0L685.396 0C687.536 2.62344 689.146 2.72979 692.397 3.73492C716.06 11.0502 725.751 36.6429 733.162 57.7828C738.33 73.0882 748.459 83.6025 762.806 90.4984C790.98 104.04 796.642 144.081 796.386 172.024C796.312 180.214 796.312 189.105 792.104 196.535C775.701 225.563 737.469 243.875 707.256 254.459C697.071 258.026 686.687 260.134 677.083 264.039C731.169 277.404 785.414 290.114 839.807 302.168L876.337 310.342C879.921 311.129 891.914 313.476 894.703 314.755L892.951 315.634C893.603 325.447 892.743 339.316 892.65 349.65C892.181 376.452 892.079 403.26 892.343 430.065C892.449 435.978 892.393 452.25 893.034 457.464C893.25 450.804 892.974 443.791 893.242 437.39C893.161 438.55 892.957 438.266 893.402 439.002C893.553 447.251 893.683 450.394 894.524 458.554C892.569 460.237 850.125 470.106 843.611 472.271C842.944 483.292 843.396 498.275 843.396 509.561L843.208 569.042C843.208 575.78 842.662 611.429 843.768 614.669C852.429 640.047 876.513 676.848 896 694.773L896 696.59C879.658 693.049 864.13 689.599 848.357 684.026C846.565 683.392 844.504 682.536 842.732 682.017C843.928 692.884 843.623 703.396 843.631 714.314L843.643 758.6L843.756 901.61C843.73 934.188 844.128 966.763 843.869 999.318C843.83 1004.17 843.731 1025.41 842.693 1029.2L842.062 1029.64L842.09 1030.56C837.18 1033.08 826.89 1035.06 821.086 1036.92C801.192 1043.28 781.845 1049.18 761.293 1053.12C748.674 1055.54 736.429 1061.92 724.406 1065.74L607.612 1102.44C599.971 1104.83 595.392 1105.35 587.751 1106.53C584.103 1107.09 575.066 1109.83 571.324 1111.02C572.191 1109.42 572.971 1109.1 573.851 1107.53C565.452 1109.7 555.84 1112.83 547.675 1114.74C550.658 1114.89 551.409 1114.34 553.453 1115.93C549.411 1119.14 542.587 1117.46 536.623 1119.76L536.684 1120.25L538.251 1121L537.834 1121.49C536 1121.56 530.461 1121.5 528.9 1121.86C510.446 1126.09 492.332 1132.2 474.148 1137.43L473.835 1137.86L475.647 1138.78C472.569 1139.76 470.356 1140.01 467.486 1140.82L467.816 1143.38C465.927 1144.29 461.021 1145.7 458.611 1146.55C455.607 1147.1 452.506 1148.44 449.632 1149.56C449.767 1149.72 449.902 1149.88 450.037 1150.04C449.468 1150.97 447.12 1152.03 447.498 1149.61C444.662 1148.27 435.704 1145.56 432.143 1144.3C428.774 1143.39 425.683 1143.35 422.201 1142.41C417.913 1141.27 414.528 1139.63 410.267 1138.23C407.959 1137.64 406.136 1137.06 403.953 1136.12C399.836 1134.35 395.637 1133.71 391.439 1131.89C389.008 1130.61 385.884 1129.95 383.191 1129.24C381.854 1128.41 381.254 1128.16 379.809 1127.56L378.916 1127.29C364.647 1122.54 352.66 1118.72 337.885 1115.11C336.411 1114.5 334.28 1113.84 332.676 1113.76C328.619 1112.67 324.278 1112.32 320.184 1110.7C318.469 1110.31 316.367 1109.53 314.655 1109.29C294.055 1106.38 274.604 1097.94 254.813 1091.8C250.864 1090.57 246.933 1088.39 243.024 1087.1C240.772 1086.36 237.222 1086.77 234.827 1085.73C215.125 1079.64 195.305 1073.74 175.482 1068.07C172.502 1067.22 172.392 1065.84 169.844 1065.02C161.883 1062.46 154.036 1059.8 146.046 1057.29C140.195 1055.46 134.055 1052.04 128.158 1050.47C114.538 1046.85 100.803 1043.47 86.9733 1040.75C86.0691 1040.57 84.716 1039.63 83.9279 1039.07C81.8979 1037.63 79.5307 1036.74 77.0549 1036.48C75.786 1035.87 73.4919 1033.69 72.3179 1032.65C66.1585 1031.69 60.9034 1030.93 54.876 1029.36C55.9799 1024.15 56.6803 1017.89 56.9903 1012.59C57.8134 1006.33 57.8385 992.054 57.8547 985.482C57.8785 975.767 58.0965 963.182 57.4226 953.66C57.6267 951.886 57.4923 949.392 57.5058 947.543C57.6061 933.842 56.9792 920.137 56.9017 906.442C56.9408 866.966 56.4895 827.49 55.5477 788.025C55.2365 789.978 55.0084 794.533 54.5624 795.874L54.5057 794.095C53.0966 803.407 53.6834 825.215 53.6836 835.414C53.5393 861.267 53.6283 887.121 53.9505 912.972C54.2002 945.686 52.4205 979.224 53.1868 1011.75C52.591 1008.36 52.7462 988.347 52.719 983.647C52.5646 959.565 52.5888 935.483 52.7918 911.401L52.8366 682.608C44.0614 684.805 34.5561 688.639 25.7985 690.966C17.7405 693.107 8.20865 695.054 0 696.586L0 695.361C18.3843 674.193 32.375 657.55 45.1737 632.03C55.0902 612.256 52.8709 611.146 53.0007 589.415C53.1843 571.038 53.219 552.659 53.1048 534.281L53.3069 472.247C42.1487 469.024 30.7248 466.613 19.4779 463.749C13.9133 462.331 7.31263 461.07 2.02211 459.046C1.85601 446.122 0.99805 433.065 0.969471 420.167L1.70804 315.474C17.5511 310.195 45.5915 304.541 62.4621 300.782L149.673 280.837C165.215 277.139 180.734 273.34 196.228 269.441C203.254 267.737 216.079 264.248 222.712 264.136C184.337 256.638 126.884 233.094 105.117 198.316C95.3451 182.702 100.678 145.325 105.727 127.679C112.192 105.088 120.939 97.6442 140.539 86.8047L141.051 86.7153C145.36 85.7801 143.044 86.4918 145.753 88.1666C146.488 87.7127 147.216 87.2489 147.939 86.7752C150.707 84.3802 153.48 82.4177 155.69 79.3885C157.081 77.8731 158.158 76.4789 159.061 74.6224C159.481 74.452 159.779 74.0713 159.844 73.6225C160.984 71.6679 162.598 68.3171 162.977 66.1218C162.769 62.85 163.42 62.0378 163.331 58.8481C163.539 56.3388 165.938 50.3016 166.839 47.7609C171.426 34.8221 179.193 20.2919 189.993 11.506C192.687 9.33517 195.604 7.4574 198.695 5.90444C202.276 4.08239 206.75 3.402 208.522 0ZM598.339 1102.17L596.678 1101.91C597.176 1092.89 596.797 1081.44 596.783 1072.14L596.879 1014.72L596.728 1014.43C597.108 1001.87 596.514 988.258 596.328 975.661C596.171 958.879 596.108 942.096 596.137 925.312C595.688 842.107 595.924 758.9 596.845 675.698C596.206 649.681 596.009 623.654 596.254 597.629C596.42 581.134 597.182 559.423 596.335 543.242C594.28 544.05 595.693 542.603 594.076 543.494L501.802 567.206C490.802 570 479.824 572.88 468.869 575.846C465.507 576.73 456.066 578.434 454.213 580.472L453.251 580.313C451.21 580.306 450.637 580.14 448.901 581.046C446.501 584.509 447.868 590.707 447.646 595.534C447.13 598.887 447.651 602.169 446.177 604.581C445.818 596.459 445.589 588.332 445.489 580.203C410.093 572.029 374.766 561.882 339.413 553.329C326.579 550.224 313.685 546.04 300.68 542.993L299.508 543.655C297.086 541.772 290.55 540.622 287.408 540.173L287.205 540.684L286.355 539.78C283.82 538.358 209.839 518.98 206.561 518.811L205.326 518.792C203.072 516.811 197.098 515.812 194.116 515.255L194.066 515.535C193.973 515.975 193.881 516.416 193.788 516.857C193.528 515.744 193.739 515.651 193.091 514.659C185.965 512.618 178.811 510.676 171.631 508.835L169.667 508.612C175.603 467.393 181.823 430.128 207.751 395.807C237.813 356.014 288.304 331.217 335.58 318.614C355.603 313.276 375.872 310.227 396.412 307.533C398.446 307.476 400.909 307.666 402.143 305.981C400.225 304.368 400.828 304.36 398.828 304.282C397.01 304.662 396.817 304.555 394.889 304.423L394.501 303.35C392.466 303.108 391.164 302.663 389.151 302.756C375.052 300.521 357.96 300.1 343.584 298.744C285.638 293.278 245.223 292.442 190.851 315.154L189.796 314.49C196.076 310.234 204.917 305.072 211.489 301.462L210.483 300.402C158.087 321.897 121.201 361.441 99.5511 413.38C89.8243 436.536 83.1649 460.865 79.7418 485.747L80.2534 490.514C79.889 493.117 79.7081 493.707 79.0267 496.165L80.7438 495.727C78.5112 506.327 76.7624 517.024 75.503 527.784L74.2062 526.698C71.2934 526.333 58.2667 522.915 55.3932 521.879L54.9779 523.9L54.3187 524.239C54.2346 527.247 54.2228 531.061 53.859 533.974L53.1048 534.281C53.219 552.659 53.1843 571.038 53.0007 589.415C52.8709 611.146 55.0902 612.256 45.1737 632.03C32.375 657.55 18.3843 674.193 0 695.361L0 696.586C8.20865 695.054 17.7405 693.107 25.7985 690.966C34.5561 688.639 44.0614 684.805 52.8366 682.608L52.7918 911.401C52.5888 935.483 52.5646 959.565 52.719 983.647C52.7462 988.347 52.591 1008.36 53.1868 1011.75C52.4205 979.224 54.2002 945.686 53.9505 912.972C53.6283 887.121 53.5393 861.267 53.6836 835.414C53.6834 825.215 53.0966 803.407 54.5057 794.095L54.5624 795.874C55.0084 794.533 55.2365 789.978 55.5477 788.025C56.4895 827.49 56.9408 866.966 56.9017 906.442C56.9792 920.137 57.6061 933.842 57.5058 947.543C57.4923 949.392 57.6267 951.886 57.4226 953.66C58.0965 963.182 57.8785 975.767 57.8547 985.482C57.8385 992.054 57.8134 1006.33 56.9903 1012.59C56.6803 1017.89 55.9799 1024.15 54.876 1029.36C60.9034 1030.93 66.1585 1031.69 72.3179 1032.65C73.4919 1033.69 75.786 1035.87 77.0549 1036.48C79.5307 1036.74 81.8979 1037.63 83.9279 1039.07C84.716 1039.63 86.0691 1040.57 86.9733 1040.75C100.803 1043.47 114.538 1046.85 128.158 1050.47C134.055 1052.04 140.195 1055.46 146.046 1057.29C154.036 1059.8 161.883 1062.46 169.844 1065.02C172.392 1065.84 172.502 1067.22 175.482 1068.07C195.305 1073.74 215.125 1079.64 234.827 1085.73C237.222 1086.77 240.772 1086.36 243.024 1087.1C246.933 1088.39 250.864 1090.57 254.813 1091.8C274.604 1097.94 294.055 1106.38 314.655 1109.29C316.367 1109.53 318.469 1110.31 320.184 1110.7C324.278 1112.32 328.619 1112.67 332.676 1113.76C334.28 1113.84 336.411 1114.5 337.885 1115.11C352.66 1118.72 364.647 1122.54 378.916 1127.29L379.809 1127.56C381.254 1128.16 381.854 1128.41 383.191 1129.24C385.884 1129.95 389.008 1130.61 391.439 1131.89C395.637 1133.71 399.836 1134.35 403.953 1136.12C406.136 1137.06 407.959 1137.64 410.267 1138.23C414.528 1139.63 417.913 1141.27 422.201 1142.41C425.683 1143.35 428.774 1143.39 432.143 1144.3C435.704 1145.56 444.662 1148.27 447.498 1149.61C447.12 1152.03 449.468 1150.97 450.037 1150.04C449.902 1149.88 449.767 1149.72 449.632 1149.56C452.506 1148.44 455.607 1147.1 458.611 1146.55C461.021 1145.7 465.927 1144.29 467.816 1143.38L467.486 1140.82C470.356 1140.01 472.569 1139.76 475.647 1138.78L473.835 1137.86L474.148 1137.43C492.332 1132.2 510.446 1126.09 528.9 1121.86C530.461 1121.5 536 1121.56 537.834 1121.49L538.251 1121L536.684 1120.25L536.623 1119.76C542.587 1117.46 549.411 1119.14 553.453 1115.93C551.409 1114.34 550.658 1114.89 547.675 1114.74C555.84 1112.83 565.452 1109.7 573.851 1107.53C577.191 1106.37 583.631 1104.81 587.247 1103.82C588.843 1104.12 594.936 1105.81 596.159 1104.41C596.25 1103.97 596.002 1103.71 595.777 1103.35C595.881 1103.11 597.054 1103.07 598.339 1102.17ZM815.123 485.388C815.757 488.477 816.712 491.822 817.164 494.873C817.335 495.454 817.967 498.351 818.528 498.406C818.727 497.923 818.203 494.219 818.092 493.545C817.742 491.979 817.463 490.399 817.255 488.809C817.044 487.563 816.77 484.872 816.392 483.885C815.965 484.42 815.571 484.873 815.123 485.388ZM646.114 211.652C645.76 211.484 645.907 211.528 645.659 211.485C645.816 211.621 645.896 211.604 646.114 211.652ZM885.444 358.436C883.819 377.791 882.315 397.156 880.933 416.53C880.069 428.073 878.582 442.757 878.412 454.063C879.691 451.79 884.44 443.578 884.684 441.735C885.945 432.193 887.221 407.123 886.518 398.269C885.304 390.771 887.67 362.53 885.444 358.436Z"/><path d="M596.113 1101.74L596.678 1101.91L598.339 1102.17C597.054 1103.07 595.881 1103.11 595.777 1103.35C596.002 1103.71 596.25 1103.97 596.159 1104.41C594.936 1105.81 588.843 1104.12 587.247 1103.82C589.638 1103.29 592.558 1102.43 595.047 1101.82C595.359 1101.72 595.809 1101.74 596.113 1101.74Z"/><path fill="#CB943A" fill-opacity="0.98823529" d="M816.392 483.885C816.77 484.872 817.044 487.563 817.255 488.809C817.463 490.399 817.742 491.979 818.092 493.545L817.164 494.873C816.712 491.822 815.757 488.477 815.123 485.388C815.571 484.873 815.965 484.42 816.392 483.885Z"/><path fill="#867563" fill-opacity="0.98823529" d="M818.092 493.545C818.203 494.219 818.727 497.923 818.528 498.406C817.967 498.351 817.335 495.454 817.164 494.873L818.092 493.545Z"/><path fill="#140B04" d="M190.851 315.154C245.223 292.442 285.638 293.278 343.584 298.744C357.96 300.1 375.052 300.521 389.151 302.756C391.164 302.663 392.466 303.108 394.501 303.35L394.889 304.423C396.817 304.555 397.01 304.662 398.828 304.282C400.828 304.36 400.225 304.368 402.143 305.981C400.909 307.666 398.446 307.476 396.412 307.533C375.872 310.227 355.603 313.276 335.58 318.614C288.304 331.217 237.813 356.014 207.751 395.807C181.823 430.128 175.603 467.393 169.667 508.612L171.631 508.835C178.811 510.676 185.965 512.618 193.091 514.659C193.739 515.651 193.528 515.744 193.788 516.857C193.881 516.416 193.973 515.975 194.066 515.535L194.116 515.255C197.098 515.812 203.072 516.811 205.326 518.792L206.561 518.811C209.839 518.98 283.82 538.358 286.355 539.78L287.205 540.684L287.408 540.173C290.55 540.622 297.086 541.772 299.508 543.655L300.68 542.993C313.685 546.04 326.579 550.224 339.413 553.329C374.766 561.882 410.093 572.029 445.489 580.203C445.589 588.332 445.818 596.459 446.177 604.581C447.651 602.169 447.13 598.887 447.646 595.534C447.868 590.707 446.501 584.509 448.901 581.046C450.637 580.14 451.21 580.306 453.251 580.313L454.213 580.472C456.066 578.434 465.507 576.73 468.869 575.846C479.824 572.88 490.802 570 501.802 567.206L594.076 543.494C595.693 542.603 594.28 544.05 596.335 543.242C597.182 559.423 596.42 581.134 596.254 597.629C596.009 623.654 596.206 649.681 596.845 675.698C595.924 758.9 595.688 842.107 596.137 925.312C596.108 942.096 596.171 958.879 596.328 975.661C596.514 988.258 597.108 1001.87 596.728 1014.43L596.879 1014.72L596.783 1072.14C596.797 1081.44 597.176 1092.89 596.678 1101.91L596.113 1101.74C595.809 1101.74 595.359 1101.72 595.047 1101.82C592.558 1102.43 589.638 1103.29 587.247 1103.82C583.631 1104.81 577.191 1106.37 573.851 1107.53C565.452 1109.7 555.84 1112.83 547.675 1114.74C550.658 1114.89 551.409 1114.34 553.453 1115.93C549.411 1119.14 542.587 1117.46 536.623 1119.76L536.684 1120.25L538.251 1121L537.834 1121.49C536 1121.56 530.461 1121.5 528.9 1121.86C510.446 1126.09 492.332 1132.2 474.148 1137.43L473.835 1137.86L475.647 1138.78C472.569 1139.76 470.356 1140.01 467.486 1140.82L467.816 1143.38C465.927 1144.29 461.021 1145.7 458.611 1146.55C455.607 1147.1 452.506 1148.44 449.632 1149.56C449.767 1149.72 449.902 1149.88 450.037 1150.04C449.468 1150.97 447.12 1152.03 447.498 1149.61C444.662 1148.27 435.704 1145.56 432.143 1144.3C428.774 1143.39 425.683 1143.35 422.201 1142.41C417.913 1141.27 414.528 1139.63 410.267 1138.23C407.959 1137.64 406.136 1137.06 403.953 1136.12C399.836 1134.35 395.637 1133.71 391.439 1131.89C389.008 1130.61 385.884 1129.95 383.191 1129.24C381.854 1128.41 381.254 1128.16 379.809 1127.56L378.916 1127.29C364.647 1122.54 352.66 1118.72 337.885 1115.11C336.411 1114.5 334.28 1113.84 332.676 1113.76C328.619 1112.67 324.278 1112.32 320.184 1110.7C318.469 1110.31 316.367 1109.53 314.655 1109.29C294.055 1106.38 274.604 1097.94 254.813 1091.8C250.864 1090.57 246.933 1088.39 243.024 1087.1C240.772 1086.36 237.222 1086.77 234.827 1085.73C215.125 1079.64 195.305 1073.74 175.482 1068.07C172.502 1067.22 172.392 1065.84 169.844 1065.02C161.883 1062.46 154.036 1059.8 146.046 1057.29C140.195 1055.46 134.055 1052.04 128.158 1050.47C114.538 1046.85 100.803 1043.47 86.9733 1040.75C86.0691 1040.57 84.716 1039.63 83.9279 1039.07C81.8979 1037.63 79.5307 1036.74 77.0549 1036.48C75.786 1035.87 73.4919 1033.69 72.3179 1032.65C66.1585 1031.69 60.9034 1030.93 54.876 1029.36C55.9799 1024.15 56.6803 1017.89 56.9903 1012.59C57.8134 1006.33 57.8385 992.054 57.8547 985.482C57.8785 975.767 58.0965 963.182 57.4226 953.66C57.6267 951.886 57.4923 949.392 57.5058 947.543C57.6061 933.842 56.9792 920.137 56.9017 906.442C56.9408 866.966 56.4895 827.49 55.5477 788.025C55.2365 789.978 55.0084 794.533 54.5624 795.874L54.5057 794.095C53.0966 803.407 53.6834 825.215 53.6836 835.414C53.5393 861.267 53.6283 887.121 53.9505 912.972C54.2002 945.686 52.4205 979.224 53.1868 1011.75C52.591 1008.36 52.7462 988.347 52.719 983.647C52.5646 959.565 52.5888 935.483 52.7918 911.401L52.8366 682.608C44.0614 684.805 34.5561 688.639 25.7985 690.966C17.7405 693.107 8.20865 695.054 0 696.586L0 695.361C18.3843 674.193 32.375 657.55 45.1737 632.03C55.0902 612.256 52.8709 611.146 53.0007 589.415C53.1843 571.038 53.219 552.659 53.1048 534.281L53.859 533.974C54.2228 531.061 54.2346 527.247 54.3187 524.239L54.9779 523.9L55.3932 521.879C58.2667 522.915 71.2934 526.333 74.2062 526.698L75.503 527.784C76.7624 517.024 78.5112 506.327 80.7438 495.727L79.0267 496.165C79.7081 493.707 79.889 493.117 80.2534 490.514L79.7418 485.747C83.1649 460.865 89.8243 436.536 99.5511 413.38C121.201 361.441 158.087 321.897 210.483 300.402L211.489 301.462C204.917 305.072 196.076 310.234 189.796 314.49L190.851 315.154ZM300.898 1102.65C305.301 1104.38 310.344 1105.58 314.946 1106.9C351.91 1117.53 389.195 1127.78 425.228 1141.28C427.395 1142.09 430.18 1143.18 432.143 1144.3C435.704 1145.56 444.662 1148.27 447.498 1149.61C447.846 1147.37 447.712 1146.37 447.733 1144.13L448.82 1143.03C448.731 1139.83 448.905 1135.79 449.107 1132.55C451.537 1093.33 450.123 1054.89 448.805 1015.66C449.119 1008.5 448.487 992.824 448.252 984.959C448.394 931.585 450.577 877.876 450.411 824.169C450.234 766.512 448.256 708.226 448.239 650.79C448.662 646.32 448.109 637.86 448.102 633.002C448.435 631.069 448.55 630.205 448.539 628.186L447.795 628.169C425.06 622.676 401.318 615.576 378.743 609.239C352.966 602.004 326.136 595.444 300.614 587.752L300.898 1102.65ZM165.535 558.106C164.025 585.439 157.551 625.643 149.302 651.611C137.044 690.198 107.152 729.909 70.2063 748.177C87.7164 727.927 98.0413 696.715 87.1778 671.037C76.425 674.884 65.6301 678.612 54.7951 682.221L55.5477 788.025C56.4895 827.49 56.9408 866.966 56.9017 906.442C56.9792 920.137 57.6061 933.842 57.5058 947.543C57.4923 949.392 57.6267 951.886 57.4226 953.66C58.0965 963.182 57.8785 975.767 57.8547 985.482C57.8385 992.054 57.8134 1006.33 56.9903 1012.59C56.6803 1017.89 55.9799 1024.15 54.876 1029.36C60.9034 1030.93 66.1585 1031.69 72.3179 1032.65C74.2096 1033.02 75.9396 1033.44 77.791 1033.97C116.467 1045.03 154.319 1059.04 192.885 1070.38L192.872 565.134C184.168 563.433 174.089 560.536 165.535 558.106Z"/><path fill="#FEBB4E" d="M300.614 587.752C326.136 595.444 352.966 602.004 378.743 609.239C401.318 615.576 425.06 622.676 447.795 628.169L448.539 628.186C448.55 630.205 448.435 631.069 448.102 633.002C448.109 637.86 448.662 646.32 448.239 650.79C448.256 708.226 450.234 766.512 450.411 824.169C450.577 877.876 448.394 931.585 448.252 984.959C448.487 992.824 449.119 1008.5 448.805 1015.66C450.123 1054.89 451.537 1093.33 449.107 1132.55C448.905 1135.79 448.731 1139.83 448.82 1143.03L447.733 1144.13C447.712 1146.37 447.846 1147.37 447.498 1149.61C444.662 1148.27 435.704 1145.56 432.143 1144.3C430.18 1143.18 427.395 1142.09 425.228 1141.28C389.195 1127.78 351.91 1117.53 314.946 1106.9C310.344 1105.58 305.301 1104.38 300.898 1102.65L300.614 587.752ZM405.703 1129.51C409.489 1131.14 415.42 1132.5 418.759 1134.07L419.608 1134.11C421.557 1134.23 427.804 1134.65 425.157 1131.23C424.175 1130.9 423.197 1130.56 422.225 1130.2C419.439 1129.7 414.594 1127.94 411.703 1127.16C411.128 1127 410.555 1126.84 409.985 1126.67L409.142 1126.24C407.104 1126.55 404.845 1126.17 405.526 1128.78L405.703 1129.51Z"/><path d="M447.128 650.714L448.239 650.79C448.256 708.226 450.234 766.512 450.411 824.169C450.577 877.876 448.394 931.585 448.252 984.959L447.218 979.557C447.04 960.72 446.731 941.886 446.29 923.054C445.643 882.472 445.329 841.886 445.349 801.299L446.135 705.366C446.433 687.247 447.152 668.799 447.128 650.714Z"/><path d="M447.239 1054.99C448.074 1050.74 447.88 1019.32 447.935 1012.89L448.427 1013.39C448.447 1014.25 448.402 1013.83 448.624 1014.85L448.805 1015.66C450.123 1054.89 451.537 1093.33 449.107 1132.55C448.905 1135.79 448.731 1139.83 448.82 1143.03L447.733 1144.13L447.239 1054.99Z"/><path fill="#6B491E" d="M447.218 979.557L448.252 984.959C448.487 992.824 449.119 1008.5 448.805 1015.66L448.624 1014.85C448.402 1013.83 448.447 1014.25 448.427 1013.39L447.935 1012.89C447.88 1019.32 448.074 1050.74 447.239 1054.99C446.915 1049.13 447.094 1042.3 447.246 1036.41C447.737 1017.52 446.785 998.411 447.218 979.557Z"/><path fill="#875E28" d="M448.102 633.002C448.109 637.86 448.662 646.32 448.239 650.79L447.128 650.714C446.985 647.004 447.382 643.39 447.253 639.905C448.205 636.689 447.645 635.982 448.102 633.002Z"/><path fill="#CB943A" d="M447.795 628.169L448.539 628.186C448.55 630.205 448.435 631.069 448.102 633.002C447.645 635.982 448.205 636.689 447.253 639.905C446.981 635.277 447.213 632.712 447.795 628.169Z"/><defs><linearGradient id="gradient_0" gradientUnits="userSpaceOnUse" x1="441.10632" y1="1082.7479" x2="444.62387" y2="1082.9268"><stop offset="0" stop-color="#1F1107"/><stop offset="1" stop-color="black"/></linearGradient></defs><path fill="url(#gradient_0)" d="M444.839 1022.66C445.044 1042.87 444.57 1063.16 444.689 1083.38C444.703 1085.6 444.694 1088.76 444.426 1090.91C444.445 1100.26 444.839 1112.6 443.972 1121.96C443.898 1122.75 442.749 1124.03 442.181 1124.66L440.297 1124.99C441.663 1096.92 442.693 1068.84 443.385 1040.75C443.122 1036.51 443.865 1027.98 443.794 1022.72L444.839 1022.66Z"/><path fill="#6B491E" d="M444.839 1022.66C445.044 1042.87 444.57 1063.16 444.689 1083.38C444.703 1085.6 444.694 1088.76 444.426 1090.91C443.689 1083.75 445.288 1043.99 443.385 1040.75C443.122 1036.51 443.865 1027.98 443.794 1022.72L444.839 1022.66Z"/><path d="M340.82 1106C356.216 1110.74 371.64 1115.39 387.091 1119.94C392.082 1121.42 404.737 1125.53 409.142 1126.24C407.104 1126.55 404.845 1126.17 405.526 1128.78L405.703 1129.51C383.704 1122.09 361.748 1114.54 339.836 1106.87L340.82 1106Z"/><path d="M409.985 1126.67C410.555 1126.84 411.128 1127 411.703 1127.16C414.594 1127.94 419.439 1129.7 422.225 1130.2C419.323 1131.08 419.766 1130.83 418.759 1134.07C415.42 1132.5 409.489 1131.14 405.703 1129.51L405.526 1128.78C407.409 1129.01 412.445 1129.91 409.985 1126.67Z"/><path fill="#140B04" d="M425.157 1131.23C429.635 1132.55 434.213 1134.09 438.749 1135.11C437.735 1135.35 436.722 1135.59 435.711 1135.84C429.079 1135.17 426.784 1136.04 419.608 1134.11C421.557 1134.23 427.804 1134.65 425.157 1131.23Z"/><path d="M422.225 1130.2C423.197 1130.56 424.175 1130.9 425.157 1131.23C427.804 1134.65 421.557 1134.23 419.608 1134.11L418.759 1134.07C419.766 1130.83 419.323 1131.08 422.225 1130.2Z"/><path d="M409.142 1126.24L409.985 1126.67C412.445 1129.91 407.409 1129.01 405.526 1128.78C404.845 1126.17 407.104 1126.55 409.142 1126.24Z"/><path fill="#CB943A" d="M443.794 1022.72C443.781 1021.73 443.789 1015.58 444.61 1015.21C444.753 1015.29 444.676 1015.22 444.822 1015.46L444.467 1015.57C445.448 1016.61 444.957 1021.09 444.839 1022.66L443.794 1022.72Z"/><path fill="#6B491E" d="M334.69 1104.12C336.714 1104.82 338.799 1105.3 340.82 1106L339.836 1106.87C338.528 1106.54 337.893 1106.31 336.627 1105.9L334.704 1105.29L334.69 1104.12Z"/><path fill="#140B04" d="M440.297 1124.99L442.181 1124.66C441.884 1125.39 440.864 1128.1 440.219 1128.49C439.609 1127.91 440.176 1125.73 440.297 1124.99Z"/><path fill="#CB943A" d="M334.704 1105.29C330.93 1103.98 329.906 1102.46 334.69 1104.12L334.704 1105.29Z"/><path fill="#986D36" d="M438.749 1135.11L439.323 1135.24C439.647 1135.29 439.986 1135.38 440.202 1135.65C440.192 1135.73 440.181 1135.81 440.171 1135.89C439.246 1136.61 436.746 1136.01 435.711 1135.84C436.722 1135.59 437.735 1135.35 438.749 1135.11Z"/><path fill="#FEBB4E" d="M448.539 628.186C481.249 619.648 513.901 610.093 546.549 601.355C561.564 597.337 580.241 591.205 594.999 587.939L594.644 929.741L594.967 1049.49C594.994 1066.65 595.318 1084.72 595.047 1101.82C592.558 1102.43 589.638 1103.29 587.247 1103.82C583.631 1104.81 577.191 1106.37 573.851 1107.53C565.452 1109.7 555.84 1112.83 547.675 1114.74C550.658 1114.89 551.409 1114.34 553.453 1115.93C549.411 1119.14 542.587 1117.46 536.623 1119.76L536.684 1120.25L538.251 1121L537.834 1121.49C536 1121.56 530.461 1121.5 528.9 1121.86C510.446 1126.09 492.332 1132.2 474.148 1137.43L473.835 1137.86L475.647 1138.78C472.569 1139.76 470.356 1140.01 467.486 1140.82L467.816 1143.38C465.927 1144.29 461.021 1145.7 458.611 1146.55C455.607 1147.1 452.506 1148.44 449.632 1149.56C449.767 1149.72 449.902 1149.88 450.037 1150.04C449.468 1150.97 447.12 1152.03 447.498 1149.61C447.846 1147.37 447.712 1146.37 447.733 1144.13L448.82 1143.03C448.731 1139.83 448.905 1135.79 449.107 1132.55C451.537 1093.33 450.123 1054.89 448.805 1015.66C449.119 1008.5 448.487 992.824 448.252 984.959C448.394 931.585 450.577 877.876 450.411 824.169C450.234 766.512 448.256 708.226 448.239 650.79C448.662 646.32 448.109 637.86 448.102 633.002C448.435 631.069 448.55 630.205 448.539 628.186Z"/><path fill="#140B04" d="M467.486 1140.82C466.596 1140.94 455.415 1143.19 455.304 1143.26C461.962 1138.74 536.017 1118.2 547.675 1114.74C550.658 1114.89 551.409 1114.34 553.453 1115.93C549.411 1119.14 542.587 1117.46 536.623 1119.76L536.684 1120.25L538.251 1121L537.834 1121.49C536 1121.56 530.461 1121.5 528.9 1121.86C510.446 1126.09 492.332 1132.2 474.148 1137.43L473.835 1137.86L475.647 1138.78C472.569 1139.76 470.356 1140.01 467.486 1140.82Z"/><path fill="#6B491E" d="M447.733 1144.13L448.82 1143.03C448.85 1145.76 448.273 1147.67 449.632 1149.56C449.767 1149.72 449.902 1149.88 450.037 1150.04C449.468 1150.97 447.12 1152.03 447.498 1149.61C447.846 1147.37 447.712 1146.37 447.733 1144.13Z"/><path fill="#FEBB4E" d="M165.535 558.106C174.089 560.536 184.168 563.433 192.872 565.134L192.885 1070.38C154.319 1059.04 116.467 1045.03 77.791 1033.97C75.9396 1033.44 74.2096 1033.02 72.3179 1032.65C66.1585 1031.69 60.9034 1030.93 54.876 1029.36C55.9799 1024.15 56.6803 1017.89 56.9903 1012.59C57.8134 1006.33 57.8385 992.054 57.8547 985.482C57.8785 975.767 58.0965 963.182 57.4226 953.66C57.6267 951.886 57.4923 949.392 57.5058 947.543C57.6061 933.842 56.9792 920.137 56.9017 906.442C56.9408 866.966 56.4895 827.49 55.5477 788.025L54.7951 682.221C65.6301 678.612 76.425 674.884 87.1778 671.037C98.0413 696.715 87.7164 727.927 70.2063 748.177C107.152 729.909 137.044 690.198 149.302 651.611C157.551 625.643 164.025 585.439 165.535 558.106ZM62.2469 1007.48L66.9963 1015.09C66.309 990.427 64.6077 965.629 64.0841 941.087L63.2424 937.054C62.8259 944.925 63.4879 962.563 62.5282 968.916L62.2469 1007.48ZM131.959 1044.73L133.049 1043.97C116.715 1037.38 95.4846 1029.65 78.8389 1024.07C77.625 1023.62 76.4146 1023.16 75.208 1022.7C73.3884 1023.13 73.4569 1023.09 71.8449 1024.16C73.7887 1025.26 74.9439 1025.73 76.9762 1026.61L131.959 1044.73Z"/><defs><linearGradient id="gradient_1" gradientUnits="userSpaceOnUse" x1="67.766457" y1="973.789" x2="59.023743" y2="974.89441"><stop offset="0" stop-color="#0B0604" stop-opacity="0.96862745"/><stop offset="1" stop-color="black"/></linearGradient></defs><path fill="url(#gradient_1)" d="M62.5282 968.916C63.4879 962.563 62.8259 944.925 63.2424 937.054L64.0841 941.087C64.6077 965.629 66.309 990.427 66.9963 1015.09L62.2469 1007.48L62.5282 968.916Z"/><path d="M78.8389 1024.07C95.4846 1029.65 116.715 1037.38 133.049 1043.97L131.959 1044.73L76.9762 1026.61C78.793 1025.64 79.0669 1026.11 78.8389 1024.07Z"/><path fill="#6B491E" d="M62.5001 919.785C62.8941 920.087 63.2906 920.386 63.6895 920.682C63.2678 927.534 64.4784 934.543 64.0841 941.087L63.2424 937.054C62.8259 944.925 63.4879 962.563 62.5282 968.916C61.7061 956.288 62.4635 933.01 62.5001 919.785Z"/><path fill="#140B04" d="M62.419 1019.25C67.2518 1020 71.1903 1021.93 75.208 1022.7C73.3884 1023.13 73.4569 1023.09 71.8449 1024.16C69.7362 1023.81 65.3546 1021.08 62.4611 1020.31L62.419 1019.25Z"/><path d="M75.208 1022.7C76.4146 1023.16 77.625 1023.62 78.8389 1024.07C79.0669 1026.11 78.793 1025.64 76.9762 1026.61C74.9439 1025.73 73.7887 1025.26 71.8449 1024.16C73.4569 1023.09 73.3884 1023.13 75.208 1022.7Z"/><path fill="#CB943A" d="M62.5001 919.785C62.3999 918.104 61.9607 915.227 62.4167 913.773L62.5509 913.819L62.5638 913.759C62.9471 913.865 63.5355 919.785 63.6895 920.682C63.2906 920.386 62.8941 920.087 62.5001 919.785Z"/><path fill="#6B491E" d="M133.049 1043.97C134.586 1044.43 136.074 1045.15 137.641 1045.72L136.494 1046.48C134.994 1045.75 133.536 1045.32 131.959 1044.73L133.049 1043.97Z"/><path fill="#CB943A" d="M137.641 1045.72C138.872 1046.06 140.186 1046.42 140.989 1047.39L140.339 1047.54L141.048 1047.41C141.296 1048.7 136.707 1046.56 136.494 1046.48L137.641 1045.72Z"/><path fill="#6B491E" d="M62.4611 1020.31C61.9996 1020.15 60.4644 1019.84 60.4648 1019.05C60.8162 1018.43 62.0335 1019.1 62.419 1019.25L62.4611 1020.31Z"/><path fill="#CB943A" d="M206.561 518.811C209.839 518.98 283.82 538.358 286.355 539.78L286.199 1098.54C282.491 1097.55 278.681 1096.41 275.031 1095.22C252.494 1087.86 229.421 1081.75 206.859 1074.56L206.561 518.811Z"/><path fill="#FEBB4E" d="M190.851 315.154C245.223 292.442 285.638 293.278 343.584 298.744C357.96 300.1 375.052 300.521 389.151 302.756C385.565 305.031 376.923 302.983 374.747 304.635C312.998 309.358 246.733 335.133 205.646 383.042C131.257 469.782 177.185 607.084 111.408 690.967C105.48 698.526 98.9658 705.814 91.4867 711.881C94.6564 695.954 94.5335 684.124 88.1825 668.707C68.9469 675.642 39.2373 686.016 19.0797 691.196C45.8328 659.735 60.7517 634.276 73.2172 594.488C85.0984 556.564 84.7624 521.895 92.6709 483.959C101.508 440.202 120.358 399.086 147.743 363.834L146.73 363.378C107.714 400.877 92.1053 439.016 80.2534 490.514L79.7418 485.747C83.1649 460.865 89.8243 436.536 99.5511 413.38C121.201 361.441 158.087 321.897 210.483 300.402L211.489 301.462C204.917 305.072 196.076 310.234 189.796 314.49L190.851 315.154Z"/><path fill="#CB943A" d="M186.601 316.287L187.172 317.252C181.124 321.09 181.923 318.75 186.601 316.287Z"/><path fill="#6B491E" d="M186.601 316.287C187.834 315.68 188.622 315.091 189.796 314.49L190.851 315.154C189.332 315.979 188.577 316.211 187.172 317.252L186.601 316.287Z"/><path fill="#B07B33" d="M149.218 360.802C151.775 357.411 152.901 358.003 149.679 361.767L149.218 360.802Z"/><path fill="#6B491E" d="M149.218 360.802L149.679 361.767C149.004 362.471 148.439 363.142 147.743 363.834L146.73 363.378C147.554 362.502 148.395 361.684 149.218 360.802Z"/><path fill="#CB943A" d="M300.68 542.993C313.685 546.04 326.579 550.224 339.413 553.329C374.766 561.882 410.093 572.029 445.489 580.203C445.589 588.332 445.818 596.459 446.177 604.581C447.651 602.169 447.13 598.887 447.646 595.534C447.868 590.707 446.501 584.509 448.901 581.046C450.637 580.14 451.21 580.306 453.251 580.313L454.213 580.472C456.066 578.434 465.507 576.73 468.869 575.846C479.824 572.88 490.802 570 501.802 567.206L594.076 543.494C594.388 543.831 594.701 544.167 595.013 544.504C595.354 558.246 595.16 572.669 595.123 586.358C584.365 588.464 562.81 594.949 551.931 597.999L476.878 618.602C472.105 619.871 450.24 626.614 448.208 626.088C406.537 615.307 339.639 597.172 300.42 585.993C301.369 575.468 300.732 554.399 300.68 542.993Z"/><path fill="#140B04" d="M454.213 580.472C454.821 583.762 454.455 589.333 454.518 592.979L453.322 591.57C453.386 587.896 453.278 584.012 453.251 580.313L454.213 580.472Z"/><path fill="#3A2611" d="M447.646 595.534C447.826 599.206 447.751 602.686 447.663 606.356C447.272 608.784 447.199 610.432 446.673 612.885C446.466 610.108 446.013 607.306 446.177 604.581C447.651 602.169 447.13 598.887 447.646 595.534Z"/><path fill="#6B491E" d="M447.663 606.356C447.748 608.281 447.987 618.412 447.22 619.35C446.232 619.553 446.58 613.469 446.673 612.885C447.199 610.432 447.272 608.784 447.663 606.356Z"/><path fill="#875E28" d="M453.322 591.57L454.518 592.979C454.586 594.506 454.661 600.243 454.026 601.299L454.107 601.463C453.959 601.545 454.042 601.527 453.855 601.506C453.346 600.799 453.272 592.901 453.322 591.57Z"/><path fill="#875E28" d="M193.091 514.659C193.739 515.651 193.528 515.744 193.788 516.857C193.881 516.416 193.973 515.975 194.066 515.535L194.116 515.255C197.098 515.812 203.072 516.811 205.326 518.792L205.516 821.696L205.42 986.773C205.4 1015.58 204.903 1045.69 205.415 1074.34C201.734 1073.37 198.07 1072.33 194.425 1071.23C193.876 1068 193.97 1046.18 194.158 1042.24L194.159 649.928C193.941 645.589 194.016 640.905 194.064 636.53C194.368 608.468 193.623 580.232 194.153 552.191C194.03 545.925 194.152 539.243 194.154 532.943C194.04 530.954 194.076 517.979 193.777 517.36C193.489 517.356 193.179 517.718 192.987 517.884C192.893 516.422 192.917 516.066 193.091 514.659Z"/><path fill="#6B491E" d="M194.153 552.191C195.452 567.7 194.459 591.458 194.558 607.553C194.621 617.566 195.05 640.799 194.159 649.928C193.941 645.589 194.016 640.905 194.064 636.53C194.368 608.468 193.623 580.232 194.153 552.191Z"/><path fill="#6B491E" d="M194.158 1042.24C194.636 1046.22 194.836 1067.1 194.425 1071.23C193.876 1068 193.97 1046.18 194.158 1042.24Z"/><path fill="#6B491E" d="M193.091 514.659C193.739 515.651 193.528 515.744 193.788 516.857C193.881 516.416 193.973 515.975 194.066 515.535L194.116 515.255C194.759 518.566 194.525 529.314 194.154 532.943C194.04 530.954 194.076 517.979 193.777 517.36C193.489 517.356 193.179 517.718 192.987 517.884C192.893 516.422 192.917 516.066 193.091 514.659Z"/><path fill="#B07B33" d="M90.8366 714.537C100.954 707.032 109.234 697.386 116.533 687.186C180.896 597.24 129.145 457.304 218.716 371.77C260.961 331.429 330.756 304.688 389.099 306.079C392.749 307.163 394.237 306.337 396.412 307.533C375.872 310.227 355.603 313.276 335.58 318.614C288.304 331.217 237.813 356.014 207.751 395.807C181.823 430.128 175.603 467.393 169.667 508.612C168.212 522.04 165.887 536.386 164.734 549.651C157.695 630.686 148.269 693.92 76.7767 742.869C83.076 732.753 86.7015 725.6 90.8366 714.537Z"/><path fill="#CB943A" d="M290.138 651.929C290.38 638.192 292.886 615.47 294.054 601.033C295.298 608.736 295.524 616.973 295.882 624.781C295.545 632.256 296.618 640.719 296.835 648.284C296.961 652.678 296.425 656.754 298.657 660.526C299.061 687.556 299.296 714.588 299.361 741.62C299.005 748.651 298.891 773.633 299.465 779.798C299.028 792.398 299.317 806.43 299.324 819.115L299.314 886.49L299.214 977.019C299.127 992.109 298.628 1007.4 298.736 1022.44C298.314 1022.88 297.469 1023.95 297.401 1024.52C295.569 1039.89 295.693 1055.86 293.991 1071.23C292.967 1066.99 292.708 1059.06 292.409 1054.39C291.865 1044.52 291.163 1034.65 290.303 1024.79C290.253 1024.54 290.102 1023.65 290.01 1023.45C288.087 1019.36 291.094 1018.2 287.983 1014.39C287.744 1008.93 287.817 1000.1 287.912 994.524L287.953 681.464L288.261 680.743C288.544 680.066 289.427 678.518 289.415 678.124C289.188 671.145 290.464 658.165 290.138 651.929Z"/><path fill="#986D36" d="M287.912 994.524C288.092 994.786 288.273 995.047 288.453 995.308C289.131 996.409 289.57 997.683 289.41 998.991C289.776 1007.66 290.17 1016.12 290.303 1024.79C290.253 1024.54 290.102 1023.65 290.01 1023.45C288.087 1019.36 291.094 1018.2 287.983 1014.39C287.744 1008.93 287.817 1000.1 287.912 994.524Z"/><path fill="#B07B33" d="M127.052 387.719L128.013 388.87C109.957 419.849 99.1518 446.46 91.1885 481.904C86.1577 504.296 84.8513 526.597 81.5719 549.216C74.1133 600.658 52.824 653.849 16.0646 691.612C11.6907 692.655 7.77107 693.393 3.36914 694.181C11.6664 684.243 20.1416 674.433 27.6394 663.881C49.8763 632.265 64.7998 596.096 71.3281 557.997C72.4028 551.843 75.329 533.873 75.503 527.784C76.7624 517.024 78.5112 506.327 80.7438 495.727C90.1853 455.049 100.387 421.094 127.052 387.719Z"/><path fill="#CB943A" d="M171.631 508.835C178.811 510.676 185.965 512.618 193.091 514.659C192.917 516.066 192.893 516.422 192.987 517.884C192.766 532.85 192.878 548.093 192.844 563.081C184.61 561.675 174 558.885 165.696 556.927C166.474 545.485 168.746 533.57 169.79 522.119C170.174 517.912 170.813 512.972 171.631 508.835Z"/><path fill="#875E28" d="M287.408 540.173C290.55 540.622 297.086 541.772 299.508 543.655C298.918 552.069 299.24 564.144 299.227 572.785L299.175 625.674C299.163 633.485 299.419 645.54 298.745 653.074C298.852 655.59 298.763 658.013 298.657 660.526C296.425 656.754 296.961 652.678 296.835 648.284C296.618 640.719 295.545 632.256 295.882 624.781C295.524 616.973 295.298 608.736 294.054 601.033C292.886 615.47 290.38 638.192 290.138 651.929C289.764 652.118 289.747 652.203 289.44 652.168C288.932 651.766 288.846 651.286 288.468 650.809L287.957 650.173C287.27 642.136 287.719 628.581 287.73 620.006L287.701 566.984C287.71 560.337 288.17 546.176 287.408 540.173Z"/><path fill="#B07B33" d="M295.882 624.781C296.851 627.938 297.978 645.584 297.925 645.499L298.037 645.415C298.293 643.39 297.854 637.364 298.264 635.928L298.321 635.903L298.244 636.155C298.38 636.422 298.527 651.148 298.745 653.074C298.852 655.59 298.763 658.013 298.657 660.526C296.425 656.754 296.961 652.678 296.835 648.284C296.618 640.719 295.545 632.256 295.882 624.781Z"/><path fill="#FEBB4E" d="M54.9779 523.9C60.9572 525.333 67.9903 527.218 73.8434 529.141C69.8063 559.797 67.2426 575.829 56.7878 605.119L54.9715 604.12C55.7248 586.291 54.5601 567.503 55.0631 549.547C55.2884 541.505 55.5112 531.875 54.9779 523.9Z"/><path fill="#875E28" d="M287.983 1014.39C291.094 1018.2 288.087 1019.36 290.01 1023.45C290.102 1023.65 290.253 1024.54 290.303 1024.79C291.163 1034.65 291.865 1044.52 292.409 1054.39C292.708 1059.06 292.967 1066.99 293.991 1071.23C295.693 1055.86 295.569 1039.89 297.401 1024.52C297.469 1023.95 298.314 1022.88 298.736 1022.44C299.472 1027.07 299.264 1035.78 299.284 1040.83L299.407 1072.85C299 1075.45 299.189 1086.43 299.383 1089.31C299.65 1092.63 299.361 1099.22 299.312 1102.78L287.445 1099.32C287.765 1071.1 287.431 1042.53 287.983 1014.39Z"/><path fill="#986D36" d="M287.957 650.173L288.468 650.809C288.846 651.286 288.932 651.766 289.44 652.168C289.747 652.203 289.764 652.118 290.138 651.929C290.464 658.165 289.188 671.145 289.415 678.124C289.427 678.518 288.544 680.066 288.261 680.743L287.953 681.464C287.825 671.36 287.864 660.293 287.957 650.173Z"/><path fill="#6B491E" d="M596.728 1014.43L596.879 1014.72L596.783 1072.14C596.797 1081.44 597.176 1092.89 596.678 1101.91L596.113 1101.74C597.133 1081.81 595.614 1058.49 596.269 1038.2C596.467 1032.08 595.848 1019.94 596.728 1014.43Z"/><path fill="#3A2611" d="M299.361 741.62C300.118 745.055 300.084 776.342 299.465 779.798C298.891 773.633 299.005 748.651 299.361 741.62Z"/><path fill="#B07B33" d="M389.151 302.756C391.164 302.663 392.466 303.108 394.501 303.35L394.889 304.423C388.316 304.011 381.118 304.711 374.747 304.635C376.923 302.983 385.565 305.031 389.151 302.756Z"/><path fill="#3A2611" d="M299.407 1072.85C300.831 1074.3 299.861 1087.01 299.383 1089.31C299.189 1086.43 299 1075.45 299.407 1072.85Z"/><path fill="#986D36" d="M402.143 305.981C400.909 307.666 398.446 307.476 396.412 307.533C394.237 306.337 392.749 307.163 389.099 306.079C393.447 305.999 397.795 305.967 402.143 305.981Z"/><path fill="#875E28" d="M127.052 387.719C129.598 384.062 131.42 381.517 134.467 378.197C132.612 381.389 130.017 385.788 128.013 388.87L127.052 387.719Z"/><path fill="#CB943A" d="M54.9715 604.12L56.7878 605.119C56.5376 605.664 55.9738 607.386 55.4583 607.612C54.9255 607.296 55.0002 604.779 54.9715 604.12Z"/><path fill="#FEBB4E" d="M520.085 302.12C575.475 296.739 628.033 288.77 682.527 306.379C687.927 308.124 701.737 313.089 706.71 315.735L707.746 315.276C699.467 309.573 692.229 305.586 683.437 300.821L684.297 299.777C744.069 326.11 776.489 362.503 800.822 423.265C808.46 442.338 813.247 463.623 816.392 483.885C815.965 484.42 815.571 484.873 815.123 485.388C815.757 488.477 816.712 491.822 817.164 494.873C817.335 495.454 817.967 498.351 818.528 498.406C818.727 497.923 818.203 494.219 818.092 493.545C817.742 491.979 817.463 490.399 817.255 488.809L818.557 488.4C819.329 487.594 840.429 481.857 841.752 482.063C842.224 480.185 842.017 473.207 842.004 470.891C847.399 469.563 891.784 458.905 893.034 457.464C893.25 450.804 892.974 443.791 893.242 437.39C893.161 438.55 892.957 438.266 893.402 439.002C893.553 447.251 893.683 450.394 894.524 458.554C892.569 460.237 850.125 470.106 843.611 472.271C842.944 483.292 843.396 498.275 843.396 509.561L843.208 569.042C843.208 575.78 842.662 611.429 843.768 614.669C852.429 640.047 876.513 676.848 896 694.773L896 696.59C879.658 693.049 864.13 689.599 848.357 684.026C846.565 683.392 844.504 682.536 842.732 682.017C843.928 692.884 843.623 703.396 843.631 714.314L843.643 758.6L843.756 901.61C843.73 934.188 844.128 966.763 843.869 999.318C843.83 1004.17 843.731 1025.41 842.693 1029.2L842.062 1029.64L842.09 1030.56C837.18 1033.08 826.89 1035.06 821.086 1036.92C801.192 1043.28 781.845 1049.18 761.293 1053.12C748.674 1055.54 736.429 1061.92 724.406 1065.74L607.612 1102.44C599.971 1104.83 595.392 1105.35 587.751 1106.53C584.103 1107.09 575.066 1109.83 571.324 1111.02C572.191 1109.42 572.971 1109.1 573.851 1107.53C577.191 1106.37 583.631 1104.81 587.247 1103.82C588.843 1104.12 594.936 1105.81 596.159 1104.41C596.25 1103.97 596.002 1103.71 595.777 1103.35C595.881 1103.11 597.054 1103.07 598.339 1102.17L596.678 1101.91C597.176 1092.89 596.797 1081.44 596.783 1072.14L596.879 1014.72L596.728 1014.43C597.108 1001.87 596.514 988.258 596.328 975.661C596.171 958.879 596.108 942.096 596.137 925.312C595.688 842.107 595.924 758.9 596.845 675.698C596.206 649.681 596.009 623.654 596.254 597.629C596.42 581.134 597.182 559.423 596.335 543.242C598.173 542.32 605.682 540.558 608.077 539.942L609.063 539.389C615.682 538.267 630.265 533.912 637.321 532.032L688.428 518.496L689.144 518.063C691.422 517.851 697.582 515.583 700.825 514.935L702.327 514.818C705.237 513.051 720.96 509.578 725.299 508.555L726.79 507.707C723.347 483.007 717.475 451.357 707.605 428.551C683.856 373.673 633.424 342.118 578.384 324.173C568.312 320.889 557.528 317.459 547.16 315.252C537.967 313.238 528.715 311.5 519.418 310.04C514.363 309.291 497.517 307.835 493.897 306.196C494.148 305.138 494.059 305.514 494.869 304.588C498.349 303.685 498.699 303.655 502.363 303.325C506.71 302.955 516.024 301.969 520.085 302.12Z"/><path fill="#CB943A" d="M688.428 518.496C689.284 586.18 688.5 655.34 688.539 723.157L688.471 1073.96C671.409 1079.42 654.304 1084.74 637.158 1089.93C628.08 1092.69 618.065 1095.41 609.163 1098.39L609.247 729.106L609.193 602.887C609.181 583.556 609.996 557.855 609.063 539.389C615.682 538.267 630.265 533.912 637.321 532.032L688.428 518.496Z"/><path fill="#FEBB4E" d="M520.085 302.12C575.475 296.739 628.033 288.77 682.527 306.379C687.927 308.124 701.737 313.089 706.71 315.735L707.746 315.276C699.467 309.573 692.229 305.586 683.437 300.821L684.297 299.777C744.069 326.11 776.489 362.503 800.822 423.265C808.46 442.338 813.247 463.623 816.392 483.885C815.965 484.42 815.571 484.873 815.123 485.388C806.076 444.824 792.888 414.267 766.477 381.571C759.929 373.464 751.981 367.195 746.616 360.731L746.226 360.255C746.353 361.248 746.846 362.268 747.498 363.051C769.022 388.949 784.154 419.734 795.127 451.344C805.464 481.119 808.241 510.908 812.113 541.728C819.386 599.609 838.82 646.776 876.471 690.6C868.596 688.194 860.121 686.345 852.255 683.805C837.403 679.011 822.569 673.874 807.831 668.737C801.881 684.914 801.553 695.241 804.865 711.619C749.625 664.084 748.699 598.274 740.904 531.065C734.675 479.072 724.959 420.829 688.56 380.467C647.643 335.094 581.502 308.952 521.508 304.95C520.429 303.575 520.371 303.737 520.085 302.12Z"/><path fill="#B07B33" d="M707.746 315.276C708.757 315.748 713.073 318.033 713.348 319.028C712.719 319.569 707.439 316.311 706.71 315.735L707.746 315.276Z"/><path fill="#140B04" d="M502.363 303.325C506.71 302.955 516.024 301.969 520.085 302.12C520.371 303.737 520.429 303.575 521.508 304.95C581.502 308.952 647.643 335.094 688.56 380.467C724.959 420.829 734.675 479.072 740.904 531.065C748.699 598.274 749.625 664.084 804.865 711.619C801.553 695.241 801.881 684.914 807.831 668.737C822.569 673.874 837.403 679.011 852.255 683.805C860.121 686.345 868.596 688.194 876.471 690.6C838.82 646.776 819.386 599.609 812.113 541.728C808.241 510.908 805.464 481.119 795.127 451.344C784.154 419.734 769.022 388.949 747.498 363.051C746.846 362.268 746.353 361.248 746.226 360.255L746.616 360.731C751.981 367.195 759.929 373.464 766.477 381.571C792.888 414.267 806.076 444.824 815.123 485.388C815.757 488.477 816.712 491.822 817.164 494.873C817.335 495.454 817.967 498.351 818.528 498.406C818.727 497.923 818.203 494.219 818.092 493.545C817.742 491.979 817.463 490.399 817.255 488.809L818.557 488.4C819.329 487.594 840.429 481.857 841.752 482.063C842.224 480.185 842.017 473.207 842.004 470.891C847.399 469.563 891.784 458.905 893.034 457.464C893.25 450.804 892.974 443.791 893.242 437.39C893.161 438.55 892.957 438.266 893.402 439.002C893.553 447.251 893.683 450.394 894.524 458.554C892.569 460.237 850.125 470.106 843.611 472.271C842.944 483.292 843.396 498.275 843.396 509.561L843.208 569.042C843.208 575.78 842.662 611.429 843.768 614.669C852.429 640.047 876.513 676.848 896 694.773L896 696.59C879.658 693.049 864.13 689.599 848.357 684.026C846.565 683.392 844.504 682.536 842.732 682.017C843.928 692.884 843.623 703.396 843.631 714.314L843.643 758.6L843.756 901.61C843.73 934.188 844.128 966.763 843.869 999.318C843.83 1004.17 843.731 1025.41 842.693 1029.2C842.163 1012.56 842.819 995.204 842.595 978.47L840.899 868.785C840.768 851.147 841.393 831.686 840.708 814.25L841.961 682.286C830.886 678.581 819.84 674.787 808.825 670.905C801.188 695.165 803.912 708.808 815.229 731.536C818.323 737.751 821.89 742.66 826.084 748.198C795.704 732.117 767.394 700.912 753.864 669.445C739.681 636.461 732.72 593.882 730.961 557.864C721.594 560.487 711.832 563.375 702.417 565.685L702.506 1069.28C727.045 1061.99 751.606 1054.34 776.019 1046.63C799.406 1039.24 817.824 1033.83 842.062 1029.64L842.09 1030.56C837.18 1033.08 826.89 1035.06 821.086 1036.92C801.192 1043.28 781.845 1049.18 761.293 1053.12C748.674 1055.54 736.429 1061.92 724.406 1065.74L607.612 1102.44C599.971 1104.83 595.392 1105.35 587.751 1106.53C584.103 1107.09 575.066 1109.83 571.324 1111.02C572.191 1109.42 572.971 1109.1 573.851 1107.53C577.191 1106.37 583.631 1104.81 587.247 1103.82C588.843 1104.12 594.936 1105.81 596.159 1104.41C596.25 1103.97 596.002 1103.71 595.777 1103.35C595.881 1103.11 597.054 1103.07 598.339 1102.17L596.678 1101.91C597.176 1092.89 596.797 1081.44 596.783 1072.14L596.879 1014.72L596.728 1014.43C597.108 1001.87 596.514 988.258 596.328 975.661C596.171 958.879 596.108 942.096 596.137 925.312C595.688 842.107 595.924 758.9 596.845 675.698C596.206 649.681 596.009 623.654 596.254 597.629C596.42 581.134 597.182 559.423 596.335 543.242C598.173 542.32 605.682 540.558 608.077 539.942L609.063 539.389C609.996 557.855 609.181 583.556 609.193 602.887L609.247 729.106L609.163 1098.39C618.065 1095.41 628.08 1092.69 637.158 1089.93C654.304 1084.74 671.409 1079.42 688.471 1073.96L688.539 723.157C688.5 655.34 689.284 586.18 688.428 518.496L689.144 518.063C691.422 517.851 697.582 515.583 700.825 514.935L702.327 514.818C705.237 513.051 720.96 509.578 725.299 508.555L726.79 507.707C723.347 483.007 717.475 451.357 707.605 428.551C683.856 373.673 633.424 342.118 578.384 324.173C568.312 320.889 557.528 317.459 547.16 315.252C537.967 313.238 528.715 311.5 519.418 310.04C514.363 309.291 497.517 307.835 493.897 306.196C494.148 305.138 494.059 305.514 494.869 304.588C498.349 303.685 498.699 303.655 502.363 303.325Z"/><path fill="#CB943A" d="M608.077 539.942L608.008 647.543C607.94 654.756 607.428 661.833 607.363 669.122C608.141 736.377 608.364 803.637 608.032 870.896C608.036 917.575 609.412 973.361 605.929 1019.1L606.372 1017.75L606.933 1017.87C608.252 1024.86 608.19 1047.66 608.069 1056.02C607.882 1068.95 608.761 1086.25 608.053 1098.87C604.834 1099.91 601.478 1100.94 598.339 1102.17L596.678 1101.91C597.176 1092.89 596.797 1081.44 596.783 1072.14L596.879 1014.72L596.728 1014.43C597.108 1001.87 596.514 988.258 596.328 975.661C596.171 958.879 596.108 942.096 596.137 925.312C595.688 842.107 595.924 758.9 596.845 675.698C596.206 649.681 596.009 623.654 596.254 597.629C596.42 581.134 597.182 559.423 596.335 543.242C598.173 542.32 605.682 540.558 608.077 539.942Z"/><path fill="#875E28" d="M608.077 539.942L608.008 647.543C607.94 654.756 607.428 661.833 607.363 669.122C604.119 649.839 604.835 622.273 601.956 602.004C600.977 607.905 600.808 615.281 600.423 621.349C599.662 632.24 599.01 643.138 598.467 654.042C598.217 659.394 597.764 670.941 596.845 675.698C596.206 649.681 596.009 623.654 596.254 597.629C596.42 581.134 597.182 559.423 596.335 543.242C598.173 542.32 605.682 540.558 608.077 539.942Z"/><path fill="#875E28" d="M596.879 1014.72C599.482 1018.61 600.381 1062.82 601.701 1072.63C602.854 1066.57 602.654 1060.19 603.261 1054.12C604.374 1042.97 604.668 1030.06 605.929 1019.1L606.372 1017.75L606.933 1017.87C608.252 1024.86 608.19 1047.66 608.069 1056.02C607.882 1068.95 608.761 1086.25 608.053 1098.87C604.834 1099.91 601.478 1100.94 598.339 1102.17L596.678 1101.91C597.176 1092.89 596.797 1081.44 596.783 1072.14L596.879 1014.72Z"/><path fill="#875E28" d="M689.144 518.063C691.422 517.851 697.582 515.583 700.825 514.935L700.872 1071.07C696.908 1072 693.303 1072.86 689.377 1073.99C689.9 1069.32 689.869 1065.01 689.89 1060.33C689.962 1044.28 689.443 1028.28 689.393 1012.23L689.292 881.347L689.453 609.2L689.49 547.624C689.51 542.881 689.873 521.711 689.144 518.063Z"/><path fill="#B07B33" d="M493.897 306.196C554.323 302.094 625.04 326.433 671.169 365.847C729.093 415.339 734.541 491.672 742.566 562.32C747.621 606.821 753.336 652.076 781.274 689.175C786.859 696.592 798.089 709.386 805.762 714.412C809.386 723.366 813.863 733.982 819.268 742.076C778.885 717.289 754.322 677.926 743.391 632.344C734.396 594.835 733.6 557.643 728.429 519.644C727.925 515.933 727.58 511.297 726.79 507.707C723.347 483.007 717.475 451.357 707.605 428.551C683.856 373.673 633.424 342.118 578.384 324.173C568.312 320.889 557.528 317.459 547.16 315.252C537.967 313.238 528.715 311.5 519.418 310.04C514.363 309.291 497.517 307.835 493.897 306.196Z"/><path fill="#CB943A" d="M725.299 508.555C727.391 524.483 729.206 540.447 730.743 556.438C721.855 558.186 711.068 561.668 702.131 564.1C702.749 549.934 703.301 528.831 702.327 514.818C705.237 513.051 720.96 509.578 725.299 508.555Z"/><path fill="#CB943A" d="M818.557 488.4C819.329 487.594 840.429 481.857 841.752 482.063C841.607 495.508 841.559 508.953 841.61 522.399C834.97 523.832 829.209 525.172 822.682 527.089C821.57 513.587 820.69 501.784 818.557 488.4Z"/><path fill="#CB943A" d="M502.363 303.325C506.71 302.955 516.024 301.969 520.085 302.12C520.371 303.737 520.429 303.575 521.508 304.95L514.391 304.777C512.223 304.384 502.702 304.638 502.363 303.325Z"/><path fill="#875E28" d="M494.869 304.588C498.349 303.685 498.699 303.655 502.363 303.325C502.702 304.638 512.223 304.384 514.391 304.777C509.633 304.977 499.343 305.179 494.869 304.588Z"/><path fill="#B07B33" d="M764.722 382.369C769.504 386.169 778.295 400.332 781.907 405.908C801.79 436.606 814.2 478.903 819.632 515.064C823.431 540.352 823.48 559.9 831.489 585.821C845.934 632.574 861.67 658.613 893.57 694.729C888.709 693.949 884.277 692.547 879.631 691.013C838.523 644.838 823.466 602.967 813.884 541.778C811.591 527.132 810.909 511.523 808.389 496.894C806.677 486.949 803.776 474.89 801.121 465.081C795.036 443.391 786.664 422.408 776.145 402.487C772.583 395.654 768.208 389.478 764.722 382.369Z"/><path fill="#FEBB4E" d="M822.967 528.614C829.115 527.011 835.4 525.522 841.577 523.998C841.693 548.311 842.063 574.394 841.402 598.687C841.466 599.881 841.907 606.346 841.112 607.017L841.109 606.846L840.965 606.924C840.292 606.041 840.073 605.3 839.886 604.218C831.089 587.585 824.906 547.234 822.967 528.614Z"/><path fill="#F9BC68" d="M839.886 604.218C840.768 602.411 840.676 600.775 841.402 598.687C841.466 599.881 841.907 606.346 841.112 607.017L841.109 606.846L840.965 606.924C840.292 606.041 840.073 605.3 839.886 604.218Z"/><path d="M842.062 1029.64C841.426 1027.26 840.816 1019.51 840.561 1016.88C839.136 1002.2 839.164 987.728 839.169 973.011C839.146 950.461 839.261 927.911 839.515 905.363C839.782 876.513 839.134 842.74 840.708 814.25C841.393 831.686 840.768 851.147 840.899 868.785L842.595 978.47C842.819 995.204 842.163 1012.56 842.693 1029.2L842.062 1029.64Z"/><path fill="#FEBB4E" d="M666.238 0L685.396 0C687.536 2.62344 689.146 2.72979 692.397 3.73492C716.06 11.0502 725.751 36.6429 733.162 57.7828C731.536 59.4285 731.746 58.7636 731.29 60.7527C739.955 86.528 748.076 83.7701 766.656 98.8647C784.514 113.372 794.796 147.176 794.361 170.361C790.31 164.67 788.331 162.432 782.949 157.884C779.192 148.507 770.452 145.471 762.112 141.191L762.2 140.845C763.416 141.553 764.184 141.39 765.616 141.385L766.205 141.379C753.496 136.097 731.59 139.975 719.475 145.335C676.427 164.379 639.552 201.294 603.783 230.896L602.066 230.041C565.34 259.975 540.206 273.579 493.753 285.586L493.707 277.834C525.794 264.103 555.354 231.937 580.458 207.479L580.587 206.698L579.658 206.47C576.975 207.992 559.791 223.151 556.269 226.079C535.739 243.147 518.529 255.85 494.034 266.2C493.906 262.769 493.611 259.537 493.304 256.118C516.587 236.307 521.975 226.522 538.107 200.952C548.297 184.704 558.737 168.616 569.424 152.691L568.771 151.709C557.342 166.639 505.535 236.572 492.836 241.129L491.564 240.953L491.123 240.088C491.725 238.535 498.084 230.37 499.812 227.916L498.687 227.065C494.756 231.172 490.606 234.855 486.315 238.571C488.443 230.436 496.38 216.593 500.652 208.724L499.014 208.554C504.651 199.078 511.692 190.459 516.017 180.364C517.312 177.342 518.589 174.31 519.88 171.287C523.16 163.557 526.644 155.916 530.328 148.37C547.279 113.733 569.714 78.9027 595.065 49.8648C608.531 34.4405 624.382 21.6697 641.975 11.21C648.826 7.13695 658.031 4.91921 665.285 1.63664C665.658 0.995767 665.975 0.450222 666.238 0Z"/><path fill="#140B04" d="M666.238 0L685.396 0C687.536 2.62344 689.146 2.72979 692.397 3.73492C716.06 11.0502 725.751 36.6429 733.162 57.7828C731.536 59.4285 731.746 58.7636 731.29 60.7527C724.368 50.9492 705.261 41.899 693.702 40.1374C638.021 31.6515 588.966 82.0677 560.079 123.652C540.466 151.887 518.393 179.269 500.652 208.724L499.014 208.554C504.651 199.078 511.692 190.459 516.017 180.364C517.312 177.342 518.589 174.31 519.88 171.287C523.16 163.557 526.644 155.916 530.328 148.37C547.279 113.733 569.714 78.9027 595.065 49.8648C608.531 34.4405 624.382 21.6697 641.975 11.21C648.826 7.13695 658.031 4.91921 665.285 1.63664C665.658 0.995767 665.975 0.450222 666.238 0Z"/><path fill="#CB943A" d="M675.963 2.47809C709.647 2.93586 722.32 29.3775 730.943 57.3332C689.919 20.3301 642.983 38.8598 606.239 69.6811C582.166 89.8735 569.818 106.041 552.261 131.906C541.757 147.053 530.008 162.475 518.973 177.325C542.463 117.774 606.076 9.2344 675.963 2.47809Z"/><path d="M641.08 22.7369C670.92 7.56533 703.867 11.3205 717.883 44.9456C699.108 32.8239 678.916 29.7871 657.109 34.4951C656.112 34.7116 655.118 34.943 654.128 35.1891L653.715 33.6595C663.66 29.2741 671.679 27.1921 682.182 24.6979C667.862 21.2831 656.998 21.4326 642.59 23.8725L641.08 22.7369Z"/><path fill="#140B04" d="M653.715 33.6595L654.128 35.1891C649.234 37.5957 649.212 36.2021 653.715 33.6595Z"/><path fill="#140B04" d="M642.59 23.8725C642.07 23.9832 638.975 24.9706 638.738 24.3927C638.899 23.9843 639.283 23.7553 639.664 23.5403L641.08 22.7369L642.59 23.8725Z"/><path fill="#140B04" d="M704.646 85.9337C729.939 87.0515 747.807 92.8616 765.47 112.24C779.148 127.246 781.023 135.923 786.769 154.221C780.57 147.572 775.038 143.875 766.205 141.379C753.496 136.097 731.59 139.975 719.475 145.335C676.427 164.379 639.552 201.294 603.783 230.896L602.066 230.041C634.121 202.879 665.219 173.148 701.89 152.041C716.024 143.906 729.45 139.003 745.782 137.499C743.486 109.684 734.904 91.6195 704.684 87.2777L704.646 85.9337Z"/><path fill="#B07B33" d="M572.152 147.047C573.097 145.529 578.533 137.943 579.771 137.435L579.62 137.315C579.918 137.149 579.771 137.189 580.05 137.161C580.428 137.542 577.16 141.996 576.842 142.396C575.378 144.241 574.134 146.195 572.674 148.01L572.152 147.047Z"/><path fill="#CB943A" d="M586.695 200.365C588.086 198.78 589.512 197.223 591.275 196.07C591.784 195.737 593.743 193.509 594.237 193.738C595.783 194.454 591.273 197.621 590.984 197.837C589.6 198.872 588.513 200.131 587.196 201.235L586.695 200.365Z"/><path fill="#6B491E" d="M704.684 87.2777C703.714 87.2585 696.644 86.7229 696.194 86.1598C696.208 86.0872 696.221 86.0146 696.235 85.9419C697.102 85.4211 703.553 85.7022 704.646 85.9337L704.684 87.2777Z"/><path fill="#6B491E" d="M582.644 203.769C583.566 202.72 585.467 201.03 586.695 200.365L587.196 201.235C584.847 203.172 582.825 205.454 580.458 207.479L580.587 206.698C581.688 205.478 581.815 205.213 582.644 203.769Z"/><path fill="#3A2611" d="M572.152 147.047L572.674 148.01C571.567 149.526 570.543 151.272 569.424 152.691L568.771 151.709C569.871 150.063 571.045 148.673 572.152 147.047Z"/><path fill="#140B04" d="M498.687 227.065C499.084 226.666 501.511 223.896 502.061 224.336C502.279 224.948 500.175 227.459 499.812 227.916L498.687 227.065Z"/><path fill="#140B04" d="M582.644 203.769C581.815 205.213 581.688 205.478 580.587 206.698L579.658 206.47C580.82 205.191 581.269 204.84 582.644 203.769Z"/><path fill="#FEBB4E" d="M162.977 66.1218C173.388 37.2123 222.369 34.7936 246.766 44.9724C292.15 63.9066 322.562 102.181 349.172 141.903C369.138 170.706 392.291 196.915 406.746 229.388C408.117 232.525 409.359 235.717 410.47 238.956C405.112 232.993 398.5 227.839 392.591 222.353C395.136 225.911 404.654 238.044 404.683 241.477C397.289 241.974 370.411 207.069 365.101 200.273C357.969 191.276 350.93 182.207 343.983 173.066C341.27 169.432 330.683 154.577 328.376 152.144L327.774 153.205L359.629 203.524C375.838 229.177 379.759 236.366 402.804 255.752L403.049 266.901C395.644 263.559 387.047 259.771 380.127 255.619C356.729 241.584 333.544 222.058 313.464 203.491L312.39 204.159C340.58 232.069 365.888 259.875 401.243 278.421C402.781 279.227 403.394 283.156 402.151 285.068C400.137 285.603 384.492 281.041 381.484 280.046C356.222 271.694 337.432 261.932 315.986 246.992C270.94 215.613 207.205 141.973 150.85 137.492C151.178 134.239 151.267 130.994 151.606 127.748C154.081 104.031 169.735 88.9541 193.537 87.0322C193.677 86.8322 193.87 86.6276 193.851 86.4599C193.189 85.9464 186.553 86.078 184.987 86.0052C145.275 88.9873 119.758 116.222 110.083 153.277C115.558 146.74 120.788 144.506 128.652 141.185C129.847 141.481 130.473 141.732 131.617 142.186C125.501 144.954 115.429 152.045 112.605 157.972C108.303 162.201 105.23 165.16 101.754 170.137C101.429 144.812 113.151 108.704 135.392 95.0739C138.927 92.9075 142.426 90.6438 145.753 88.1666C146.488 87.7127 147.216 87.2489 147.939 86.7752C150.707 84.3802 153.48 82.4177 155.69 79.3885C157.081 77.8731 158.158 76.4789 159.061 74.6224C159.481 74.452 159.779 74.0713 159.844 73.6225C160.984 71.6679 162.598 68.3171 162.977 66.1218Z"/><path fill="#986D36" d="M326.736 152.186C325.505 150.127 316.4 137.651 316.38 137.078L316.478 136.961L316.388 137.038C319.46 139.54 324.753 146.727 327.097 150.185L326.736 152.186Z"/><path fill="#6B491E" d="M184.987 86.0052C187.914 85.4491 197.711 85.1159 201.053 85.9318C201.161 85.9582 201.154 86.0811 201.165 86.1554C200.808 86.7721 194.505 87.0764 193.537 87.0322C193.677 86.8322 193.87 86.6276 193.851 86.4599C193.189 85.9464 186.553 86.078 184.987 86.0052Z"/><path fill="#3A2611" d="M307.826 198.464C309.661 200.313 311.573 201.647 313.464 203.491L312.39 204.159C310.765 202.662 308.422 200.39 306.893 198.802L307.826 198.464Z"/><path fill="#CB943A" d="M299.958 191.923C302.436 193.558 305.754 196.326 307.826 198.464L306.893 198.802C304.545 197.255 301.941 194.093 299.958 191.923Z"/><path fill="#140B04" d="M326.736 152.186L327.097 150.185L328.376 152.144L327.774 153.205C327.431 152.863 327.085 152.523 326.736 152.186Z"/><path fill="#FEBB4E" d="M653.054 286.326C669.619 281.875 689.152 277.218 705.975 273.708C709.528 272.966 731.144 278.818 736.74 280.162C759.532 285.702 782.355 291.113 805.208 296.396C823.37 300.538 841.571 304.506 859.809 308.301C867.803 309.991 882.586 312.618 889.913 315.108C867.921 318.137 843.127 323.437 821.434 328.23C804.434 331.884 787.479 335.749 770.575 339.826L770.53 341.1C773.201 340.197 779.391 339.145 782.342 338.556L806.064 333.763C834.995 327.572 863.958 321.529 892.951 315.634C893.603 325.447 892.743 339.316 892.65 349.65C892.181 376.452 892.079 403.26 892.343 430.065C892.449 435.978 892.393 452.25 893.034 457.464C891.784 458.905 847.399 469.563 842.004 470.891C833.726 472.858 825.708 475.279 817.311 476.875C810.188 440.752 800.361 409.556 780.384 378.322C771.951 365.137 765.92 356.174 754.885 345.189L753.333 343.731C728.533 316.004 687.993 297.142 653.054 286.326ZM878.412 454.063C879.691 451.79 884.44 443.578 884.684 441.735C885.945 432.193 887.221 407.123 886.518 398.269C885.304 390.771 887.67 362.53 885.444 358.436C883.819 377.791 882.315 397.156 880.933 416.53C880.069 428.073 878.582 442.757 878.412 454.063Z"/><path fill="#6B491E" d="M756.083 342.946C761.234 342.311 765.514 340.809 770.575 339.826L770.53 341.1C766.453 342.058 761.04 343.235 756.892 343.629L756.083 342.946Z"/><path d="M885.444 358.436C887.67 362.53 885.304 390.771 886.518 398.269C887.221 407.123 885.945 432.193 884.684 441.735C884.44 443.578 879.691 451.79 878.412 454.063C878.582 442.757 880.069 428.073 880.933 416.53C882.315 397.156 883.819 377.791 885.444 358.436Z"/><path d="M861.152 328.241L861.439 329.455L818.941 341.87C810.184 344.477 800.583 347.839 791.696 349.611C787.961 350.355 781.714 349.463 777.404 350.093C776.698 350.204 772.609 350.91 772.24 349.904C772.723 349.271 772.96 349.436 773.843 349.412C782.196 346.63 792.018 344.304 800.667 342.074C820.673 336.807 840.845 332.194 861.152 328.241Z"/><path fill="#986D36" d="M777.404 350.093C776.698 350.204 772.609 350.91 772.24 349.904C772.723 349.271 772.96 349.436 773.843 349.412L777.404 350.093Z"/><path fill="#140B04" d="M886.053 347.13C886.342 346.967 886.413 346.847 886.66 346.889C887 347.411 887.034 349.661 887.13 350.454C886.927 360.599 886.851 370.747 886.903 380.894C886.9 384.894 887.073 394.453 886.518 398.269C885.304 390.771 887.67 362.53 885.444 358.436C885.298 356.268 885.891 349.612 886.053 347.13Z"/><path fill="#875E28" d="M887.146 333.073C887.721 338.439 887.778 345.089 887.13 350.454C887.034 349.661 887 347.411 886.66 346.889C886.413 346.847 886.342 346.967 886.053 347.13C886.434 341.774 886.495 338.459 887.146 333.073Z"/><path fill="#3A2611" d="M869.997 326.054L870.307 327.03C867.345 327.54 864.528 328.782 861.439 329.455L861.152 328.241C862.592 327.581 867.925 326.581 869.997 326.054Z"/><path fill="#B07B33" d="M869.997 326.054C871.271 325.364 876.065 324.022 877.519 324.258C879.263 324.542 870.101 327.107 870.307 327.03L869.997 326.054Z"/><path fill="#B07B33" d="M134.565 139.71C149.911 136.342 170.284 141.865 184.298 148.743C249.067 180.53 291.831 245.029 358.573 273.045C365.885 276.159 373.314 278.99 380.845 281.53C385.705 283.201 398.641 285.833 401.826 288.348C397.467 290.458 368.307 280.884 362.495 278.119L362.113 279.114C362.64 279.296 367.411 281.482 367.518 281.566C372.259 285.258 400.615 293.156 402.759 296.789C401.397 297.409 397.146 296.389 395.554 296.049C338.749 283.827 294.752 244.258 252.333 207.077C215.066 174.412 164.951 132.189 112.605 157.972C115.429 152.045 125.501 144.954 131.617 142.186C133.288 141.895 137.041 141.572 134.565 139.71Z"/><path fill="#6B491E" d="M362.113 279.114C361.549 278.853 355.829 276.572 356.504 275.774C357.535 275.653 361.442 277.291 362.495 278.119L362.113 279.114Z"/><path fill="#B07B33" d="M603.783 230.896C639.552 201.294 676.427 164.379 719.475 145.335C731.59 139.975 753.496 136.097 766.205 141.379L765.616 141.385C764.184 141.39 763.416 141.553 762.2 140.845L762.112 141.191C770.452 145.471 779.192 148.507 782.949 157.884C766.885 148.294 747.576 148.424 729.882 152.576C700.971 159.331 677.023 178.324 654.838 197.151C613.173 232.508 573.462 273.642 519.715 290.026C515.281 291.378 497.512 297.686 494.117 297.336L493.7 296.015C495.098 293.628 516.365 287.459 521.159 285.497C525.613 283.686 529.929 281.552 534.072 279.112L533.076 278.28C527.35 281.462 498.17 290.093 493.327 288.258C495.556 286.768 514.393 281.602 519.024 280.029C552.964 268.502 576.018 253.501 603.783 230.896Z"/><path fill="#3A2611" d="M533.076 278.28C534.028 277.822 537.753 275.866 538.569 276.431C538.656 277.16 534.695 278.831 534.072 279.112L533.076 278.28Z"/><path fill="#CB943A" d="M55.2006 482.259L66.6398 485.015C71.0633 486.095 73.3219 486.797 77.521 488.185C76.3689 496.223 75.9108 505.681 75.2773 513.843C74.9502 518.058 74.3105 522.489 74.2062 526.698C71.2934 526.333 58.2667 522.915 55.3932 521.879C54.6012 512.985 55.1363 491.878 55.2006 482.259Z"/><path fill="#B07B33" d="M586.523 282.543C600.664 280.618 607.451 280.394 621.636 282.472C644.047 285.756 659.787 288.81 679.808 300.168C680.015 300.328 679.873 300.234 680.287 300.453C684.107 302.725 688.867 305.186 692.819 307.361C655.155 296.749 630.528 293.304 591.177 290.663C594.158 288.551 613.288 289.809 618.448 289.595L638.507 290.398C641.246 289.846 641.694 291.064 644.025 289.402C626.964 285.448 611.437 284.169 594.051 283.993C593.082 283.841 586.538 283.466 586.253 283.075C586.3 282.854 586.246 283.009 586.523 282.543Z"/><path fill="#140B04" d="M644.025 289.402C646.556 289.806 650.372 290.866 652.936 291.511C651.096 291.45 639.637 290.88 638.507 290.398C641.246 289.846 641.694 291.064 644.025 289.402Z"/><path fill="#493A2E" d="M580.349 289.646C587.701 289.208 611.631 288.326 618.448 289.595C613.288 289.809 594.158 288.551 591.177 290.663C589.06 290.844 582.461 290.109 580.349 289.646Z"/><path fill="#CB943A" d="M128.652 141.185C130.901 140.616 132.157 140.183 134.565 139.71C137.041 141.572 133.288 141.895 131.617 142.186C130.473 141.732 129.847 141.481 128.652 141.185Z"/><path fill="#493A2E" d="M594.051 283.993C592.838 284.064 583.219 284.349 582.832 283.642L582.86 283.579C582.878 283.498 582.896 283.417 582.914 283.336C583.99 282.563 585.239 282.488 586.523 282.543C586.246 283.009 586.3 282.854 586.253 283.075C586.538 283.466 593.082 283.841 594.051 283.993Z"/><path fill="#986D36" d="M79.0267 496.165C78.3324 495.166 79.4238 487.304 79.7418 485.747L80.2534 490.514C79.889 493.117 79.7081 493.707 79.0267 496.165Z"/><path fill="#867563" d="M215.131 298.385C215.799 298.018 219.991 295.897 220.302 296.726C220.19 297.515 216.299 298.998 215.486 299.368L215.131 298.385Z"/><path fill="#CB943A" d="M680.5 298.99C679.662 298.69 678.905 298.37 678.138 297.931C678.328 297.077 683.441 299.46 684.297 299.777L683.437 300.821C682.851 300.527 682.338 300.261 681.757 299.946C681.345 299.619 680.925 299.3 680.5 298.99Z"/><path fill="#CB943A" d="M215.131 298.385L215.486 299.368C214.081 300.053 212.841 300.671 211.489 301.462L210.483 300.402C212.14 299.624 213.503 299.108 215.131 298.385Z"/><path fill="#493A2E" d="M394.501 303.35C396.214 303.663 397.142 303.8 398.828 304.282C397.01 304.662 396.817 304.555 394.889 304.423L394.501 303.35Z"/><path fill="#6B491E" d="M680.5 298.99C680.925 299.3 681.345 299.619 681.757 299.946L680.287 300.453C679.873 300.234 680.015 300.328 679.808 300.168L680.5 298.99Z"/><path fill="#140B04" d="M420.14 320.583L423.101 320.18C427.13 320.148 436.33 319.765 439.874 320.44C440.205 321.08 440.424 321.63 440.864 322.174C450.194 319.329 458.2 322.249 467.505 325.527L468.892 323.698C476.107 318.617 487.731 320.796 495.924 321.988C532.901 327.368 570.03 334.696 605.433 346.826C615.845 350.423 635.804 358.422 644.615 364.867C645.402 365.854 644.91 365.534 646.15 365.843C660.891 376.884 673.644 390.356 683.86 405.682C685.992 408.899 689.008 413.001 688.929 416.883C689.364 417.02 690.046 417.153 690.306 417.416C694.019 423.346 701.162 433.167 701.09 439.937C701.696 440.222 701.934 440.397 702.577 440.533C707.604 444.386 717.87 470.887 719.837 478.136C721.279 483.448 723.361 494.309 724.109 499.862C724.157 500.214 724.201 500.567 724.243 500.921C718.178 502.717 708.853 505.588 702.674 506.702L701.883 505.08L701.256 504.899C697.54 506.412 693.738 507.718 689.738 508.257L688.72 508.118C685.017 509.575 680.324 510.611 676.425 511.566C658.915 515.858 641.661 521.139 624.177 525.502C619.834 526.586 613.494 528.522 609.17 528.937L608.712 528.94C606.42 530.466 599.503 532.056 596.702 532.573L595.631 533.013C563.589 541.677 531.694 550.879 499.961 560.617C484.677 565.242 469.478 570.295 454.132 574.719C452.281 575.252 450.61 575.985 448.912 575.242L447.615 575.746L446.636 576.261L443.37 575.245C395.925 560.407 348.237 546.361 300.326 533.111L299.07 532.693C295.305 531.821 291.056 530.511 287.296 529.449L286.378 529.502C260.916 521.517 231.6 516.004 206.273 508.161L205.318 508.401L194.171 505.638C194.357 491.23 194.133 476.818 194.282 462.367C194.359 454.856 193.697 442.196 195.206 435.238C195.825 432.382 202.369 421.942 204.158 419.024L204.758 419.079L206.469 420.533C206.439 419.858 206.318 416.552 206.508 416.152C214.608 399.072 234.099 376.59 249.145 366.467L250.934 365.433C251.17 365.224 251.406 365.015 251.641 364.806C286.69 342.377 334.987 334 375.109 325.845C385.202 323.794 411.883 319.705 420.14 320.583Z"/><path fill="#FEBB4E" d="M591.172 381.566C593.263 381.057 593.744 380.548 595.46 381.243C596.244 384.002 595.87 418.687 595.837 424.887C595.647 460.866 596.093 497.054 595.631 533.013C563.589 541.677 531.694 550.879 499.961 560.617C484.677 565.242 469.478 570.295 454.132 574.719C452.281 575.252 450.61 575.985 448.912 575.242L447.615 575.746C448.221 563.289 447.608 545.239 447.563 532.411C447.456 507.348 447.5 482.285 447.696 457.223C447.727 447.112 447.295 429.322 448.179 419.685L449.198 419.663C451.692 418.641 462.512 416.396 465.636 415.674C474.77 413.592 483.858 411.313 492.894 408.838C513.375 403.34 533.806 397.658 554.186 391.792C566.12 388.408 579.188 384.433 591.172 381.566Z"/><path fill="#140B04" d="M448.179 419.685L449.198 419.663C450.106 452.643 449.455 488.657 449.532 521.834C449.607 534.205 449.579 546.576 449.447 558.946C449.408 562.273 449.411 572.433 448.912 575.242L447.615 575.746C448.221 563.289 447.608 545.239 447.563 532.411C447.456 507.348 447.5 482.285 447.696 457.223C447.727 447.112 447.295 429.322 448.179 419.685Z"/><path d="M560.624 396.308L559.607 397.874C530.45 407.444 500.905 419.011 471.143 426.803C468.807 427.415 464.325 427.528 461.759 427.654L461.78 425.84C491.414 414.299 529.402 405.032 560.624 396.308Z"/><path fill="#140B04" d="M452.823 484.81L453.936 484.78L454.532 527.164C454.579 536.054 454.195 547.345 454.52 555.89L453.254 554.376C453.333 547.38 452.538 539.802 452.561 532.547C452.611 516.633 452.705 500.724 452.823 484.81Z"/><path fill="#6B491E" d="M452.896 466.303C452.794 465.673 452.451 462.334 453.149 461.99C454.051 462.39 453.9 472.435 453.814 473.946C453.684 477.377 454.055 481.115 453.936 484.78L452.823 484.81C452.386 480.834 452.929 470.872 452.896 466.303Z"/><path fill="#CB943A" d="M452.896 466.303C452.794 465.673 452.451 462.334 453.149 461.99C454.051 462.39 453.9 472.435 453.814 473.946C452.993 470.608 453.201 469.655 452.896 466.303Z"/><path fill="#6B491E" d="M560.624 396.308C562.005 395.721 567.916 393.925 569.395 393.834L569.289 394L569.493 393.919C569.518 393.974 569.543 394.03 569.568 394.085C569.226 394.695 560.919 397.405 559.607 397.874L560.624 396.308Z"/><path fill="#875E28" d="M453.254 554.376L454.52 555.89C454.522 556.844 454.659 559.493 454.177 560.281C453.361 559.735 453.278 555.351 453.254 554.376Z"/><path fill="#6B491E" d="M460.356 427.729C459.464 427.913 457.366 428.384 456.554 428.171C456.484 427.577 458.605 426.871 459.145 426.62L460.356 427.729Z"/><path fill="#140B04" d="M461.78 425.84L461.759 427.654L460.356 427.729L459.145 426.62C460.373 426.388 460.62 426.296 461.78 425.84Z"/><path fill="#FEBB4E" d="M300.326 533.111L300.521 420.913C300.524 415.772 300.093 383.651 300.725 380.903C302.083 380.286 303.133 380.939 304.898 381.414L404.765 409.094C414.773 411.691 424.809 414.179 434.871 416.559C438.561 417.438 444.888 418.631 448.179 419.685C447.295 429.322 447.727 447.112 447.696 457.223C447.5 482.285 447.456 507.348 447.563 532.411C447.608 545.239 448.221 563.289 447.615 575.746L446.636 576.261L443.37 575.245C395.925 560.407 348.237 546.361 300.326 533.111Z"/><path fill="#CB943A" d="M447.696 457.223C447.5 482.285 447.456 507.348 447.563 532.411C447.608 545.239 448.221 563.289 447.615 575.746L446.636 576.261L443.37 575.245C444.748 573.567 443.92 572.404 444.359 569.38L444.417 569.004C445.123 565.41 445.459 559.194 445.418 555.502C445.963 540.254 445.557 524.006 445.392 508.672C444.697 503.331 445.075 497.872 444.342 493.043C443.857 490.319 444.536 479.009 444.461 475.439C443.393 471.731 443.601 464.141 446.237 461.057C447.403 459.692 447.436 458.991 447.696 457.223Z"/><path fill="#6B491E" d="M444.461 475.439C445.926 477.967 445.636 504.271 445.392 508.672C444.697 503.331 445.075 497.872 444.342 493.043C443.857 490.319 444.536 479.009 444.461 475.439Z"/><path fill="#140B04" d="M444.342 493.043C445.075 497.872 444.697 503.331 445.392 508.672C445.557 524.006 445.963 540.254 445.418 555.502C445.153 556.479 444.809 558.753 444.538 559.468L444.766 558.74L444.685 558.92L444.72 558.722L444.409 558.414C444.415 556.416 444.226 555.447 443.835 553.473C443.475 533.878 443.993 512.669 444.342 493.043Z"/><path fill="#6B491E" d="M443.835 553.473C444.226 555.447 444.415 556.416 444.409 558.414L444.72 558.722L444.685 558.92L444.766 558.74L444.538 559.468C444.809 558.753 445.153 556.479 445.418 555.502C445.459 559.194 445.123 565.41 444.417 569.004C444.099 562.969 443.598 559.818 443.835 553.473Z"/><path d="M335.727 396.073C367.008 406.032 405.112 413.473 434.701 426.15C435.41 426.416 436.522 426.653 437.062 427.238C436.684 428.065 429.808 427.153 428.878 426.995C420.27 427.513 346.834 401.337 334.611 397.035L335.727 396.073Z"/><path fill="#140B04" d="M434.701 426.15C435.41 426.416 436.522 426.653 437.062 427.238C436.684 428.065 429.808 427.153 428.878 426.995C431.07 426.798 432.889 427.198 434.701 426.15Z"/><path fill="#875E28" d="M320.676 392.373C325.512 393.31 329.793 394.261 334.536 395.715L335.727 396.073L334.611 397.035C331.388 396.142 323.773 393.617 320.676 392.373Z"/><path fill="#FEBB4E" d="M447.981 331.096C492.326 342.934 533.949 355.205 576.116 373.354C578.128 374.22 590.69 378.595 591.539 379.531L591.066 379.904L591.172 381.566C579.188 384.433 566.12 388.408 554.186 391.792C533.806 397.658 513.375 403.34 492.894 408.838C483.858 411.313 474.77 413.592 465.636 415.674C462.512 416.396 451.692 418.641 449.198 419.663L448.179 419.685C444.888 418.631 438.561 417.438 434.871 416.559C424.809 414.179 414.773 411.691 404.765 409.094L304.898 381.414L305.445 379.963C306.685 377.954 320.048 373.928 323.096 372.745C340.726 365.902 357.973 358.115 375.927 352.107C399.678 344.158 424.034 338.364 447.981 331.096Z"/><path d="M305.445 379.963C309.602 381.536 317.55 383.314 322.064 384.456L351.14 391.769C377.205 398.28 403.504 404.789 429.151 412.826C448.387 418.854 447.752 418.557 466.77 412.864C475.552 410.152 484.376 407.577 493.238 405.142C525.599 396.489 558.895 389.148 591.066 379.904L591.172 381.566C579.188 384.433 566.12 388.408 554.186 391.792C533.806 397.658 513.375 403.34 492.894 408.838C483.858 411.313 474.77 413.592 465.636 415.674C462.512 416.396 451.692 418.641 449.198 419.663L448.179 419.685C444.888 418.631 438.561 417.438 434.871 416.559C424.809 414.179 414.773 411.691 404.765 409.094L304.898 381.414L305.445 379.963Z"/><path fill="#CB943A" d="M646.15 365.843C660.891 376.884 673.644 390.356 683.86 405.682C685.992 408.899 689.008 413.001 688.929 416.883C689.364 417.02 690.046 417.153 690.306 417.416C694.019 423.346 701.162 433.167 701.09 439.937C701.696 440.222 701.934 440.397 702.577 440.533C707.604 444.386 717.87 470.887 719.837 478.136C721.279 483.448 723.361 494.309 724.109 499.862C724.157 500.214 724.201 500.567 724.243 500.921C718.178 502.717 708.853 505.588 702.674 506.702L701.883 505.08L701.256 504.899C697.54 506.412 693.738 507.718 689.738 508.257L688.72 508.118C685.017 509.575 680.324 510.611 676.425 511.566C658.915 515.858 641.661 521.139 624.177 525.502C619.834 526.586 613.494 528.522 609.17 528.937L609.235 376.114C621.565 372.782 633.871 369.358 646.15 365.843Z"/><path fill="#CB943A" d="M701.09 439.937C701.696 440.222 701.934 440.397 702.577 440.533C707.604 444.386 717.87 470.887 719.837 478.136C721.279 483.448 723.361 494.309 724.109 499.862C724.157 500.214 724.201 500.567 724.243 500.921C718.178 502.717 708.853 505.588 702.674 506.702L701.883 505.08L701.256 504.899C699.656 499.293 701.029 449.768 701.09 439.937Z"/><path fill="#3A2611" d="M701.09 439.937C701.696 440.222 701.934 440.397 702.577 440.533L702.438 482.396C702.425 489.686 702.146 499.679 702.674 506.702L701.883 505.08L701.256 504.899C699.656 499.293 701.029 449.768 701.09 439.937Z"/><path fill="#875E28" d="M690.306 417.416C694.019 423.346 701.162 433.167 701.09 439.937C701.029 449.768 699.656 499.293 701.256 504.899C697.54 506.412 693.738 507.718 689.738 508.257C689.483 487.909 690.011 467.12 689.805 446.729C689.758 442.128 689.452 420.572 690.306 417.416Z"/><path fill="#3A2611" d="M688.72 508.118C688.393 503.129 688.65 495.204 688.652 490.059L688.608 456.357C688.597 449.733 688.094 422.512 688.929 416.883C689.364 417.02 690.046 417.153 690.306 417.416C689.452 420.572 689.758 442.128 689.805 446.729C690.011 467.12 689.483 487.909 689.738 508.257L688.72 508.118Z"/><path fill="#CB943A" d="M249.145 366.467C261.04 368.155 274.521 373.557 286.377 376.114L286.291 474.823C286.268 491.858 285.728 512.732 286.378 529.502C260.916 521.517 231.6 516.004 206.273 508.161L205.318 508.401L194.171 505.638C194.357 491.23 194.133 476.818 194.282 462.367C194.359 454.856 193.697 442.196 195.206 435.238C195.825 432.382 202.369 421.942 204.158 419.024L204.758 419.079L206.469 420.533C206.439 419.858 206.318 416.552 206.508 416.152C214.608 399.072 234.099 376.59 249.145 366.467Z"/><path fill="#875E28" d="M194.171 505.638C194.357 491.23 194.133 476.818 194.282 462.367C194.359 454.856 193.697 442.196 195.206 435.238C195.825 432.382 202.369 421.942 204.158 419.024L204.758 419.079L206.469 420.533C206.499 448.979 207.066 479.862 206.273 508.161L205.318 508.401L194.171 505.638Z"/><path fill="#140B04" d="M204.758 419.079L206.469 420.533C206.499 448.979 207.066 479.862 206.273 508.161L205.318 508.401C204.914 488.486 205.559 468.039 205.26 448.093C205.132 439.554 205.679 427.218 204.758 419.079Z"/><path fill="#875E28" d="M440.864 322.174C450.194 319.329 458.2 322.249 467.505 325.527C487.287 330.225 508.166 335.097 527.119 342.127C553.843 352.039 580.896 363.701 606.906 375.364C602.871 376.646 599.363 377.579 595.283 378.608C591.119 377.273 586.711 375.637 582.658 374.035C548.367 360.473 514.66 346.689 478.764 337.864C469.759 335.65 461 332.284 451.768 330.658L451.441 329.943C452.467 328.99 454.136 329.038 455.616 328.883C449.551 327.829 436.048 332.686 429.66 334.522C411.456 339.754 391.843 344.544 374.035 350.945C349.298 359.836 325.727 370.347 300.722 378.806C296.611 377.729 292.482 376.723 288.337 375.788C305.196 367.676 324.012 361.148 341.214 353.413C373.475 338.906 406.816 331.249 440.864 322.174Z"/><path fill="#CB943A" d="M250.934 365.433C251.17 365.224 251.406 365.015 251.641 364.806C286.69 342.377 334.987 334 375.109 325.845C385.202 323.794 411.883 319.705 420.14 320.583C422.685 321.968 425.293 322.816 428.015 323.798C412.286 328.655 395.502 331.707 380.153 336.948C348.48 347.762 317.272 361.592 286.481 374.727C275.465 371.578 262.022 367.451 250.934 365.433Z"/><path fill="#CB943A" d="M468.892 323.698C476.107 318.617 487.731 320.796 495.924 321.988C532.901 327.368 570.03 334.696 605.433 346.826C615.845 350.423 635.804 358.422 644.615 364.867C639.858 366.88 615.107 373.023 609.005 374.5C605.489 373.323 601.175 371.115 597.668 369.618C565.049 355.695 533.044 340.565 498.6 331.533C490.1 329.304 476.66 327.09 468.892 323.698Z"/><path fill="#CB943A" d="M287.995 460.755C291.023 448.221 290.983 426.305 292.476 412.964C293.069 407.673 292.714 401.815 293.796 396.234C298.074 410.986 295.059 435.057 297.868 450.985C298.652 455.429 297.95 462.677 298.583 467.612C298.945 489.303 299.107 510.998 299.07 532.693C295.305 531.821 291.056 530.511 287.296 529.449C288.099 507.573 287.532 483.162 287.995 460.755Z"/><path fill="#CB943A" d="M600.222 421.108C601.67 415.52 601.128 405.41 602.298 398.772L602.76 398.832C603.962 403.668 603.894 408.361 604.357 413.286C605.377 424.15 605.48 436.75 607.392 447.414L608.073 500.835C608.131 507.122 607.897 523.251 608.712 528.94C606.42 530.466 599.503 532.056 596.702 532.573L596.816 526.627C597.517 522.304 597.529 501.457 597.228 496.371C597.202 480.058 597.433 463.746 597.919 447.441C599.281 442.17 600.161 426.73 600.222 421.108Z"/><path fill="#875E28" d="M287.704 376.775L298.73 379.813C298.928 399.932 298.935 420.052 298.752 440.171C298.705 447.942 299.032 460.241 298.583 467.612C297.95 462.677 298.652 455.429 297.868 450.985C295.059 435.057 298.074 410.986 293.796 396.234C292.714 401.815 293.069 407.673 292.476 412.964C290.983 426.305 291.023 448.221 287.995 460.755C287.656 432.763 287.559 404.769 287.704 376.775Z"/><path fill="#875E28" d="M597.275 379.971C600.776 378.835 604.724 377.647 608.127 376.341C607.819 400.315 608.529 423.421 607.392 447.414C605.48 436.75 605.377 424.15 604.357 413.286C603.894 408.361 603.962 403.668 602.76 398.832L602.298 398.772C601.128 405.41 601.67 415.52 600.222 421.108C600.161 426.73 599.281 442.17 597.919 447.441C597.79 445.65 597.832 443.611 597.825 441.796C597.299 437.383 597.415 432.991 597.366 428.555C597.188 412.375 597.531 396.146 597.275 379.971Z"/><path fill="#986D36" d="M423.101 320.18C427.13 320.148 436.33 319.765 439.874 320.44C434.974 323.046 427.944 322.978 423.101 320.18Z"/><path fill="#6B491E" d="M596.816 526.627C596.408 521.844 596.338 500.371 597.228 496.371C597.529 501.457 597.517 522.304 596.816 526.627Z"/><path fill="#FEBB4E" d="M188.451 272.721C206.17 277.73 226.338 281.81 244.502 286.309C189.815 299.39 142.638 333.815 113.493 381.905C94.3465 413.673 86.4294 440.886 79.1083 476.886C54.7846 472.142 28.3311 463.577 3.50829 458.447C4.51909 430.368 4.8121 402.268 4.38704 374.175C4.18847 354.944 3.51891 335.597 3.5483 316.376C13.8121 318.57 24.7533 320.131 35.1958 322.18C55.5855 326.271 75.9468 330.503 96.2783 334.874C102.404 336.153 122.029 339.484 126.552 341.202L126.216 339.832C108.297 335.115 89.5764 331.199 71.4016 327.367C49.7735 322.807 27.2203 317.927 5.24294 315.771C27.8808 310.086 50.9067 305.483 73.686 300.376C85.7203 297.677 97.6826 294.562 109.695 291.771C136.043 285.823 162.298 279.472 188.451 272.721Z"/><path fill="#6B491E" d="M126.216 339.832C130.82 340.76 136.59 342.162 141.115 343.33C135.882 342.966 131.703 342.306 126.552 341.202L126.216 339.832Z"/><path d="M10.5577 350.892C10.7282 350.57 10.7334 350.426 10.9793 350.278C11.232 350.361 11.6251 351.043 11.7916 351.251C11.8092 354.907 12.3597 359.349 12.2522 362.509L17.1832 425.57C17.8721 434.582 18.2569 444.978 19.2227 453.824C16.7823 449.334 14.5005 445.052 11.7635 440.726L11.2356 395.268C11.1956 389.705 10.8236 379.383 11.1834 374.103C10.4152 368.689 10.5983 356.878 10.5577 350.892Z"/><path fill="#140B04" d="M10.5577 350.892C10.7282 350.57 10.7334 350.426 10.9793 350.278C11.232 350.361 11.6251 351.043 11.7916 351.251C11.8092 354.907 12.3597 359.349 12.2522 362.509C10.8727 362.782 11.4231 372.057 11.1834 374.103C10.4152 368.689 10.5983 356.878 10.5577 350.892Z"/><path d="M37.3226 328.812C60.7602 333.296 98.1208 341.458 120.809 348.487C121.608 348.636 123.562 348.898 124.044 349.562C123.629 350.297 107.378 349.704 105.618 349.377C98.8242 348.669 89.449 345.388 82.7143 343.515C67.8794 339.391 52.5627 334.102 37.6404 330.494L37.3226 328.812Z"/><path fill="#140B04" d="M120.809 348.487C121.608 348.636 123.562 348.898 124.044 349.562C123.629 350.297 107.378 349.704 105.618 349.377C109.494 349.026 118.415 349.745 120.809 348.487Z"/><path fill="#3A2611" d="M26.8739 326.566C28.725 326.873 35.9884 328.347 37.3226 328.812L37.6404 330.494C34.0738 329.275 30.0788 328.297 26.4183 327.385L26.8739 326.566Z"/><path fill="#6B491E" d="M10.0824 340.397C10.5185 340.944 10.9592 341.487 11.4044 342.027C11.0391 345.533 11.6311 347.866 11.7916 351.251C11.6251 351.043 11.232 350.361 10.9793 350.278C10.7334 350.426 10.7282 350.57 10.5577 350.892C9.94656 349.206 10.1644 342.606 10.0824 340.397Z"/><path fill="#CB943A" d="M26.4183 327.385C25.4701 327.183 18.2056 325.435 17.9807 324.962L18.0421 324.878C19.267 324.416 25.4126 326.059 26.8739 326.566L26.4183 327.385Z"/><path fill="#CB943A" d="M10.0824 340.397C9.98064 339.024 9.47124 333.633 9.97303 332.565C10.884 332.416 10.7117 335.019 10.7132 335.371C10.7225 337.618 11.1723 339.797 11.4044 342.027C10.9592 341.487 10.5185 340.944 10.0824 340.397Z"/><path fill="#CB943A" d="M546.63 284.129C614.509 251.776 690.126 232.965 748.621 182.775C757.556 175.109 767.092 166.521 773.012 156.207C780.194 159.923 786.279 162.892 789.086 171.204C791.992 179.808 788.939 193.117 784.688 200.797C766.982 232.787 720.263 249.406 687.236 259.142C657.608 267.876 625.864 274.473 595.461 279.638C581.108 282.077 565.017 282.554 550.799 284.778C550.034 284.918 545.091 285.808 544.762 285.388C544.928 284.699 546.097 284.379 546.63 284.129Z"/><path fill="#B07B33" d="M550.799 284.778C550.034 284.918 545.091 285.808 544.762 285.388C544.928 284.699 546.097 284.379 546.63 284.129L550.799 284.778Z"/><path fill="#CB943A" d="M121.862 156.362C127.496 164.731 136.403 173.414 143.962 180.041C183.374 214.594 235.142 237.356 283.718 256.177C301.625 263.116 319.607 269.579 336.867 277.988C342.174 280.573 348.52 283.152 353.401 286.29C349.027 285.447 344.06 284.875 339.609 284.264C328.048 282.894 315.036 281.744 303.7 280.112C276.528 275.949 249.608 270.287 223.062 263.15C187.074 253.3 133.42 236.943 112.572 202.567C107.706 194.543 104.473 180.947 107.229 171.717C109.645 163.623 114.847 160.202 121.862 156.362Z"/><path fill="#CB943A" d="M413.229 239.269C421.728 239.161 484.205 237.926 487.389 240.329C489.347 241.808 490.72 246.083 491.342 248.406C492.221 251.686 491.79 301.718 491.426 307.986C491.316 309.885 491.127 311.781 490.169 313.462C488.531 316.337 486.573 317.462 483.438 318.288C461.106 318.512 438.613 317.67 416.251 318.13C414.71 318 411.11 317.957 409.97 316.959C401.096 309.194 405.59 289.847 404.852 278.927C404.157 268.649 404.988 259.125 404.994 249.064C404.997 244.666 408.646 239.864 413.229 239.269Z"/><path d="M479.552 252.491C479.799 250.673 480.104 248.306 481.144 251.482C487.891 270.132 491.1 283.585 482.446 302.002C481.094 304.889 479.657 307.735 478.136 310.536C477.246 293.215 477.377 276.068 479.012 258.814C479.199 256.839 479.494 254.441 479.552 252.491Z"/><path fill="#140B04" d="M479.552 252.491C479.799 250.673 480.104 248.306 481.144 251.482C480.615 251.838 480.094 252.155 479.552 252.491Z"/><path d="M416.694 306.563C414.403 301.969 411.483 296.444 410.025 291.58C406.27 279.052 411.132 260.207 416.395 248.42C417.716 264.979 419.152 281.175 418.612 297.796C418.524 300.504 418.418 303.899 418.608 306.571L416.694 306.563Z"/><path fill="#140B04" d="M416.694 306.563L418.608 306.571C418.629 307.111 418.828 308.492 418.592 308.99C418.453 309.066 418.532 309.047 418.353 309.037C417.715 308.612 417.088 307.279 416.694 306.563Z"/><path fill="#CB943A" d="M216.42 2.45343C224.431 1.72001 235.259 4.73782 242.751 7.82551C292.496 28.3282 332.973 87.275 358.009 132.905C364.681 145.066 372.57 164.953 378.135 178.144C368.506 166.134 356.733 149.065 347.438 136.46C338.904 124.377 330.197 111.208 320.528 99.8474C288.693 62.4468 239.55 22.9968 187.39 42.3914C178.949 45.5299 172.415 51.0319 165.674 56.7303C168.485 45.793 174.678 31.8555 181.415 23.0222C191.216 10.1731 200.652 4.6501 216.42 2.45343Z"/><path d="M179.077 44.1821C179.806 42.2619 180.67 40.395 181.659 38.5949C187.562 27.5645 197.597 19.3247 209.564 15.682C228.1 10.2219 244.817 16.7479 260.851 25.477C243.855 21.6691 231.245 19.9816 214.291 25.4194C225.511 27.649 232.313 29.0707 242.904 33.476L240.649 34.6703C217.648 30.3941 199.467 31.2996 179.077 44.1821Z"/><path fill="#140B04" d="M242.904 33.476C244.64 34.1214 246.013 35.1168 247.526 36.1519C245.138 35.5803 243.065 35.0964 240.649 34.6703L242.904 33.476Z"/><path fill="#CB943A" d="M673.206 265.061C681.677 266.459 695.707 270.161 704.394 272.27C687.633 274.505 664.899 283.857 647.499 285.101C646.123 285.199 641.736 284.272 640.181 283.946C628.913 281.829 618.335 281.094 607.618 279.182C628.273 276.104 652.898 270.116 673.206 265.061Z"/><path fill="#CB943A" d="M190.342 272.309C198.446 271.135 214.301 266.899 222.728 264.772C245.845 271.076 262.965 274.095 285.793 279.014C286.319 279.044 286.809 278.977 287.201 279.285C287.565 280.52 280.881 280.103 280.006 280.095C273.139 280.533 251.694 285.313 246.955 284.671C229.696 282.333 207.833 274.858 190.342 272.309Z"/><path fill="#493A2E" d="M285.793 279.014C286.319 279.044 286.809 278.977 287.201 279.285C287.565 280.52 280.881 280.103 280.006 280.095C282.116 279.583 283.677 279.526 285.793 279.014Z"/><path fill="#CB943A" d="M192.103 441.403C193.881 444.122 192.829 499.098 192.771 506.525L176.832 502.316L172.262 500.898C176.254 474.6 180.178 465.493 192.103 441.403Z"/><path fill="#B07B33" d="M202.468 308.132C212.749 301.53 227.382 294.173 238.533 289.988C250.297 285.574 293.42 277.765 303.533 282.654C301.938 283.281 284.249 283.951 280.377 284.533C270.18 286.067 260.511 287.748 250.357 289.832C250.856 290.274 251.289 290.695 251.838 291.069C265.062 289.371 283.984 289.226 297.253 289.214C299.041 289.429 305.968 288.943 304.965 290.734C269.881 292.078 235.88 296.963 202.468 308.132Z"/><path fill="#140B04" d="M245.598 290.806C247.179 290.459 248.766 290.134 250.357 289.832C250.856 290.274 251.289 290.695 251.838 291.069C250.854 291.407 250.267 291.41 249.239 291.59L245.598 290.806Z"/><path fill="#6B491E" d="M249.239 291.59C245.831 292.054 241.017 291.209 245.598 290.806L249.239 291.59Z"/><path fill="#986D36" d="M456.782 320.31C458.575 320.075 471.217 319.753 472.589 320.369L472.58 320.399L472.2 320.566C466.629 322.064 462.091 322.934 456.782 320.31Z"/><path fill="#140B04" d="M297.253 289.214C299.995 288.998 313.997 288.86 315.87 289.874L315.893 289.979C315.611 290.217 306.07 290.862 304.965 290.734C305.968 288.943 299.041 289.429 297.253 289.214Z"/><path d="M645.659 211.485C645.907 211.528 645.76 211.484 646.114 211.652C645.896 211.604 645.816 211.621 645.659 211.485Z"/><path d="M348.378 1119.6C349.275 1119.53 351.201 1119.09 351.988 1119.8C351.984 1119.86 351.98 1119.91 351.975 1119.97C353.635 1121 354.318 1121.21 351.983 1122.11C351.076 1122.26 349.347 1122.81 348.529 1122.23C348.456 1121.95 348.43 1121.59 348.686 1121.4L348.741 1121.42C348.552 1120.46 348.445 1120.7 348.378 1119.6Z"/><defs><linearGradient id="gradient_2" gradientUnits="userSpaceOnUse" x1="56.42688" y1="907.03473" x2="53.79961" y2="907.02985"><stop offset="0" stop-color="black" stop-opacity="0.93333334"/><stop offset="1" stop-color="black"/></linearGradient></defs><path fill="url(#gradient_2)" d="M55.5477 788.025C56.4895 827.49 56.9408 866.966 56.9017 906.442C56.9792 920.137 57.6061 933.842 57.5058 947.543C57.4923 949.392 57.6267 951.886 57.4226 953.66C55.0866 963.155 56.508 1001.12 56.9903 1012.59C56.6803 1017.89 55.9799 1024.15 54.876 1029.36C60.9034 1030.93 66.1585 1031.69 72.3179 1032.65C73.4919 1033.69 75.786 1035.87 77.0549 1036.48C69.9417 1035.54 60.0814 1033.31 53.7356 1030.17C53.6679 1024.03 53.4849 1017.89 53.1868 1011.75C52.4205 979.224 54.2002 945.686 53.9505 912.972C53.6283 887.121 53.5393 861.267 53.6836 835.414C53.6834 825.215 53.0966 803.407 54.5057 794.095L54.5624 795.874C55.0084 794.533 55.2365 789.978 55.5477 788.025Z"/><path d="M894.703 314.755C895.091 316.207 895.179 316.869 896 318.162L896 448.607C895.5 451.742 894.814 455.448 894.524 458.554C893.683 450.394 893.553 447.251 893.402 439.002C892.957 438.266 893.161 438.55 893.242 437.39C892.974 443.791 893.25 450.804 893.034 457.464C892.393 452.25 892.449 435.978 892.343 430.065C892.079 403.26 892.181 376.452 892.65 349.65C892.743 339.316 893.603 325.447 892.951 315.634L894.703 314.755Z"/><path d="M56.9903 1012.59C56.508 1001.12 55.0866 963.155 57.4226 953.66C58.0965 963.182 57.8785 975.767 57.8547 985.482C57.8385 992.054 57.8134 1006.33 56.9903 1012.59Z"/><path d="M573.851 1107.53C572.971 1109.1 572.191 1109.42 571.324 1111.02C566.417 1113.39 559.117 1114.38 553.453 1115.93C551.409 1114.34 550.658 1114.89 547.675 1114.74C555.84 1112.83 565.452 1109.7 573.851 1107.53Z"/><path d="M153.594 75.83C158.623 67.8386 158.855 68.6713 163.331 58.8481C163.42 62.0378 162.769 62.85 162.977 66.1218C162.598 68.3171 160.984 71.6679 159.844 73.6225C159.926 73.0511 159.614 72.4958 159.083 72.2692C158.552 72.0426 157.935 72.2013 157.579 72.6559C157.223 73.1105 157.217 73.7476 157.565 74.2086C157.912 74.6695 158.526 74.8393 159.061 74.6224C158.158 76.4789 157.081 77.8731 155.69 79.3885L155.759 78.6793C157.209 76.0393 155.377 77.716 153.594 75.83Z"/><path d="M391.439 1131.89C395.637 1133.71 399.836 1134.35 403.953 1136.12C406.136 1137.06 407.959 1137.64 410.267 1138.23C407.888 1139.07 402.022 1140.35 400.33 1137.85C400.32 1137.5 400.717 1137.29 400.902 1137.06C401.48 1137.47 391.7 1137.09 391.552 1134.42C390.526 1133.25 390.59 1133.18 391.439 1131.89Z"/><defs><linearGradient id="gradient_3" gradientUnits="userSpaceOnUse" x1="150.33635" y1="82.556747" x2="148.89276" y2="81.125778"><stop offset="0" stop-color="black" stop-opacity="0.96470588"/><stop offset="1" stop-color="black"/></linearGradient></defs><path fill="url(#gradient_3)" d="M152.356 76.8565C153.508 77.4311 154.643 78.0389 155.759 78.6793L155.69 79.3885C153.48 82.4177 150.707 84.3802 147.939 86.7752C145.756 85.7701 144.588 86.7143 144.588 84.5766L144.531 83.9755C147.392 81.7665 150.043 79.748 152.356 76.8565Z"/><defs><linearGradient id="gradient_4" gradientUnits="userSpaceOnUse" x1="331.05115" y1="1113.8184" x2="330.96677" y2="1116.9969"><stop offset="0" stop-color="black" stop-opacity="0"/><stop offset="1" stop-color="black" stop-opacity="0.031372551"/></linearGradient></defs><path fill="url(#gradient_4)" d="M332.676 1113.76C334.28 1113.84 336.411 1114.5 337.885 1115.11C337.883 1115.11 337.114 1115.58 337.314 1115.85C340.166 1119.8 333.015 1118.08 332.302 1116.92C332.562 1116.42 333.181 1116.52 333.629 1116.22C332.883 1115.52 332.03 1115.79 331.313 1116.06C329.489 1116.9 329.641 1116.2 328.472 1115.17C327.778 1114.57 326.902 1116.38 326.068 1115.13L326.229 1114.86C326.443 1114.75 326.658 1114.63 326.872 1114.52L326.802 1114.39C325.385 1113.48 325.944 1115.33 324.841 1115.11C324.48 1114.8 324.602 1114.98 324.435 1114.62L324.546 1114.43C326.531 1113.29 329.295 1114.11 332.676 1113.76Z"/><path d="M467.816 1143.38C472.102 1142.23 472.892 1142.07 477.282 1141.61C472.892 1143.38 463.013 1147.18 458.611 1146.55C461.021 1145.7 465.927 1144.29 467.816 1143.38Z"/><path d="M379.809 1127.56C381.254 1128.16 381.854 1128.41 383.191 1129.24C382.267 1130.66 385.974 1131.97 377.923 1131.36C377.686 1129.96 377.155 1129.84 377.043 1129.06C378.222 1129.44 379.375 1128.69 379.809 1127.56Z"/><path d="M140.539 86.8047C141.827 85.8098 143.164 84.8586 144.531 83.9755L144.588 84.5766C144.588 86.7143 145.756 85.7701 147.939 86.7752C147.216 87.2489 146.488 87.7127 145.753 88.1666C143.044 86.4918 145.36 85.7801 141.051 86.7153L140.539 86.8047Z"/><path d="M378.916 1127.29L379.809 1127.56C379.375 1128.69 378.222 1129.44 377.043 1129.06C377.155 1129.84 377.686 1129.96 377.923 1131.36C373.261 1129.3 375.488 1128.54 378.916 1127.29Z"/><path d="M152.356 76.8565C152.843 76.4117 153.053 76.2001 153.594 75.83C155.377 77.716 157.209 76.0393 155.759 78.6793C154.643 78.0389 153.508 77.4311 152.356 76.8565Z"/><path d="M159.061 74.6224C158.526 74.8393 157.912 74.6695 157.565 74.2086C157.217 73.7476 157.223 73.1105 157.579 72.6559C157.935 72.2013 158.552 72.0426 159.083 72.2692C159.614 72.4958 159.926 73.0511 159.844 73.6225C159.779 74.0713 159.481 74.452 159.061 74.6224Z"/></svg>