<svg xmlns="http://www.w3.org/2000/svg" width="1024" height="1024"><path fill="currentColor" d="m460.472 730.72.666.932c-3.296 5.007-6.651 9.942-10.332 14.677-2.522 3.243-5.619 6.482-7.76 9.967-.709 1.156-.706 1.387-.528 2.671l.787.45.764 1.141c-4.796 7.575-9.675 15.14-13.693 23.167-6.758 13.502-14.481 35.556-11.164 50.834 1.188 5.473 3.776 10.093 8.548 13.182 2.253 1.458 4.841 2.209 7.408 2.91-7.189 2.379-14.233 3.378-21.273-.275-5.633-2.922-9.619-8.11-11.373-14.169-3.236-11.183.403-23.367 5.984-33.159 4.308-7.557 9.948-14.39 15.409-21.136 1.525-1.795 4.541-5.097 4.887-7.403.025-.161.033-.325.056-.486.036-.261.101-.518.115-.78.013-.225.014-.362-.128-.536-.138-.052-.113-.062-.282-.025-1.117.241-3.064 2.379-3.728 3.328-11.834 10.574-23.189 21.718-35.083 32.229-10.416 9.204-21.264 17.848-31.872 26.815-20.249 17.116-41.34 36.295-66.088 46.665-9.341 3.913-18.58 5.604-28.703 5.078-16.527-.859-33.52-7.496-44.728-19.99-6.5-7.246-12.479-18.094-11.896-28.067.305-5.217 2.062-10.085 4.905-14.446 4.426 10.695 10.772 18.034 21.623 22.51 32.19 13.278 77.872-2.448 108.314-15.36 23.369-9.912 39.112-18.734 58.877-34.848.646-.646 2.231-1.853 2.375-2.797.015-.1-.006-.103-.055-.183-.283-.129-.227-.132-.699-.056-.692.111-1.963.999-2.417 1.532-9.957 5.858-20.726 13.267-32.63 13.866-6.252.314-12.821-1.399-17.441-5.779-4.333-4.108-6.917-9.72-6.949-15.701-.027-4.946 2.176-10.964 5.731-14.468 1.29-1.271 2.645-1.974 4.47-2.014a82 82 0 0 0-.003 3.567c.085 3.32 1.699 6.811 4.197 9.029 5.444 4.835 14.093 6.615 21.199 6.224 30.299-1.667 63.475-37.528 82.51-59.096"/><path fill="currentColor" d="M429.232 773.115q-.032-.098-.068-.195c-.1-.276-.4-.866-.265-1.209.322-.812 11.665-13.132 12.348-13.518.396.072.983.58 1.271.774-.006.169-.015.338-.019.507-.006.262.008.525-.019.786-.119 1.13-10.744 13.075-12.18 14.151-.066-.013-.137-.013-.199-.04-.437-.196-.699-.929-.869-1.256m-15.789 9.984c-.076.234-.121.418-.232.632-1.299 2.511-7.503 8.565-10.229 9.241-.068-.084-.24-.252-.277-.395-.069-.265.478-.743.62-.869 3.249-2.89 6.567-6.118 10.118-8.609m260.356-110.852c-2.112-1.802-3.78-3.634-4.071-6.518-.296-2.927 1.228-6.157 3.099-8.332 2.564-2.982 6.191-4.262 10.046-4.422a19.5 19.5 0 0 1 14.368 5.342c4.108 3.94 6.288 9.6 6.199 15.26-.12 7.629-3.878 14.623-9.349 19.769-6.677 6.28-15.293 9.155-24.389 8.816-9.323-.346-18.724-3.995-25.051-11.032a38.2 38.2 0 0 1-9.483-27.563c.504-8.765 3.754-16.533 10.432-22.392 22.177-19.46 65.087-25.421 94.052-23.27 20.36 1.511 39.356 9.642 52.839 25.285 10.3 11.952 15.381 25.019 13.994 40.832a36.26 36.26 0 0 1-13.02 25.053c-3.837 3.18-8.128 5.412-12.87 6.926l-1.659-1.227c3.79-2.149 6.766-4.89 8.11-9.15 2.184-6.922.605-15.522-2.876-21.707-12.581-22.352-48.973-40.763-73.097-47.266-18.023-4.858-40.96-6.102-57.656 3.701-6.431 3.776-11.525 9.595-13.239 16.994-1.939 8.373-.565 18.055 4.089 25.306 4.826 7.518 12.314 13.255 21.163 15.05a29.7 29.7 0 0 0 22.766-4.426c5.698-3.925 9.948-10.06 11.028-16.947.797-5.084-.134-10.493-3.331-14.628-2.504-3.237-6.125-5.151-10.159-5.68-3.745-.491-8.098-.181-11.127 2.32-1.8 1.486-2.889 3.564-3.053 5.896-.209 2.972 1.178 5.015 3.002 7.203zM281.631 751.72c-1.509 1.857-3.011 3.77-5.001 5.141-3.004 2.069-6.121 2.257-9.595 1.443-3.603-.844-6.128-2.68-8.05-5.864-3.498-5.792-4.095-13.551-2.436-20.056 2.011-7.885 8.399-14.733 15.23-18.884 9.279-5.638 20.364-7.084 30.875-4.517 12.044 2.94 22.082 10.752 28.379 21.366 7.688 12.958 8.882 29.824 5.092 44.22-4.633 17.602-17.75 32.877-33.328 41.861-21.389 12.335-45.916 14.214-69.54 7.742-22.872-6.266-42.898-22.387-54.592-42.941-12.857-22.595-15.331-49.737-8.357-74.651 9.159-32.722 32.119-55.919 61.1-72.148l.251.676c-4.974 4.943-11.025 9.137-16.387 13.678a110.7 110.7 0 0 0-32.068 44.328c-9.234 23.351-9.541 50.872.637 73.979 8.967 20.36 26.966 36.798 47.689 44.62 19.055 7.192 40.593 7.42 59.271-1.059 14.958-6.791 27.979-19.819 33.768-35.269 4.247-11.335 4.661-23.792-.439-34.919-4.09-8.925-11.197-16.293-20.515-19.67-8.293-3.005-17.222-3.24-25.269.661-6.127 2.97-11.169 8.576-13.261 15.081-1.4 4.349-1.598 9.752.718 13.839 1.114 1.966 3 3.559 5.213 4.11 4.297 1.07 7.046-.646 10.615-2.767"/><path fill="currentColor" d="M792.798 634.156c29.736 17.166 52.982 40.746 62.127 74.665 6.586 24.428 3.442 51.711-9.337 73.605a91.38 91.38 0 0 1-55.692 41.847c-23.121 5.945-49.287 3.986-69.967-8.501-15.782-9.529-27.801-25.02-32.207-43.016-3.478-14.204-2.39-30.569 5.42-43.213a47.18 47.18 0 0 1 29.602-21.17c10.723-2.42 22.309-.78 31.646 5.127 7.378 4.666 12.366 11.406 14.117 19.998 1.214 5.957.739 13.205-2.728 18.379-2.081 3.105-5.646 5.507-9.365 6.111-2.577.418-7.43-.543-9.414-2.347-.995-.905-.993-1.193-1.033-2.437l.369-.37q.252.177.505.35c2.044 1.369 3.476 1.849 5.915 1.352 2.819-.575 5.633-2.829 7.09-5.271 2.065-3.464 1.9-7.677.88-11.448a26.12 26.12 0 0 0-12.474-15.796c-7.497-4.153-17.779-4.398-25.848-1.952a35.97 35.97 0 0 0-21.489 17.981c-5.823 11.144-5.682 24.7-1.828 36.465 5.2 15.876 18.114 27.992 32.821 35.23 18.1 8.907 41.283 9.139 60.144 2.517a85.36 85.36 0 0 0 48.592-43.969c10.638-22.33 10.39-49.717 2.105-72.776-7.499-20.869-21.66-36.44-38.258-50.57-3.933-3.349-8.118-7.313-12.515-10.033zM428.916 954.921c-2.438-3.366-4.986-6.791-6.269-10.794-1.006-3.137-1.261-6.906.445-9.861.855-1.483 2.126-2.475 3.807-2.846 2.118-.467 4.273.238 6.05 1.388 5.012 3.242 5.779 8.777 6.922 14.157-.209.765-.356 1.495-.513 2.273-.153.754-.275 1.495-.406 2.252-.107.615-.501 1.68-.235 2.318a.28.28 0 0 0 .24.164c.138.008.242-.135.303-.236.17-.281.223-.646.313-.951.078-.267.169-.529.248-.796.119-.401.2-.812.298-1.219.324-1.349.58-1.796-.032-3.055.17-.086.347-.159.509-.257 4.584-2.789 4.81-6.168 11.102-7.308 1.769-.32 3.732-.588 5.513-.191 1.044.233 2.013.737 2.604 1.657 1.187 1.844.616 4.501-.007 6.439-1.792 5.566-5.775 8.148-10.562 10.857 5.623 2.238 11.04 5.063 13.665 10.898.889 1.977 1.396 4.518.449 6.574-.762 1.653-2.479 2.753-4.202 3.165-3.459.825-7.097-.291-10.001-2.193-3.414-2.235-5.696-5.293-8.175-8.444 1.13 5.037 1.663 9.365 1.424 14.511-2.033 3.459-4.571 6.094-7.499 8.802-3.989-2.146-7.153-4.708-8.531-9.189-1.486-4.833-.179-10.03 2.2-14.338l-.972-1.153c-4.327 1.913-9.279 3.319-13.892 1.553-4.276-1.638-6.557-5.16-8.393-9.13 2.216-2.397 4.379-4.783 7.369-6.237 5.51-2.678 10.868-.714 16.228 1.19m3.121 3.287c.116.249.229.499.347.747.052.107.112.209.163.316.509 1.086.544 1.978.589 3.177.187.541.439.966.736 1.455 1.161.089 2.046.184 3.132.632.431.178.829.403 1.299.461.403.05.808-.032 1.123-.298.32-.27.367-.771.357-1.161-.036-1.363.183-2.571.337-3.923l-.095-.461c-.362-.843-.834-1.756-.994-2.667-.078-.446-.093-.985-.384-1.369-.051-.067-.081-.096-.16-.09-.247.017-.22-.01-.368.167-.335.401-.288.403-.635.754-1.4 1.416-2.983 1.612-4.852 1.539z"/><path fill="currentColor" d="M440.025 959.153c.329.008.657.022.986.024 2.066.01 6.692-1.377 8.274-.423.063.109.084.221.031.343-.11.255-.54.401-.782.451-.265.054-.486.042-.767.064-.6.048-1.18.173-1.772.269-.412.067-.828.102-1.241.155-.809.103-3.668 1.174-4.157.867-.361-.227-.417-1.007-.477-1.289zm-6.889 3.295c.187.541.439.966.736 1.455-1.489 1.689-3.635 3.164-5.296 4.795l-.972-1.153c1.726-1.739 3.688-3.482 5.532-5.097m-1.099-4.24c-1.264-.72-2.364-1.606-3.545-2.45-.366-.261-.841-.53-1.071-.942-.08-.144-.072-.111-.046-.229.036-.032.077-.06.11-.096.324-.347.336-.559.704-.647.244-.058.785.324.96.465 1.243 1.001 2.425 1.978 3.483 3.178zm153.386-11.274c.943-5.314 2.307-10.842 7.109-14.029 1.835-1.218 4.179-1.953 6.363-1.336 1.616.457 2.801 1.663 3.498 3.163 1.643 3.536.855 7.982-.531 11.46-1.224 3.071-3.279 5.744-5.153 8.441 6.19-1.609 12.014-2.618 17.909.783 1.725.996 3.467 2.569 4.013 4.555.442 1.608.012 3.255-.844 4.639-1.812 2.931-5.331 4.554-8.61 5.166-5.029.938-9.49-.683-14.019-2.631 2.859 4.8 5.574 10.009 3.967 15.783-1.153 4.14-4.254 6.654-7.935 8.542q-.49.25-.987.487c-3.784-2.996-6.947-6.203-7.564-11.219-.516-4.191.705-8.737 1.505-12.833-3.052 4.866-6.394 10.125-12.434 11.468-3.804.845-7.465-.189-10.963-1.666.098-5.285 1.078-10.082 5.151-13.83 2.879-2.649 6.263-3.891 10.026-4.679 1.746 1.514 5.058.562 7.375 1.312l.729.229c.313 1.089.535 2.168.779 3.274l1.599.502c2.311.031 4.293.412 6.567.658-.179.132-.486.264-.568.508.055.151-.007.033.101.132.116.107.1.13.205.267.218.286.51.47.782.706.494.43.94.893 1.416 1.338.241.225.591.498.943.494.062 0 .096-.085.12-.118.139-.049.057-.027.249-.051l.494-.679c-.118-.748-1.414-1.827-1.997-2.227-.411-.282-.747-.412-1.236-.655-.729-2.183-1.655-3.811-1.043-6.16l-.787-1.234c-.336-.038-.672-.07-1.007-.116-1.41-.191-2.496-.893-3.285-2.071-.104-.155-.197-.316-.298-.473l-.451-.695a8 8 0 0 0-.52-1.349l-.361-1.063c-.163-1.6-.245-3.187-.307-4.793"/><path fill="currentColor" d="M591.652 957.494c1.593-1.145 3.155-2.246 4.679-3.486.122-.099.246-.196.382-.274.235.232.42.51.63.766.048.058.112.103.156.164.093.127.111.179.06.324-.335.955-4.224 3.178-5.12 3.74zm-6.845 6.519 1.599.502c-.402 1.018-.886 1.993-1.319 2.998-.202.467-.392 1.078-.747 1.471-.199.22-.245.156-.559.153-.098-.104-.208-.2-.295-.313-.224-.291 1.176-4.221 1.321-4.811M467.046 858.461c3.376 1.387 7.767 2.697 10.045 5.738 3.021 4.034 3.346 9.659 2.752 14.462l-.307.504c-.086.138-.18.272-.264.412-.295.493-.333.635-.616 1.251a15 15 0 0 0-.724 1.798c-.193.416-.4.828-.589 1.245-.332.734-.44 1.279-.515 2.076-1.721 1.088-3.201 1.22-5.182 1.709l-.274 1.117c.123 1.446.15 2.502-.165 3.924-.651.065-.563.199-1.087.846-.121.15-.233.308-.354.458-.843 1.042-1.764 2.02-2.626 3.049-.212.106-.427.205-.635.318-5.225 2.852-10.895 5.333-17.01 4.084-4.691-.958-6.906-4.83-9.24-8.59 1.456-1.587 2.95-3.156 4.337-4.803 1.518-1.803 3.031-3.473 5.124-4.638 5.648-3.142 12.309-.382 17.916 1.291-2.221-4.45-5.464-8.863-5.847-13.973-.377-5.02 2.138-8.635 5.261-12.278"/><path fill="currentColor" d="m471.372 888.773-.154-.003c-.745.003-.94-.054-1.515-.605-1.076-1.029-2.166-2.048-3.305-3.009-.345-.291-.226-.133-.382-.381.029-.279.071-.458.183-.716.379-.265.421-.31.853-.327.403-.015.818.366 1.073.631 1.148 1.2 2.191 2.288 3.521 3.293zm73.474-8.416c.1-4.861-.291-9.764 1.92-14.266 2.245-4.573 6.498-5.803 10.96-7.313 5.8 7.035 7.241 12.116 2.673 20.419-.838 1.523-1.855 2.504-1.648 4.292l1.092.571c-1.145.927-3.503 3.222-5.078 3.173l-1.107-.698c-1.635.07-3.247.231-4.872.418l-1.411.356c-1.112 1.129-2.525 1.704-3.62 2.923-1.643 1.084-5.279.136-7.262.181-1.151.026-1.947.041-3.068-.196l.087-.939c-1.27-.659-2.541-1.247-3.726-2.06-2.487-1.706-4.332-4.195-4.826-7.211-.295-1.807-.644-5.989.631-7.492.437-.515 1.262-.635 1.891-.665 6.998-.331 12.504 4.163 17.364 8.507"/><path fill="currentColor" d="M533.512 889.278c1.213-.273 1.976-.19 3.218-.066 1.196.119 6.031-.163 6.738.64.105.119.191.253.287.38-1.643 1.084-5.279.136-7.262.181-1.151.026-1.947.041-3.068-.196zm20.146-2.743c.261-.208.519-.421.784-.623.921-.706 2.354-2.381 3.352-2.73.347-.121.671.16.957.307l1.092.571c-1.145.927-3.503 3.222-5.078 3.173zm-6.283.774-.251-.887c-.556-1.932-1.558-3.777-2.564-5.505-.069-.118-.333-.515-.297-.701.176-.144-.014-.008.269-.128.182-.077.612-.367.686-.413l.027-.012c1.235 2.247 2.586 4.908 3.541 7.29z"/><path fill="currentColor" d="M533.425 890.217c1.121.237 1.917.222 3.068.196 1.983-.045 5.619.903 7.262-.181.354.243.719.472 1.067.725 1.216.886 1.593 1.97 2.189 3.288.105.232.238.375.5.404.516.058 1.277-.252 1.748-.371.931-.234 1.793-.05 2.721.123l1.372-.726c1.55.628 2.805 1.939 3.561 3.427l-.43 1.521c.122.214.241.43.366.642 2.972 5.028 4.6 10.639 3.146 16.484-.724 2.914-3.135 5.198-5.344 7.051l-.639.547c-.38-.226-.749-.468-1.121-.704-.616-.389-1.254-.696-1.903-1.024-3.663-1.851-7.472-3.705-8.761-7.926-1.313-4.298.377-8.627 1.585-12.716.102-.345.216-.687.325-1.03-6.651 4.46-10.492 6.301-18.583 6.739-.5-2.82-1.158-5.9-.187-8.696 1.398-4.025 3.719-5.428 7.231-7.316.277-.149.551-.305.827-.457"/><path fill="currentColor" d="M553.352 893.675c1.55.628 2.805 1.939 3.561 3.427l-.43 1.521a131 131 0 0 1-4.503-4.222zm-9.215 6.272c-.147-.224-.335-.395-.325-.668.015-.404.488-.939.697-1.27.787-1.245 1.306-2.583 2.319-3.656.353.676.603.864.423 1.554-.163.628-.682 1.234-1.025 1.765-.238.369-.454.75-.679 1.127-.413.694-.624.957-1.41 1.148m-63.318-20.064c4.677-5.107 8.869-8.105 15.926-8.355.703-.025 1.727-.138 2.285.415 1.174 1.163 1.042 4.102.945 5.559a10.13 10.13 0 0 1-3.735 7.236c-2.131 1.707-4.593 3.04-6.995 4.328 3.785 2.001 9.006 3.776 10.312 8.428.555 1.976.827 6.428-.07 8.236-.181.364-.608.516-.978.605-4.185 1.003-9.808-1.124-13.197-3.476-1.902-1.32-3.593-3.384-5.113-5.117-.775-1.471-1.781-2.564-2.332-4.171-.068-1.229-.137-2.369-.039-3.601l.045-1.141c.162-1.636.285-3.22.623-4.833l.634-.48c.288-.791.546-1.485.965-2.218.323-.565.489-.837.724-1.415"/><path fill="currentColor" d="M477.873 888.829c.328.068.655.142.985.204 2.858.542 6.612.055 9.533-.259.132-.015.467-.095.595.057.151.18.168.472.089.686-.066.18-.205.264-.378.31-3.239.855-6.553.437-9.844 1.605-.442-.318-.754-1.011-1.025-1.462zm81.97-4.769c.696-.369 1.112-.472 1.886-.666 4.702-1.18 9.979-2.01 14.521.368 2.967 1.553 6.166 6.554 8.56 9.061-.286.556-.549 1.11-.816 1.675-1.407 2.98-3.885 5.496-6.985 6.661-5.835 2.194-13.933-.876-19.136-3.506-.329-.166-.642-.365-.96-.551-.756-1.488-2.011-2.799-3.561-3.427.056-.283.137-.664.172-.957.164-1.36.334-2.6.75-3.914.075-.236.161-.468.235-.705.09-.287.17-.578.256-.866 1.575.049 3.933-2.246 5.078-3.173m-92.703 12.99c.862-1.029 1.783-2.007 2.626-3.049.121-.15.233-.308.354-.458.524-.647.436-.781 1.087-.846.776.545 1.297.83 2.193 1.136 1.045.255 1.975.603 2.97 1.002.812 1.297 2.113 2.665 3.176 3.779 1.764 3.985 3.089 7.571 4.08 11.818-2.547 8.23-6.401 8.619-12.618 13.555-2.135-2.226-4.239-4.373-5.526-7.236-3.181-7.074.364-12.605 2.817-19.08z"/><path fill="currentColor" d="M467.14 897.05c.862-1.029 1.783-2.007 2.626-3.049.121-.15.233-.308.354-.458.524-.647.436-.781 1.087-.846.776.545 1.297.83 2.193 1.136-.638.543-4.264 3.941-4.867 3.875q-.118-.016-.234-.037zm108.784 62.148c-2.69-2.298-6.081-3.025-8.398-5.973-1.922-2.447-3.095-6.12-2.687-9.227.164-1.246.493-3.28 1.653-4.047 1.731-1.144 5.877-.349 7.754.161 5.243 1.423 7.949 6.733 10.51 11.071.048.34.062.685.085 1.028l.59 1.31c.069 1.516.204 2.977.403 4.481-.456.433-.89.828-1.381 1.217l-.425 1.52-.729-.229c-2.317-.75-5.629.202-7.375-1.312"/><path fill="currentColor" d="M575.924 959.198c.178-.325.22-.477.573-.575 1.878-.519 5.94.411 7.956.596l-.425 1.52-.729-.229c-2.317-.75-5.629.202-7.375-1.312"/><path fill="currentColor" fill-opacity=".322" d="M424.835 776.01c.664-.949 2.611-3.087 3.728-3.328.169-.037.144-.027.282.025.142.174.141.311.128.536-.014.262-.079.519-.115.78-.023.161-.031.325-.056.486-.346 2.306-3.362 5.608-4.887 7.403.423-2.024.811-3.827.92-5.902"/><path fill="currentColor" fill-opacity=".541" d="M476.37 894.835a14 14 0 0 0 1.497-1.264c.551 1.607 1.557 2.7 2.332 4.171l-.653.872c-1.063-1.114-2.364-2.482-3.176-3.779"/><path fill="currentColor" fill-opacity=".976" d="M593.482 964.888c.489.243.825.373 1.236.655.583.4 1.879 1.479 1.997 2.227l-.494.679c-.192.024-.11.002-.249.051-.024.033-.058.118-.12.118-.352.004-.702-.269-.943-.494-.476-.445-.922-.908-1.416-1.338-.272-.236-.564-.42-.782-.706-.105-.137-.089-.16-.205-.267-.108-.099-.046.019-.101-.132.082-.244.389-.376.568-.508z"/><path fill="currentColor" fill-opacity=".859" d="M460.472 730.72c1.505-2.05 2.948-4.033 4.885-5.695-1.123 2.353-2.602 4.583-4.219 6.627z"/><path fill="currentColor" fill-opacity=".98" d="m439.871 946.965.216.75c.612 1.259.356 1.706.032 3.055-.098.407-.179.818-.298 1.219-.079.267-.17.529-.248.796-.09.305-.143.67-.313.951-.061.101-.165.244-.303.236a.28.28 0 0 1-.24-.164c-.266-.638.128-1.703.235-2.318.131-.757.253-1.498.406-2.252.157-.778.304-1.508.513-2.273"/><path fill="currentColor" fill-opacity=".522" d="M477.932 882.626c.195.454.38.912.564 1.37-.338 1.613-.461 3.197-.623 4.833-.168-1.269-.258-1.881-1.045-2.882.075-.797.183-1.342.515-2.076.189-.417.396-.829.589-1.245"/><path fill="currentColor" fill-opacity=".851" d="M443.305 759.417c1.684-1.681 3.168-3.462 4.93-5.071-1.373 2.085-2.665 4.214-4.166 6.212z"/><path fill="currentColor" fill-opacity=".176" d="M399.388 795.092c.454-.533 1.725-1.421 2.417-1.532.472-.076.416-.073.699.056.049.08.07.083.055.183-.144.944-1.729 2.151-2.375 2.797z"/><path fill="currentColor" fill-opacity=".835" d="M479.843 878.661q.485.613.976 1.222c-.235.578-.401.85-.724 1.415-.419.733-.677 1.427-.965 2.218-.142-.893-.244-1.813-.474-2.688.283-.616.321-.758.616-1.251.084-.14.178-.274.264-.412z"/><path fill="currentColor" fill-opacity=".961" d="m778.936 714.774 1.659 1.227c-1.151.245-3.497 1.042-4.628.736-.118-.032-.192-.075-.223-.199a.26.26 0 0 1 .033-.161c.534-.683 2.345-1.288 3.159-1.603"/><path fill="currentColor" fill-opacity=".596" d="m791.976 634.914-.245-.189c-.765-.583-1.852-1.235-2.436-2.02-.076-.103-.155-.245-.118-.379.028-.101.143-.166.241-.175.869-.082 2.736 1.542 3.38 2.005z"/><path fill="currentColor" fill-opacity=".063" d="M586.091 952.79c.23.457.37.857.52 1.349-.47 1.022-.454 1.428-.556 2.609-.036.423-.143.837-.221 1.254a52 52 0 0 1-.403-4.481z"/><path fill="currentColor" fill-opacity=".639" d="M232.206 633.659c.216-.1.434-.196.648-.299.579-.278 1.691-1.114 2.371-1.042.038.004.071.03.107.046.032.1.049.17-.01.267-.502.839-2.062 1.685-2.868 2.206z"/><path fill="currentColor" fill-opacity=".133" d="M585.423 946.934c.062 1.606.144 3.193.307 4.793l-.889.484c-.023-.343-.037-.688-.085-1.028.226-1.42.376-2.839.667-4.249"/><path fill="currentColor" fill-opacity=".937" d="M674.556 671.44c.77.372 1.545.714 2.331 1.052l-1.058.824a30 30 0 0 0-2.03-1.069z"/><path fill="currentColor" fill-opacity=".776" d="M676.887 672.492c.484.12.976.225 1.456.356.271.075.623.162.779.415-.066.118-.047.119-.219.181-.887.318-2.197.005-3.074-.128z"/><path fill="currentColor" fill-opacity=".686" d="M478.656 880.828c.23.875.332 1.795.474 2.688l-.634.48a63 63 0 0 0-.564-1.37c.213-.627.432-1.204.724-1.798"/><path fill="currentColor" fill-opacity=".408" d="M465.357 725.025c.021-.243-.018-.679.256-.828.053-.028.459-.151.47-.155.002.151.051.502-.068.667-.123.17-.479.249-.658.316"/><path fill="currentColor" fill-opacity=".294" d="m585.73 951.727.361 1.063-.66.731-.59-1.31z"/><path fill="currentColor" d="M247.049 306.109c.863.008.537-.16 1.042.347-3.125 1.375-6.083 3.127-8.228 5.839-3.588 4.538-4.507 10.577-3.725 16.189 1.776 12.747 12.871 23.9 22.544 31.42 23.247 18.071 58.115 33.93 87.977 30.11 11.303-1.445 25.944-5.334 33.116-14.972 4.799-6.451 5.717-15.094 4.399-22.853a31.83 31.83 0 0 0-13.418-21.081c-6.926-4.803-15.882-7.408-24.275-5.747-7.284 1.441-14.048 5.78-18.094 12.045-3.438 5.324-4.851 11.723-3.298 17.928 1.047 4.183 3.333 7.967 7.137 10.157 3.511 2.021 8.859 2.75 12.749 1.583 2.803-.84 5.175-2.75 6.41-5.424.937-2.027 1.079-4.456.22-6.535-1.456-3.52-4.692-4.708-7.928-6.109l.402-.324-.631.049 1.032.677.4-.639c2.794.419 4.538.967 6.565 2.945 1.9 1.853 3.334 4.233 3.242 6.969-.097 2.898-1.782 5.588-3.916 7.452-4.161 3.637-8.873 4.041-14.107 3.674-2.574-.637-5.115-1.342-7.419-2.696a17.6 17.6 0 0 1-8.347-11.16c-1.735-7.173-.17-15.147 3.841-21.278 4.783-7.31 12.704-11.585 21.097-13.311a34.56 34.56 0 0 1 26.454 5.15 36.32 36.32 0 0 1 15.704 23.437c1.771 8.778.745 18.476-4.31 26.022-10.269 15.327-31.907 22.182-49.022 25.669-30.326 6.177-63.305 8.473-90.269-9.582-12.254-8.205-23.421-23.465-26.217-38.082-2.128-11.127-.26-23.831 6.262-33.239a34.56 34.56 0 0 1 22.611-14.63m530.352.03c10.366 2.65 18.985 8.535 24.099 17.804 14.727 26.695-3.327 58.301-27.335 71.834-28.395 16.006-63.804 10.663-94.105 3.817-25.025-6.297-51.657-22.977-43.394-52.421a36.67 36.67 0 0 1 17.35-22.001 34.7 34.7 0 0 1 26.831-2.885c11.944 3.555 21.165 12.098 22.544 24.934.909 8.451-2.807 17.534-10.754 21.262-9.111 4.274-28.65-.718-21.98-13.829 1.724-3.365 4.508-6.368 8.582-5.661l.109.336c-10.212 3.488-11.044 13.206-.652 17.253a15.36 15.36 0 0 0 12.403-.568c9.441-4.684 10.589-17.92 5.806-26.314-7.92-13.901-25.689-18.656-40.15-11.01-15.27 8.073-21.864 27.976-14.198 43.611 4.204 8.571 17.951 14.5 26.655 16.308 30.397 6.122 59.798-5.224 85.699-21.226 14.868-9.186 42.484-32.369 30.279-53.839-1.642-2.888-5.935-5.507-9.007-6.892.323-.122.921-.32 1.218-.513"/><path fill="currentColor" d="M257.454 196.23a100 100 0 0 1 3.457.025c22.295.376 43.031 7.574 58.653 23.922 12.828 13.423 19.318 30.735 18.729 49.242-.407 12.794-4.99 25.555-14.495 34.404a47.4 47.4 0 0 1-33.692 12.661c-9.878-.392-19.844-4.717-26.527-12.069a29.3 29.3 0 0 1-7.604-21.689c.386-5.163 2.335-10.472 6.457-13.796 3.145-2.537 6.751-3.697 10.767-3.08 2.072.318 4.741 1.266 5.914 3.142.517.828.83 1.536.568 2.493-1.775-1.147-3.473-1.983-5.643-1.904-2.597.093-5.286 1.236-7.042 3.167-2.396 2.634-2.952 6.46-2.743 9.892.386 6.326 3.56 12.394 8.337 16.518 5.988 5.169 13.817 7.236 21.591 6.474 9.715-.954 18.568-5.49 24.694-13.173 7.379-9.253 10.286-20.645 8.898-32.328-1.816-15.288-10.405-28.398-22.321-37.784-16.836-13.262-35.891-17.107-56.894-14.691q-1.274.152-2.543.341c-21.336 3.202-41.131 16.864-53.715 34.039-13.897 18.965-18.647 44.137-14.924 67.14 6.035 37.282 28.358 59.558 57.769 80.815a120.4 120.4 0 0 1-33.078-21.967c-21.519-19.726-34.38-46.327-35.533-75.587-1.006-25.532 7.663-48.59 25.141-67.231 17.224-18.369 40.763-28.216 65.779-28.976m536.333 190.144c5.544-4.637 11.238-8.575 16.642-13.449 20.925-18.878 35.106-42.489 37.936-70.867 2.181-23.283-4.45-46.832-19.682-64.882-15.362-18.205-33.838-27.887-57.683-30.019-35.91-3.209-71.509 18.901-74.748 56.714-.741 10.481 2.088 21.474 9.38 29.324 12.569 13.531 32.889 17.422 47.789 4.998 7.894-6.583 13.534-26.54-1.256-28.805-2.192-.336-5.514 2.655-6.579 1.952.739-4.106 7.663-6.857 11.303-5.765 10.834 3.249 13.789 16.376 11.248 26.25a32.1 32.1 0 0 1-15.366 19.837c-9.533 5.445-22.107 6.235-32.537 3.299a47.45 47.45 0 0 1-28.479-23.005c-16.523-30.411 1.786-71.095 31.275-85.815 23.981-11.971 45.594-13.536 71.072-5.319a92.3 92.3 0 0 1 53.961 45.605c20.828 41.236 8.404 91.324-25.819 121.086-8.05 7.001-16.928 14.404-26.491 19.156q-.533.264-1.073.51zM480.718 123.568c1.609-.553 18.399-12.472 19.974-5.328 1.906 8.648-4.249 12.469-11.28 15.101 5.146 2.678 8.922 4.768 10.834 10.726.855 2.66.431 6.799-2.836 7.195-7.624.923-14.289-6.087-18.722-11.083 2.632 11.821 1.983 20.13-11.095 23.739-13.489-14.901.185-19.741-1.117-25.595-6.285 2.348-11.059 2.455-17.508 1.199-2.899-2.252-5.858-6.4-8.939-9.374 7.673-12.422 13.768-10.966 26.3-5.666 1.846 2.365 2.514 1.925 4.431 5.205.38-.004.829-.17 1.183-.271-1.537 4.312-.105 5.308 3.409 6.542 1.239-1.942 1.748-3.466 2.464-5.709l-.176-1.981c1.155-.67 4.244-3.387 3.078-4.7"/><path fill="currentColor" d="M477.816 130.249c4.17 3.449 10.505 1.704 11.745 3.161.009.305.053.174-.105.4-1.955.816-14.698-3.553-11.131 4.513.191.431.241.747.131 1.192l-.241.15c-.37-.108-2.986-2.991-2.863-3.707 1.239-1.942 1.748-3.466 2.464-5.709m-11.34 8.074c.124-.345 4.052-4.437 4.204-4.571.327-.064 1.327.885 1.609 1.103.406 1.192-3.623 4.472-5.813 3.468M429.8 55.85c-4.689-10.075-7.347-19.746 5.106-25.098q.85.822 1.658 1.685c6.182 6.536 6.097 8.968 5.827 17.711-.337.695-.385.78-.414 1.548.823.813 1.982-1.53 2.374-2.085 2.825-3.463 5.913-5.849 10.495-6.058 17.104-.782 8.06 17.914-5.11 19.341l-3.429.115c-1.17-.863-3.382-.493-4.935-.46-3.118-9.57 1.481-5.925-7.218-3.274-5.889-5.536-6.93-5.344-1.287 1.005l.012.84c.052 6.599-.559 1.149 4.516 5.863.182.801.398 1.322.682 2.085.7 1.97.823 3.027 1.316 4.938q.055 1.369.016 2.738c-.197 5.571-2.11 9.466-6.122 13.147-2.966.794-5.005 1.003-8.048 1.382-6.073-8.816-4.404-12.156 1.282-20.44.883-1.287 1.124-1.408 1.579-2.889 2.04-.25 4.959-1.228 4.207-3.724-1.618.715-3.513 2.045-4.207 3.724-11.65 2.102-13.62 4.066-22.967-5.655 6.962-11.652 13.512-10.908 24.667-6.44m113.842 67.77c-3.967-14.494-2.37-17.197 10.47-24.404 8.682 8.695 7.763 15.643 1.722 25.67-.903.677-1.477 1.26-1.826 2.332l-.503.29c-3.081 1.808-3.83 1.81-6.748.233-.756 5.434-2.471 3.699-2.856 5.243.433 1.371 2.821.627 3.207 4.355-.959 1.076-3.825 4.775-2.536 6.111-2.322.662-10.571 8.642-15.142 8.276-2.341-.188-1.359.875-3.946-.73-1.385-2.397-.989-4.833-.437-7.534 1.072-5.247 5.864-7.149 9.977-9.701-16.299-5.403-15.538-28.082 8.618-10.141"/><path fill="currentColor" d="M535.024 133.76c1.236-1.101 7.119-1.941 8.951-.453l-6.474.765c-1.083.153-2.122.689-2.477-.312m8.212-10.481c.023-.019.337-.382.523-.344.946.194 2.592 3.939 2.998 4.805-.756-.621-4.14-3.421-3.521-4.461m46.89-92.499.982.392c11.413 4.451 9.287 15.07 4.591 24.037-1.07.827-2.598 2.262-3.587 3.205-2.742.03-3.094.06-5.703-.505l-1.361.887c-.551 1.962-.539 1.957-1.923 3.299-1.067-.722-3.434.237-4.583.647-11.835-.973-16.08-5.283-18.041-16.747 10.653-4.773 15.269-2.58 22.381 6.244l-.207-1.6c-1.241-9.774.265-12.86 7.451-19.859"/><path fill="currentColor" d="m585.048 58.796-.197-.442c-3.892-8.623-1.862-7.833 1.558-.445zm-19.149 23.793c-1.729-10.458 2.006-17.073 13.09-19.051 1.815.028 2.562.013 4.371-.223 6.121 2.785 2.63.952 8.598 2.214 1.18.99 2.203 1.872 3.702 2.214 5.27 6.517 6.14 6.362 8.138 15.132-1.126 3.938-1.629 5.113-3.755 8.75-12.767-2.489-12.679-4.345-15.136-17.396-6.867 7.06-9.204 8.46-19.008 8.36m-8.26 42.953c7.24-5.292 18.674-8.239 24.284.759.782 1.255 1.639 2.513 2.432 3.779-6.494 8.194-8.631 11.884-20.6 9.837-2.717-.464-4.94-1.647-7.549-2.3-.543-1.356-1.14-2.353-2.694-2.401-.102-2.787-.103-4.085.83-6.633 1.397-1.098 2.1-1.737 3.297-3.041M471.035 99.32c1.498.924 3.925 2.479 5.462 3.195 8.804 4.096 7.062 12.801 4.067 20.333l.154.72c1.166 1.313-1.923 4.03-3.078 4.7.05.001-5.516 1.082-5.697 1.148-.265-2.099-2.44-4.27-3.997-5.677-4.553-10.505-5.665-16.515 3.089-24.419"/><path fill="currentColor" d="M477.64 128.268c-.235-1.773 1.812-4.163 2.924-5.42l.154.72c1.166 1.313-1.923 4.03-3.078 4.7m69.422 9.832c2.759-1.466 2.258-2.746 5.681-2.214 1.264 1.172 1.899 2.277 3.463 1.731.09 1.624 1.023 1.838 1.804 3.119 6.217 10.204 6.664 15.109-1.365 23.404-11.566-4.045-13.148-8.612-12.073-20.691 1.106-.47 2.778-3.865 2.49-5.349m49.787-81.968c9.877-6.383 17.707-3.357 22.87 6.628-9.249 8.856-12.458 7.928-23.819 4.016-1.099-1.371-1.218-1.384-2.859-1.951-1.579-1.523-1.274-2.799-.625-4.858l.225-.777-.529-.776c.989-.943 2.517-2.378 3.587-3.205z"/><path fill="currentColor" d="m595.699 55.21 1.15.922c-.956.912-2.879 3.178-4.208 3.058l-.529-.776c.989-.943 2.517-2.378 3.587-3.205M441.33 63.05c1.373.485 3.802 1.11 4.977-.041 1.293.846 1.378.917 2.841 1.467l.789.332c3.559 1.43 4.785 2.632 7.2 5.082 2.166 2.197 4.135 11.984.54 12.846-8.637 2.07-13.364-3.847-17.206-9.344-.664-1.748-.847-2.451-1.225-4.307q-.315-1.34-.604-2.686c.83-2.022 1.273-1.805 2.688-3.349"/><path fill="currentColor" fill-opacity=".988" d="M467.946 123.739c1.557 1.407 3.732 3.578 3.997 5.677-.354.101-.803.267-1.183.271-1.917-3.28-2.585-2.84-4.431-5.205z"/><path fill="currentColor" fill-opacity=".984" d="M432.867 60.28c-5.643-6.349-4.602-6.541 1.287-1.005-.447.327-.854.66-1.287 1.005"/><path fill="currentColor" fill-opacity=".98" d="M544.572 143.449c-1.289-1.336 1.577-5.035 2.536-6.111l-.046.762c.288 1.484-1.384 4.879-2.49 5.349"/><path fill="currentColor" fill-opacity=".984" d="M428.1 67.944c.694-1.679 2.589-3.009 4.207-3.724.752 2.496-2.167 3.473-4.207 3.724"/><path fill="currentColor" fill-opacity=".776" d="M578.542 62.742c1.149-.41 3.516-1.369 4.583-.647l.235 1.22c-1.809.236-2.556.251-4.371.223z"/><path fill="currentColor" fill-opacity=".686" d="M554.008 127.217c.349-1.072.923-1.655 1.826-2.332l1.805.657c-1.197 1.304-1.9 1.943-3.297 3.041-.108-.469-.202-.901-.334-1.366"/><path fill="currentColor" fill-opacity=".8" d="M593.041 64.825c1.641.567 1.76.58 2.859 1.951l-.24.967c-1.499-.342-2.522-1.224-3.702-2.214z"/><path fill="currentColor" fill-opacity=".98" d="M441.372 62.55c1.553-.034 3.765-.404 4.935.459-1.175 1.152-3.604.526-4.977.041z"/><path fill="currentColor" fill-opacity=".322" d="m438.077 69.068 1.169.017c.378 1.856.561 2.56 1.225 4.307l-1.078.614c-.493-1.91-.616-2.968-1.316-4.938"/><path fill="currentColor" fill-opacity=".918" d="M553.512 135.216c1.554.048 2.151 1.045 2.694 2.401-1.564.546-2.199-.559-3.463-1.731z"/><path fill="currentColor" fill-opacity=".145" d="m446.307 63.009 3.429-.115-.588 1.582c-1.463-.55-1.548-.62-2.841-1.467"/><path fill="currentColor" fill-opacity=".047" d="m437.395 66.983 1.247-.584q.29 1.346.604 2.686l-1.169-.017c-.284-.763-.5-1.284-.682-2.085"/><path fill="currentColor" fill-opacity=".027" d="m442.391 50.148 1.96-.537c-.392.555-1.551 2.898-2.374 2.085.029-.768.077-.853.414-1.548"/><path fill="currentColor" fill-opacity=".902" d="M794.68 387.179c-.446.223-2.275 1.396-2.78 1.019-.023-.646 1.471-1.52 1.887-1.824z"/><path fill="currentColor" fill-opacity=".694" d="M776.183 306.652c-1.692-.902.668-.643 1.218-.513-.297.193-.895.391-1.218.513"/><path fill="currentColor" d="M527.99 193.671c14.06 2.111 32.945 11.048 41.451 22.754 14.011 19.282 3.343 43.802-6.523 62.11-16.815 31.203-44.855 61.576-46.637 98.494.415-.09 2.619-.66 2.799-.974 1.722-2.847 2.435-6.2 3.761-9.237 13.607-31.174 31.785-61.666 59.72-81.799 33.449-24.106 68.695-3.051 60.053 37.858-1.651-2.549-3.473-5.547-5.452-7.817-16.893-19.389-48.416-10.971-67.242.517-24.283 14.817-42.85 42.107-49.6 69.501a60.47 60.47 0 0 0 6.949 45.951 49.1 49.1 0 0 0 30.869 22.14 54.04 54.04 0 0 0 40.161-6.838c22.225-14 32.066-39.361 17.783-63.317-13.233-22.195-59.08-23.226-65.447 5.511-1.97 8.893-1.846 18.744 3.82 26.46a22.23 22.23 0 0 0 15.473 8.968c14.516 1.675 26.71-13.205 17.353-26.146-3.386-3.548-9.155-4.971-12.882-1.203-2.865 2.898-1.056 6.296-1.86 8.302l-1.133-.181c-5.15-6.915 5.777-20.352 16.042-11.897 14.971 12.331 4.715 33.056-12.874 34.696a26.6 26.6 0 0 1-19.51-6.018c-13.253-11.211-12.907-35.918-1.18-48.046 15.114-15.324 44.452-14.106 59.924.069 8.923 8.175 13.514 19.968 13.412 32.003-.037 4.454-.922 8.441-.738 13.102l3.271-1.988c28.243-16.966 50.191-10.096 80.804-6.47 12.215 1.446 28.027 1.247 40.093-.666a107.3 107.3 0 0 0 18.815-4.665c24.681-8.62 48.72-24.072 76.181-18.858 22.683 4.307 48.266 46.216 23.263 59.966 1.645-7.178 1.714-16.323-4.466-21.515-19.842-16.667-47.603-.652-68.379 5.804-25.698 7.986-47.898-1.348-71.757-9.951-17.383-5.987-38.443-9.978-56.754-10.328-14.868-.284-32.741 5.492-43.469 16.106-.955.956-1.099 1.538-1.073 2.708 2.679.97 11.045-3.373 14.041-4.59a95 95 0 0 1 18.161-5.248c13.567-2.589 28.418-2.276 41.891.603 72.56 15.504 124.905 74.252 203.976 64.959a139.3 139.3 0 0 0 94.435-53.43c25.115-31.986 35.735-80.561-.08-108.449-20.052-15.616-51.174-16.008-67.021 5.272a32.6 32.6 0 0 0-6.143 24.564c1.268 8.237 6.438 16.058 13.127 20.944a26.66 26.66 0 0 0 20.131 4.889c10.097-1.589 16.85-8.155 15.006-19.393-.603-3.676-3.023-6.005-6.113-7.956a72 72 0 0 0 1.749-1.523c9.486 4.686 10.434 14.494 6.176 23.46-6.177 13.007-26.177 13.198-37.043 6.467-8.156-4.789-14.192-12.853-16.59-21.878a37.7 37.7 0 0 1 3.773-28.588c14.686-25.088 47.671-27.849 71.134-13.573a59.17 59.17 0 0 1 21.409 22.831c2.56 4.816 3.98 10.323 8.02 13.389l.59.454.36.267v37.891c-1.06.248-3.02.349-3.34 1.4-12.69 42.13-41.803 71.611-82.488 88.368-42.023 17.467-85.534 11.097-126.324-6.318-54.299-23.183-112.559-69.125-174.474-45.112-13.277 5.149-25.15 13.214-37.705 19.964-7.77 4.177-17.671 6.38-26.479 8.185-3.768.772-12.985 2.835-14.894 7.075-1.985 6.523 6.721 13.028 12.244 13.867 9.074 1.38 17.384-1.416 26.4-1.634 11.918-.326 23.808.652 35.681 1.014 11.535.352 28.174-1.83 31.028-15.423.897-4.283-.492-5.645-1.539-9.249 3.752-.588 5.23 1.929 7.079 4.864 6.675 10.642 1.708 24.54-6.402 32.896-12.635 13.019-30.543 18.558-48.32 18.792-28.7.379-54.732-7.899-62.958-38.103-10.24 15.923-12.724 37.038-9.202 55.42.679 3.539 4.413 16.462 7.836 17.846 1.524-.838 1.391-1.929 1.589-3.676.289-2.072.326-2.746.299-4.853 2.303-1.641 1.587-5.383 6.068-9.771 1.233-1.264 1.427-1.329 2.011-2.956 2.134 2.651 5.61 8.83 8.853 9.222 1.546.969 3.805 3.084 5.129 4.372l-.654.952c-1.518 2.582-13.638 3.829-14.74 10.501-.321 1.942-1.542 2.877-.77 5.515 2.037 6.958 8.377 2.004 12.19 5.068 1.056.849 2.809 3.871 3.879 5.129-1.827-.865-.94-.792-2.698-.573-1.202 1-1.53 1.78-1.97 3.299-14.013.913-27.747 6.575-37.048 17.234-9.608 10.62-15.14 29.625-13.665 43.831 4.711 45.367 47.686 94.17 95.88 91.559 14.681-.795 20.852-8.504 28.682-19.517 2.169 12.176.436 26.296-6.771 36.616a27.6 27.6 0 0 1-18.597 11.694c-35.982 5.787-73.778-47.801-87.871-76.137-.77-1.549-6.834-15.187-7.767-15.382l-.616.45c-.071.051-.147.096-.218.146-.988.705-1.201 1.57-1.548 2.681q-.09.285-.184.569c.597 22.011 29.969 58.774 41.201 78.164 5.571 9.617 10.547 20.029 13.202 30.862 2.81 11.47 3.04 24.654-3.396 35.02-8.97 14.447-26.771 21.096-42.517 24.715 5.238-5.109 9.232-10.114 12.183-16.875 4.713-10.793 6.53-22.551 6.598-34.274.202-34.437-12.888-58.623-23.871-89.979a233 233 0 0 1-6.103-20.197c-.958-3.866-1.341-8.391-2.786-12.054l-1.288-.12q-1.288-.676-2.566-1.376c.221-1.736.341-3.307.134-5.049q.353-2.181.792-4.347c-.122-1.035-.293-1.764-.736-2.708l-.842-.009-1.013 1.161c-.312.864-.465 1.69-1.386 2.082-.203.087-.42.135-.629.207-.297.103-.592.217-.888.326-1.805 1.753-6.606 15.895-8.32 19.532-11.399 24.194-33.066 57.232-55.161 72.155-10.559 7.132-24.258 12.686-37.173 10.012-7.058-1.461-13.569-5.138-17.536-11.3-7.127-11.069-9.115-24.444-6.264-37.199 4.307 7.629 8.448 13.212 16.667 16.994 12.592 5.794 28.172 3.424 40.698-1.336 26.308-9.998 47.499-32.553 58.819-58.045 7.741-17.43 11.711-37.171 4.623-55.488a53.24 53.24 0 0 0-28.783-29.88c-12.732-5.523-25.712-5.152-38.547.035-13.049 5.272-24.286 15.798-29.764 28.814-4.179 9.928-4.776 22.134-.576 32.159 3.923 9.363 11.834 16.626 21.192 20.397 10.158 4.093 22.019 4.349 32.118-.083a28.03 28.03 0 0 0 15.153-15.867c2.676-7.102 3.368-17.744.028-24.671-2.817-5.844-7.654-10.413-13.833-12.52-5.15-1.756-11.032-1.646-15.94.812-4.254 2.131-7.093 5.894-8.425 10.419-1.16 3.937-1.393 8.05.735 11.693 1.487 2.544 3.987 4.663 6.921 5.26 2.291.466 4.565-.113 6.435-1.494 3.347-2.472 2.862-5.353 3.531-9.048l.747.158c.545 1.05.71 1.932.812 3.095.262 2.98-.194 5.112-2.238 7.418-1.95 2.201-4.76 3.302-7.672 3.312-3.735.014-7.664-1.37-10.251-4.125-3.265-3.477-4.209-8.781-3.833-13.39.443-5.431 3.174-10.294 7.303-13.799 4.901-4.162 10.839-5.482 17.119-4.987a26.25 26.25 0 0 1 18.359 9.449c5.398 6.473 7.548 15.122 6.779 23.421-.843 9.086-4.85 17.662-11.96 23.514-8.24 6.782-20.274 9.352-30.733 8.352-11.558-1.104-22.798-6.024-30.214-15.165-9.297-11.459-10.288-24.832-8.89-38.895-18.763 12.281-37.98 15.186-60.018 12.016-5.208-.75-12.495-2.717-17.675-1.843l-.418.867c-.106-.219-.217-.436-.318-.658-.105-.231-.064-.252-.218-.451-.341-.441-.909-.543-1.431-.558-.437-.013-.853-.024-1.293-.078-1.327-.162-2.653-.512-3.962-.082a1.3 1.3 0 0 1-.606.413c-.246.063-.499.095-.748.142l-.442-.768c-5.676-1.487-13.03-1.154-18.893-1.041a132.8 132.8 0 0 0-35.758 5.65c-9.514 2.916-18.717 6.586-27.969 10.228-14.91 5.87-29.722 12.913-46.161 9.651-11.991-2.38-22.098-9.52-28.793-19.687-5.083-7.72-9.797-19.164-7.575-28.544 1.313-5.54 4.711-9.32 9.455-12.194-.656 3.216-1.048 6.524-.666 9.802.565 4.851 2.715 9.291 6.647 12.286 22.126 16.854 50.117-3.424 72.407-8.708 8.044-1.908 16.345-2.043 24.524-.973 7.703 1.008 15.424 3.029 22.82 5.396 8.105 2.594 32.858 13.51 40.357 12.526 2.246-.203 4.48-.496 6.725-.699.638.012 1.274-.012 1.912-.028 1.73.935 2.135 1.743 2.962 3.486.298.414.418.516.863.726q2.414.404 4.838.741c18.354 2.579 40.361 1.849 55.732-9.915 2.137-1.636 6.528-5.097 6.878-7.781-.375-.262-.681-.682-1.127-.785-.76-.176-9.406 4.094-10.622 4.637-17.123 7.639-35.167 8.07-53.507 6.972a47 47 0 0 0-3.533-.537c-1.354-.169-2.525-.434-3.861-.676-25.927-4.873-51.586-18.524-75.198-29.778-20.434-9.739-40.531-20.158-61.971-27.615-44.778-15.457-90.726-12.795-130.695 14.948-25.733 17.861-46.941 42.942-53.761 75.19-7.542 35.662 15.846 74.321 54.322 74.788 11.688.142 23.139-4.037 31.34-12.475 19.37-18.467 9.884-51.408-17.012-55.065-20.002-3.129-30.74 20.787-14.368 28.275-.954.162-1.9.387-2.846.592-3.438-1.839-6.138-4.207-7.497-7.984-1.633-4.541-1.098-10.398 1.057-14.681 2.46-4.893 6.99-8.159 12.118-9.848 7.948-2.617 17.36-1.507 24.696 2.404 8.197 4.371 14.222 12.484 16.881 21.316 2.853 9.48 1.578 20.062-3.076 28.736-5.78 10.774-15.436 17.8-27.05 21.275-14.264 4.269-29.273 1.801-42.155-5.342a59.04 59.04 0 0 1-26.687-30.395c-1.665-4.377-2.689-8.902-3.987-13.388-.907.146-1.437.368-2.258.748v-31.214c.568-.185 2.09-.772 2.33-1.326 2.011-4.647 2.832-9.505 4.712-14.266a118.4 118.4 0 0 1 8.505-17.278c13.7-23.026 34.562-40.716 58.013-53.233a132.45 132.45 0 0 1 52.419-15.375c53.839-4.322 94.731 21.442 141.593 43.48 28.433 13.999 55.605 26.233 87.975 24.826 30.174-1.311 46.083-14.742 70.643-29.33 5.95-3.535 14.56-4.921 20.923-7.696 3.172-1.382 3.792-6.164 7.086-7.342 1.912-1.275 7.151.475 8.683-.386 4.736-2.66 1.761-11.037-.435-13.588-3.955-4.594-9.491-5.317-14.736-6.032-12.136 5.827-20.827 6.855-36.057 7.178-13.592.289-49.571-6.166-51.154 16.015-.168 2.352 2.905 5.816 1.947 8.857-3.486-.111-8.509-7.128-9.466-10.431-4.575-15.803 6.948-29.809 19.856-37.182 17.362-9.917 36.031-10.417 55.364-11.309 22.818-1.191 34.101-4.202 44.5-25.039q.23 2.215.494 4.428c-1.397 7-3.509 17.027-6.468 23.584-.287 1.068-.297 1.048-.81 2.01-1.041 1.108-1.547 2.053-1.85 3.58-.945 1.215-7.643 10.987-8.092 11.894l.638.233c3.237-2.982 4.296-5.588 7.076-8.495a44 44 0 0 0 .851-2.633c1.076-1.49 1.495-2.51 2.211-4.252a25 25 0 0 1 1.664-2.502c3.865 5.189 6.95 12.825 5.289 19.675-.171.704-1.604.359-1.975.289l-.75.501c.873 3.989 1.416 9.141 1.965 13.27 9.504-14.491 11.917-34.431 8.864-51.369-1.305-7.24-4.834-19.167-9.234-25.154l-.506 1.797c-3.642 12.798-9.683 21.36-21.946 27.959-28.66 15.344-77.121 11.582-94.739-18.872-6.447-11.145-5.094-23.752 7.193-29.789-1.498 4.354-3.222 9.689-1.026 14.02 6.107 12.044 24.921 11.582 36.196 10.759 12.774-.933 24.514-1.721 37.101-.231 7.491.887 15.414 2.796 22.557-.377 3.688-1.667 11.402-8.675 7.814-13.461-5.509-6.582-16.14-5.615-23.78-7.218-5.181-1.143-10.999-3.659-15.78-6.015-15.648-8.825-31.794-19.953-49.406-24.513-56.74-14.693-111.691 26.035-161.449 47.507-28.379 12.246-61.233 20.791-92.343 17.218-43.7-5.02-87.74-33.274-109.09-71.913a96.4 96.4 0 0 1-6.017-13.109c-.64-1.707-4.94-16.034-5.35-16.545L0 388.95v-31.36c3.045-1.052 3.667-6.092 4.74-9.24a70.4 70.4 0 0 1 7.771-15.596c5.111-7.69 12.298-14.425 20.372-18.918 22.893-12.741 56.008-8.689 69.143 15.95a38.35 38.35 0 0 1 2.588 29.703c-5.638 17.63-23.973 28.544-41.95 22.503-10.013-3.099-16.524-14.735-12.496-24.723 1.64-4.067 3.962-6.034 7.931-7.649.63.346.719.475 1.253.967-7.06 5.603-9.386 13.747-3.242 20.995 8.672 10.232 27.081 8.533 35.92-.495 22.353-22.829 5.266-54.737-23.536-59.074-31.044-4.675-57.84 18.167-62.216 48.182-5.085 34.598 13.207 64.346 37.195 87.518 25.403 24.539 63.024 38.78 98.278 38.07 70.609-1.48 124.029-55.266 191.752-67.27 1.868-.331 3.586-2.398 5.814-2.426 13.896-.17 29.379 2.145 42.713 5.882 5.614 1.573 10.886 3.807 15.993 5.857l1.978-2.253c-2.318-2.75-4.263-4.383-7.371-6.195-25.756-15.024-57.01-9.079-84.002-1.092-22.125 6.546-37.317 15.328-61.629 14.695a78.8 78.8 0 0 1-20.952-3.41c-17.83-5.432-35.146-16.312-54.677-11.173-14.538 3.825-19.412 13.82-15.491 27.833-14.266-6.094-12.167-21.518-7.165-33.207 9.932-23.213 32.433-32.9 56.516-26.617 14.086 3.675 26.281 9.614 39.818 14.849a145 145 0 0 0 30.096 8.303c21.273 3.331 40.796.489 61.836-2.126 16.914-2.102 32.812-2.529 49.006 3.922 2.93 1.168 6.945 4.154 9.722 4.638.593-.572 1.267-1.146 1.211-2.057-.567-5.823-.281-9.481.368-15.227 4.055-35.911 54.877-49.595 76.238-21.095 14.416 19.234 1.058 55.157-27.249 49.281-11.193-3.119-18.398-13.282-16.089-24.775 3.41-16.968 29.223-13.436 22.279 2.257-.664-.526-1.29-5.164-1.751-6.898-8.743-8.638-17.741.074-16.987 9.939a17.66 17.66 0 0 0 6.121 12.113c4.091 3.445 9.044 5.023 14.374 4.359a22.66 22.66 0 0 0 14.975-8.678c9.458-12.145 6.961-33.74-5.781-41.928-31.055-19.956-68.278 5.652-60.959 41.861 2.561 12.671 10.215 22.727 20.501 29.365 24.375 15.737 57.278 12.688 73.509-13.094 24.913-39.57-6.785-93.583-41.933-115.103-14.562-8.915-32.592-15.697-49.876-11.8-11.575 2.61-17.883 9.45-23.897 19.134-1.071-14.673-.415-30.273 10.948-41.205a29.77 29.77 0 0 1 21.287-8.238c32.397.919 61.882 42.552 76.719 68.003 2.628 4.508 10.421 23.156 12.254 25.096l2.045-.847c-3.186 4.543-1.656 2.124.056 8.051l1.285-.067c.994 1.217 1.701 2.221 2.623 3.459.067-2.086.012-3.978.057-6.02.758.289 1.496.578 2.284.77.187-1.313.334-2.339.635-3.632 1.048-.612 1.498-.629 2.704-.773 1.421-4.366 2.231-9.156 3.347-13.714 9.456-38.632 32.606-73.825 29.805-114.961-1.177-17.289-5.216-34.564-18.821-45.898m-59.463 263.447c13.467 13.91 17.966 35.495 17.624 54.188-.33 18.019-5.645 38.14-18.786 51.076q.193.177.39.351c3.327 2.881 8.31 4.375 12.267 6.234 11.353 5.334 19.902 15.927 25.296 27.029a65 65 0 0 1 4.25 11.369c.483 1.753.711 3.895 1.478 5.525.418.889.478.963 1.417 1.331.461-.252.982-.434 1.295-.864 4.16-17.384 11.92-33.659 27.664-43.35a48.4 48.4 0 0 1 16.855-6.434c-13.366-11.699-19.072-27.555-20.264-45.017-1.097-16.065.635-34.021 8.456-48.371 2.519-4.623 5.8-8.787 8.545-13.273-13.6-3.477-25.599-13.293-32.652-25.303-2.754-4.689-5.031-9.879-6.668-15.064-.849-2.691-1.072-5.795-2.509-8.232-.764-.18-1.589-.318-2.324-.601-4.351 17.337-11.544 33.485-27.419 43.129-4.688 2.847-9.711 4.634-14.915 6.277m48.03 190.389c.239 2.756.599 5.131 1.329 7.808.424-1.242.959-2.495 1.075-3.816.043-.496.052-.996.117-1.49.072-.552.394-1.578-.034-2.08-.19-.222-.469-.23-.743-.248-.26-.016-.521-.015-.78-.041-.323-.032-.643-.089-.964-.133"/><path fill="currentColor" fill-opacity=".463" d="M516.557 647.507c.321.044.641.101.964.133.259.026.52.025.78.041.274.018.553.026.743.248.428.502.106 1.528.034 2.08-.065.494-.074.994-.117 1.49-.116 1.321-.651 2.574-1.075 3.816-.73-2.677-1.09-5.052-1.329-7.808"/><path fill="currentColor" d="M468.415 513.632c3.865 5.189 6.95 12.825 5.289 19.675-.171.704-1.604.359-1.975.289l-.75.501c.214.275-6.494-10.88-6.435-10.738l-.855-.34a44 44 0 0 0 .851-2.633c1.076-1.49 1.495-2.51 2.211-4.252a25 25 0 0 1 1.664-2.502"/><path fill="currentColor" d="M464.544 523.359c2.962 1.667 7.512 6.659 7.185 10.237l-.75.501c.214.275-6.494-10.88-6.435-10.738m52.013 124.148c-.68-3.661-.403-7.329-.74-11.005-.276-3.016-.061-6.192-.078-9.228.122.017.149.012.283.151.254.264.378 1.031.457 1.304.051.18.119.355.168.535.543 1.956-.023 4.39.304 6.488.039.249.068.498.108.746.151.916.365 1.837.545 2.747 1.125 5.683 3.973 11.132 4.965 15.753.085.397-.223.801-.397 1.12l-.616.45c-.071.051-.147.096-.218.146-.988.705-1.201 1.57-1.548 2.681q-.09.285-.184.569c-.104.067-.214.128-.306.212-.476.433-.079.225-.541.42-.125-.164-.103-.103-.148-.363-.29-1.665-.659-3.219-.725-4.918.424-1.242.959-2.495 1.075-3.816.043-.496.052-.996.117-1.49.072-.552.394-1.578-.034-2.08-.19-.222-.469-.23-.743-.248-.26-.016-.521-.015-.78-.041-.323-.032-.643-.089-.964-.133"/><path fill="currentColor" d="M516.092 631.691c.187.139.3.231.31.486.003.094-.005.188-.005.282q0 .206.004.412c-.062-.04-.224-.142-.265-.182-.109-.105-.114-.285-.104-.423.006-.067.025-.132.032-.199.013-.125.018-.25.028-.376m-4.587 11.254c.572.232 1.047.336 1.66.472.217 2.268 1.647 9.33.232 11.118-.112.141-.234.274-.349.413q-.111.137-.219.278-1.288-.676-2.566-1.376c.221-1.736.341-3.307.134-5.049q.353-2.181.792-4.347c.135-.518.253-.98.316-1.509m-7.434-268.438 1.285-.067c.994 1.217 1.701 2.221 2.623 3.459.63 4.867.838 9.678.77 14.576l-.004.538c-.365-1.681-.688-3.355-1.133-5.016l-.55-2.505-.504-2.25c-.73-3.347-1.432-5.508-2.487-8.735m4.53 252.484c.483 5.299.056 10.121-.002 15.379l-.001.528c-.312.864-.465 1.69-1.386 2.082-.203.087-.42.135-.629.207-.297.103-.592.217-.888.326-.179-1.547.089-2.514.461-4.005.208-.834.441-1.675.619-2.515l.807-3.986c.518-2.643.721-5.337 1.019-8.016m-180.989-19.076c.638.012 1.274-.012 1.912-.028 1.73.935 2.135 1.743 2.962 3.486-3.209.326-6.651-.586-9.722-1.504-.36-.108-.712-.242-1.076-.337-.329-.086-.924-.147-1.161-.43.101-.263.017-.079.36-.488 2.246-.203 4.48-.496 6.725-.699m183.343-238.898c4.51.886 2.204 3.624 2.017 8.323-.502 1.978-.351 3.375-1.372 5.083-.188-2.36-.64-7.704-1.28-9.774.187-1.313.334-2.339.635-3.632"/><path fill="currentColor" d="M511.6 382.423c1.021-1.708.87-3.105 1.372-5.083.12 6.188-.404 15.348-.418 22.214l-.994 1.009c-.052-2.301-.169-16.649.04-18.14m-.095 260.522c.017-3.475.209-15.465.951-18.067l.109-.047c.138.1.175.475.192.63.039.344.007.692.012 1.038.087 5.639.419 11.276.396 16.918-.613-.136-1.088-.24-1.66-.472m4.318-259.283c.071-1.654-.036-5.271.458-6.633.464.079 2.127.305 2.508.666.093.351-1.133 6.224-1.279 7.014zm-3.269 15.892c.112.733 2.587 10.173-1.44 6.937-.406-.325.375-4.705.446-5.928z"/><path fill="currentColor" d="m515.823 383.662 1.687 1.047c-.192 1.658-.617 5.322-1 6.798l-.852 3.267c-.061-2.672-.16-8.486.165-11.112m-115.822 41.911c1.498 1.833 2.323 3.385 3.425 5.481l-.842-.362c-.767-.316-4.288-1.994-4.769-2.476-.009-.173.077-.21.208-.39zm56.612 105.941c-.099.13-.846 1.144-1.167 1.415-.792.707-3.695 3.645-4.817 3.509-1.733-.209 4.538-4.756 5.346-5.157zm112.35.443c1.546.969 3.805 3.084 5.129 4.372l-.654.952c-.82-.638-5.84-4.018-4.817-4.979zm-56.724 82.249c.451.276.87.418 1.099.89.686 1.418-.487 5.061-1.041 6.53-.302-2.39-1.367-5.282-.058-7.42M697.37 494.475c5.626-.984 11.655-1.63 16.962.882 2.5 1.184 6.864 4.909 9.292 5.089.504.276 4.591 7.433 6.161 9.269-.993.26-1.871.504-2.855.809-.99 1.476-4.304 3.946-4.434 4.467.147.437.889.63 1.242.596.715-.126 3.736 2.767 3.735 2.767 1.663-1.141 1.949-.542 3.549-.082 1.806.519 2.463-.906 4.827-.33 1.29 1.341 2.25 2.827 3.999 2.151.057 2.134 3.309 5.019 4.442 7.381 6.364 13.267 2.528 19.308-6.49 29.293-3.258-2.917-7.821-4.548-10.545-7.92-4.435-5.542-3.945-13.366-1.746-19.724.625-1.807 2.814-7.153 1.486-8.472-3.061 9.753-9.381 17.848-20.196 19.547-2.173.341-6.134.128-7.918-1.26-.724-2.757-.404-7.412.423-10.088 2.366-7.651 8.797-9.553 14.834-12.743-13.244-4.612-16.5-7.106-16.768-21.632"/><path fill="currentColor" d="M723.624 500.446c.504.276 4.591 7.433 6.161 9.269-.993.26-1.871.504-2.855.809-1.14-4.302-1.886-5.559-4.236-9.398-.103-.168 1.142-.799.93-.68m-9.486 15.661c1.201-1.321 6.181-2.202 7.13-1.056-.84.861-5.859 1.433-7.13 1.056m26.126-11.542.855-.162c1.034-.201 2.993-1.554 3.933-2.143 5.044-3.16 10.907-3.983 16.703-2.852 5.931 1.158 10.419 7.612 14.645 11.814-2.241 4.964-4.38 10.678-10.059 12.572-10.432 3.481-16.7.369-25.77-3.799-1.235-1.42-2.083-2.758-3.93-2.058.305-2.612-1.797-1.659-.631-6.951a68 68 0 0 0-1.016-1.36c.724-1.128 3.95-4.805 5.27-5.061"/><path fill="currentColor" d="M734.994 509.626c.724-1.128 3.95-4.805 5.27-5.061.224.206.549.423.629.73-.882 1.063-4.148 4.906-4.883 5.691a68 68 0 0 0-1.016-1.36"/><path fill="currentColor" d="M735.488 469.533c8.683 7.465 12.119 12.416 9.416 23.961-1.158 4.948-2.894 6.79-4.64 11.071-1.32.256-4.546 3.933-5.27 5.061-2.189.515-2.964.572-5.209.089-1.57-1.836-5.657-8.993-6.161-9.269-4.74-18.764-1.525-19.817 11.864-30.913m85.176 17.014c7.413.581 22.898 7.721 27.322 13.757 15.303 20.876-10.903 34.805-26.799 38.794l-.741-1.718c5.475-3.333 9.323-6.635 12.391-12.441a28.36 28.36 0 0 0 1.83-22.031c-2.597-7.771-7.249-11.433-14.101-14.931z"/><path fill="currentColor" fill-opacity=".922" d="M736.641 517.937c1.847-.7 2.695.638 3.93 2.058l-.723.098c-1.749.676-2.709-.81-3.999-2.151z"/><path fill="currentColor" fill-opacity=".961" d="m820.446 537.38.741 1.718c-.552.13-4.654 1.323-4.79.617.259-.454 3.334-1.935 4.049-2.335"/><path fill="currentColor" fill-opacity=".973" d="m819.866 486.317.798.23-.098 1.43a53 53 0 0 0-2.715-.993z"/><path fill="currentColor" fill-opacity=".875" d="M817.851 486.984c-1.934-1.699 1.313-.836 2.015-.667z"/><path fill="currentColor" d="M288.541 469.471c4.077 3.937 9.317 6.308 12.112 11.551 3.802 7.132 1.363 15.128-.937 22.264 1.546-1.484 3.095-3.045 4.785-4.362 7.17-5.584 14.029-5.641 22.564-4.69.027 4.128.147 8.339-1.774 12.125-2.978 5.87-9.527 7.795-15.348 9.613 3.933 1.807 7.82 3.755 10.884 6.888 4.628 4.733 5.167 10.371 5.122 16.634-4.237.341-8.396.514-12.545-.633-8.641-2.389-12.4-9.974-16.348-17.215 1.688 8.613 5.138 14.439 2.333 23.532-2.681 5.945-8.069 7.979-13.054 11.605-3.684-4.616-8.612-8.912-9.728-14.991-1.511-8.227 4.324-16.038 8.833-22.285-8.118 3.71-17.852 7.524-26.781 4.175-5.917-2.219-8.3-7.262-10.79-12.605 4.463-4.69 9.071-10.743 15.73-12.144 7.473-1.572 14.013 1.773 20.118 5.615-2.998-6.047-6.197-12.624-5.52-19.57.687-7.052 5.147-11.337 10.344-15.507m1.114 40.909-.411.673c-.399 1.635-.557 3.81.185 5.437.541 1.187 6.807 3.823 7.219 3.279 1.659-2.189 1.714-3.624 4.752-4.621l.749-.28c-1.975-2.069-3.222-2.895-5.216-5.272.778-1.549 3.006-4.991 2.904-6.468l-.201-.306.007-.073c-1.072.058-4.424 5.926-5.213 7.053-1.643.186-3.207.12-4.775.578"/><path fill="currentColor" d="M289.244 511.053c-.212.085-.705.316-.973.334-.818-.821-5.263-6.112-5.99-7.085.537-.497 1.39-.927 1.85-.138 1.301 2.228 4.273 4.146 5.524 6.216z"/><path fill="currentColor" fill-opacity=".788" d="M294.43 509.802c.789-1.127 4.141-6.995 5.213-7.053l-.007.073.201.306c.102 1.477-2.126 4.919-2.904 6.468-.918.549-1.362.299-2.503.206"/><path fill="currentColor" d="M288.295 515.787c.165.383.211.512.42.898.135.251.307.482.418.747.097.229.185.458.041.694-.148.242-.592.379-.839.456-1.364.426-2.293 1.171-3.405 2.037-.091-.03-.184-.052-.272-.09-.205-.091-.461-.367-.501-.588-.144-.791 3.542-3.584 4.138-4.154m13.854-.919c1.44-.416 7.355-.444 7.863.915.466 1.248-7.83-.471-8.612-.635zm-99.306-28.201.302.404c-3.477 2.794-6.79 5.451-9.285 9.216-4.465 6.734-5.478 15.691-3.8 23.53 2.189 10.228 9.672 15.281 17.91 20.392-4.601-1.254-9.14-2.551-13.648-4.118-3.76-1.433-7.516-3.275-10.884-5.479-5.339-3.492-10.089-8.199-11.284-14.725-.963-5.263.434-10.533 3.565-14.827 5.983-8.203 17.389-12.879 27.124-14.393m377.455 270.7c-.012-.239-.01-.478-.035-.716-.492-4.748-22.607-27.24-24.234-36.028 20.486 25.696 52.407 64.71 86.939 68.769 7.856.924 17.353-.169 23.636-5.434 2.576-2.158 4.459-5.33 4.759-8.718.167-1.882-.138-3.891-.335-5.766 4.897 3.524 9.008 7.649 10.074 13.857.97 5.655-.593 11.735-3.953 16.357-3.542 4.872-8.915 7.943-14.845 8.814-4.965.73-10.902.078-15.594-1.676-1.913-.715-3.753-1.816-5.726-2.334-1.007-.265-1.204-.432-2.088.181l-.043 1.226.281.837c4.677 9.369 52.913 29.309 64.355 33.117 23.537 7.836 46.715 14.784 71.829 10.97 6.286-.955 12.707-2.404 18.44-5.234 9.388-4.634 14.97-11.286 18.922-20.829 4.384 6.247 5.305 13.472 3.96 20.887-2.182 12.016-10.682 22.603-20.592 29.356a67.45 67.45 0 0 1-51.296 10.451c-33.04-6.589-62.687-37.308-88.516-57.757-1.115-.889-2.167-1.834-3.335-2.656l-.297.024c-.256.085-.51.175-.768.254-.87.267-1.746.155-2.612.347-.032.077-.045.071-.015.159.578 1.687 3.854 2.944 5.081 4.618.459.627.983 1.079 1.581 1.567 3.519 3.977 18.749 19.128 22.861 20.809l.968-.466.246-.01c5.3 2.209 14.148 10.284 19.019 14.007 7.987 6.103 16.323 12.013 25.156 16.837 6.138 3.352 12.384 6.692 18.973 9.076 12.071 4.366 23.617 6.084 34.186 14.05a68.27 68.27 0 0 1 22.059 28.743c5.396 13.263 6.279 28.364.646 41.68-3.236 7.65-9.841 16.716-17.15 20.896q-.34.192-.677.386c-.544.319-1.128.767-1.754.909-.165.037-.397.088-.547-.03a.22.22 0 0 1-.084-.197c.04-.301.399-.618.61-.8.1-.086.205-.165.304-.252.229-.202.452-.409.678-.613 5.423-6.137 7.488-11.26 6.996-19.525-.679-11.397-5.133-21.314-13.728-28.958a51.6 51.6 0 0 0-16.267-9.703c-7.798-2.892-18.55-3.463-24.509-9.677-5.108-5.328-7.167-13.828-10.154-20.478-4.688-10.436-16.965-29.751-26.221-36.266q.142.288.289.574c4.088 7.911 9.834 14.841 13.92 22.84 11.011 21.554 13.265 50.191 6.025 73.268-5.827 18.573-18.132 35.53-35.636 44.6a68 68 0 0 1-9.879 4.2c-3.478 1.12-8.481 1.77-11.514 3.64l.253 2.45h-29.021l.295-.75c.42-1.11.8-1.75 1.567-2.65l-.052-1.07c2.151-1.52 7.722-1.08 10.533-1.61 7.008-1.3 14.22-5.63 19.392-10.43 17.515-16.223 21.589-37.819 22.349-60.771-5.77-.562-10.05-3.654-14.181-7.45 9.267-10.845 12.723-19.525 11.938-34.022-.958-17.685-7.963-34.159-16.546-49.397-2.105-3.738-4.272-8.106-7.492-10.99l-.485.624-.873-.103c.706 4.185 8.152 15.638 10.058 23.365 2.857 11.586 2.341 23.592-4.069 33.94-4.415 7.127-11.683 13.568-20.025 15.347-4.142.883-12.979 1.589-16.541-.717 1.173-3.705 7.401-8.407 9.19-13.045 1.327-3.442 2.62-6.9 3.529-10.48 5.37-21.155 1.132-46.382-7.416-66.234-3.026-7.026-6.868-13.55-10.752-20.12-1.178-1.636-2.211-3.35-3.186-5.114l.092-.462c.339-1.636.579-2.012-.289-3.443-.153-.371-.508-.985-.376-1.434.088-.302.44-.52.704-.639.136-.061.28-.102.416-.161.201-.087.162-.046.221-.189-1.157-2.417-18.128-18.862-21.018-20.238-.207-.099-.532-.064-.738.029-.323.146-.484.401-.592.727-.019.058-.033.119-.052.178l-.167.522.359 1.647c-3.033-.756-13.239-15.568-17.018-18.772-.065-.966-.1-1.798-.396-2.721m59.247 60.977 2.522.919c-.729-.78-7.813-9.025-7.89-9.06-.259-.119-.588-.219-.857-.077-.123.064-.159.234-.163.356-.061 2.273 3.312 4.704 4.798 6.032.612.587 1.168 1.088 1.59 1.83m9.366 6.878-.467-.869c-1.451-2.757-3.098-2.787-5.725-4.27 1.652 2.261 3.687 3.879 6.192 5.139"/><path fill="currentColor" fill-opacity=".302" d="M637.955 816.514c-1.486-1.328-4.859-3.759-4.798-6.032.004-.122.04-.292.163-.356.269-.142.598-.042.857.077.077.035 7.161 8.28 7.89 9.06l-2.522-.919c-.422-.742-.978-1.243-1.59-1.83"/><path fill="currentColor" fill-opacity=".463" d="M642.719 820.083c2.627 1.483 4.274 1.513 5.725 4.27l.467.869c-2.505-1.26-4.54-2.878-6.192-5.139"/><path fill="currentColor" d="M635.748 817.286c-.175-.215-.346-.434-.526-.646-1.89-2.224-15.252-15.374-15.108-17.149.05-.624.32-1.34.839-1.728.23-.171.499-.275.791-.223.895.161 2.332 1.66 2.774 2.489.207.387.297.829.415 1.247.103.365.244.872.631 1.036.362.153.807.055 1.181.041.905-.033 1.408.611 1.99 1.214.482.5.71.998 1.056 1.608.248.437.867.512 1.291.626 1.243.333 20.701 17.411 21.819 19.24l-.297.024q-1.845.11-3.693.157l-.467-.869c-1.451-2.757-3.098-2.787-5.725-4.27-.201-.406-.285-.566-.652-.82-.729-.78-7.813-9.025-7.89-9.06-.259-.119-.588-.219-.857-.077-.123.064-.159.234-.163.356-.061 2.273 3.312 4.704 4.798 6.032-.907.168-1.401.331-2.207.772"/><path fill="currentColor" d="M637.955 816.514c.612.587 1.168 1.088 1.59 1.83 3.305 4.241 7.3 8.018 10.674 12.252 1.249 1.568 8.021 9.787 8.181 11.416.026.268-.084.482-.284.656-.435.376-1.104.409-1.643.313-.937-.168-3.178-4.179-3.854-5.077-5.366-7.128-11.001-13.906-16.871-20.618.806-.441 1.3-.604 2.207-.772m-57.657-59.147c.276-.304.502-.676.927-.742.711.343 14.211 15.153 15.992 16.91.274.27.584.499.854.773.179.183.145.163.131.368-.186.187-.425.239-.664.335-.25.101-.458.214-.548.489-.184.562.157 1.219.363 1.713l.359 1.647c-3.033-.756-13.239-15.568-17.018-18.772-.065-.966-.1-1.798-.396-2.721m53.483 263.233c3.182-.56 6.553.27 9.724.75 2.375.36 15.068-.41 15.753.54.42.58.587 1.44.816 2.11h-28.155l.295-.75c.42-1.11.8-1.75 1.567-2.65m5.353-213.864c-.036.113-.077.225-.11.34-.036.122-.061.247-.098.369-.034.113-.088.292-.226.326-1.613.396-23.789-19.275-26.688-21.509a27 27 0 0 1-3.16-2.882c-.218-.229-.427-.466-.649-.692-.145-.146-.309-.272-.459-.413.017-.006.033-.017.05-.017.332.008.609.175.876.357l.639.446c.35.239.688.459 1.01.737.428.371.823.751 1.281 1.085 1.137.827 2.133 1.789 3.253 2.636 2.689 2.033 5.364 4.061 8.089 6.052 4.03 2.947 11.989 7.023 14.978 9.618.313.272.464 1.48.617 1.893.102.274.21.544.316.817zm40.566 45.617.246-.01c2.508 3.106 18.375 18.079 18.83 20.357-.13.339-.067.329-.273.511-.109.096-.223.184-.333.277-.148.125-.276.295-.461.354-.919-.295-2.646-2.997-3.31-3.775-3.245-3.798-13.584-13.321-15.336-16.234.029-.186.018-.243.11-.401.082-.141.194-.264.265-.41.105-.215.175-.446.262-.669m101.665 144.682 1.47.597q-.34.192-.677.386c-.544.319-1.128.767-1.754.909-.165.037-.397.088-.547-.03a.22.22 0 0 1-.084-.197c.04-.301.399-.618.61-.8.1-.086.205-.165.304-.252.229-.202.452-.409.678-.613M573.997 563.494c8.656 2.652 18.337 5.406 26.258 9.832 5.551 3.102 11.537 7.583 16.842 11.176 65.677 44.487 131.168-5.373 191.199-32.685 44.369-20.187 94.287-27.325 139.12-4.181 36.484 18.743 59.444 43.534 73.224 81.548.19.505 2.81 2.869 3.36 3.408v36.499l-1.96-1.264c-2.45 3.135-4.28 11.416-6.37 15.612-8.88 17.802-26.73 30.803-46.523 33.126-13.234 1.554-27.035-1.993-37.452-10.43-7.986-6.468-12.803-16.383-13.833-26.531-1.002-9.881 1.318-20.127 7.779-27.843a33.5 33.5 0 0 1 22.758-12.055c7.173-.6 14.764 1.075 20.307 5.88 3.857 3.343 5.876 7.856 6.166 12.923.222 3.893-.366 8.594-3.094 11.599a10.85 10.85 0 0 1-4.187 2.8l-1.149-1.347c2.029-2.257 3.664-4.051 4.357-7.072.887-3.866.712-7.815-1.486-11.224-2.901-4.502-8.338-7.254-13.476-8.232-7.203-1.371-14.474.632-20.393 4.818a31.2 31.2 0 0 0-12.95 20.914 32.42 32.42 0 0 0 5.854 24.588c6.344 8.718 16.481 14.59 27.092 16.233a51.67 51.67 0 0 0 38.748-9.556c12.342-9.051 21.412-24.144 23.622-39.298 3.63-24.971-6.09-48.759-20.915-68.405a145.83 145.83 0 0 0-62.844-47.372c-63.264-24.893-117.957 5.323-173.46 33.003-23.012 11.476-45.766 22.493-71.657 25.66-17.55 2.147-34.357.596-50.888-5.743-3.724-1.427-9.42-5.091-13.001-5.605-.978.668-1.013.625-1.302 1.764 1.316 3.489 4.406 5.368 7.393 7.344 25.994 17.199 61.757 11.08 89.561 1.59 18.746-6.399 35.667-15 56.071-14.852 25.941.188 48.524 21.018 74.947 15.516 6.211-1.294 11.929-4.349 15.363-9.865 2.866-4.605 3.882-10.968 2.508-16.238q-.071-.26-.145-.521l.367-.242c.859.205 1.666.383 2.413.878 3.647 2.416 5.905 8.141 6.514 12.301 1.41 9.635-3.427 21.138-8.922 28.8-7.02 9.791-17.022 16.176-28.929 18.076-21.623 3.449-43.488-9.302-63.04-16.81a158.5 158.5 0 0 0-25.761-7.258c-12.941-2.419-26.495-2.449-39.57-1.003-32.369 3.58-57.244 12.006-86.362-9.047.406 3.806 1.023 7.766.999 11.591-.066 10.758-3.747 21.895-11.445 29.592-8.458 8.456-20.383 12.385-32.18 12.407-10.469.019-21.051-2.689-28.609-10.316-6.715-6.776-9.541-15.861-9.359-25.263.159-8.222 2.535-16.48 8.737-22.237 5.124-4.757 12.275-6.966 19.19-6.687 6.365.256 12.413 2.78 16.609 7.657 3.388 3.939 5.445 9.037 4.945 14.276-.44 4.618-2.753 9.472-6.484 12.32-2.57 1.963-5.633 2.748-8.831 2.278-2.794-.411-5.924-1.608-7.548-4.047-1.795-2.695-1.514-5.722-.925-8.738a16 16 0 0 1 1.404 2.389c.141.603.33 1.195.565 1.768 3.045 7.43 15.04 6.204 16.971-3.168 3.527-17.115-16.499-26.738-30.144-17.505-12.117 8.199-13.381 28.784-5.222 40.255 19.207 23.998 63.861 12.939 67.317-18.785 2.747-25.221-11.091-42.849-33.293-52.164-6.004-2.519-13.288-3.321-19.519-4.106.44-1.519.768-2.299 1.97-3.299 1.758-.219.871-.292 2.698.573M635.199 0h27.462l-.375 1.863c1.542 1.129 14.194 4.883 17.796 6.747 44.763 23.17 52.791 84.918 28.192 125.501-3.271 5.395-9.571 13.243-11.854 18.622 9.852-6.948 23.16-27.204 28.367-38.577 2.685-5.863 4.387-13.457 8.551-18.64 5.318-6.555 14.982-7.697 22.643-10.074 16.66-5.168 29.232-17.31 32.049-34.923 1.525-9.53.184-16.956-7.012-24.043l.719-1.195c25.825 16.068 27.762 49.473 12.445 73.77-17.085 27.097-40.572 26.314-66.664 39.083-14.994 7.414-28.192 16.797-40.74 27.776l-.576-1.103c1.102-.88 5.829-4.547 4.913-6.158-1.45-.399-5.139 4.39-6.145 5.569-1.6 1.874-4.118 3.629-5.518 5.339-11.791 10.227-24.556 23.58-36.503 33.127l-.712-1.09c2.117-2.789 11.741-12.076 10.762-15.093.484-.15 1.299-.456 1.609-.856 18.554-23.873 36.138-58.101 26.295-88.792-1.745-5.44-5.413-9.417-9.227-13.439 4.44-4.59 7.556-6.502 13.887-7.503.617-30.376-11.899-66.913-46.17-71.75-1.058-.537-3.21-.367-4.561-.507l1.508-.942c-.446-1.357-.494-1.497-1.141-2.712m57.271 158.685c1.313-1.398 5.598-5.163 5.902-6.776-.235-.405-.211-.438-.629-.558-.136-.039-.277-.061-.412-.103-.319-.099-.531-.351-.766-.573-.97 1.18-5.478 5.608-5.293 6.813.067.438.373.768.751.975.146.08.298.148.447.222"/><path fill="currentColor" d="M635.199 0h25.48c-.112 2.88-1.573 1.918-4.448 1.71-6.718-.488-13.232.488-19.891 1.002-.446-1.357-.494-1.497-1.141-2.712"/><path fill="currentColor" fill-opacity=".984" d="M696.565 150.675c.235.222.447.474.766.573.135.042.276.064.412.103.418.12.394.153.629.558-.304 1.613-4.589 5.378-5.902 6.776-.149-.074-.301-.142-.447-.222-.378-.207-.684-.537-.751-.975-.185-1.205 4.323-5.633 5.293-6.813"/><path fill="currentColor" d="m404.458 799.669.741 1.042c-3.37 5.427-6.922 10.838-9.797 16.546-11.085 22.012-18.593 50.487-12.901 74.995 2.427 10.45 6.875 18.693 14.999 25.719-10.366 1.519-20.34 1.155-29.048-5.248-7.996-5.88-12.983-15.297-14.413-25.031-1.935-13.167 3.154-26.461 9.375-37.798 2.218-4.041 5.009-8.163 6.591-12.489-13.453 9.709-26.47 42.45-29.073 58.61-2.072 12.865-1.933 27.19 5.996 38.097 1.338 1.841 2.864 3.569 4.163 5.43-3.918 4.349-7.659 5.812-13.13 7.419.493 21.364 4.563 43.563 20.612 58.949 6.206 5.95 15.278 12.13 24.186 12.51 2.162.1 6.706-.49 8.518.48l.006.41-2.081.5c-.395.1-.799.16-1.191.27-.204.05-.401.13-.601.2-1.978.24-3.921.6-5.907.78-1.424.13-13.472.36-13.719.72-.449.64-.236 1.51-.154 2.22h-1.888c.09-.69.01-.38.302-1.11.073-.19.151-.37.227-.55-.23-1.16-3.546-1.51-4.753-1.8-11.124-2.63-20.183-6.23-29.441-13.14-16.743-12.51-26.406-33.533-29.261-53.837-3.446-24.499 2.926-48.552 16.042-69.317 3.312-5.245 7.252-10.159 10.993-15.104.205-.216.412-.432.606-.658 4.377-5.113 9.241-9.958 14.027-14.69 9.26-9.649 19.528-19.361 29.716-28.021 5.934-5.044 12.343-9.536 18.265-14.59 4.195-3.579 8.069-7.641 11.993-11.514"/><path fill="currentColor" d="m383.644 819.763.244.079c.215.063.435.11.646.185.148.053.223.095.286.235-1.781 3.036-4.815 5.635-7.027 8.375-2.596 3.213-4.904 6.671-7.607 9.79-.262-.096-.713-.313-1.015-.325-.054-.003-.475.029-.589-.033-.356-.193-.327-.139-.372-.342.079-.177.045-.129.184-.298 4.975-6.099 9.757-11.995 15.25-17.666M361.698 0h29.138l-.696 1.863.121 1.634 1.499 1.285c-5.5-.23-9.638-.352-15.011 1.237-26.97 7.98-37.666 37.373-38.544 63.208a159 159 0 0 0-.077 7.271c6.775 1.13 8.017 2.078 12.776 7.073-3.406 4.54-6.8 9.183-8.34 14.753-6.987 25.266 2.182 51.74 15.54 73.244 1.608 2.589 5.311 9.069 8.627 8.847.944-4.364-21.167-28.442-9.756-55.383 2.771-6.543 7.345-12.346 13.338-16.225 8.425-5.453 17.473-5.55 27.012-3.644-8.803 9.13-13.756 16.265-15.397 29.309-3.875 30.818 5.809 61.806 23.134 87.03 1.096 1.444 1.8 2.555 3.225 3.566l-.321 1.112c-1.748-1.123-2.047-1.504-3.454-3.098-.697-.416-.704-.43-1.087-1.124-1.55-1.318-2.709-2.534-4.14-3.969l-.781-.836a240 240 0 0 1-7.602-7.718c-.248-.244-.319-.43-.601-.449-.25.389-.217.98-.28 1.432-1.042-1.587-1.264-1.294-2.726-2.46.074-2.167-.005-2.252-1.494-3.999l-.609-.744c-.918-1.791-4.929-6.515-6.426-8.076-.765-.652-.906-.937-1.517-1.794-1.078-1.573-2.095-2.939-3.368-4.364-1.093-1.501-4.689-6.7-5.617-7.701-.087.003-3.705.066-3.14-.038l-.093.106c.188.862 6.59 8.915 7.67 10.137 1.286 1.453 1.963 2.426 3.401 3.863l.051.605-1.572.503-1.536-.847c-.556-1.282-4.247-4.45-5.95-4.302-.424-2.216-18.127-17.602-21.017-20.344-2.511-2.385-4.573-4.354-7.026-6.857-.756-1.248-4.021-3.95-5.283-5.629-1.289-1.842-2.706-3.163-4.159-4.899-.76-.941-1.519-1.878-2.249-2.843-.96-1.371-1.561-2.289-2.762-3.455-15.125-21.1-22.943-40.426-22.727-66.637.249-30.248 15.349-58.995 43.007-72.658a56 56 0 0 1 9.707-3.817c2.024-.572 5.812-1.081 7.096-2.337z"/><path fill="currentColor" d="M362.905 0h27.931l-.696 1.863c-1.481 1.263-.654 1.491-2.89 1.163l-5.105-.707c-5.649-.772-11.693-.332-17.379-.362-.478-.09-.806-.491-1.072-.866zm289.748 198.68c22.593-18.793 44.851-38.891 70.795-52.991 14.241-7.739 25.03-10.205 41.125-8.737a63.37 63.37 0 0 1 42.905 22.313c9.967 12.015 13.337 25.585 5.32 39.771-23.223-60.864-142.646-6.032-177.842 18.362-2.254 1.273-3.856 2.856-5.862 4.435a186 186 0 0 1 2.171 1.792c1.512-.922 3.089-1.736 4.592-2.671l.619-.368c8.255-4.578 19.673-9.072 29.151-6.141a22.4 22.4 0 0 1 13.563 11.848c5.161 10.736 1.087 20.224-7.919 27.03.026-5.347.169-9.83-4.092-13.962-5.13-4.974-14.83-6.288-21.769-5.885-26.851 1.558-51.772 25.621-69.179 44.441-4.874 5.269-10.601 12.626-15.153 18.249l-.743-.815c6.471-10.721 14.357-20.444 21.56-30.633l.127-1.818.1-.364c.399.481.547.832 1.133.899.875-.385 6.482-6.484 6.528-7.602 1.557-1.25 2.2-2.248 3.642-3.489 1.125-1.123 3.829-3.488 4.688-4.543 3.287-3.651 9.79-9.572 13.553-13.302 1.83-1.799 3.824-3.429 5.532-5.262 2.015-1.292 8.761-7.593 11.106-9.626 3.781-3.279 10.437-7.95 13.669-11.341.055-.424-.122-.869-.231-1.28 2.76-.395 4.121-1.984 6.054-3.899a142 142 0 0 1 4.857-4.411"/><path fill="currentColor" d="M629.094 221.833a186 186 0 0 1 2.171 1.792c-8.489 5.196-14.333 10.579-22.181 16.2 3.507-4.399 15.43-14.166 20.01-17.992M244.971 716.422c-2.119-.174-4.179-.897-6.1-1.783-8.898-4.107-15.461-11.707-18.83-20.859-4.201-11.412-2.959-24.968 2.089-35.902 10.83-23.452 33.945-36.596 58.847-39.575 4.91-.588 15.322-.066 19.311-1.617.983-.382 1.64-.453 2.682-.548.207.781.312.958 1.026 1.392 1.733 1.053 9.463.922 12.009 1.178.853.086 1.604.176 2.368-.24q.21.08.423.156c5.102 1.788 10.925 2.054 16.211 3.271 17.192 3.959 42.103 12.037 50.476 28.934 4.173 8.422 3.929 18.79.886 27.538-3.137 9.015-9.145 16.286-17.857 20.379-8.854 4.159-19.781 4.689-28.946 1.222a29.6 29.6 0 0 1-16.645-15.743c-2.623-5.869-3.582-12.598-1.243-18.727a18.96 18.96 0 0 1 10.59-10.892c5.144-2.099 11.276-2.144 16.335.234 2.499 1.175 4.708 3.023 5.682 5.672.909 2.472.534 5.573-.628 7.904-1.001 2.011-2.556 3.306-4.474 4.393l-.352-.869c2.033-1.838 3.561-3.629 3.778-6.477.176-2.295-.799-4.375-2.393-5.985-2.782-2.81-7.01-3.881-10.863-3.757-4.593.147-8.153 2.314-11.16 5.727-3.192 3.622-4.72 8.204-4.275 13.019.626 6.768 4.608 13.27 9.923 17.419 6.479 5.059 15.236 7.093 23.318 5.89 8.474-1.261 16.138-6.38 21.135-13.272 5.153-7.106 7.377-16.618 5.769-25.276-1.41-7.592-5.885-13.619-12.233-17.818-14.654-9.695-35.843-9.88-52.446-6.389-25.66 5.397-63.548 24.553-77.982 46.929-3.948 6.12-6.258 14.749-4.783 21.978.79 3.873 2.966 7.468 6.358 9.583 1.108.691 2.245 1.31 3.488 1.718.208.196.928.716.924 1.094-.001.108-.033.175-.132.236-.364.222-1.15.018-1.525-.036-.253-.037-.507-.067-.761-.101"/><path fill="currentColor" d="M244.971 716.422c.434-.452.995-.815 1.494-1.193.208.196.928.716.924 1.094-.001.108-.033.175-.132.236-.364.222-1.15.018-1.525-.036-.253-.037-.507-.067-.761-.101M211.719 198.53c-2.14-3.019-4.756-8.373-4.98-11.858-2.331-36.099 46.273-57.801 76.562-48.575 14.536 4.428 28.086 13.242 40.475 21.777 2.163 1.906 9.585 7.639 11.976 9.176.504.361.748.636 1.203 1.015 7.875 6.558 15.769 13.299 23.71 19.76q1.696 1.323 3.439 2.583c1.359 1.116 1.307 1.193 2.844 1.46 1.616.282 3.396 2.405 4.707 3.521 2.649 2.129 3.862 4.426 6.358 5.381l.306.12c-.063.026-1.505.537-1.126.907 5.439 5.304 11.829 9.769 17.308 14.992-.231.899-.355 1.266-.67 2.156a78 78 0 0 1-2.195-1.538c-1.003-.902-1.968-1.517-3.067-2.307-.424-.623-3.482-3.016-4.265-3.255-.132.107-.093.212-.142.631-5.124-7.483-43.052-22.867-52.514-26.978-30.899-13.425-103.699-32.141-119.929 11.032"/><path fill="currentColor" d="M326.614 158.391c-6.331-4.546-13.67-10.358-20.198-14.335-10.418-6.347-25.505-13.165-37.298-16.63-19.609-5.435-33.674-17.568-43.019-35.61-12.469-24.075-6.232-56.132 19.408-68.519l-.477.432c-6.706 6.134-8.801 10.427-9.379 19.46-1.304 20.378 12.35 35.137 30.701 41.8 7.19 2.61 17.602 3.104 22.884 9.056 4.947 5.573 6.714 14.364 10.038 21.075a141.6 141.6 0 0 0 22.544 32.639c.61 1.208 1.358 2.042 2.29 3.016 1.5 1.854 2.669 3.207 4.267 4.979 1.34 1.629 2.461 2.948 4.189 4.178l.302.452-1.691 1.238c-1.519-1.12-2.916-2.314-4.561-3.231m5.279 703.151c.055.173.106.348.164.52.021.061.054.119.073.181.132.423-.114.896-.339 1.242-1.017 1.566-2.437 2.851-3.573 4.331-10.661 11.525-20.69 23.865-27.673 38.033-3.436 6.972-5.499 16.288-10.42 22.303-6.054 7.401-18.175 7.807-26.603 11.162-17.163 6.833-28.839 22.966-28.112 41.635.248 6.362 2.543 10.876 6.743 15.49l-1.114 1.382c-4.587-3.617-8.85-7.677-12.228-12.467-7.771-11.018-10.22-24.304-7.951-37.493a64.4 64.4 0 0 1 9.963-24.807c16.729-25.143 43.425-27.864 68.744-39.976 11.843-5.665 21.674-14.031 32.326-21.536m219.495-370.811a57 57 0 0 0 .174-1.42c.152-1.505.029-1.418.716-2.724 8.547 19.806 22.602 23.666 43.158 24.052 22.256.417 41.693.871 60.728 14.109 14.409 10.02 26.172 35.305 5.262 45 4.571-7.554 2.308-17.699-5.623-21.636-18.391-9.129-42.165-.728-61.963-4.911-9.429-1.968-11.227-2.635-19.748-6.872-1.324-1.288-3.583-3.403-5.129-4.372-2.279-3.802-6.095-7.505-8.166-11.71-.081-.164-.843-.241-1.045-.257l-.743-.083c.377 1.041.652 1.82 1.101 2.828-.836.301-1.121.409-1.896.821l-.115 2.135c-4.481 4.388-3.765 8.13-6.068 9.771-1.138.825-1.043.73-1.441 2.12l-.428-.245c-2.389-7.178 1.187-19.234 5.388-25.309l.367-.49c.173-.856-4.095-17.628-4.529-20.807"/><path fill="currentColor" d="m558.214 523.556-.115 2.135c-4.481 4.388-3.765 8.13-6.068 9.771-1.545-3.728 3.701-9.535 6.183-11.906m-2.297-12.018c1.266 1.435 4.646 6.437 3.024 8.119-1.341-1.619-2.716-5.55-3.391-7.629zM509.61 656.205c-.493 9.235-4.073 18.69-6.974 27.41-9.689 29.115-24.47 58.378-25.199 89.563-.525 22.507 3.435 39.3 19.151 55.779-14.891-3.171-32.314-10.49-41.419-23.31-21.474-30.235 12.574-72.13 28.247-97.662 9.573-15.595 20.201-33.534 23.353-51.725 1.103.163 1.748.163 2.841-.055m-5.28-291.063c.552-.721 1.044-1.309 1.752-1.878-.053-13.128-19.968-44.431-27.306-56.418-8.343-13.63-18.051-25.698-24.582-40.914-16.301-37.976 2.665-65.42 42.114-72.221-15.309 15.137-18.497 30.954-18.854 52.211-.577 34.37 16.171 65.009 26.546 96.822 2.438 7.47 5.672 18.336 6.16 26.086-.979-.629-1.895-1.574-3.218-2.426-.363-1.468-1.317-1.427-2.612-1.262m120.861-260.571c43.879-6.348 55.129 37.752 34.895 68.419-1.539 2.332-6.739 11.4-7.087 13.511.979 3.017-8.645 12.304-10.762 15.093-1.199.281-1.212.203-2.479 0l.061.386c-2.518 2.225-5.923 4.889-6.533 8.205l-.183.156-.145-.632a2.3 2.3 0 0 0-.237-.54c-.51-.12-12.008 13.062-13.547 14.506-1.628 1.528-2.801 2.411-2.903 4.6l-.758-.807-.893-.831c19.022-23.72 30.707-57.024 27.806-87.516-1.382-14.539-5.908-25.311-17.235-34.55"/><path fill="currentColor" d="M639.758 201.594c1.917-3.023 9.871-11.604 12.302-15.245.093-.14.844.125.939.152.979 3.017-8.645 12.304-10.762 15.093-1.199.281-1.212.203-2.479 0m-286.905 50.888c-7.842-4.883-12.001-11.894-9.9-21.298a21.67 21.67 0 0 1 9.926-13.998c10.312-6.308 18.446-2.568 28.696-.265.008 1.504 4.496 3.111 5.932 3.776 1.358.697 2.587 1.462 4.004 2.172 1.838 1.497 8.42 5.616 10.925 7.397a200 200 0 0 1 9.304 7.055c.72.584 1.179.847 1.964 1.328.839 1.582 1.383 1.129 3.258 1.277 2.293 1.377 6.095 6.918 9.291 7.699-.692 1.668 2.751 3.959 4.023 5.177 2.81 2.728 5.26 5.652 8.133 8.384.411.655.731.926 1.268 1.502 9.74 11.566 18.545 22.577 27.027 35.186l-1.311.128c-7.535-8.921-16.26-18.977-24.568-27.413-16.395-16.649-40.824-36.944-65.347-37.46-6.273-.132-14.581 2.098-18.998 6.703-3.698 3.858-3.599 7.756-3.627 12.65m266.793 557.415c3.967 9.087 5.178 19.769 1.394 29.106-2.242 5.533-6.327 9.686-11.874 11.927-6.162 2.489-14.117 2.289-20.22-.239l-.101-.614c2.602-1.652 5.4-1.918 8.009-3.309 3.798-2.025 7.175-8.806 8.24-12.876 3.854-14.714-4.955-37.606-11.589-50.489-3.986-7.74-8.938-15.001-13.224-22.586l.413-.729c3.779 3.204 13.985 18.016 17.018 18.772.929 1.079 1.554 2.365 2.465 3.469 4.338 5.258 9.315 10.136 13.018 15.873.116.179.248.317.387.478a49 49 0 0 0 1.878 3.121c1.613 2.503 2.861 5.425 4.186 8.096M587.973 171.63c16.998-5.723 31.84-.304 34.455 19.335 2.858 21.466-13.717 38.541-26.133 54.041-1.428 1.45-2.948 3.264-4.227 4.857-1.697 2.086-2.472 2.517-3.397 5.036-.073-.148-.21-.539-.384-.624-.518.091-3.331 3.482-4.024 4.178l-2.669.772c11.585-18.996 32.216-55.562 20.187-78.79-2.596-5.014-8.47-7.536-13.808-8.805M408.85 220.135c-2.713-5.177-4.825-8.995-6.412-14.664-5.606-20.026 6.871-42.275 30.313-34.992q1.224.384 2.417.858c-20.784 5.313-18.253 28.649-13.637 44.755a144 144 0 0 0 12.196 29.057c2.16 3.917 5.186 8.585 7.111 12.404l-1.701.627c-2.846-3.484-7.42-8.642-10.517-12.093-.498-.761-.634-.839-1.535-.976-.413-1.21-14.722-19.727-16.883-22.676-.312-.842-.863-1.552-1.352-2.3"/><path fill="currentColor" fill-opacity=".016" d="m597.353 777.213.167-.522c.019-.059.033-.12.052-.178.108-.326.269-.581.592-.727.206-.093.531-.128.738-.029 2.89 1.376 19.861 17.821 21.018 20.238-.059.143-.02.102-.221.189-.136.059-.28.1-.416.161-.264.119-.616.337-.704.639-.132.449.223 1.063.376 1.434-.135.005-.27.018-.404.014-1.139-.034-3.473-3.092-4.126-3.957-.336-.419-1.438-2.133-2.132-2.149a.25.25 0 0 0-.239.164c-.141.398.214.944.427 1.249.445.64.96 1.236 1.45 1.842.867 1.005 1.619 2.024 2.368 3.119q-.303-.058-.604-.119c-.162-.034-.314-.103-.472-.152-.539-.168-.806-.074-1.306.124q-.167.065-.335.127c-.139-.161-.271-.299-.387-.478-3.703-5.737-8.68-10.615-13.018-15.873-.911-1.104-1.536-2.39-2.465-3.469z"/><path fill="currentColor" fill-opacity=".988" d="m640.613 206.959 1.129.031c.109.411.286.856.231 1.28-3.232 3.391-9.888 8.062-13.669 11.341-2.345 2.033-9.091 8.334-11.106 9.626l-.927-.962c.102-2.189 1.275-3.072 2.903-4.6 1.539-1.444 13.037-14.626 13.547-14.506.066.105.205.389.237.54l.145.632-.238.799c-.729.71-3.237 2.67-2.349 3.919 1.198.299 2.174-1.985 2.933-3 3.093-1.619 4.038-3.448 7.164-5.1"/><path fill="currentColor" fill-opacity=".961" d="m378.319 202.89.577.046c3.681 2.149 3.021 1.787 5.879 4.621 1.784 1.675 4.5 6.485 5.246 2.861.063-.452.03-1.043.28-1.432.282.019.353.205.601.449.702 5.769 1.448 2.523 3.37 6.785.924 2.048 1.325 1.946 3.732 1.104l.5-.171.781.836c-.059 1.675-.091 3.04-.242 4.725-1.405-1.272-2.397-2.207-3.876-3.387l-.666-.538c-5.479-5.223-11.869-9.688-17.308-14.992-.379-.37 1.063-.881 1.126-.907"/><path fill="currentColor" fill-opacity=".988" d="m394.501 218.789.666.538c1.479 1.18 2.471 2.115 3.876 3.387 4.668 3.79 7.123 9.547 9.678 3.693.643.626 2.76 2.401 2.74 3.418-1.173.939-1.072-2.918-2.847.445.021.063 6.701 7.31 7.837 8.937l.511.719c-1.875-.148-2.419.305-3.258-1.277-1.45-3.303-8.292-7.8-10.918-10.496-1.857-1.908-7.549-5.334-8.955-7.208.315-.89.439-1.257.67-2.156"/><path fill="currentColor" fill-opacity=".031" d="M340.387 854.501c.265-.536.523-1.027 1.112-1.269.58-.239.99-.045 1.522.199.138.063.318.167.47.198.329.067.662.11.993.165-4.786 4.732-9.65 9.577-14.027 14.69-.194.226-.401.442-.606.658l-1.633-1.326c1.136-1.48 2.556-2.765 3.573-4.331.225-.346.471-.819.339-1.242-.019-.062-.052-.12-.073-.181-.058-.172-.109-.347-.164-.52.088-.184.163-.459.354-.586 1.136-.756 2.118-1.89 3.428-2.261.718-.171 1.107-.334 1.704-.79.147-.113.284-.239.431-.352.245-.189.497-.37.746-.555.743-.784 1.264-1.578 1.831-2.497"/><path fill="currentColor" fill-opacity=".984" d="M367.63 1024c-.082-.71-.295-1.58.154-2.22.247-.36 12.295-.59 13.719-.72 1.986-.18 3.929-.54 5.907-.78-.177 1.49-.839 2.49-1.675 3.72zm24.006-804.593c.754.55 1.429 1.017 2.195 1.538 1.406 1.874 7.098 5.3 8.955 7.208 2.626 2.696 9.468 7.193 10.918 10.496-.785-.481-1.244-.744-1.964-1.328a200 200 0 0 0-9.304-7.055c-2.505-1.781-9.087-5.9-10.925-7.397.862-1.655.907-1.781.125-3.462"/><path fill="currentColor" fill-opacity=".882" d="M310.934 614.99c.249-.047.502-.079.748-.142.192-.049.488-.246.606-.413 1.309-.43 2.635-.08 3.962.082.44.054.856.065 1.293.078.522.015 1.09.117 1.431.558.154.199.113.22.218.451.101.222.212.439.318.658l-1.137 2.206c-.764.416-1.515.326-2.368.24-2.546-.256-10.276-.125-12.009-1.178-.714-.434-.819-.611-1.026-1.392 2.824-.184 5.279-.167 7.964-1.148"/><path fill="currentColor" fill-opacity=".98" d="M428.62 246.087c3.097 3.451 7.671 8.609 10.517 12.093.073 1.687.142 1.548-.728 3.006-2.873-2.732-5.323-5.656-8.133-8.384.127-.7.464-1.882.274-2.565a1.58 1.58 0 0 0-.847-.998c-1.838-.859-1.931-1.194-1.083-3.152"/><path fill="currentColor" fill-opacity=".62" d="M326.614 158.391c1.645.917 3.042 2.111 4.561 3.231 1.145.844 2.235 1.6 3.369 2.476l.306.674c.686 1.419.699 2.727.902 4.278-2.391-1.537-9.813-7.27-11.976-9.176 1.294-.855 1.39-.941 2.838-1.483"/><path fill="currentColor" fill-opacity=".988" d="M399.285 217.989c1.431 1.435 2.59 2.651 4.14 3.969.383.694.39.708 1.087 1.124 1.407 1.594 1.706 1.975 3.454 3.098l.755.227c-2.555 5.854-5.01.097-9.678-3.693.151-1.685.183-3.05.242-4.725"/><path fill="currentColor" fill-opacity=".427" d="M613.582 798.68q.168-.062.335-.127c.5-.198.767-.292 1.306-.124.158.049.31.118.472.152.2.042.402.079.604.119 1.194.961 1.946 2.394 2.853 3.623.975 1.764 2.008 3.478 3.186 5.114-.261.207-.516.421-.781.622-.187.141-.386.264-.575.402-.611.447-.931.806-1.336 1.436-1.325-2.671-2.573-5.593-4.186-8.096a49 49 0 0 1-1.878-3.121"/><path fill="currentColor" fill-opacity=".984" d="M504.33 365.142c1.295-.165 2.249-.206 2.612 1.262q.133 1.493.304 2.982c-.556 2.828-.862 2.481-1.89 5.054l-1.285.067c-1.712-5.927-3.242-3.508-.056-8.051z"/><path fill="currentColor" fill-opacity=".976" d="M372.701 191.485c-1.08-1.222-7.482-9.275-7.67-10.137l.093-.106c-.565.104 3.053.041 3.14.038.928 1.001 4.524 6.2 5.617 7.701-.276 1.415-.274 1.314-1.18 2.504"/><path fill="currentColor" fill-opacity=".075" d="m371.655 197.389 1.39-1.78 1.536.847c3.478 2.936 4.667 3.742 7.725 7.229-1.333-.362-2.024-.574-3.41-.749l-.577-.046-.306-.12c-2.496-.955-3.709-3.252-6.358-5.381"/><path fill="currentColor" fill-opacity=".984" d="M584.263 258.453c.693-.696 3.506-4.087 4.024-4.178.174.085.311.476.384.624l1.112.934c-.046 1.118-5.653 7.217-6.528 7.602-.586-.067-.734-.418-1.133-.899-.514-1.221-.123-1.518.797-2.569z"/><path fill="currentColor" fill-opacity=".851" d="M387.41 1020.28c.2-.07.397-.15.601-.2.392-.11.796-.17 1.191-.27l2.081-.5c1.127 1.64 2.008 2.77 2.599 4.69h-8.147c.836-1.23 1.498-2.23 1.675-3.72"/><path fill="currentColor" fill-opacity=".871" d="M384.162 214.476c.049-.419.01-.524.142-.631.783.239 3.841 2.632 4.265 3.255-.862 1.384-.81 1.883-1.062 3.597-1.436-.665-5.924-2.272-5.932-3.776 1.357-1.035 1.489-1.133 2.587-2.445"/><path fill="currentColor" fill-opacity=".941" d="m331.175 161.622 1.691-1.238c1.593 1.636 3.14 2.95 4.75 4.525 1.485 1.164 2.349 1.86 3.725 3.147.17.319.144.265.441.501a97 97 0 0 0 3.402 2.914c.236.437.717.934.643 1.464l-.166.122c-.546-.125-9.958-7.983-11.117-8.959-1.134-.876-2.224-1.632-3.369-2.476"/><path fill="currentColor" fill-opacity=".027" d="m559.009 519.907.743.083c.202.016.964.093 1.045.257 2.071 4.205 5.887 7.908 8.166 11.71-3.243-.392-6.719-6.571-8.853-9.222-.449-1.008-.724-1.787-1.101-2.828"/><path fill="currentColor" fill-opacity=".055" d="M679.452 169.557c1.4-1.71 3.918-3.465 5.518-5.339 1.006-1.179 4.695-5.968 6.145-5.569.916 1.611-3.811 5.278-4.913 6.158a102 102 0 0 0-1.752 1.527c-.323.173-.267.147-.503.45q-1.013 1.08-2.052 2.135c-.907.871-.887.849-1.508 1.948z"/><path fill="currentColor" fill-opacity=".333" d="M367.095 191.307c1.703-.148 5.394 3.02 5.95 4.302l-1.39 1.78c-1.311-1.116-3.091-3.239-4.707-3.521-1.537-.267-1.485-.344-2.844-1.46 1.078-.278 1.615-.777 2.991-1.101"/><path fill="currentColor" fill-opacity=".718" d="M629.094 221.833c2.006-1.579 3.608-3.162 5.862-4.435.498 1.202.92 2.037 1.52 3.188l-.619.368c-1.503.935-3.08 1.749-4.592 2.671a186 186 0 0 0-2.171-1.792"/><path fill="currentColor" fill-opacity=".216" d="M652.901 825.041c1.168.822 2.22 1.767 3.335 2.656-.096.255-.186.513-.288.766-.052.13-.12.254-.173.383-.449 1.08-.016 2.044.096 3.164-.598-.488-1.122-.94-1.581-1.567-1.227-1.674-4.503-2.931-5.081-4.618-.03-.088-.017-.082.015-.159.866-.192 1.742-.08 2.612-.347.258-.079.512-.169.768-.254z"/><path fill="currentColor" fill-opacity=".208" d="M592.068 249.863c1.279-1.593 2.799-3.407 4.227-4.857.821 1.069.947 1.739 1.818 2.795-.859 1.055-3.563 3.42-4.688 4.543-1.035-.799-.784-1.177-1.357-2.481"/><path fill="currentColor" fill-opacity=".333" d="M332.008 605.431c1.287.148 2.256.298 3.533.537-.152.256-.299.515-.456.768-.17.273-.354.539-.526.811-.9 1.427-1.024 1.966-1.112 3.579-.018.326-.061.649-.098.973-.445-.21-.565-.312-.863-.726-.827-1.743-1.232-2.551-2.962-3.486.854-.92.77-1.354 1.955-2.106z"/><path fill="currentColor" fill-opacity=".067" d="m464.067 519.387.473.999a44 44 0 0 1-.851 2.633c-2.78 2.907-3.839 5.513-7.076 8.495l-.638-.233c.449-.907 7.147-10.679 8.092-11.894"/><path fill="currentColor" fill-opacity=".988" d="M390.902 209.435q3.714 3.945 7.602 7.718l-.5.171c-2.407.842-2.808.944-3.732-1.104-1.922-4.262-2.668-1.016-3.37-6.785"/><path fill="currentColor" fill-opacity=".208" d="m615.513 227.468.758.807.927.962c-1.708 1.833-3.702 3.463-5.532 5.262-1.092-2.089-1.302-2.511.083-4.122 1.502-1.007 2.379-1.749 3.764-2.909"/><path fill="currentColor" fill-opacity=".745" d="M378.766 195.139c1.497 1.561 5.508 6.285 6.426 8.076l-.776.896c-1.823-1.723-3.941-3.88-5.666-5.714-.013-1.261-.12-1.98.016-3.258"/><path fill="currentColor" fill-opacity=".106" d="M408.85 220.135c.489.748 1.04 1.458 1.352 2.3-.285 1.47-.464 1.179-.142 2.527.533 2.238-.746-.389-1.773.106-1.425-1.011-2.129-2.122-3.225-3.566 1.664-.736 2.165-1.681 3.788-1.367"/><path fill="currentColor" fill-opacity=".961" d="M387.507 220.697c.252-1.714.2-2.213 1.062-3.597 1.099.79 2.064 1.405 3.067 2.307.782 1.681.737 1.807-.125 3.462-1.417-.71-2.646-1.475-4.004-2.172"/><path fill="currentColor" fill-opacity=".973" d="M376.153 195.953c.881.808 1.712 1.634 2.597 2.444 1.725 1.834 3.843 3.991 5.666 5.714 1.029 1.125 1.293 1.184 1.477 2.576l-.862-.842c-.926-.839-1.672-1.49-2.725-2.16-3.058-3.487-4.247-4.293-7.725-7.229z"/><path fill="currentColor" fill-opacity=".922" d="M440.838 257.553c.439.591 4.772 6.797 4.696 7.151-.758.269-3.894-4.647-4.868-4.463-.108.159-.784 2.008-.989 2.447-.537-.576-.857-.847-1.268-1.502.87-1.458.801-1.319.728-3.006z"/><path fill="currentColor" fill-opacity=".82" d="M427.085 245.111c.901.137 1.037.215 1.535.976-.848 1.958-.755 2.293 1.083 3.152.413.195.722.559.847.998.19.683-.147 1.865-.274 2.565-1.272-1.218-4.715-3.509-4.023-5.177q.41-1.258.832-2.514"/><path fill="currentColor" fill-opacity=".71" d="M329.61 153.578c1.453 1.736 2.87 3.057 4.159 4.899-.452.501-.787.925-1.205 1.455-1.728-1.23-2.849-2.549-4.189-4.178z"/><path fill="currentColor" fill-opacity=".129" d="m637.943 206.396.537.22q1.07.154 2.133.343c-3.126 1.652-4.071 3.481-7.164 5.1l-.584-.919.238-.799.183-.156c1.705-1.666 2.745-2.355 4.657-3.789"/><path fill="currentColor" fill-opacity=".882" d="M506.942 366.404c1.323.852 2.239 1.797 3.218 2.426.214.142.547.149.795.187-.301 1.293-.448 2.319-.635 3.632-.788-.192-1.526-.481-2.284-.77-.273-.988-.421-1.544-.79-2.493q-.17-1.489-.304-2.982"/><path fill="currentColor" fill-opacity=".325" d="M639.819 201.98c1.104 1.646-.908 2.529-1.876 4.416-1.912 1.434-2.952 2.123-4.657 3.789.61-3.316 4.015-5.98 6.533-8.205"/><path fill="currentColor" fill-opacity=".184" d="M333.769 158.477c1.262 1.679 4.527 4.381 5.283 5.629l-1.436.803c-1.61-1.575-3.157-2.889-4.75-4.525l-.302-.452c.418-.53.753-.954 1.205-1.455"/><path fill="currentColor" fill-opacity=".769" d="M373.881 188.981c1.273 1.425 2.29 2.791 3.368 4.364-.417.793-.68 1.247-1.147 2.003-1.438-1.437-2.115-2.41-3.401-3.863.906-1.19.904-1.089 1.18-2.504"/><path fill="currentColor" fill-opacity=".314" d="M592.068 249.863c.573 1.304.322 1.682 1.357 2.481-1.442 1.241-2.085 2.239-3.642 3.489l-1.112-.934c.925-2.519 1.7-2.95 3.397-5.036"/><path fill="currentColor" fill-opacity=".988" d="M327.361 150.735c.73.965 1.489 1.902 2.249 2.843l-1.235 2.176a112 112 0 0 1-4.267-4.979c1.088-.073 2.163-.057 3.253-.04"/><path fill="currentColor" fill-opacity=".969" d="M614.425 794.475c.653.865 2.987 3.923 4.126 3.957.134.004.269-.009.404-.014.868 1.431.628 1.807.289 3.443l-.092.462c-.907-1.229-1.659-2.662-2.853-3.623-.749-1.095-1.501-2.114-2.368-3.119z"/><path fill="currentColor" fill-opacity=".608" d="M324.599 147.28c1.201 1.166 1.802 2.084 2.762 3.455-1.09-.017-2.165-.033-3.253.04-.932-.974-1.68-1.808-2.29-3.016a97 97 0 0 0 2.781-.479"/><path fill="currentColor" fill-opacity=".263" d="m385.031 205.845.862.842c.65.66.705.73 1.402 1.271 1.462 1.166 1.684.873 2.726 2.46-.746 3.624-3.462-1.186-5.246-2.861z"/><path fill="currentColor" fill-opacity=".447" d="M507.246 369.386c.369.949.517 1.505.79 2.493-.045 2.042.01 3.934-.057 6.02-.922-1.238-1.629-2.242-2.623-3.459 1.028-2.573 1.334-2.226 1.89-5.054"/><path fill="currentColor" fill-opacity=".122" d="M647.796 203.091c-.052-1.981.577-6.455 3.64-5l1.217.589a142 142 0 0 0-4.857 4.411"/><path fill="currentColor" fill-opacity=".016" d="m337.616 164.909 1.436-.803c2.453 2.503 4.515 4.472 7.026 6.857l-.894.508a97 97 0 0 1-3.402-2.914c-.189-.307-.163-.335-.441-.501-1.376-1.287-2.24-1.983-3.725-3.147"/><path fill="currentColor" fill-opacity=".98" d="m581.594 259.225 2.669-.772-1.344 1.514c-.92 1.051-1.311 1.348-.797 2.569l-.1.364c-1.973-.282-3.901 2.698-5.395 4.182 1.61-2.619 3.432-5.301 4.967-7.857"/><path fill="currentColor" fill-opacity=".863" d="M510.397 648.801c.207 1.742.087 3.313-.134 5.049l-.653 2.355c-1.093.218-1.738.218-2.841.055.141-.363.284-.725.411-1.093.195-.567.32-1.426.89-1.772.274-.167.531-.147.833-.082.421.09.126.072.59.054.898-.577.338-3.007.693-4.024.064-.183.141-.361.211-.542"/><path fill="currentColor" fill-opacity=".145" d="M328.147 604.755c1.336.242 2.507.507 3.861.676l-.529.35c-1.185.752-1.101 1.186-1.955 2.106-.638.016-1.274.04-1.912.028 1.053-1.557-1.683-1.284.001-2.689z"/><path fill="currentColor" fill-opacity=".988" d="M639.758 201.594c1.267.203 1.28.281 2.479 0l.712 1.09c-1.531 1.271-3.026 2.562-4.469 3.932l-.537-.22c.968-1.887 2.98-2.77 1.876-4.416z"/><path fill="currentColor" fill-opacity=".38" d="M377.249 193.345c.611.857.752 1.142 1.517 1.794-.136 1.278-.029 1.997-.016 3.258-.885-.81-1.716-1.636-2.597-2.444l-.051-.605c.467-.756.73-1.21 1.147-2.003"/><path fill="currentColor" fill-opacity=".925" d="M684.45 166.334a102 102 0 0 1 1.752-1.527l.576 1.103c-1.292 1.471-2.841 2.557-4.322 3.839l-.561-.83q1.039-1.055 2.052-2.135c.307-.194.334-.169.503-.45"/><path fill="currentColor" fill-opacity=".404" d="M378.896 202.936c1.386.175 2.077.387 3.41.749 1.053.67 1.799 1.321 2.725 2.16l-.256 1.712c-2.858-2.834-2.198-2.472-5.879-4.621"/><path fill="currentColor" fill-opacity=".973" d="M551.388 490.731a45 45 0 0 1-.299-1.967c-.193-1.587-1.054-9.692 1.189-2.177-.687 1.306-.564 1.219-.716 2.724a57 57 0 0 1-.174 1.42"/><path fill="currentColor" fill-opacity=".804" d="M633.449 212.059c-.759 1.015-1.735 3.299-2.933 3-.888-1.249 1.62-3.209 2.349-3.919z"/><path fill="currentColor" fill-opacity=".702" d="M464.067 519.387c.303-1.527.809-2.472 1.85-3.58l.834.327c-.716 1.742-1.135 2.762-2.211 4.252z"/><path fill="currentColor" fill-opacity=".941" d="M561.078 296.166c-.919 1.37-1.991 2.607-2.803 4.049l-.507-.067.266.444-.468.081-.059.147.189.15c-.359.2-.157.272-.517.071-.122-.749 2.611-4.79 3.156-5.69z"/><path fill="currentColor" fill-opacity=".918" d="M349.183 672.809c-1.02.555-2.03.941-3.186 1.125-.558.089-1.786.219-2.289-.132v-.074c.461-.41 1.201-.553 1.784-.682a16 16 0 0 0 2.567-.778c.26-.104.515-.218.772-.328z"/><path fill="currentColor" fill-opacity=".91" d="M404.458 799.669a113 113 0 0 0 3.794-4.343l.274.661c-1.034 1.305-1.94 2.646-2.852 4.035-.153.233-.317.46-.475.689z"/><path fill="currentColor" fill-opacity=".98" d="m966.442 671.561 1.149 1.347c-1.027.316-2.06.593-3.098.872-1.122-.194-2.073-.236-3.206-.2.375-.117.748-.238 1.125-.348 1.497-.439 2.671-.913 4.03-1.671"/><path fill="currentColor" fill-opacity=".984" d="M964.422 350.942c-.517-.186-2.856-.847-3.115-1.203.397-1.027 4.046-.414 4.864-.32a72 72 0 0 1-1.749 1.523"/><path fill="currentColor" fill-opacity=".98" d="m242.153 996.439 1.98 1.993c.195.197.508.489.523.792-.069.102-.119.14-.256.141-.998.011-2.478-1.079-3.361-1.544z"/><path fill="currentColor" fill-opacity=".867" d="M639.393 4.161c-.719.107-5.977.721-6.182.102l.029-.16c.759-.37.718-.33 1.592-.45 1.351.14 3.503-.03 4.561.508"/><path fill="currentColor" fill-opacity=".427" d="m384.416 204.111.776-.896.609.744c1.489 1.747 1.568 1.832 1.494 3.999-.697-.541-.752-.611-1.402-1.271-.184-1.392-.448-1.451-1.477-2.576"/><path fill="currentColor" fill-opacity=".643" d="M408.252 795.326c.523-.745 1.074-1.418 1.642-2.126.267-.331.956-1.475 1.513-1.47.099.001.095.017.18.073.087.336-.086.618-.255.904-.618 1.038-1.558 1.969-2.391 2.835-.141.146-.276.297-.415.445z"/><path fill="currentColor" fill-opacity=".953" d="M472.701 485.785c.069-.385.159-1.256.484-1.515l.183.023c.497.864-.016 4.871-.173 5.92a287 287 0 0 1-.494-4.428"/><path fill="currentColor" fill-opacity=".027" d="M550.59 537.582c.398-1.39.303-1.295 1.441-2.12.027 2.107-.01 2.781-.299 4.853-.246-1.475-.024-1.796-1.142-2.733"/><path fill="currentColor" fill-opacity=".765" d="m466.704 297.874.715.919c-.102.148 1.486 1.621.942 1.937-.538.314-2.824-2.561-2.968-2.728z"/><path fill="currentColor" fill-opacity=".792" d="M613.931 795.581c-.49-.606-1.005-1.202-1.45-1.842-.213-.305-.568-.851-.427-1.249a.25.25 0 0 1 .239-.164c.694.016 1.796 1.73 2.132 2.149z"/><path fill="currentColor" fill-opacity=".957" d="m614.62 226.637.893.831c-1.385 1.16-2.262 1.902-3.764 2.909.921-1.275 1.842-2.549 2.871-3.74"/><path fill="currentColor" fill-opacity=".639" d="M560.11 522.735c-.584 1.627-.778 1.692-2.011 2.956l.115-2.135c.775-.412 1.06-.52 1.896-.821"/><path fill="currentColor" fill-opacity=".965" d="M58.1 349.62c1.814-.368 5.352-.443 1.252.967-.534-.492-.623-.621-1.253-.967"/><path fill="currentColor" fill-opacity=".949" d="M781.018 26.476c-.169-.153-3.831-3.498-.595-1.854l1.314.659z"/><path fill="currentColor" fill-opacity=".847" d="m681.895 168.919.561.83c-.298.248-1.5 1.402-1.932 1.396l-.137-.278c.621-1.099.601-1.077 1.508-1.948"/><path fill="currentColor" fill-opacity=".839" d="M60.804 673.023c.429.112.716.129 1.036.409.033.09.076.128.04.211-.073.173-.443.26-.597.293-1.04.222-2.306-.123-3.325-.321.946-.205 1.892-.43 2.846-.592"/><path fill="currentColor" fill-opacity=".039" d="m466.727 513.797 1.688-.165c-.709.96-1.061 1.48-1.664 2.502l-.834-.327c.513-.962.523-.942.81-2.01"/><path fill="currentColor" fill-opacity=".639" d="m338.272 855.882.284 1.116c-.249.185-.501.366-.746.555-.147.113-.284.239-.431.352-.597.456-.986.619-1.704.79.468-.537.93-1.076 1.425-1.589.198-.204.404-.401.601-.607.194-.202.38-.411.571-.617"/><path fill="currentColor" fill-opacity=".788" d="M571.25 617.536c.185-.243.51-.804.873-.925.065-.022.111-.001.171.015.23.221.239.521.244.826.004.308-.001.615.001.923.005.516.07 1.035.115 1.55a16 16 0 0 0-1.404-2.389"/><path fill="currentColor" fill-opacity=".38" d="M338.272 855.882a69 69 0 0 1 2.115-1.381c-.567.919-1.088 1.713-1.831 2.497z"/><path fill="currentColor" fill-opacity=".404" d="M961.287 673.58c1.133-.036 2.084.006 3.206.2-.656.207-1.12.276-1.799.128-.189-.041-.375-.093-.564-.137z"/><path fill="currentColor" fill-opacity=".463" d="M341.341 168.056c.278.166.252.194.441.501-.297-.236-.271-.182-.441-.501"/><path fill="currentColor" fill-opacity=".365" d="M683.947 166.784c.236-.303.18-.277.503-.45-.169.281-.196.256-.503.45"/></svg>