<svg xmlns="http://www.w3.org/2000/svg" width="1024" height="1024"><path fill="currentColor" d="M287.276 259.765c-5.282-9.565-12.388-19.121-18.137-29.649-16.541-30.484-28.027-62.406-32.739-97.118-6.205-45.712 4.733-117.884 61.303-124.676 31.339-3.763 59.701 14.41 83.463 33.403a127.37 127.37 0 0 1 77.374-19.74c31.217 1.942 60.104 16.43 81.757 38.83 1.784 1.69 6.001 7.603 8.12 8.553 19.304 8.653 33.788 16.722 48.231 33.251a103.5 103.5 0 0 1 25.501 71.387c-.29 8.935-1.889 14.755-2.379 22.462l-.026.475c10.021-1.407 20.099-5.019 30.451-5.603 2.169-.123 9.966-.745 11.429-1.419.281-.07.7-.225 1.007-.181 2.52.911 6.497.722 9.267.737 10.3.056 20.863 1.044 31.013 2.982a178.74 178.74 0 0 1 123.053 89.68 172.8 172.8 0 0 1 13.194 132.308 174.3 174.3 0 0 1-43.062 72.288c-5.14 5.194-10.956 9.74-16.284 14.669l5.78 1.657c8.789 1.944 18.863 10.083 23.287 17.832 5.809 7.212 7.52 18.745 6.57 27.765a41.46 41.46 0 0 1-15.331 28.151c-7.127 5.744-14.829 8.357-23.751 10.082 59.769 73.514 47.435 181.344-26.15 239.881-36.041 28.67-81.387 41.842-127.3 37.572-3.483-.331-10.067-1.232-13.458-1.954l-6.689 4.152c1.954 5.276 9.211 15.582 12.566 20.573-8.721 1.577-13.983 2.078-22.787.126-12.13 39.151-26.657 78.047-38.742 117.269-1.789 5.81-4.159 12.88-6.41 18.49h-2.79l44.806-136.697c-3.305-1.442-7.513-3.096-10.402-5.107-2.922-1.255-4.813-2.758-7.392-3.949 6.695-3 15.393-8.912 21.729-12.986l-4.675-7.078a248 248 0 0 1-20.396-8.001c-6.169 31.765-15.111 66.721-22.321 98.622a2486 2486 0 0 1-11.801 51.566c-1.559 6.65-3.7 17.35-5.604 23.63h-2.759c3.89-14.93 7.317-31.713 10.733-46.862l17.81-78.843 7.152-31.953c.994-4.402 2.732-13.234 4.365-17.152-9.588-4.882-19.989-12.756-28.188-16.619-1.44 19.094-4.275 40.766-6.55 59.824l-8.625 72.721-4.729 40.094c-.6 5-1.415 14.4-2.435 18.79h-2.463c.956-4.95 1.873-16.05 2.385-21.46a677 677 0 0 1 2.87-25.544c6.014-48.877 10.794-98.259 17.053-147.141-19.627-14.102-32.566-31.215-45.556-51.057-.527 12.799 1.78 30.826 2.32 44.57a7951 7951 0 0 0 6.58 118.534c1.474 20.789 3.288 41.431 3.695 62.258.127 6.53 1.234 12.73 1.257 19.84h-2.777c-1.019-21.41-2.793-42.632-4.201-64l-5.614-94.998-3.447-61.515c-.48-9.509-.665-20.866-1.568-30.116-.267-2.739-6.811-16.914-8.489-20.905-4.316 3.625-9.759 10.697-14.325 14.81-5.597 5.042-11.427 9.33-16.955 14.305 1.949 6.724 4.261 20.968 5.572 28.147l9.778 54.552 13.538 73.849A1917 1917 0 0 1 489.705 1024h-2.041c-1.306-4.13-3.388-16.97-4.209-21.56l-7.464-41.66-21.377-116.449c-3.615-19.662-7.115-41.63-11.43-61.047-11.926 8.707-24.059 14.699-37.738 20.07 4.262 2.652 22.23 12.478 26.114 13.992-8.843 6.202-13.565 9.538-23.67 13.513 5.326 18.938 13.141 40.066 19.432 58.915 14.926 44.719 31.095 89.249 45.252 134.226h-2.801c-5.902-18.92-13.871-40.479-20.404-59.528a7137 7137 0 0 1-44.635-132.877c-5.805.452-13.224.718-19.034.441 2.593-8.172 7.398-16.74 10.334-25.178a179 179 0 0 1-54.509 5.811A172.53 172.53 0 0 1 222.49 756.14c-62.565-69.229-59.932-176.103 7.926-241.61 2.27-2.191 4.676-4.297 7.024-6.409-19.314-16.412-34.26-35.538-43.275-59.424a143.93 143.93 0 0 1 4.015-110.67 146.53 146.53 0 0 1 66.74-68.926c7.29-3.722 14.72-6.466 22.356-9.336M535.384 61.653c-2.063-.19-3.599-.072-2.408 2.328 1.925.423 2.069.58 2.264-1.426zM443.105 345.39c-2.287-1.172-4.279.936-6.376 2.559-1.987 4.584-3.842 8.837-5.689 13.494 14.12-1.154 16.732-2.148 26.613-12.429-4.839-1.141-9.744-2.555-14.548-3.624m285.826 198.266c.453-2.612.755-5.261 1.157-7.898q.36-2.163.937-4.278c.104-.392.179-.676.161-1.071-.144-.225-.038-.092-.381-.34-2.235.802-10.714 3.349-12.151 4.793-2.608 2.62 1.557 3.631 4.105 5.338 2.079 1.14 4.056 2.33 6.172 3.456M482.944 293.354c2.266-1.384 4.225-3.262 6.108-5.112-1.352-.446-6.66-2.535-7.994-1.862-1.41.712-.545 2.775-2.075 4.066l-.061-.012-.027-.071c-.492.61-.562 1.324-.72 2.078l-.211.9c1.825-.013 3.133-.089 4.98.013m-.236 22.552c1.735 1.94 2.585 3.169 4.724 4.674-.298 1.181 1.44 2.296 2.303 3.153.515-2.531 1.758-7.09 1.701-9.533 1.305-5.891 1.934-4.734-2.44-5.57l-1.93-.379c-3.183-.966-5.732-2.45-8.67-3.452-3.86-1.316-2.396 2.466-2.096 4.245a202 202 0 0 0 6.408 6.862m14.298-7.421c.215 2.058.185 2.067 1.313 3.692 1.542-4.078 2.361-3.815-1.313-3.692m-4.808 15.97c.013 4.778 1.344 6.793 2.592.379zM237.179 504.01c1.226 1.13 2.295 2.933 3.448.995-.876-1.39-.381-5.818-3.448-.995m267.848-210.911c-.248-.482-.404-.676-.489-1.155-5.382-1.322-8.617.98-3.563 5.664 1.308 1.212 3.342-3.606 4.052-4.509"/><path fill="currentColor" d="M709.296 536.445c5.465 2.713 15.539 8.276 19.874 12.143 1.135 5.379 3.733 14.506 7.537 18.595 2.536 4.815 8.206 10.131 12.793 13.074.326.35.639.616.989.932 1.163.977 1.373 1.438 2.086 2.801l-.249.654c3.4 2.032 3.317 2.268 7.254 2.585a59 59 0 0 0 .192-3.083c1.41 1.566 1.083 2.103 3.149 2.72 3.32.451 6.661.997 10.006 1.053 6.823 9.71 13.87 18.613 19.362 29.385 63.653 124.849-41.481 264.488-178.481 243.945-23.523-3.528-56.665-18.51-75.555-33.228 1.131-5.946 2.186-12.895 2.542-18.944 12.026 4.528 14.613 2.773 26.653 1.134-.653-1.022-2.93-4.792-3.636-5.376-1.177-2.145-6.737-10.524-8.225-12.184 2.296-1.445 11.093-.281 14.402-.908 16.372-3.107 34.54-12.754 46.297-24.317 52.684-51.815 73.242-124.125 74.54-195.965 7.466-1.888 11.986-3.086 19.014-6.223-7.818-8.845-12.686-15.746-19.691-25.089 7.147-.53 12.298-1.893 19.147-3.704"/><path fill="currentColor" d="M752.326 584.644c3.4 2.032 3.317 2.268 7.254 2.585.302 2.963.574 3.942.223 6.923-3.503-1.647-6.835-1.98-9.78-4.912-.648-.645-1.548-1.314-2.294-1.849 1.708-.939 2.974-1.623 4.597-2.747"/><path fill="currentColor" d="M744.129 585.873c1.275.593 2.267 1.233 3.6 1.518.746.535 1.646 1.204 2.294 1.849 2.945 2.932 6.277 3.265 9.78 4.912-.079.989.569 1.259 1.241 2.123-5.954-.893-10.591-2.085-15.405-6.429-2.288-2.065-4.387-2.064-1.51-3.973"/><path fill="currentColor" d="M759.772 584.146c1.41 1.566 1.083 2.103 3.149 2.72.846 2.384 1.495 6.365.97 8.836-.093.441-2.576.54-2.847.573-.672-.864-1.32-1.134-1.241-2.123.351-2.981.079-3.96-.223-6.923a59 59 0 0 0 .192-3.083m-9.283-2.957c1.163.977 1.373 1.438 2.086 2.801l-.249.654c-1.623 1.124-2.889 1.808-4.597 2.747-1.333-.285-2.325-.925-3.6-1.518 2.283-1.837 3.867-3.163 6.36-4.684"/><path fill="currentColor" d="M785.592 504.061c8.789 1.944 18.863 10.083 23.287 17.832-1.326-.528-1.392-.777-2.563-1.377-.373.39 1.198 2.661 1.529 3.163 2.172 3.301 3.674 7.333 4.697 11.139.41 1.527.882 2.919.578 4.418-.192 1.683.745 5.104-.291 6.639-2.128 27.278-26.373 45.071-52.771 37.277l-.286.994a59 59 0 0 1-.192 3.083c-3.937-.317-3.854-.553-7.254-2.585l.249-.654c-.713-1.363-.923-1.824-2.086-2.801-.35-.316-.663-.582-.989-.932-4.587-2.943-10.257-8.259-12.793-13.074 1.227.113 3.892 3.611 2.798 1.208-.821-1.805-2.793-2.999-3.618-5.682-.93-3.024-2.564-3.847-1.689-7.3-2.281-10.016-2.719-17.393 1.604-26.969 2.103-1.164 4.824-2.427 7.035-3.416 12.424-5.557 23.105-12.704 34.31-20.381.839-.3 6.735-.303 8.445-.582"/><path d="M785.592 504.061c8.789 1.944 18.863 10.083 23.287 17.832-1.326-.528-1.392-.777-2.563-1.377-.373.39 1.198 2.661 1.529 3.163 2.172 3.301 3.674 7.333 4.697 11.139.41 1.527.882 2.919.578 4.418-.192 1.683.745 5.104-.291 6.639-.84-9.664-.985-13.298-6.389-22.381-5.305-8.914-13.254-14.997-23.447-17.443-2.528-.607-3.355-.325-5.846-1.408.839-.3 6.735-.303 8.445-.582"/><path fill="currentColor" d="M734.198 555.409c4.516 11.201 6.729 14.945 16.583 22.816-.754.948-.753.916-1.281 2.032-4.587-2.943-10.257-8.259-12.793-13.074 1.227.113 3.892 3.611 2.798 1.208-.821-1.805-2.793-2.999-3.618-5.682-.93-3.024-2.564-3.847-1.689-7.3m19.481 27.66c8.856 2.415 2.44.4 6.379.083l-.286.994a59 59 0 0 1-.192 3.083c-3.937-.317-3.854-.553-7.254-2.585l.249-.654z"/><path d="M750.781 578.225c3.897 2.331 5.807 2.164 2.898 4.844l-1.104.921c-.713-1.363-.923-1.824-2.086-2.801-.35-.316-.663-.582-.989-.932.528-1.116.527-1.084 1.281-2.032"/><path fill="currentColor" d="M537.408 802.077c2.214-1.824 13-11.383 15.267-9.606.99.126 1.918.271 2.912.18 1.488 1.66 7.048 10.039 8.225 12.184-2.23-.179-1.91-2.444-3.345-3.411l-.094.008c-.504 1.054 2.615 3.273 2.175 6.315l-.388.061c-9.338 1.42-16.177.364-23.986-5.194z"/><path fill="currentColor" d="M552.675 792.471c.99.126 1.918.271 2.912.18 1.488 1.66 7.048 10.039 8.225 12.184-2.23-.179-1.91-2.444-3.345-3.411l-.094.008c-.504 1.054 2.615 3.273 2.175 6.315-1.517-1.767-8.003-12.391-9.873-15.276M659.332 193.71c4.319-.579 16.153-.269 20.446.006a177.16 177.16 0 0 1 93.862 34.287 169.4 169.4 0 0 1 67.965 112.849 168.48 168.48 0 0 1-32.145 126.221c-29.661 39.706-72.504 63.133-121.193 70.125-2.606-13.792-4.601-22.947-9.765-36.191-20.955-55.15-69.567-75.452-117.351-36.897-5.46 4.406-10.48 9.49-15.712 14.179l-4.94-3.282c-2.064-6.184-3.148-12.768-5.584-19.494-8.076-22.306-22.314-39.759-41.095-53.84a553 553 0 0 1-.833-8.424c-9.413-105.13 60.883-190.415 166.345-199.539M302.79 11.23c31.104.211 58.212 16.396 80.724 36.954 53.413 49.649 91.004 123.811 95 196.994 2.459 45.03-10.779 96.126-64.334 97.606-31.612-.768-60.264-19.897-83.523-40.083-51.024-44.908-86.441-113.865-91.926-181.649-3.609-44.6 9.895-106.554 64.059-109.822"/><path d="M442.911 779.63c-40.801 26.047-78.77 37.069-127.405 26.269a170.63 170.63 0 0 1-107.703-74.707c-60.573-94.818-14.401-218.961 90.749-254.623 5.175-1.755 11.112-3.079 16.035-4.933-1.94 18.554-2.045 35.8 3.531 53.826 13.262 42.875 51.214 71.058 94.827 77.593.599 4.821.975 6.9 2.098 11.52-26.667-6.994-55.425 4.606-62.766 32.649a48.53 48.53 0 0 0 4.953 36.893c6.491 11.025 18.458 18.203 30.629 21.286q2.391.585 4.805 1.073c2.797.58 8.202.056 11.241-.149l.371.547-4.163 8.86c4.846 1.345 9.141 1.318 13.998.09 3.35-.847 11.462-3.325 12.553-6.768-.612-1.73-.126-1.005-1.564-2.218-1.852-.923-3.774-1.795-5.639-2.701-1.385.197-2.063.503-2.929-.504-.011-1.967 6.849-3.915 9.032-6.057 1.854-.684 1.178-.857 2.452-.324 1.152 3.333 1.482 8.577 2.215 12.169 4.747 23.29 7.823 46.955 12.68 70.209"/><path fill="currentColor" d="M606.131 447.692c12.819-1.719 28.164 3.582 38.498 11.027 22.551 16.248 35.794 50.348 39.932 77.001 10.418 67.104-7.848 146.952-47.309 202.252-16.093 22.552-39.205 45.916-67.323 50.509-13.411 2.479-30.098-3.244-40.422-11.761-26.13-21.558-36.976-60.761-40.37-93.317-7.071-67.819 9.238-139.931 51.397-194.306 15.272-19.555 40.444-38.72 65.597-41.405"/><path fill="currentColor" d="m417.542 383.206.546-.075c41.051-3.707 80.685 17.557 102.854 51.76 10.616 16.378 15.329 32.42 17.694 51.022-4.758 6.806-9.038 11.929-13.727 19.319-15.204 23.966-23.571 46.585-31.639 73.419-20.355 12.298-31.201 18.396-56.152 21.204-28.241 2.504-58.8-6.587-80.656-24.516-76.161-62.473-35.879-183.322 61.08-192.133"/><path d="M506.505 67.22c6.732-.703 21.296.334 27.724 1.794a113.12 113.12 0 0 1 69.817 49.406c15.054 23.95 17.87 52.197 11.636 79.48-6.77 3.384-17.473 6.309-25.149 10.072-28.342 13.894-49.249 31.965-67.655 57.261-5.374 7.129-9.907 14.781-14.53 22.407-5.183-.278-22.532-3.295-27.494-4.965 7.024-45.829-7.014-102.517-26.538-143.803-5.57-11.777-13.757-25.728-20.615-36.922 19.111-19.596 45.295-33.07 72.804-34.73M303.354 280.013c4.71 4.75 9.363 10.526 14.212 15.456a232 232 0 0 0 37.067 30.265c25.379 16.74 50.07 24.079 80.041 17.932-1.557 6.02-5.623 14.323-8.22 20.349 7.775.49 13.312-.421 20.834-1.893 3.905 7.576 5.346 14.326 10.471 21.429-39.067-9.275-72.069-3.019-103.792 21.79-22.328 19.237-30.519 36.07-38.267 63.371-26.786-11.749-42.148-21.967-56.13-48.806-26.343-50.565-7.859-113.959 43.784-139.893"/><path fill="currentColor" d="M289.302 262.581a532 532 0 0 0 12.051 15.148 99.8 99.8 0 0 0-50.946 57.446 108.5 108.5 0 0 0 4.912 84.472c12.271 24.866 28.755 38.37 53.351 49.707-25.228 7.881-47.809 18.274-68.043 35.651-.876-1.39-.381-5.818-3.448-.995-29.339-26.51-46.738-57.561-48.758-97.908a139.42 139.42 0 0 1 36.718-102.744c19.049-21.012 37.785-31.44 64.163-40.777"/><path d="M458.648 599.775c6.974-2.537 14.172-5.269 21.172-7.662.825 9.161 2.261 20.06 2.475 29.098.469 19.744.195 39.477.753 59.266l.989 33.13c.308 8.316.925 18.054.483 26.252-3.007 2.14-4.09 3.349-6.63 6.014-.984 1.037-2.003 2.144-3.002 3.155-5.167 7.863-21.621 22.321-29.678 27.698-3.371-17.348-5.814-35.351-8.856-52.805-1.674-9.608-2.96-20.174-5.587-29.529 12.946-12.675 18.193-29.152 13.993-47.133-3.472-14.868-13.956-23.841-26.528-31.459-.726-3.735-1.261-8.052-1.821-11.856 2.83-.033 28.022-.876 28.545-.711.072 1.376-9.605 14.389-11.264 16.998 7.168 1.065 13.252 2.752 20.394 1.787l3.384-.722c1.303-1.088 3.171-1.922 4.706-2.88 3.513-2.193 5.854-4.14 8.802-6.991-4.604-1.924-7.402-3.331-11.716-5.83-4.031-1.784-7.336-1.88-.614-5.82"/><path d="M458.648 599.775c6.974-2.537 14.172-5.269 21.172-7.662.825 9.161 2.261 20.06 2.475 29.098.469 19.744.195 39.477.753 59.266l.989 33.13c.308 8.316.925 18.054.483 26.252-3.007 2.14-4.09 3.349-6.63 6.014-3.702-13.616-5.945-30.811-8.203-44.975l-12.217-79.602c1.303-1.088 3.171-1.922 4.706-2.88 3.513-2.193 5.854-4.14 8.802-6.991-4.604-1.924-7.402-3.331-11.716-5.83-4.031-1.784-7.336-1.88-.614-5.82"/><path fill="currentColor" d="M458.648 599.775c-.203 3.305-.285 2.778.614 5.82-4.031-1.784-7.336-1.88-.614-5.82m-4.562 22.243 3.384-.722 12.217 79.602c2.258 14.164 4.501 31.359 8.203 44.975-.984 1.037-2.003 2.144-3.002 3.155-4.346-16.843-7.932-41.623-10.536-59.422-3.24-22.151-7.452-45.564-10.266-67.588m-45.932 82.463.144-.906c-1.975-.665-8.129.11-10.575.046-38.024-.991-57.506-43.636-33.125-72.785 15.897-19.005 45.335-20.456 63.735-4.287 19.942 17.525 19.768 44.537 2.479 64.041-1.452 4.455-6.147 3.42-5.248 6.986-2.183 2.142-9.043 4.09-9.032 6.057.866 1.007 1.544.701 2.929.504 1.865.906 3.787 1.778 5.639 2.701-1.256.844-1.292.842-2.287 1.977-4.606 5.345-12.431 5.26-18.8 5.203 1.172-2.493 2.165-4.745 2.806-7.45.461-.752.831-1.362 1.335-2.087"/><path fill="currentColor" d="M416.952 705.958c.842-.619 1.738-1.112 2.509-1.821 1.865.906 3.787 1.778 5.639 2.701-1.256.844-1.292.842-2.287 1.977-4.606 5.345-12.431 5.26-18.8 5.203 1.172-2.493 2.165-4.745 2.806-7.45 7.421 1 4.963-2.844 10.133-.61"/><path fill="currentColor" d="M416.952 705.958c.842-.619 1.738-1.112 2.509-1.821 1.865.906 3.787 1.778 5.639 2.701-1.256.844-1.292.842-2.287 1.977-2.182-1.024-3.712-1.633-5.861-2.857"/><path fill="currentColor" d="M408.154 704.481c5.173.707 3.048-1.956 3.913-2.272 7.302-2.668 12.877-6.687 18.745-11.619-1.452 4.455-6.147 3.42-5.248 6.986-2.183 2.142-9.043 4.09-9.032 6.057.866 1.007 1.544.701 2.929.504-.771.709-1.667 1.202-2.509 1.821-5.17-2.234-2.712 1.61-10.133.61.461-.752.831-1.362 1.335-2.087M383.62 44.016c20.272-12.241 41.991-19.4 65.794-19.383a121.83 121.83 0 0 1 86.259 36.222c2.411 2.092 4.931 4.857 7.03 7.266l-6.21-1.489a119 119 0 0 1-2.401-.522l-.109-.024a95 95 0 0 0-18.096-2.222c-34.264-.919-60.083 12.344-84.383 35.196-10.736-15.18-32.886-43.849-47.884-55.044m151.764 17.637c-2.063-.19-3.599-.072-2.408 2.328 1.925.423 2.069.58 2.264-1.426z"/><path fill="currentColor" fill-opacity=".565" d="M532.976 63.981c-1.191-2.4.345-2.518 2.408-2.328l-.144.902c-.195 2.006-.339 1.85-2.264 1.426"/><path fill="currentColor" d="M535.673 60.855c2.411 2.092 4.931 4.857 7.03 7.266l-6.21-1.489a119 119 0 0 1-2.401-.522l-.109-.024c-.716-.86-1.147-.974-1.007-2.105 1.925.423 2.069.58 2.264-1.426l.144-.902z"/><path d="M472.063 310.495c6.096 3.016 17.109 16.783 19.96 22.612-1.721 11.741-3.402 24.121-3.571 36.007-.134 9.467.91 19.477 1.612 28.968-9.133-5.097-16.848-9.362-26.922-12.4-3.959-2.032-10.759-19.834-13.218-25.16 5.955-3.762 8.918-7.588 13.028-13.187-5.187-1.039-17.779-3.277-21.564-5.817-.264-2.914 2.814-1.698 4.844-2.95 11.647-7.185 18.775-16.891 25.831-28.073"/><path fill="currentColor" d="M494.707 729.246c1.563 1.191 7.619 16.916 9.541 20.562 9.368 17.769 18.661 27.538 35.552 37.738-.384 3.304-.748 6.068-1.344 9.336-2.593 2.449-5.011 3.899-7.988 5.843 2.243 1.029 4.066 2.026 6.212 3.207-.093 5.222-.462 10.478-.774 15.694-.153 1.535-.166 1.851-.596 3.387l-.773.214c-15.603-9.551-39.61-39-45.808-56.611-.957-2.718-1.461-26.369.193-30.262.926-2.181 4.181-6.869 5.785-9.108"/><path d="M400.19 805.307c1.859-.696 1.201-.299 2.81.688 5.292 3.228 11.207 5.758 16.766 8.503.77.38 6.956 2.755 5.401 4.197-3.473 3.219-16.656 9.443-21.154 9.918-12.546 1.326-15.675 3.204-9.641-9.898.806-1.827 2.046-4.606 2.874-6.641l2.361-5.912z"/><path fill="currentColor" d="M579.552 879.604c-.931-.851-1.139-.999-.988-1.118 2.959-2.319 16.557-11.137 19.483-10.845 2.247 4.969 8.437 12.427 11.584 18.267-14.008.6-17.381.122-30.079-6.304M449.477 604.269c5.326 2.883 9.713 5.802 15.314 8.391l-.685.542c-8.455 6.877-14.821 7.179-24.867 4.514 3.245-4.478 7.039-8.684 10.004-13.289zm239.989-59.382c4.386 3.739 9.003 11.917 13.264 16.175 1.787 1.785 2.332 2.515.074 3.494-4.31 1.673-7.751 2.489-12.257 3.308-.332-7.082-1.127-16.113-1.081-22.977"/><path d="m478.969 301.913.653-.435c.623-.406 1.238-.826 1.864-1.227 1.744-1.118 10.735-9.05 11.669-8.766.904.275 1.444 2.675 1.686 3.348 1.735 2.914 4.046 5.721 5.449 8.579-1.497.701-2.996 1.685-4.407 2.57-7.348.013-10.372-.905-16.914-4.069m8.493 393.408c1.772 4.491 1.787 12.152 3.233 17.172.988 3.428 1.925 8.497 2.56 12.037-1.516 2.502-1.831 3.217-3.73 5.654-5.266 13.036-2.525-33.637-2.063-34.863m3.264-110.845c2.036 1.088-.368 6.166-.813 8.76-.496 2.891-1.809 7.316-2.343 10.26-.356 1.966-1.24 11.586-1.886 12.212-.19.011-.065.022-.407-.085-.703-9.181-.895-16.56-2.722-25.676 2.911-2.48 4.987-3.524 8.171-5.471"/><path fill="currentColor" d="M494.841 294.833c.509-.939 1.815-4.97 2.097-4.998 1.004-.103 4.339-.293 5.075.185.098.311.106.159-.02.456-.261.205-.41.257-.739.288 1.81.031 3.953-1.466 6.132.007-.199 2.071-1.064.87-2.848 1.173-5.382-1.322-8.617.98-3.563 5.664 1.308 1.212 3.342-3.606 4.052-4.509l.523.274c.854.411.64.683.258 1.445l-.329.669c-1.569 3.125-1.914 6.641-5.189 7.925-1.403-2.858-3.714-5.665-5.449-8.579m-2.643 29.622c.964-4.247 1.152-9.172 2.221-13.475.401-1.612-.037-1.782 1.836-2.281l.751-.214c.215 2.058.185 2.067 1.313 3.692-1.312 3.222-2.872 9.196-3.529 12.657z"/><path fill="currentColor" fill-opacity=".141" d="m487.066 308.251 1.93.379c4.374.836 3.745-.321 2.44 5.57-.737.443-.779.371-1.366-.439-2.402-3.319-8.259-1.546-4.289 1.613 2.625 2.088 2.169 2.27 1.651 5.206-2.139-1.505-2.989-2.734-4.724-4.674 1.556-4.836 1.53-4.197 4.358-7.655"/><path fill="currentColor" fill-opacity=".396" d="M487.432 320.58c.518-2.936.974-3.118-1.651-5.206-3.97-3.159 1.887-4.932 4.289-1.613.587.81.629.882 1.366.439.057 2.443-1.186 7.002-1.701 9.533-.863-.857-2.601-1.972-2.303-3.153"/><path fill="currentColor" d="M480.656 748.683c1.162-1.68 2.206-2.929 3.483-4.519.161 3.158.336 6.051.404 9.228.227 1.129 1.256 7.761.286 8.015l-.003-.034-.048-.016c-.725-1.076-.799-1.71-1.071-2.981-1.183-3.109-1.985-6.508-3.051-9.693"/><path fill="currentColor" d="M484.543 753.392c.227 1.129 1.256 7.761.286 8.015l-.003-.034-.048-.016c-.725-1.076-.799-1.71-1.071-2.981.823-1.664.592-2.919.836-4.984m106.687 105.19c4.679 1.633 8.835 3.122 13.662 4.284a55 55 0 0 1-6.063 3.404c-.239.166-.084.038-.498.474-3.358-4.11-2.864-3.984-7.101-8.162"/><path fill="currentColor" fill-opacity=".129" d="M436.729 347.948c2.097-1.623 4.089-3.731 6.376-2.559-.004.006-.266.269-.178.375.492.593 1.529.61 1.796 1.424l.005.783c.091 1.004-.304 2.037-.204 3.034.084.83-.44 1.479-1.011 1.996-.537.56-1.337.428-1.718-.26-.333-.512-.438-1.136-.495-1.738-.08-.848-.482-2.089-1.25-2.594-.627-.412-2.511-.38-3.321-.461"/><path fill="currentColor" fill-opacity=".012" d="M505.027 293.099c-.71.903-2.744 5.721-4.052 4.509-5.054-4.684-1.819-6.986 3.563-5.664.085.479.241.673.489 1.155"/><path fill="currentColor" d="M542.53 788.255q1.652.765 3.345 1.436c1.873.741 2.795 1.068.567 2.206-5.327 3.376-4.414 2.135-3.912-3.642m-66.615-489.35 1.319-5.058c.12-.445.193-1.015.492-1.393l.004-.072.038.007c.132.274.153.661.196.952 1.825-.013 3.133-.089 4.98.013-2.328 2.154-4.473 3.697-7.029 5.551m-26.672 305.522c-.31-.827-.519-1.387-1.351-1.734-.114-.048-1.361-.327-1.25-.794.064-.271.566-.386.793-.439 2.253-.526 4.384-1.446 6.534-2.283-1.717 1.881-2.924 3.038-4.492 5.092z"/><path fill="currentColor" fill-opacity=".6" d="M237.179 504.01c3.067-4.823 2.572-.395 3.448.995-1.153 1.938-2.222.135-3.448-.995"/><path fill="currentColor" fill-opacity=".984" d="m492.198 324.455 2.592.379c-1.248 6.414-2.579 4.399-2.592-.379"/><path fill="currentColor" fill-opacity=".553" d="M497.006 308.485c3.674-.123 2.855-.386 1.313 3.692-1.128-1.625-1.098-1.634-1.313-3.692"/><path fill="currentColor" d="M399.607 806.162c-.475.038-2.606.582-2.77.031.463-1.271 2.299-1.165 3.353-.886zm257.362-645.321c-9.215-1.853-15.68-4.66-22.601-11.086-30.688-28.492-11.932-79.598 30.239-80.188a46.12 46.12 0 0 1 33.298 13.36c8.536 8.467 13.711 19.925 13.683 32.009a46.95 46.95 0 0 1-13.933 33.102c-9.821 9.724-21.943 13.302-35.494 13.156 2.034 4.037 5.629 7.773 6.189 11.32-.857 1.342-1.063.985-3.126 1.54l-1.135.372c-7.389.562-12.164-1.307-18.417-4.699 3.427-2.941 7.645-5.902 11.297-8.886m-6.803 9.07 3.332.596c2.314.41 2.275.367 4.735.491 5.314.088 10.045.825 5.085-4.67-1.893-2.097-1.633-3.034-4.237-2.773-4.996 1.729-5.231 2.14-8.915 6.356"/><path d="M659.724 72.511c23.697-3.084 45.403 13.64 48.463 37.341 3.061 23.7-13.684 45.389-37.388 48.426-23.67 3.033-45.323-13.684-48.379-37.351s13.64-45.336 37.304-48.416m-.643 91.044c2.604-.261 2.344.676 4.237 2.773 4.96 5.495.229 4.758-5.085 4.67-2.46-.124-2.421-.081-4.735-.491l-3.332-.596c3.684-4.216 3.919-4.627 8.915-6.356"/><path fill="currentColor" fill-opacity=".91" d="m664.089 174.426 1.135-.372c-.511 3.751-1.571 12.396-2.593 15.686-.307-.044-.726.111-1.007.181.413-3.031.976-6.582 1.562-9.581q.549-2.943.903-5.914"/></svg>