<svg xmlns="http://www.w3.org/2000/svg" width="1024" height="1024"><path fill="currentColor" d="M372.146 208.987c1.36-4.456 1.197-10.056 1.995-14.719 6.445-37.688 27.644-69.175 60.795-88.355a126.85 126.85 0 0 1 95.841-12.462 123.13 123.13 0 0 1 75.2 57.827c17.294 30.064 20.59 65.11 11.512 98.279a169 169 0 0 1-2.333 8.009q6.718-1.086 13.45-2.08c18.883-23.064 52.485-37.946 81.952-40.856 72.505-7.158 135.934 47.441 142.75 119.267 3.257 34.323-8.107 71.236-30.637 97.795a142.1 142.1 0 0 1-41.292 33.164c-3.041 1.62-15.664 7.509-16.948 8.58-5.858 4.886-9.499 13.251-16.373 19.309 5.175 1.298 11.402 2.745 16.359 4.475 28.203 9.844 54.33 30.102 69.683 55.899 18.616 31.28 24.306 62.665 15.551 98.099a127 127 0 0 1-20.309 43.681c-5.993 8.311-13.242 15.952-20.605 23.069-11.576 11.189-23.277 22.416-34.389 34.066a1204 1204 0 0 0-28.911 31.993c-4.056 4.654-9.355 11.464-13.434 15.55a57.2 57.2 0 0 1-10.785 8.468 65.64 65.64 0 0 1-41.733 8.553c-.053 6.644-.621 11.488 1.722 17.801 8.318-4.432 13.599-7.424 23.184-8.536 33.011-3.83 59.071 26.661 49.531 58.618-4.145 13.887-14.536 21.561-26.203 29.016-10.815 6.91-22.248 14.509-35.586 14.727-8.621.138 1.075 7.439-2.077 10.093-3.404.546-5.076.001-8.115-1.663A8430 8430 0 0 1 628.925 1024h-1.605c4.337-7.94 9.54-15.6 14.066-23.42 12.491-21.585 26.467-42.908 39.177-64.244-1.733-1.603-3.925-3.012-3.91-5.421.825-.792 6.354-2.787 8.663-4.052-12.217-13.339-14.348-24.996-18.1-42.911-.752-3.591-.801-16.206-2.421-18.253-2.409 2.867-10.969 25.764-13.275 31.42l-31.607 78.223c-6.374 16.033-12.665 32.808-19.296 48.658h-1.414c4.99-14.23 11.44-29.375 17.01-43.43l26.498-66.699c9.373-23.034 18.95-45.549 27.54-68.905-5.153-1.456-19.438-6.785-19.45-13.116l.757-1.309c2.283-.019 5.166-.168 7.232-.921 7.058-2.574 9.769-8.142 12.932-14.211-5.005-1.813-9.09-3.405-13.751-6.044a64.24 64.24 0 0 1-29.908-38.613c-3.104 19.096-6.98 38.873-10.408 57.992a7767 7767 0 0 1-22.244 120.053l-9.482 51.009c-1.34 7.034-3.095 17.494-4.881 24.194h-1.238c2.744-10.34 5.863-30.572 7.94-41.594l16.444-88.4 15.211-83.638 4.725-25.583c.775-4.076 2.633-13.117 2.933-17.052.233-3.047-1.735-13.078-2.164-17.103-12.069 9.384-15.563 10.639-30.088 13.144.819 4.043 1.321 6.459 3.121 10.16 2.294 1.094 4.245 1.476 4.241 4.191-3.079 3.386-12.535 2.25-16.731 1.537 2.473 3.208 5.004 8.322 7.888 10.56.237 5.076 1.378 11.051.941 16.102-.563 6.517-2.204 13.23-3.048 19.836-2.922 22.895-7.009 45.573-10.549 68.397a7126 7126 0 0 1-11.865 74.941c-2.818 17.898-5.475 36.782-9.037 54.502h-1.428c10.098-65.189 21.313-129.928 30.95-195.354.221-.863.475-1.779.632-2.65l.975-5.211c-.549 1.059-2.999 5.67-3.255 6.489-9.784 13.122-18.735 28.161-34.806 34.038 1.658 3.969 2.061 4.911 5.171 8.107-3.249 1.816-4.556 2.141-8.102 3.226l-6.205 88.777c-1.185 18.444-1.866 44.668-5.133 62.578-.484-9.22.351-18.82 1.013-28.034l2.64-36.979 3.945-59.419c.694-9.451.836-17.859 2.268-27.379-2.224-.803-5.055-1.77-6.328-3.837.438-2.921 3.902-2.907 5.286-5.703-.22-3.702-6.118-5.811-8.666-8.511-5.548-5.878-9.36-12.794-13.731-19.48a106 106 0 0 0-2.866-5.184c.148 2.322.179 4.651.458 6.962-.142 6.96.538 13.722.632 20.625.484 35.675.062 71.263 1.342 106.94.714 19.892.027 40.119.593 59.999h-1.751c-.637-23.3-.379-46.446-.733-69.75l-1.967-92.618c-.149-9.579.137-19.397-.036-29.084-.207-11.612-4.784-14.669-5.825-25.794-.781-8.339 3.681-14.211 3.392-20.737-.439-9.902-1.095-20.193-1.664-30.124a1202 1202 0 0 1-2.168-51.273c-3.469 11.025-9.23 22.093-13.398 33.239-6.013 16.077-11.28 33.349-16.631 49.713-.782 2.392.894 13.828 1.209 17.089q1.603 18.001 3.609 35.962l13.021 126.845q1.3 13.911 2.831 27.798c1.172 10.134 2.452 18.524 2.577 28.734h-.483c-1.864-9.36-2.546-18.24-3.556-27.695l-4.28-40.38-11.884-115.108c-1.703-16.64-3.115-33.921-5.108-50.444-6.449 10.786-15.573 17.846-27.333 22.016 3.63 8.752 4.632 7.437 11.572 12.47.394.286-.02.94-.248 1.594-3.073 2.811-8.721 4.549-12.792 5.215 7.113 29.603 12.497 61.426 19.332 91.481l14.647 64.475c2.544 11.064 6.358 25.406 8.237 36.376h-1.464c-2.121-10.53-4.638-20.79-7.085-31.249-10.919-46.687-21.093-93.59-30.938-140.515-1.411-6.727-2.742-13.55-4.435-20.199-2.273-.194-11.182-.901-11.759-3.133.939-2.13 3.894-3.447 5.584-6.531.296-.913.191-1.472 1.071-1.907.688-1.395 2.22-4.63 2.391-6.125-.274-.311-.638-.357-1.04-.352l-3.425.043-.582-.129c-18.638-1.725-28.109-7.372-40.803-21.507 4.951 10.698 12.684 36.21 16.702 48.349l30.013 90.718 20.333 60.634c2.766 8.243 8.586 24.173 10.01 31.903h-.925c-2.159-5.74-4.349-13.1-6.382-19.1a4103 4103 0 0 1-15.749-47.194l-35.912-107.6-13.141-39.408c-3.521-10.685-5.646-21.015-12.932-29.826-6.066-7.336-11.473-15.181-18.019-22.172-2.167 9.532-5.329 16.955-11.974 24.341-3.052 3.391-11.171 6.454-11.688 11.131 1.779 3.661 7.099 3.187 10.896 6.036 1.665 4.216-7.435 8.08-10.518 9.479 3.605 6.799 7.25 15.078 10.63 22.173l28.2 60.601c20.524 43.706 42.131 87.709 62.171 131.539h-1.34c-11.066-20.63-23.377-48.966-33.45-70.684l-27.006-56.769c-13.181-28.315-26.893-58.77-40.906-86.532-2.883.362-5.717 1.105-8.247-.37-.326-2.472 2.844-5.696 3.5-8.74.562-2.606.491-4.18.473-6.777-25.063 5.907-37.815-.044-55.731-17.299-11.947-11.505-26.281-22.29-39.245-32.662-6.207-4.967-12.137-9.07-17.857-14.777a86 86 0 0 1-14.565-19.686 82.1 82.1 0 0 1-6.623-63.129 75.53 75.53 0 0 1 31.113-41.25c4.997-3.229 11.47-6.358 16.851-9.205-5.686-4.269-14.866-8.442-22.498-14.026a167.65 167.65 0 0 1-60.286-81.077 173.09 173.09 0 0 1 24.063-159.233c7.523-10.16 15.11-19.05 25.03-27.103 4.47-3.629 9.135-7.599 14.131-10.964 6.034-4.064 13.817-8.411 20.305-12.035l.743-1.495c.769.633.383.574 1.046.528 47.391-18.717 79.248-21.102 128.59-6.537-2.75-5.13-5.699-9.809-8.229-15.203-6.088-12.979-9.43-27.082-11.439-41.227-.724-5.098-.389-11.539-1.033-16.678l-.131-1.001zm259.277 329.736c5.32-2.901 5.557-3.054 8.26.202.428.516 6.8.187 8.193.135 37.177-1.41 73.402-19.028 98.525-46.308a143.65 143.65 0 0 0 37.967-103.653 139.36 139.36 0 0 0-45.97-97.263c-27.743-25.022-64.337-37.652-101.8-35.683l-.301.035c-39.612 3.5-74.564 19.76-100.386 50.59a141.85 141.85 0 0 0-32.716 103.935 140.92 140.92 0 0 0 50.238 95.028c23.372 19.446 48.56 28.219 77.99 32.982m-289.386 76.4c-.195-.348-.106-.229-.262-.401-.261-.068-.314.019-.642.157.241.452.256.453.72.311zM523.81 670.23c1.395-.707.664-1.317-.268-2.033l-.298.777c-.571 1.192-.961 1.739.566 1.256m-2.939 8.426c.352 1.281.996 3.778 1.639 4.815 1.246 2.007 4.198 3.772 4.744 6.035-1.532 2.335-6.139 3.31-8.944 3.896l-.9.179c-3.508 10.144-.39 40.81.272 53.08l1.35 23.606c.242 4.221.377 10.295 1.061 14.329 9.437-10.272 16.184-16.822 30.955-18.423 9.388-.513 17.848 1.412 25.703 6.743 6.463-2.01 8.184-4.041 11.409-10.034-35.767-7.531-54.221-55.718-51.786-87.585.161-2.104.655-7.123.454-8.84-5.382 4.938-9.276 9.048-15.957 12.199m101.066 45.149c.16-.998.437-1.237-.521-1.512.042.693-.077 1.082.521 1.512M504.721 364.541c-9.053 1.519-14.907-.387-21.865-6.15 8.778-2.253 10.801-6.727 13.374-14.8-11.475-.549-16.621-1.728-27.963-4.117 15.03 17.465 25.487 42.344 32.3 64.174.087.781.312 3.024 1.115 3.456.352-.336-.512-7.726-.629-8.699.668-11.199 1.521-22.852 3.668-33.864m15.427 318.288c-.913 3.319-1.456 6.411-2.204 9.746 1.223-.564 2.375-1.106 3.69-1.395.605-.206 3.475-1.139 3.817-1.478.014-.596-.917-1.087-1.351-1.345-2.383-1.418-2.677-3.439-3.952-5.528m-14.5-233.443c1.34-2.178-.624-8.456 1.086-11.779-.428-1.931-.679-3.25-1.219-5.216-.024 4.662-.086 12.39.133 16.995m6.128-107.142c-3.42.227-5.594.404-8.981.808 1.251 2.604 2.309 5.477 4.117 7.698l.344.714c.412.907.984 2.37 1.397.531.288-1.281 4.03-9.145 3.909-9.714-.23-.202-.507-.088-.786-.037m93.782 301.016c.166.52-.091.465.468.674-.181-.376-.099-.527-.468-.674M356.653 800.242l-.271.78c-.129.354-.259.649-.228 1.025.365.293.488-.061.941-.305l.588-.098c1.63-.728.052-1.023-1.03-1.402M636.51 537.733c-4.188 8.535-6.788 11.65-14.586 16.642a87 87 0 0 0-3.044 2.073c4.401 4.375 9.01 5.945 15.07 6.957 8.623.603 11.33.335 18.558-4.351-7.226-4.617-10.313-7.763-12.681-16.347-.393-1.424-.835-3.598-2.278-4.36z"/><path fill="currentColor" d="M747.076 494.275c6.226.593 18.002 4.627 23.83 7.007 33.225 13.57 58.81 39.443 72.289 72.851a124.36 124.36 0 0 1-1.392 96.107 128.6 128.6 0 0 1-18.542 30.319c-7.48 9.255-16.725 17.75-25.264 26.1a1659 1659 0 0 0-31.062 31.429 933 933 0 0 0-22.246 24.794c-12.443 14.503-16.964 21.895-35.516 29.261-9.935 2.951-17.874 4.313-28.307 3.06a60 60 0 0 1-40.366-22.978 61.3 61.3 0 0 1-10.164-19.139c-3.252-10.448-4.689-30.081-6.376-41.77-.986-6.827-4.727-27.579-4.322-32.735.988-12.57 3.633-29.228 5.36-42.011a3913 3913 0 0 0 12.122-91.339l.545-.016c4.754-.169 12.691-1.618 16.002-5.194.184-.836.513-1.884-.418-2.431-7.878-4.621-9.702-8.482-12.672-17.044q3.429.055 6.859.034c9.505-.08 17.687-1.66 26.827-3.841 29.484-7.039 51.805-21.082 72.813-42.464M492.832 90.717c14.543-1.153 35.124 2.683 48.515 7.623a122.04 122.04 0 0 1 69.136 64.547 125.47 125.47 0 0 1 2.864 95.2c-49.593 13.339-77.232 37.297-100.397 82.653q-4.168.292-8.325.707c-10.416.313-24.959.446-34.798-3.323-4.782-1.833-12.681-11.997-17.177-16.417a127 127 0 0 0-13.703-11.739c-8.281-6.168-15.962-11.436-25.047-16.42-3.838-2.754-14.887-5.842-17.796-8.947-13.123-14.005-20.723-45.782-21.893-63.026a124.8 124.8 0 0 1 31.27-90.427c22.673-25.652 53.641-38.352 87.351-40.431m224.004 124.992c15.681-1.078 34.69 2.176 49.398 7.459a129.15 129.15 0 0 1 73.292 66.543 131.38 131.38 0 0 1 4.67 101.58c-14.737 39.959-42.126 62.824-79.636 80.03 2.692-4.527 4.781-8.503 7.178-13.168a141.7 141.7 0 0 0 13.481-76.7 139.48 139.48 0 0 0-50.947-95.245 141.9 141.9 0 0 0-103.577-31.113c22.85-24.217 53.126-37.121 86.141-39.386M264.12 596.919c3.61.959 13.301 5.708 18.529 7.409 22.246 7.238 40.867 8.544 63.806 8.217-32.258 39.635-21.036 91.618 12.361 125.698 5.469 5.581 12.641 13.002 16.545 19.535 1.284 2.148-2.86 12.428-4.388 14.66-5.84 10.647-16.544 18.085-28.098 21.317-27.19 5.589-38.751-8.086-56.995-24.87-15.787-14.526-34.821-26.389-50.23-41.546-21.673-21.317-29.533-55.392-19.074-83.97 8.723-23.525 25.533-36.355 47.544-46.45m77.917 18.204c-.195-.348-.106-.229-.262-.401-.261-.068-.314.019-.642.157.241.452.256.453.72.311z"/><path fill="currentColor" fill-opacity=".886" d="M341.133 614.879c.328-.138.381-.225.642-.157.156.172.067.053.262.401l-.184.067c-.464.142-.479.141-.72-.311"/><path fill="currentColor" d="M440.642 578.941c9.469 1.837 15.005 2.486 24.154 6.205 22.08 8.975 38.222 26.579 47.436 48.034 17.342 40.381-.094 72.983-14.733 110.176-4.832 12.276-8.286 27.298-13.253 39.576-5.811 14.364-14.589 22.031-28.57 27.836-4.441.923-6.196 1.201-10.829 1.595-4.403-15.944-8.232-32.613-12.384-48.727a6998 6998 0 0 0-34.384-130.816c4.798-2.083 14.179-6.394 16.3-11.519-.567-4.318-9.053-4.203-12.584-7.362-3.628-3.246-5.27-5.995-7.92-9.979 19.923-7.865 29.078-11.841 46.767-25.019"/><path fill="currentColor" d="M506.734 437.607c2.504 7.21 4.966 14.628 8.35 21.465 15.408 31.133 38.181 52.926 69.028 67.872a243 243 0 0 0 6.812 3.144 84.57 84.57 0 0 1-5.835 65.337c-6.861 13.194-16.912 24.986-25.66 37.06-7.856 10.844-15.276 22.81-23.997 32.919-4.105 4.759-9.384 8.754-14.741 12 .455-16.545-.051-28.022-6.427-43.938-1.801-4.496-6.514-10.932-6.748-15.294-.431-8.011-.388-16.559-.484-24.592l-.637-43.015c-.269-26.881-1.263-54.031-1.461-80.946-.048-6.589.521-13.597.714-20.233 1.34-2.178-.624-8.456 1.086-11.779M523.81 670.23c1.395-.707.664-1.317-.268-2.033l-.298.777c-.571 1.192-.961 1.739.566 1.256"/><path fill="currentColor" fill-opacity=".553" d="M523.542 668.197c.932.716 1.663 1.326.268 2.033-1.527.483-1.137-.064-.566-1.256z"/><path fill="currentColor" d="M384.531 606.596c.592-.024.188-.035 1.192.227-1.414 12.75-3.861 15.323-12.996 23.563 7.991 4.003 15.088 5.026 23.838 2.868a3079 3079 0 0 1 14.375 54.706l32.206 124.097c-12.578-.248-20.798-4.305-30.322-12.056-9.953-9.432-21.034-26.456-30.265-37.546-21.466-25.792-47.931-47.434-52.604-82.827-2.341-17.728.224-36.591 8.559-52.735 2.635-5.104 6.677-10.201 10.183-14.827 12.488-.445 23.79-2.45 35.834-5.47m208.166-76.068c14.776 4.98 20.399 6.888 36.048 9.308a41 41 0 0 0-1.546 1.841c-21.658 27.514-28.672 62.187-23.237 96.454 2.767 17.677 8.751 35.091 11.999 52.612 3.527 19.027 6.064 38.82 8.766 57.993-9.578 7.644-19.588 15.16-32.603 12.976-40.8-6.35-60.923-60.885-52.921-97.54 2.319-5.237 7.426-10.674 10.608-15.252 27.239-39.194 57.449-65.725 42.886-118.392m114.299 296.667a45.45 45.45 0 0 1 18.437 2.712c10.907 4.003 20.423 12.509 25.183 23.16a43.14 43.14 0 0 1 1.04 33.282c-6.342 16.216-29.157 30.304-44.524 36.955-21.813 9.243-27.712-1.26-34-21.276-5.267-16.763-9.311-40.536-.69-56.898 3.293.303 8.795.943 11.81.149 3.174-2.651-.223-6.37-1.995-9.202 8.768-5.806 14.373-8.047 24.739-8.882M553.98 767.697c26.842 1.207 46.47 23.416 36.082 50.698-5.11 13.42-21.626 34.394-35.092 40.374-5.065 1.057-9.155-.148-12.923-3.741-10.664-10.168-24.522-33.139-25.556-47.679a36.05 36.05 0 0 1 8.831-26.299c7.793-8.933 17.133-12.585 28.658-13.353m-51.86-288.42c1.255 2.062.747 2.111 1.495 4.267.463 11.474.22 23.185.469 34.696l1.564 99.027a107 107 0 0 0-2.178-3.174c-15.34-21.435-35.342-32.335-60.949-36.571 32.941-26.561 50.048-57.721 59.599-98.245"/><path fill="currentColor" d="M618.306 558.249c6.364 4.45 9.403 6.118 17.254 6.896l-16.813 126.231-.489 1.622-.471-.5c-10.109-47.162-25.909-87.22.519-134.249m54.668 257.541c1.845.269 4.83-.093 4.733 2.21-.331 7.526-.304 14.847 4.516 21.108 2.597 3.826 2.655 4.801-1.969 4.906-5.635.128-8.582-.43-13.901-1.838-6.496-2.612-10.242-3.768-14.064-9.919 12.508-1.628 15.495-5.295 20.685-16.467M497.413 343.363c5.02.021 3.516.195 6.319 5.19 1.269 2.262 2.601 4.568 3.828 6.854-2.364 7.804-2.063 8.182-10.22 8.05-3.055-.598-8.267-1.325-10.601-3.724-.546-.56 4.12-3.38 5.073-4.449 3.326-3.728 4.357-7.174 5.601-11.921M452.181 812.85c1.415 1.308 2.772 3.53 3.832 5.15 2.96 4.526 5.327 5.185 9.534 7.535-4.856 2.831-5.576 3.206-10.934 4.422-6.083.291-7.092.137-12.979-.919 6.987-5.715 6.858-8.157 10.547-16.188m138.26-50.133c4.505 2.147 3.179 10.229 7.814 13.03.416.252 1.651 1.183 1.904 1.677-.826 2.277-8.749 1.824-10.784 1.821a41 41 0 0 1-.979-.278c-5.219-1.551-4.619-1.243-9.248-4.256 7.106-4.717 6.901-4.65 11.293-11.994m-240.51 30.463c2.288 1.213 3.497 3.14 5.595 4.736 2.67 2.03 4.775 2.32 7.852 3.137-2.826 3.444-2.867 3.737-6.943 6.106l-.669.238c-3.897 1.424-6.582 1.547-10.675 1.835l.306-.458c5.127-7.533 3.03-8.515 4.534-15.594m7.164 8.562.588-.098c1.63-.728.052-1.023-1.03-1.402l-.271.78c-.129.354-.259.649-.228 1.025.365.293.488-.061.941-.305"/><path fill="currentColor" fill-opacity=".016" d="M356.653 800.242c1.082.379 2.66.674 1.03 1.402l-.588.098c-.453.244-.576.598-.941.305-.031-.376.099-.671.228-1.025z"/><path fill="currentColor" d="M550.846 861.345c1.735 1.656 2.568 5.189 4.256 7.401 1.078 1.413-6.048 1.365-6.343 1.368-7.88-2.117-2.826-2.788.885-7.296zm135.573 66.583c.1.03.552.101.682.267.172.22.112.724.086.998-.192 2.014.267 4.806 1.369 6.523.16.251.393.455.345.776-.032.215-.183.353-.372.438-1.529.683-4.214-.717-5.558-1.33-2.017-1.295-3.145-2.137-5.027-3.682 3.779-1.54 4.816-2.053 8.475-3.99"/><path fill="currentColor" fill-opacity=".133" d="M520.148 682.829c1.275 2.089 1.569 4.11 3.952 5.528.434.258 1.365.749 1.351 1.345-.342.339-3.212 1.272-3.817 1.478-1.315.289-2.467.831-3.69 1.395.748-3.335 1.291-6.427 2.204-9.746"/><path fill="currentColor" d="M630.344 541.058c.868.636.881.743 1.627 1.624l-.396.673c-3.068 5.342-5.08 6.639-9.933 9.869 2.196-3.478 5.855-9.396 8.702-12.166"/><path fill="currentColor" fill-opacity=".855" d="M505.515 432.391c.54 1.966.791 3.285 1.219 5.216-1.71 3.323.254 9.601-1.086 11.779-.219-4.605-.157-12.333-.133-16.995"/><path fill="currentColor" d="M503.342 472.133q.264 5.702.273 11.411c-.748-2.156-.24-2.205-1.495-4.267.059-1.426.936-5.609 1.222-7.144m127.002 68.925c2.173-2.709 4.506-2.451 1.627 1.624-.746-.881-.759-.988-1.627-1.624"/><path fill="currentColor" fill-opacity=".067" d="M501.053 398.405c.117.973.981 8.363.629 8.699-.803-.432-1.028-2.675-1.115-3.456.241-1.796.288-3.434.486-5.243"/><path fill="currentColor" fill-opacity=".98" d="M621.416 722.293c.958.275.681.514.521 1.512-.598-.43-.479-.819-.521-1.512"/><path fill="currentColor" fill-opacity=".984" d="M605.558 643.26c.369.147.287.298.468.674-.559-.209-.302-.154-.468-.674"/><path fill="currentColor" fill-opacity=".961" d="m309.375 219.258-.636 1.536c-18.907 10.243-35.098 33.752-41.149 54.381a85 85 0 0 0-3.132 15.54c-.663.046-.277.105-1.046-.528-.308-3.204 1.34-10.697 2.217-13.873a93.98 93.98 0 0 1 43.746-57.056m1.357-.94c17.262-9.721 35.963-14.121 55.666-10.433l-1.092.86a85.3 85.3 0 0 0-53.785 10.379z"/><path fill="currentColor" fill-opacity=".984" d="M522.59 836.436c-.279-2.311-.31-4.64-.458-6.962a106 106 0 0 1 2.866 5.184zm65.056-9.162c.256-.819 2.706-5.43 3.255-6.489l-.975 5.211c-.157.871-.411 1.787-.632 2.65z"/><path fill="currentColor" fill-opacity=".243" d="m444.045 813.903.582.129c.852 2.224.907 4.395 2.074 6.434-.88.435-.775.994-1.071 1.907-.224-2.766-1.093-5.462-1.585-8.47"/><path fill="currentColor" fill-opacity=".765" d="M366.398 207.885c1.663.264 2.372.529 4.167.729l-1.799.529c-1.213-.109-2.254-.211-3.46-.398z"/><path fill="currentColor" fill-opacity=".635" d="m310.732 218.318.789.806c-1.069.684-1.674 1.074-2.782 1.67l.636-1.536c.611-.554.597-.525 1.357-.94"/><path fill="currentColor" fill-opacity=".533" d="M370.565 208.614c.549.102 1.043.237 1.581.373l.07 1.082a57 57 0 0 0-3.45-.926z"/></svg>