<svg xmlns="http://www.w3.org/2000/svg" width="1024" height="1024"><path fill="currentColor" d="M86.12 495.689c34.595-1.663 70.467 13.312 96.846 35.083a137.03 137.03 0 0 1 50.25 94.724c5.943 66.274-42.205 124.855-87.037 168.048-26.597 24.34-53.663 47.249-77.582 74.359-28.16 31.918-44.994 89.741-6.405 121.196a54.12 54.12 0 0 0 39.993 12.151 59.44 59.44 0 0 0 40.138-21.905c8.677-10.866 12.584-22.978 11.155-37.021-1.737-17.075-17.413-35.227-35.768-32.726-1.764.24-4.206.553-5.361 2.077 11.951 2.615 22.122 7.955 21.23 22.116a27.9 27.9 0 0 1-9.572 19.441c-5.924 5.064-13.691 7.27-21.393 6.597a29.16 29.16 0 0 1-20.216-10.547c-6.323-7.541-8.857-16.918-7.89-26.66a40 40 0 0 1 14.18-26.738c9.32-7.625 23.548-10.403 35.336-9.137 14.454 1.443 26.651 8.87 35.558 20.319 22.723 29.207 13.668 72.531-14.754 94.204-65.37 49.86-141.202-9.885-131.61-85.842a78.6 78.6 0 0 1 7.144-24.612c10.325-21.45 36.767-47.682 55.6-62.32-18.767-.454-24.353 1.077-42.087-7.736-38.1-18.935-39.704-81.166 3.52-94.294 10.934-2.634 19.811-2.379 30.056 2.733 8.63 4.412 16.135 12.336 19.003 21.678 3.761 12.255-1.137 27.512-14.529 31.059-10.637 2.816-23.629-2.246-25.823-13.933-2.05-10.914 5.042-21.158 16.035-22.803l.69-.107c-5.083-2.66-8.537-3.52-14.249-3.297-31.756.984-41.378 41.904-18.215 60.67 29.325 23.76 69.293 11.923 93.922-12.513 6.51-6.459 12.415-11.667 18.367-18.834 32.376-38.981 59.766-86.542 57.034-138.903-2.492-47.834-39.449-95.915-90.697-92.478-40.135 2.4-69.203 43.217-53.14 81.438 10.943 24.446 32.598 41.039 60.782 39.116 34.335-2.342 60.729-46.665 31.333-72.441-10.21-8.952-29.434-8.532-38.31 4.205 1.795-.816 4.138-1.926 6.026-2.351a22.54 22.54 0 0 1 16.773 2.835c5.593 3.535 9.163 9.045 10.559 15.472a27.3 27.3 0 0 1-4.446 21.351c-9.48 13.603-28.773 13.284-41.271 4.06-16.335-12.056-18.686-36.342-6.502-52.319a39.46 39.46 0 0 1 26.538-15.081c28.814-3.566 51.216 19.449 54.287 46.993a61 61 0 0 1-13.436 45.044 65.65 65.65 0 0 1-44.172 24.126c-21.64 2.115-39.863-4.706-57.377-17.04-44.917-31.633-59.617-98.631-23.054-142.087a77.67 77.67 0 0 1 52.541-27.37M280.321 883.66c7.05.923 15.373 2.703 19.417 9.044 12.983 20.36-2.593 42.907-25.723 39.095a30.12 30.12 0 0 1-19.743-12.561c-11.989-17.449-3.884-40.543 13.23-51.139 22.255-13.779 50.269-5.513 63.857 16.275 26.373 42.287-12.983 88.795-57.629 90.149-1.331-.105-10.857-.168-12.014.001l-5.938-.732-1.618 1.312c1.016.188 1.792.365 2.795.61 6.36 1.254 18.994 1.967 25.189.885 2.478-.58 7.375-1.018 10.222-1.502a98 98 0 0 0 19.888-5.757c13.393-5.562 28.368-15.974 40.282-24.268 30.756-21.413 58.171-42.978 95.625-51.248 64.085-14.151 112.816 18.455 163.863 50.428-.852 1.249-.959 1.728-2.398 1.999l-.857.156c-38.015-12.115-82.947-20.452-123.019-15.961-24.577 2.754-50.882 11.134-73.431 21.173-22.691 10.102-44.196 22.249-67.76 30.562a200 200 0 0 1-22.817 6.605c-3.89.881-8.011 1.455-11.778 2.429 2.08 1.077 2.547 1.161 4.14 2.679l.204.191c9.173.957 20.004-.393 29.079-1.643 34.495-4.754 62.934-20.517 95.31-31.681 25.357-8.744 49.918-15.015 76.804-16.454 79.228-4.241 143.827 34.929 221.891 44.826a334.7 334.7 0 0 0 64.823 1.497c77.851-5.23 146.328-33.997 207.625-81.521l.62 1.686a350.64 350.64 0 0 1-245.672 110.145c-76.272 2.65-142.039-34.48-216.836-40.876-55.191-4.72-105.534 17.301-157.894 30.396-64.34 15.94-120.929 12.95-171.468-34.243-16.37-15.287-22.769-26.283-33.771-44.998 20.085 21.813 43.435 33.116 72.678 35.372 30.731 2.371 64.445-18.825 65.7-51.437.89-23.119-19.544-42.251-42.876-31.494"/><path fill="currentColor" d="M225.875 964.224c9.932 4.887 18.398 6.999 29.019 9.36q.443.1.884.208l-1.618 1.312c-9.554-.718-20.123-6.116-28.684-9.977zm72.979 27.794c3.564.009 8.004-.989 11.11-.803 2.08 1.077 2.547 1.161 4.14 2.679l.204.191c-5.172.75-11.879-.495-17.351-.661.751-.618 1.062-.881 1.897-1.406"/><path fill="currentColor" d="M214.761 958.814c2.813 1.248 8.628 3.689 11.114 5.41l-.399.903c-2.7-1.018-6.802-3.304-9.106-5.078zm73.568 33.335c3.457-.099 7.077-.242 10.525-.131-.835.525-1.146.788-1.897 1.406-2.52.105-6.126-.75-8.628-1.275m30.834-794.03c24.598-1.846 41.693 21.248 36.577 44.484-3.982 18.087-13.032 23.639-27.459 32.998 13.042-1.89 24.318-9.286 33.465-10.04a19.77 19.77 0 0 1 14.635 4.712c6.033 5.132 9.601 14.188 10.029 22.032a33.6 33.6 0 0 1-8.717 24.626c-6.477 6.999-16.651 11.141-26.124 11.295-17.381.282-31.525-9.97-43.491-21.387l.088.457c1.666 8.171 4.425 13.955 8.244 21.345 4.313 8.346 12.443 18.229 12.175 27.993-.414 15.132-19.394 22.028-32.263 21.03-15.989-.919-27.378-12.82-31.152-27.806-1.882-7.474-1.623-14.197-1.073-21.889 1.464-8.603 3.892-14.811 8.073-22.403-14.608 9.988-15.482 17.216-26.065 29.633-8.258 9.689-25.362 1.994-32.617-7.162-12.866-16.238-10.279-38.859 6.244-51.703 17.244-13.637 27.731-10.491 47.608-8.505-5.741-3.476-12.66-7.326-19.291-8.708-11.475-2.392-24.492-.428-28.071-14.97-4.245-18.515 5.786-35.639 24.474-39.983 22.883-5.32 44.351 10.566 51.184 31.953 1.183 3.702 1.617 9.726 2.615 14.032 1.628-5.414 1.992-10.5 1.922-16.116-.113-9.133-3.23-18.934 2.553-27.036 4.112-5.762 9.943-7.641 16.437-8.882m260.743 66.349c10.853 5.65 20.55 21.419 24.204 32.804 16.799 52.348-19.472 101.895-69.984 116.017-49.177 13.748-92.161 1.905-133.456-25.248-2.712-2.441-7.546-6.193-10.533-8.586-.83-1.192-5.055-4.919-6.537-6.522l-.395.339-3.373-4.278c2.823.807 5.174 1.525 7.945 2.503 45.84 12.574 76.336-1.078 115.837-21.798 7.973-4.182 15.782-9.196 24.028-12.778 12.449-5.407 27.75-6.083 38.336-12.182 9.647-5.557 16.669-15.837 19.395-26.529 2.973-11.66.574-23.449-5.467-33.742M376.12 380.579c2.601 2.987 5.866 6.37 8.274 9.419 1.254 1.489 7.682 9.52 8.697 10.079 21.055 28.862 33.25 72.864 27.141 107.904-4.931 28.282-18.257 57.497-41.757 74.764a92.12 92.12 0 0 1-69.392 17.037c-14.739-2.342-32.81-10.252-42.602-22.494-.975-1.219-1.048-1.886-.765-3.088 2.619.442 7.923 2.771 10.793 3.725 9.588 3.187 19.362 3.185 28.909.129 13.447-4.304 22.795-15.401 26.51-28.78 2.54-9.145 3.199-19.183 7.608-28.095 6.547-13.232 14.132-26.041 20.989-39.23 15.124-29.091 23.905-66.522 13.149-98.578l.102-.172c.931-1.592.88-1.537 2.344-2.62"/><path fill="currentColor" d="M212.07 394.644c29.589-5.399 26.022 40.886-4.186 33.382a23.14 23.14 0 0 1-14.388-11.004c-8.68-15.373.721-35.085 17.27-39.989 33.64-9.969 58.324 26.493 46.952 56.794-8.622 22.973-29.352 38.042-53.879 39.293-53.713 1.235-95.903-46.099-116.97-91.213-32.053-70.59-18.425-160.67 28.014-221.802 2.278-2.999 6.422-10.013 9.596-11.471.056 1.287.041 2.504.157 3.786-1.654 9.365-2.054 18.988-4.102 28.168-.676 3.026-5.333 9.277-6.956 12.265-1.337 2.463-2.763 5.287-4.078 7.75-10.83 20.274-16.374 40.495-20.24 62.941-8.766 50.909 2.355 103.437 32.981 145.295 17.9 23.058 42.112 44.919 71.795 49.931 24.817 4.191 51.693-10.378 56.049-36.291.84-5-.211-15.594-3.108-20.006-9.049-13.782-21.204-19.141-34.907-7.829m73.315-325.938c23.198-2.249 53.543 2.798 75.858 9.449 49.127 14.642 108.228 56.863 114.485 111.527a61.15 61.15 0 0 1-13.116 45.868c-17.602 21.691-49.491 28.399-71.898 9.793-7.73-6.419-12.864-14.568-13.651-24.781a32.47 32.47 0 0 1 8.181-24.116c9.779-11.052 26.415-13.813 37.731-3.439a19.82 19.82 0 0 1 6.497 14.002c1.009 26.893-37.481 27.366-35.564-1.106-8.45 15.606-3.462 27.978 11.32 36.672 30.497 12.275 59.139-14.332 56.976-44.773-2.813-39.571-39.568-72.105-72.301-89.417a204.78 204.78 0 0 0-161.055-12.468 147 147 0 0 0-24.038 10.455c-2.828 1.533-15.864 8.879-18.072 9.492-8.264 2.294-25.739 4.852-34.446 5.267 5.912-6.36 14.646-12.046 21.993-16.826 36.017-23.432 68.792-32.755 111.1-35.599m91.94 267.841c46.758-2.199 50.089-59.457 87.012-79.038 24.02-12.738 50.555-19.875 76.883-25.873-14.729 18.655-16.958 29.494-25.3 51.083-19.971 51.684-95.534 77.335-144.963 56.608-1.855-.717-4.164-2.115-5.95-3.115zm-35.018 27.161c1.834 3.589 2.762 5.318 3.934 9.134 5.245 16.048 3.824 38.889.784 55.172-6.613 35.415-27.879 71.557-62.687 85.191-19.753 7.737-33.726 8.937-50.109 24.021 2.065-9.643 5.242-19.181 8.2-28.517 6.386-20.161 13.836-43.961 28.378-59.835 25.851-28.217 65.302-30.117 71.659-73.918.088-3.681-.068-7.55-.159-11.248m55.417 32.89.872.216c3.308.731 4.407 3.592 8.344 3.71 1.066 6.239 62.538 32.054 71.008 35.8 35.631 15.76 41.548 50.097 54.42 82.681 2.717 6.879 7.086 13.962 10.446 20.693-32.055-26.829-82.49-22.879-102.375-65.313-2.096-4.472-4.556-9.023-6.721-13.51a1857 1857 0 0 0-16.11-32.757c-6.703-13.023-11.998-19.742-19.884-31.52"/><path fill="currentColor" d="M127.957 147.552c.156-3.101.349-20.422.929-22.104l1.119.451q1.677.069 3.351.187c1.092 1.667 4.351 4.517 4.444 5.539l-1.6 1.255c23.325 26.608 47.366 53.186 44.653 91.366-1.033 14.526-7.243 30.47-13.015 43.835-6.75 15.629-8.087 22.334-7.726 39.008-8.441-12.998-17.498-26.021-25.106-39.544-20.756-36.891-11.246-72.009-7.769-111.938.445-1.837.119-4.782.72-8.055"/><path fill="currentColor" d="M130.005 125.899q1.677.069 3.351.187c1.092 1.667 4.351 4.517 4.444 5.539l-1.6 1.255c-1.551-1.513-4.869-5.254-6.195-6.981"/><path fill="currentColor" d="M133.356 126.086c13.337-1.181 24.784-1.978 38.213-3.909 30.215-4.344 51.599-7.654 80.933 5.466 19.451 8.699 36.336 19.317 57.134 24.77-16.698 4.693-28.935 11.04-44.29 18.084-26.415 12.115-57.688 11.297-82.839-3.425-11.384-6.453-21.404-14.282-31.199-22.978-2.95-2.618-10.897-10.735-13.508-12.469-.093-1.022-3.352-3.872-4.444-5.539"/><path fill="currentColor" fill-opacity=".988" d="M375.799 379.634c1.755.306 2.026.371 3.672 1.033 2.2 4.364 4.43.014 6.529-.421.941-.195 1.194 1.678 1.977 2.492 3.693 1.626 3.251 1.048 4.571 4.704-.415 1.873-1.825 2.806-3.761 2.106-2.365-.856-2.303.053-4.393.45-2.408-3.049-5.673-6.432-8.274-9.419z"/><path fill="currentColor" fill-opacity=".839" d="M392.548 387.442c1.632.814 3.602 3.05 4.689 4.454-2.774.977-1.104 3.51.487 4.702-2.172.96-3.622 1.406-4.633 3.479-1.015-.559-7.443-8.59-8.697-10.079 2.09-.397 2.028-1.306 4.393-.45 1.936.7 3.346-.233 3.761-2.106"/><path fill="currentColor" fill-opacity=".467" d="M390.137 379.455c2.987 2.393 7.821 6.145 10.533 8.586-1.403 1.573-1.79 1.733-2.362 3.664l-1.071.191c-1.087-1.404-3.057-3.64-4.689-4.454-1.32-3.656-.878-3.078-4.571-4.704.33-1.247 1.201-2.433 2.16-3.283"/><path fill="currentColor" fill-opacity=".576" d="M261.716 974.524c1.157-.169 10.683-.106 12.014-.001 4.127 1.393 4.168 1.481 8.414 2.076-6.195 1.082-18.829.369-25.189-.885 1.887-.213 2.928-.531 4.761-1.19"/><path fill="currentColor" fill-opacity=".753" d="m383.205 373.272.395-.339c1.482 1.603 5.707 5.33 6.537 6.522-.959.85-1.83 2.036-2.16 3.283-.783-.814-1.036-2.687-1.977-2.492-2.099.435-4.329 4.785-6.529.421 7.912-4.196 3.619-3.095 3.705-6.549z"/><path fill="currentColor" fill-opacity=".988" d="M397.724 396.598c-1.591-1.192-3.261-3.725-.487-4.702l1.071-.191c1.449 1.272 7.668 7.462 8.632 8.819-3.937-.118-5.036-2.979-8.344-3.71z"/><path fill="currentColor" fill-opacity=".506" d="M127.957 147.552c-.601 3.273-.275 6.218-.72 8.055a48 48 0 0 1-.154-.981c-.121-.882-.09-1.426-1.02-1.739l-1.427-.467c-.116-1.282-.101-2.499-.157-3.786 1.358-.321 2.449-.228 3.478-1.082"/><path fill="currentColor" d="M612.024 944.252c1.778.672 4.232 2.992 5.809 4.305-2.923-.61-6.268-1.664-9.064-2.15l.857-.156c1.439-.271 1.546-.75 2.398-1.999m-240.09-567.788c1.29 1.145 2.408 2.471 3.865 3.17l.321.945c-1.464 1.083-1.413 1.028-2.344 2.62l-.102.172c-.281-1.554-1.293-5.225-1.74-6.907"/><path fill="currentColor" fill-opacity=".333" d="m255.778 973.792 5.938.732c-1.833.659-2.874.977-4.761 1.19a47 47 0 0 0-2.795-.61z"/><path fill="currentColor" fill-opacity=".988" d="m1011.65 907.607.58 1.082q-.855 1.079-1.77 2.106l-.62-1.686c.62-.602 1.13-.975 1.81-1.502"/><path fill="currentColor" fill-opacity=".886" d="M1011.65 907.607c.81-.728 1.66-1.438 2.52-2.105l-.3.197c.86-.527.53-.431.95-.395.3.492-2.18 2.917-2.59 3.385z"/><path fill="currentColor" d="M920.643 0h27.73l.978 1.19c4.407 1.341 8.964 2.497 13.372 3.818 27.986 8.39 49.527 31.892 58.177 59.482.72 2.317.59 6.588 3.1 7.192v32.195c-2.22 1.376-5.1 11.19-6.54 14.33-16.16 35.358-60.725 54.13-96.581 37.035-24.168-11.522-39.57-41.167-26.759-66.426 9.32-18.375 32.519-28.173 50.964-18.124 22.242 10.758 22.017 44.582-1.715 52.673-14.666 5.001-25.93-4.816-30.075-19.216-.205 2.044-.497 5.142-.376 7.133 1.187 19.513 21.316 33.163 39.831 32.457 13.656-.11 30.27-7.582 39.124-18.035 36.497-43.077.479-99.918-53.268-95.87-50.892 3.833-79.346 43.773-108.754 79.987-12.412 15.285-23.094 29.738-36.439 44.068-36.663 40.297-82.651 78.638-139.536 81.653-38.14 2.022-76.641-14.734-104.143-40.416-28.48-26.596-46.696-59.518-48.445-98.97.108-1.17.881-11.96.291-12.208l-.26.056.087-.216c-1.075 2.438-1.424 8.844-1.255 11.503-7.999 75.248 67.214 153.101 140.302 160.618 47.52 4.888 86.79-12.171 124.973-38.749 14.791-10.295 29.889-20.796 45.096-30.432 47.733-26.702 96.283-26.514 143.166 1.355-29.226-.257-46.557-.134-75.237 9.443-36.814 12.293-66.544 35.453-100.667 53.524-63.3 33.522-121.032 44.602-187.054 10.519a212.2 212.2 0 0 1-54.984-40.013c-34.003-34.691-52.01-79.857-45.638-128.72l-.439-.233c-7.008-3.771-14.293-8.987-21.286-12.955-9.398-5.331-18.922-10.307-28.772-14.74A312.95 312.95 0 0 0 225.104 50.25c-67.956 20.136-119.945 61.474-153.916 124.056A285.6 285.6 0 0 0 47.855 390.84c11.568 38.826 26.069 60.259 48.459 92.534a168.97 168.97 0 0 1 123.917 43.971c48.865 43.806 74.854 107.483 58.694 172.274-3.38 13.553-7.268 26.772-13.17 39.465-22.55 50.528-61.108 93.762-67.587 150.486-.879 7.692-1.185 21.208.501 28.809.447 2.338 1.289 5.727 1.093 7.988l-.572.157c-.688-.917-1.196-1.548-1.768-2.543-30.488-44.17-28.265-86.949-3.738-133.914 8.845-15.052 19.251-29.484 28.892-44.034 45.596-68.811 48.395-148.978-15.709-208.855a163.04 163.04 0 0 0-99.479-43.354c-7.329-.502-13.851-.114-21.156.144-7.687-7.141-16.462-19.477-22.833-28.03-35.642-47.846-56-102.419-59.374-162.141-3.18-56.292 13.397-114.109 42.29-162.353 11.692-19.522 27.735-38.372 42.958-55.214 1.061-.716 1.903-1.553 2.768-2.493 27.333-24.417 48.178-41.371 82.342-56.098 114.697-49.442 232.62-18.353 327.709 55.49q.944-4.152 2.012-8.276a77.67 77.67 0 0 1 35.687-47.505c21.149-12.24 49.063-15.175 72.539-8.694a106.94 106.94 0 0 1 64.141 49.917c10.411 18.462 14.39 38.916 8.438 59.587a62.02 62.02 0 0 1-29.448 36.715c-15.131 8.207-29.878 10.112-46.595 5.932-38.821-9.707-52.903-62.682-13.585-82.457a37.56 37.56 0 0 1 28.869-1.858c9.014 3.124 17.08 9.853 21.216 18.519a29.34 29.34 0 0 1 1.102 22.576c-2.54 6.86-7.316 11.657-13.994 14.52a27.08 27.08 0 0 1-21.365.083 23.9 23.9 0 0 1-12.97-13.326c-2.604-6.831-1.263-11.524 1.481-17.732-9.017 8.57-12.28 20.855-6.66 32.369a33.77 33.77 0 0 0 19.859 17.052c21.174 6.924 45.741-9.966 51.856-30.494 14.953-50.195-42.731-93.64-87.786-69.36a56.5 56.5 0 0 0-27.78 33.978c-13.872 47.399 27.579 90.122 70.567 101.573 35.229 10.439 76.319 1.358 107.97-17.076 45.053-26.238 113.707-82.514 82.805-141.268-15.757-29.961-65.972-25.048-65.619 12.502.043 4.562 1.012 8.154 3.519 11.996l.378.567c7.684-23.864 35.426-17.758 36.895 2.92a20.64 20.64 0 0 1-4.95 14.896c-10.063 11.516-28.463 9.053-38.987-.592a42.44 42.44 0 0 1-13.605-29.33c-1.91-43.325 56.834-59.263 84.67-30.84 15.388 15.712 18.164 29.958 18.775 51.166 4.694-5.195 8.819-11.074 13.443-16.343 18.983-21.628 38.835-43.73 67.694-51.583 2.429-.66 5.565-1.171 7.822-2.116z"/><path fill="currentColor" d="M45.216 68.826c-1.052-1.444-6.81-3.997-8.696-5.06-3.15-1.686-6.002-3.523-8.636-5.966-10.18-9.444-15.527-26.85-4.224-37.75 11.204-10.803 27.39-7.167 37.197 3.35 7.341 7.873 8.429 16.793 8.065 27.166l1.115 1.236c3.568-12.418 9.878-27.341 22.01-33.13 24.987-11.922 37.156 6.69 36.416 28.907-4.831 4.325-10.747 7.785-15.836 11.967-7.466 6.134-14.36 12.815-21.358 19.467l-7.495 7.426c-10.915 10.86-20.36 22.785-29.568 34.896-8.264 10.87-29.946 6.06-39.012-1.959-11.603-10.264-11.469-26.193-1.22-37.128 7.91-8.44 19.164-12.082 30.375-12.61z"/><path fill="currentColor" d="m68.922 50.566 1.115 1.236c-.175.848-.673 4.628-1.302 5.07l-.08-.04c-.518-1.264-.143-4.753.267-6.266m-23.706 18.26c1.365-.524 3.584-.248 4.445.88-.328.745-4.556.072-5.312-.068z"/><path fill="currentColor" fill-opacity=".09" d="M91.269 79.013c1.408 2.32.269 3.134.772 4.724-.865.94-1.707 1.777-2.768 2.493-.34-.303-.175-.233-.435-.313-2.056.908-2.402 1.566-5.064.522z"/><path fill="currentColor" fill-opacity=".953" d="M500.151 95.291c-.169-2.659.18-9.065 1.255-11.502l-.087.215.26-.056c.59.248-.183 11.038-.291 12.207-.132-.388-.261-1.15-.542-1.398-.125.069-.438.365-.595.534"/></svg>