<svg xmlns="http://www.w3.org/2000/svg" width="1024" height="1024"><path fill="currentColor" d="M0 292.868c1.106-.422.928-.354 1.723-1.051l.493.915c2.565-7.657 3.832-17.163 5.96-25.118 25.08-93.726 90.2-169.417 177.089-212.033 102.421-50.492 225.96-50.04 333.186-15.1C580.494 60.7 639.674 96.12 681.813 146.655c29.943 35.908 52.75 84.287 36.729 131.587a98.7 98.7 0 0 1-7.957 17.72c-1.693 2.942-4.132 6.538-5.551 9.428 5.622-2.249 11.266-4.619 17.021-6.446 30.787-9.774 61.141-6.486 90.542 6.265 75.351 32.677 123.814 104.469 153.247 178.382a512.5 512.5 0 0 1 32.833 237.049c-3.645 37.13-10.749 71.999-25.649 106.477a378.8 378.8 0 0 1-40.679 72.361c-31.884 43.921-81.236 85.681-132.042 105.723a274 274 0 0 1-37.111 11.99c-2.2.54-10.147 2.15-11.19 3.31-.012.25-.029 1.2-.103 1.39l-.841 2.11h-24.966l1.746-1.49c10.786-3.6 20.866-5.98 31.947-10.1a301.4 301.4 0 0 0 116.03-77.035c89.163-94.314 104.82-238.792 72.142-360.126-27.6-102.477-95.668-236.242-217.552-239.178-27.915-.673-66.012 21.182-85.002 41.424 5.415-2.211 10.657-5.039 16.265-7.288a123.4 123.4 0 0 1 93.592 1.375 139.54 139.54 0 0 1 74.795 77.476c12.325 31.544 11.168 69.354-2.408 100.308a137.84 137.84 0 0 1-77.072 72.803 129.74 129.74 0 0 1-98.75-2.353c-7.525-3.359-16.9-8.299-23.713-12.927-43.312-29.42-65.585-86.311-51.438-137.043 1.942-6.962 5.532-14.176 8.532-20.777-6.066 5.854-14.02 15.113-20.073 21.522a5528 5528 0 0 1-58.436 61.827l-114.28 116.404a9094 9094 0 0 0-75.2 76.184l-1.629-.589c8.298-10.339 21.265-24.18 30.309-34.059l35.859-39.566 111.549-122.678c20.616-22.443 42.974-45.002 62.984-67.849.876-.625 1.585-1.429 2.337-2.195a46 46 0 0 0 1.517-1.4 246 246 0 0 1 2.955-3.086c.927-1.003 8.463-8.596 8.179-9.284-.953-.587-8.378 7.496-9.45 8.607-.919.92-1.531 1.526-2.545 2.342-.215.296-.363.628-.532.958-1.066.992-1.605 1.457-2.551 2.575l-.836.798c-24.031 21.846-46.893 44.707-70.522 66.586l-192.26 174.932-1.353-.396c8.947-8.602 18.299-18.501 27.132-27.376L361.3 630.66l107.195-105.667 71.25-69.889c11.145-10.85 27-24.754 36.909-36.14-11 5.177-14.55 8.976-27.65 12.847-31.055 9.177-65.489 2.641-93.454-12.776a133.32 133.32 0 0 1-64.212-80.438c-19.577-69.134 25.18-145.474 93.326-165.722 100.323-29.809 203.064 75.994 157.906 173.97-3.963 8.599-9.035 14.594-13.436 22.454l-.259.47c107.414-102.361 29.988-206.79-75.521-261.966-3.553-1.858-7.06-3.685-10.7-5.4a498 498 0 0 0-78.475-29.133c-77.9-21.155-175.669-24.672-252.383 2.943a340.6 340.6 0 0 0-82.271 42.41C66.681 163.485 23.108 232.101 4.71 306.318c-1.17 4.715-2.603 12.115-4.71 16.257zm711.422 313.644c34.674-2.533 59.476-19.228 81.759-44.899 17.269-19.894 24.094-49.612 22.276-75.431-4.044-57.429-58.141-103.056-115.025-99.975-54.952 4.012-109.779 60.838-105.405 117.326 4.823 62.287 54.198 104.993 116.395 102.979M527.177 410.966c60.219-4.343 105.614-56.523 101.581-116.764s-55.981-105.903-116.241-102.179c-60.7 3.752-106.768 56.16-102.705 116.84 4.063 60.679 56.707 106.478 117.365 102.103"/><path fill="currentColor" d="M727.842 1022.51c5.226.16 12.652-.79 17.904-1.61 1.181-.18 3.835-.8 4.936-.69.481.47.831 1.13 1.221 1.68l-.841 2.11h-24.966zm-30.615-598.404c40.101-4.935 76.59 23.622 81.437 63.733 4.846 40.112-23.791 76.538-63.913 81.296-39.997 4.743-76.285-23.786-81.117-63.772-4.831-39.987 23.618-76.338 63.593-81.257m10.603 131.473c33.916-3.685 58.406-34.194 54.667-68.105s-34.287-58.352-68.192-54.559c-33.828 3.784-58.203 34.249-54.472 68.084 3.73 33.834 34.156 58.257 67.997 54.58M511.414 227.962c40.131-3.682 75.619 25.937 79.174 66.079s-26.175 75.536-66.328 78.966c-39.975 3.414-75.179-26.155-78.718-66.12-3.54-39.964 25.919-75.261 65.872-78.925m15.361 137.444c33.661-2.226 59.155-31.299 56.966-64.962s-31.236-59.189-64.901-57.036c-33.717 2.156-59.29 31.256-57.097 64.971 2.193 33.714 31.32 59.256 65.032 57.027M455.725 0h4.343c.219.973.368.873 1.422.968 11.672 1.055 23.308 2.5 34.94 3.985-1.099-1.249-2.585-3.352-3.017-4.953h1.424c1.075 2.13 1.614 3.201 2.994 5.129 63.625 10.533 118.282 30.96 173.738 63.995 10.87 6.476 30.36 18.668 40.11 26.532 5.201-31.653 10.942-53.624 38.237-73.694 36.143-26.574 84.28-20.08 110.64 16.638 15.801 22.012 19.056 48.249 15.006 74.45-1.992 12.5-7.683 28.135-12.82 39.721-2.721 6.139-6.242 12.183-8.981 18.484 35.24-16.737 71.353-28.632 110.143-14.975 19.96 7.275 39.076 21.56 48.136 41.167 9.12 19.742 9.22 43.267 1.99 63.566-13.12 36.806-48.294 53.005-84.746 57.126 36.735 56.538 60.592 109.157 76.356 174.983a493 493 0 0 1 10.22 57.197c1.21 9.831 1.63 20.321 3.37 30.034.43 2.373 3.22 5.723 4.77 7.796v68.854c-1.9 1.019-2.63 3.335-3.85 5.564-2.64 2.94-2.17 12.978-3.33 18.322-1.12-2.086-.51-6.124-.91-9.466-.24-2.596-.08-5.993-.05-8.686 1.21-127.536-38.586-249.358-107.517-356.005-22.872-35.387-50.478-71.871-80.061-101.692-12.114 11.333-28.719 24.982-42.988 33.723 5.404 8.894 7.075 16.337 3.757 26.548-.707 2.178-2.521 4.045-3.12 6.291l-1.908 1.99c-1.034.2-3.817 2.748-4.943 3.549-19.769 14.052-40.807-.89-37.79-24.19.934-7.213 2.823-9.641 6.166-16.097-27.115-40.751-38.605-78.931-37.213-128.264-4.906-3.013-9.652-6.449-14.606-9.468-72.07-43.915-150.485-77.075-234.279-89.862-5.672-.866-12.802-1.606-18.184-3.535 3.588-8.368 5.065-4.056 12.551-5.725M784.48 237.724c3.81-3.112 8.655-7.973 12.335-11.459a1007 1007 0 0 0 26.996-26.383c-31.403-28.264-61.604-56.609-96.899-80.158-4.879-3.255-9.278-6.615-14.375-9.654 1.081 11.348 1 22.694 2.132 34.018 3.509 35.124 16.886 60.73 34.837 90.425 11.091-9.456 25.945-8.09 34.974 3.211m50.1-37.841c6.593 7.531 13.885 14.842 20.644 22.325a720 720 0 0 1 35.593 42.26c9.043 11.535 17.608 24.055 26.441 35.775 3.276 4.347 7.255 10.8 10.545 14.672 6.205-1.292 13.571-2.734 19.57-4.43 17.239-4.873 37.643-18.021 47.523-33.292a74.2 74.2 0 0 0 9.734-56.198 76.13 76.13 0 0 0-33.839-47.357c-15.461-9.687-37.718-15.494-55.978-13.929-26.233 1.748-63.324 20.077-80.233 40.174M714.771 97.176c13.805 11.516 30.469 22.836 45.183 34.893a980 980 0 0 1 30.731 26.269c6.536 5.94 13.286 12.783 19.831 18.494 5.308 4.968 12.24 11.914 17.659 16.484 33.506-41.078 60.993-115.502 11.752-155.778-13.45-11.001-35.661-18.543-53.084-16.842-3.521.419-6.961.843-10.432 1.598-35.697 7.771-58.022 39.774-61.64 74.882"/><path fill="currentColor" d="m710.243 108.59 2.294 1.48c1.081 11.348 1 22.694 2.132 34.018 3.509 35.124 16.886 60.73 34.837 90.425-.747.791-1.448 1.443-2.05 2.341-27.115-40.751-38.605-78.931-37.213-128.264m309.907 553.977-1.09-.905c-.28-1.759.55-10.764.66-13.211q.48-12.936.57-25.88c-.01-8.588-.18-17.176-.49-25.759-.14-3.302-.9-11.607-.5-14.36.47 2.098 3.52 7.969 4.7 10.027v64.524c-1.9 1.019-2.63 3.335-3.85 5.564M903.843 112.284c1.205-2.106 2.614-4.076 3.991-6.073 7.118-10.323 14.194-20.884 19.544-32.255a136.5 136.5 0 0 0 7.487-20.386c3.586-12.788 4.521-22.826 12.766-34.139 18.608-25.873 60.929-11.252 68.389 16.787 2.68 10.066 2.16 23.096-3.05 32.354-10.36 18.421-32.535 18.302-50.607 23.282-18.902 5.21-37.216 16.226-52.413 28.57-1.618.814-5.164 3.556-6.422 4.84-11.465 8.646-20.143 20.018-30.256 29.535l-.725-1.422c3.282-4.467 12.67-14.022 14.536-18.495q-.115-1.43-.197-2.862c.062-.521.139-1.04.149-1.563.161-.983 8.848-11.937 10.005-13.048 1.276.857 1.178.807 2.706 1.083 1.751-2.286 2.834-3.654 4.097-6.208"/><path fill="currentColor" d="M897.04 117.409c1.276.857 1.178.807 2.706 1.083-1.377 2.189-11.095 16.133-12.663 16.39q-.115-1.43-.197-2.862c.062-.521.139-1.04.149-1.563.161-.983 8.848-11.937 10.005-13.048"/><path fill="currentColor" d="M912.602 123.991c22.445-17.114 48.434-32.322 77.828-27.998 10.3 1.37 19.21 5.274 25.69 13.555 9.21 11.779 4.92 26.902-6.61 34.781-15.552 10.638-24.781-.887-36.725-8.107-17.517-10.589-39.354-7.418-58.146-3.01-6.005 1.372-12.178 3.675-18.237 5.078 2.82-2.579 6.492-6.138 9.41-8.459 1.088-.639 6.173-4.777 6.79-5.84m-27.93 7.152c10.223-25.534 19.138-53.638 7.091-80.643-3.328-7.461-9.81-11.866-11.662-19.503-1.478-6.096.395-12.882 3.796-18.035A23.6 23.6 0 0 1 899.311 2.68c15.324-2.894 28.637 12.451 30.462 26.44 3.777 28.956-11.902 60.376-28.634 83.075-1.291 1.228-3.082 3.737-4.099 5.214-1.157 1.111-9.844 12.065-10.005 13.048q-1.176.36-2.363.686"/><path fill="currentColor" fill-opacity=".6" d="M903.528 125.264c1.258-1.284 4.804-4.026 6.422-4.84 1.308 1.464 1.589 1.922 2.652 3.567-.617 1.063-5.702 5.201-6.79 5.84-.747-1.736-1.299-2.948-2.284-4.567"/><path fill="currentColor" fill-opacity=".706" d="M897.04 117.409c1.017-1.477 2.808-3.986 4.099-5.214l2.704.089c-1.263 2.554-2.346 3.922-4.097 6.208-1.528-.276-1.43-.226-2.706-1.083"/><path fill="currentColor" fill-opacity=".933" d="M884.672 131.143a84 84 0 0 0 2.363-.686c-.01.523-.087 1.042-.149 1.563-1.693-.984-2.537 2.529-3.549 2.258l-.04-.088c.133-.679 1.076-2.278 1.375-3.047"/><path fill="currentColor" fill-opacity=".902" d="m872.547 153.377.725 1.422c-1.048.955-1.817 1.626-2.784 2.687l-.977-.188c1.026-1.257 2.032-2.629 3.036-3.921"/><path fill="currentColor" fill-opacity=".569" d="m869.511 157.298.977.188c-.277.335-2.205 2.865-2.745 2.665-.209-.476.253-1.001.556-1.373z"/><path fill="currentColor" d="M785.931 271.602c5.124 2.882 9.352 7.196 14.392 10.222 23.552 14.139 49.78 24.999 76.744 30.438 5.992 1.208 31.939 4.486 32.373 4.986-3.342 1.077-10.235.956-13.785.652-35.174-3.007-70.569-15.807-99.802-35.544-4.07-2.748-7.904-5.861-11.83-8.764zM460.068 0h33.345c.432 1.601 1.918 3.704 3.017 4.953-11.632-1.484-23.268-2.93-34.94-3.985-1.054-.095-1.203.005-1.422-.968"/><path fill="currentColor" fill-opacity=".937" d="M1015.91 671.423c.4 3.342-.21 7.38.91 9.466-.07.538-.14 1.075-.2 1.613q-.42 3.49-.66 6.997c-.12 1.592-.38 2.731-.46 4.482l-.34.043q-.15-1.386-.24-2.774c.3-5.573.49-14.79.99-19.827"/><path fill="currentColor" fill-opacity=".878" d="m315.592 724.417 1.629.589c-3.433 3.515-7.252 7.037-10.583 10.611l-.754-.242c2.245-2.372 7.594-9.385 9.708-10.958"/><path fill="currentColor" fill-opacity=".988" d="M561.831 452.907c1.072-1.111 8.497-9.194 9.45-8.607.284.688-7.252 8.281-8.179 9.284z"/><path fill="currentColor" fill-opacity=".69" d="m289.331 702.515 1.252.513c-2.036 2.012-4.415 4.039-6.522 6.086l-.863-.392c2.056-2.077 3.987-4.219 6.133-6.207"/><path fill="currentColor" fill-opacity=".851" d="m561.831 452.907 1.271.677a246 246 0 0 0-2.955 3.086l-.861-1.421c1.014-.816 1.626-1.422 2.545-2.342"/><path fill="currentColor" fill-opacity=".447" d="m558.754 456.207-.124 1.863c-.752.766-1.461 1.57-2.337 2.195l-.046-.565c.097-.426.206-.592-.044-.918.946-1.118 1.485-1.583 2.551-2.575"/><path fill="currentColor" fill-opacity=".533" d="m283.198 708.722.863.392c-.449.425-2.791 2.895-3.354 2.62-.449-.632 2.062-2.663 2.491-3.012"/><path fill="currentColor" d="m291.232 700.702 1.353.396c-.701.661-1.33 1.238-2.002 1.93l-1.252-.513c.657-.608 1.253-1.203 1.901-1.813"/><path fill="currentColor" fill-opacity=".675" d="m559.286 455.249.861 1.421q-.743.717-1.517 1.4l.124-1.863c.169-.33.317-.662.532-.958"/><path fill="currentColor" fill-opacity=".573" d="m305.884 735.375.754.242c-2.824 2.997-3.596 2.603-.754-.242"/><path fill="currentColor" fill-opacity=".914" d="m1014.51 695.441.25.079.43 1.9c-.11.837-.11 1.605-.14 2.447l-.7-.753c.07-1.244.14-2.427.16-3.673"/><path fill="currentColor" fill-opacity=".353" d="M1015.05 699.867c-.14.424-.27 1.135-.76 1.286-.52-.395-.17-1.552.06-2.039z"/><path fill="currentColor" fill-opacity=".471" d="M1014.51 695.441c-.01-1.979.04-2.214.41-4.191q.09 1.388.24 2.774l-.4 1.496z"/><path fill="currentColor" fill-opacity=".608" d="m1015.16 694.024.34-.043c-.04 1.436-.09 2.025-.31 3.439l-.43-1.9z"/><path fill="currentColor" fill-opacity=".294" d="M556.203 458.782c.25.326.141.492.044.918l-.88-.12z"/></svg>