<?xml version="1.0" encoding="utf-8" ?><svg xmlns="http://www.w3.org/2000/svg" xmlns:xlink="http://www.w3.org/1999/xlink" width="1024" height="1024" viewBox="0 0 1024 1024"><path fill="#F7F6F5" d="M0 0L580.021 0L584.826 0L974.588 0L978.427 0L1024 0L1024 37.6889L1024 48.8778L1024 1024L0 1024L0 982.381L0 976.767L0 598.207L0 584.188L0 0Z"/><path fill="#E29D20" d="M0 0L580.021 0L584.826 0L974.588 0L978.427 0L1024 0L1024 37.6889L1024 48.8778C1022.78 53.124 1021.33 58.7274 1019.55 62.6694C1013.89 75.2089 1002.72 85.1071 990.959 91.738C970.804 103.099 943.935 103.364 922.119 96.9784C906.75 92.4795 896.473 86.6953 882.906 78.8729C886.112 84.5433 887.907 88.2248 889.862 94.3426C901.038 129.317 874.626 163.241 837.357 153.571C827.64 151.049 817.884 143.02 813.22 134.241C808.737 125.833 807.849 115.967 810.759 106.893C811.483 104.658 812.581 102.279 813.558 100.128C797.866 77.6576 771.224 77.5533 746.275 81.451C733.08 83.5123 717.522 91.82 706.45 99.3662C706.843 102.546 707.364 106.05 707.458 109.227C707.194 110.637 707.257 110.746 707.366 112.214C708.008 112.746 707.917 113.529 708.426 114.566C707.03 117.142 706.842 120.633 707.622 123.477C707.257 124.253 707.122 124.514 706.683 125.235C706.213 126.53 705.992 127.435 705.642 128.771L705.137 130.77C704.184 134.868 701.678 140.668 701.157 144.18C700.982 144.692 700.799 145.201 700.609 145.708C699.778 147.767 697.47 150.431 698.734 152.075L697.078 153.925C682.915 175.331 668.768 191.45 642.485 196.696C623.832 200.557 604.41 196.785 588.557 186.223C566.581 171.368 554.656 142.672 563.655 117.031C573.359 89.3839 602.391 77.4046 629.005 89.4818C641.758 95.269 648.017 103.684 650.321 117.592C651.528 124.877 650.442 133.071 646.045 139.082C640.134 147.267 626.691 151.917 618.115 144.975C615.644 143.016 614.084 140.13 613.798 136.99C613.26 131.317 616.84 125.993 620.082 121.622C615.913 117.04 611.528 113.609 605.017 113.207C599.8 112.9 594.682 114.73 590.842 118.276C579.022 129.148 581.87 149.396 592.864 159.784C601.647 168.082 612.218 172.369 624.262 172.192C656.719 171.713 679.754 140.534 678.753 109.579C678.075 88.5924 668.74 68.7541 653.619 54.3231C630.923 32.8383 601.63 24.5453 570.854 25.5547C508.171 27.6106 451.672 68.4329 409.891 112.478C369.52 155.037 335.433 220.884 336.03 280.743C336.169 294.732 340.305 308.906 345.183 321.816L346.174 321.351C342.633 311.495 338.9 296.511 338.574 286.184C337.694 258.344 344.951 229.601 356.691 204.501C364.816 186.834 377.967 169.948 396.828 163.165C411.32 157.953 425.499 159.303 439.308 165.848C451.883 171.807 460.171 181.012 464.714 194.222C468.494 205.213 468.51 217.26 463.14 227.756C453.783 247.322 426.953 257.109 407.425 247.166C392.383 239.504 384.014 221.354 392.304 205.618C398.358 194.125 412.297 187.75 424.065 194.855C430.915 198.992 433.934 207.875 429.36 214.822C427.248 218.035 423.88 220.208 420.083 220.81C414.631 221.629 408.185 218.653 406.61 212.621C406.47 212.084 406.57 210.852 406.464 210.09L405.593 209.653C404.463 210.336 403.998 210.574 403.688 212.006C401.404 222.545 405.861 231.6 416.702 234.161C424.294 235.924 432.275 234.565 438.856 230.389C453.34 221.041 454.751 204.705 445.316 191.241C440.269 183.915 432.485 178.928 423.72 177.405C379.239 169.884 348.02 228.472 342.917 265.092C340.437 282.89 340.886 300.119 347.427 317.047C349.035 321.488 351.859 327.279 353.14 331.011L354.191 329.896C345.068 306.128 350.232 272.655 376.012 261.321C390.46 254.969 415.719 262.95 421.555 278.406C423.433 283.375 423.164 288.9 420.812 293.663C418.182 298.788 413.613 302.65 408.121 304.388C402.922 306.019 399.475 305.512 394.366 303.139C383.289 298.079 383.79 280.395 396.06 277.809C401.538 276.654 407.684 281.707 407.859 287.091C407.948 289.804 406.065 294.383 402.724 294.075C400.53 291.655 406.766 286.225 403.723 283.057C397.922 277.017 390.007 281.792 389.454 289.365C389.181 296.85 395.9 301.874 402.773 301.575C407.387 301.331 411.714 299.26 414.799 295.82C427.971 281.368 410.95 263.261 394.228 265.973C384.087 267.618 377.852 271.553 371.603 279.871C358.15 297.946 352.764 314.797 361.161 336.204C363.935 328.412 365.766 321.028 374.098 317.073C382.439 313.198 391.607 313.325 400.269 316.229C410.376 319.457 418.717 328.787 414.694 339.835C410.703 350.793 392.417 355.002 387.294 342.273C384.98 336.524 387.622 326.574 396.628 329.616C398.568 330.271 400.477 335.149 398.932 337.822C395.728 340.26 392.061 339.569 388.328 338.833C388.067 340.502 388.812 341.85 389.802 343.251C391.355 345.423 393.683 346.915 396.305 347.42C407.8 349.581 417.854 333.379 409.293 324.607C400.872 315.978 382.886 317.013 374.499 325.383C369.971 329.932 367.447 336.101 367.487 342.519C367.604 358.85 381.559 372.211 395.354 378.813C393.944 380.013 393.604 380.119 391.985 380.88C392.757 383.148 399.878 387.583 402.122 388.653C406.337 391.44 410.774 393.875 415.388 395.935C450.871 412.002 492.228 407.614 509.89 368.355C515.072 356.836 517.225 345.15 512.224 333.079C508.47 324.018 501.698 314.629 492.151 310.74C466.914 301.985 432.797 333.229 444.85 359.369C448.192 366.617 454.002 372.509 461.173 375.168C481.331 382.643 501.025 357.26 490.953 339.322C488.479 334.914 484.324 331.697 479.436 330.408C457.767 324.606 449.931 355.113 468.674 358.435L469.312 358.542L470.616 360.278L470.017 360.284C448.685 360.323 452.476 325.002 476.375 327.228C490.742 328.567 497.709 338.527 497.259 352.977C494.365 379.519 462.757 390.319 445.524 368.083C439.983 360.945 437.554 351.875 438.787 342.923C441.751 321.118 466.826 302.009 488 305.483C509.597 309.025 522.437 336.765 517.923 356.8C514.078 373.866 504.658 388.56 490.144 398.604C479.041 406.086 462.018 411.461 448.541 411.426C443.672 411.414 436.977 410.447 432.074 409.763C431.279 409.504 430.525 409.633 429.698 409.669C426.661 408.024 423.21 406.875 419.981 405.561C409.751 401.4 400.981 397.703 392.393 390.51L391.659 391.425L391.82 391.846C392.608 394.377 393.439 395.178 395.039 397.264C394.512 398.179 394.843 397.828 394.108 398.373C394.007 398.482 393.892 398.549 393.867 398.695C393.764 399.321 394.945 400.463 395.261 400.838C396.219 401.969 397.011 403.327 398.122 404.301C402.085 410.65 405.647 416.994 408.246 424.035C409.707 427.995 410.565 432.316 412.265 436.146L412.278 439.469C413.521 460.654 409.649 483.576 395.024 499.935C384.038 512.225 366.872 519.371 350.516 520.196C338.714 520.791 327.849 515.226 319.279 507.442C312.8 501.559 307.822 494.007 307.433 485.027C306.945 473.74 313.004 462.242 320.546 454.2C328.402 445.822 339.101 440.237 350.704 440.01C359.613 439.836 367.733 442.767 374.131 449.031C380.049 454.825 383.379 462.453 383.368 470.761C383.358 477.829 380.569 483.92 375.581 488.851C369.668 494.697 361.409 498.761 352.985 498.575C346.512 498.462 340.361 495.731 335.935 491.006C332.048 486.789 329.74 480.966 330.12 475.204C330.464 469.995 332.666 464.695 336.728 461.305C340.72 457.973 346.447 456.587 351.569 457.066C355.42 457.425 358.642 459.245 360.993 462.324C361.971 463.604 362.649 465.07 363.332 466.52C363.22 466.944 363.1 467.366 363.002 467.792C362.919 468.153 362.838 469.108 362.492 469.371L362.442 469.35C362.296 469.094 362.256 468.816 362.198 468.524C362.131 468.19 362.082 467.823 361.772 467.614C361.672 467.546 361.563 467.492 361.458 467.432C356.599 457.073 347.225 456.716 338.335 463.1C331.595 467.939 331.327 481.483 337.056 487.309C357.867 508.906 395.391 477.813 373.105 453.366C349.351 427.308 306.487 459.828 312.08 489.147C315.322 506.138 342.64 520.941 359.481 514.929C370.072 511.148 381.397 509.003 389.64 499.943C409.76 479.572 409.935 449.003 400.75 423.533C397.742 415.315 391.017 400.802 384.781 394.556C384.215 393.145 383.694 393.347 382.172 392.943C380.692 390.998 379.481 389.544 377.858 387.716C376.826 386.024 375.876 386.612 374.019 386.712C364.18 374.624 347.28 363.717 331.858 373.175C326.505 376.432 322.744 381.765 321.47 387.9C319.749 396.619 323.429 409.763 333.866 411.463C344.062 413.124 353.694 400.287 346.837 391.306C345.726 389.851 343.349 387.899 341.365 387.809L340.719 388.429C343.057 393.454 344.627 399.383 335.509 397.816C328.989 396.695 329.056 388.352 336.19 386.23C342.328 384.405 347.987 386.692 350.749 392.795C354.374 400.975 349.391 411.724 340.676 414.033C328.646 417.319 319.427 406.361 317.092 395.621C312.637 375.133 324.229 363.446 342.588 359.234C326.588 352.246 312.251 353.363 295.958 359.461C285.585 363.715 274.107 370.848 269.764 381.664C264.722 394.218 268.787 409.992 282.386 414.848C286.55 416.382 291.161 416.147 295.147 414.197C299.53 412.085 302.893 408.317 304.495 403.723C306.577 397.56 304.81 389.171 297.832 387.173C294.955 386.375 291.878 386.756 289.281 388.23C279.347 393.807 286.544 407.372 296.407 399.15L296.95 398.69C298.1 399.363 297.576 398.937 298.213 400.509C297.437 403.596 294.122 404.232 291.307 404.409C285.725 404.941 281.501 400.145 282.03 394.758C283.52 381.475 299.272 379.979 306.469 389.972C312.649 398.553 308.215 410.577 299.96 416.075C295.548 419.059 290.078 420.033 284.908 418.755C267.54 414.505 257.848 391.125 262.398 374.596C270.438 345.389 306.281 344.167 330.723 350.698L332.848 349.782L330.392 348.684L332.69 347.566C333.545 347.605 334.146 347.617 334.996 347.61C328.798 344.095 321.626 341.91 314.811 339.805C289.52 331.994 266.884 332.223 241.337 339.416C164.087 361.166 92.5389 423.938 52.9297 492.676C32.4496 528.218 19.9764 574.085 30.9876 614.534C37.3986 638.671 51.3048 658.056 73.4546 670.144C91.4908 679.987 110.037 684.591 130.378 678.935C157.044 671.52 180.635 643.629 172.53 614.928C169.87 605.507 161.446 595.131 152.71 590.556C145.375 586.697 136.793 585.965 128.91 588.525C123.406 590.299 118.508 593.775 115.8 598.982C113.707 602.974 113.292 607.636 114.648 611.934C116.222 616.894 119.651 620.488 124.05 623.082C132.942 617.749 142.939 613.828 148.83 626.069C159.214 647.643 128.59 659.665 111.993 652.526C75.902 637.002 76.7897 587.619 112.118 570.904C126.605 564.145 143.189 563.438 158.198 568.942C191.156 581.141 209.433 621.724 196.341 654.522C191.117 667.612 182.341 681.457 170.783 689.857C168.674 691.358 159.007 697.136 158.216 698.401C158.845 703.934 158.636 709.292 157.984 714.809C158.251 714.725 158.521 714.647 158.786 714.558C160.699 713.915 162.512 713.292 164.494 712.858C164.755 712.801 165.014 712.736 165.276 712.681C168.151 712.074 171.098 712.173 174.001 712.404C182.137 713.05 186.421 712.285 193.633 708.254C193.4 709.668 193.172 711.072 192.966 712.489C192.835 713.396 192.6 714.339 192.412 715.237C192.069 716.868 191.583 718.433 191.075 720.017C190.83 720.778 190.768 721.103 190.895 721.886L191.546 721.913L192.182 723.723C191.05 724.013 190.011 724.386 188.93 724.826C187.42 726.243 184.667 727.612 182.7 728.198L182.552 730.138C181.319 730.163 180.085 730.154 178.853 730.11L178.638 729.893L178.485 729.285C177.889 728.776 177.376 728.268 176.831 727.701C175.706 727.036 174.534 726.547 173.297 726.123C173.012 727.176 172.761 727.827 172.195 728.754C172.164 728.805 172.134 728.858 172.103 728.91L172.098 729.437L170.483 730.014C170.893 730.555 171.292 731.104 171.682 731.66C171.419 732.42 171.149 733.178 170.873 733.933C171.95 735.872 172.296 738.324 172.581 740.499C172.713 741.502 172.813 742.504 172.935 743.506C173.028 744.275 173.871 745.117 174.315 745.689C174.556 745.999 174.763 746.293 174.809 746.687C174.785 746.733 174.778 746.772 174.722 746.789C173.53 747.136 170.109 744.686 169.056 744.118C168.612 743.918 168.176 743.775 167.711 743.611C163.851 742.037 161.438 739.43 158.245 736.909C158.062 736.737 158.01 736.644 157.806 736.56C157.18 736.304 155.701 736.764 155.161 737.109C155.096 737.15 155.036 737.199 154.972 737.242L154.394 737.615C154.274 736.993 154.151 736.375 154.071 735.746C153.952 734.803 153.806 733.925 153.625 732.994C153.094 730.254 152.198 727.621 151.332 724.972C150.785 726.806 150.339 728.634 149.889 730.492L148.835 734.67C147.779 735.237 147.764 735.127 146.604 734.848C146.537 734.832 146.467 734.828 146.399 734.819C146.179 735.056 145.962 735.297 145.738 735.531C145.564 735.712 145.247 736.056 144.959 736.049C144.852 736.046 144.735 735.932 144.705 735.838C144.537 735.306 144.932 734.42 145.076 733.957C145.191 733.589 145.177 733.348 145.037 732.994L144.778 732.899C143.258 733.742 142.441 736.928 141.845 738.446C141.643 738.962 141.304 739.492 140.743 739.662C139.893 739.92 138.852 739.273 138.1 738.979L139.08 737.081C139.5 736.488 139.684 736.176 139.691 735.45C139.691 735.357 139.684 735.265 139.684 735.172L139.695 734.354L139.49 732.986C134.597 734.693 129.716 734.612 125.048 732.351C124.44 732.057 123.837 731.757 123.226 731.469C119.534 735.551 113.433 741.354 108.459 743.66C108.287 743.44 108.112 743.222 107.949 742.994C107.741 742.704 107.577 742.38 107.306 742.139C106.993 741.86 106.68 741.874 106.288 741.932C105.945 741.982 105.606 742.067 105.257 742.013C105.035 741.978 104.813 741.937 104.59 741.899C104.907 741.821 105.223 741.738 105.542 741.665C108.98 740.873 111.672 738.758 114.343 736.529C113.673 736.355 112.997 736.193 112.331 736.004C109.436 735.181 107.098 734.115 104.443 732.719C104.279 732.634 104.111 732.558 103.945 732.478C103.716 732.304 103.488 732.126 103.256 731.955C103.097 731.839 102.93 731.733 102.771 731.616C99.4653 729.191 102.276 724.646 102.623 721.5C102.834 719.578 102.494 717.769 102.267 715.864L101.622 713.712C102.134 712.1 102.461 712.02 103.77 711.041L103.724 709.35C101.165 709.244 98.6135 709.137 96.0609 708.925C84.3254 736.123 74.1644 769.567 85.505 798.378C88.6838 806.453 93.1983 813.982 99.568 819.939C106.875 814.232 114.29 810.827 123.711 812.08C134.429 813.506 145.598 820.972 152.072 829.481C158.25 837.675 160.922 847.986 159.501 858.15C158 868.846 151.81 878.364 143.226 884.791C133.113 892.364 119.798 894.739 107.457 892.942C98.9073 891.696 90.9534 888.386 83.6651 883.804C99.3035 906.291 111.556 937.901 106.697 965.512C103.371 983.785 92.8915 999.975 77.5829 1010.49C65.2777 1019.08 49.5065 1024.65 34.4217 1021.8C23.5237 1019.75 14.2258 1013.74 8.06628 1004.5C3.39668 997.489 1.97651 990.4 0 982.381L0 976.767L0 598.207L0 584.188L0 0Z"/><path fill="#F7F6F5" d="M0 0L580.021 0C567.462 1.61778 556.209 2.41448 543.61 5.48879C481.327 20.6873 428.32 60.8429 386.679 108.421C383.764 111.752 380.992 115.202 377.994 118.394L377.047 117.528L376.664 117.489C376.37 116.459 376.476 116.175 375.55 115.599C372.191 109.388 372.684 110.7 365.962 109.216C360.529 111.505 358.768 115.757 356.691 120.852C354.881 114.683 354.578 112.798 348.894 109.416L347.953 109.3C342.901 108.578 337.991 114.551 342.495 114.529C340.795 115.475 340.791 115.286 341.972 116.547C339.53 117.169 338.99 117.493 336.821 118.966C336.499 118.63 336.407 118.572 336.158 118.172C300.077 65.1775 223.956 83.8123 214.315 147.218C206.019 201.777 236.365 234.583 270.763 271.08L270.743 273.367C236.203 244.158 191.475 217.454 144.757 219.829C111.46 221.522 77.9193 251.19 81.1911 286.026C83.273 308.193 96.1029 325.749 113.535 338.561C110.288 342.015 106.974 345.017 105.379 349.506C104.4 350.571 101.673 351.485 100.366 351.339C99.8833 349.724 99.3264 349.663 97.8893 348.623L96.9079 349.602C85.152 343.733 80.3222 339.899 75.8476 327.464C73.5209 326.818 74.2685 318.667 73.4743 317.268L72.9099 317.238L72.9078 317.202C72.4994 317.711 72.6431 322.327 72.4997 323.683C72.6046 327.077 74.456 330.747 75.4933 333.903C76.4711 334.418 77.7916 336.467 77.6343 337.279C76.7117 338.357 71.3966 336.376 70.313 339.405C75.0857 340.632 78.9487 340.21 82.4826 343.754C82.816 344.088 84.6121 345.165 84.6756 345.631C84.4443 345.712 84.1112 345.513 83.9309 345.447C83.8813 345.429 83.8309 345.414 83.7809 345.397L83.1225 345.976C82.4958 346.495 82.0736 347.123 81.573 347.751L79.4747 348.442C78.2321 349.956 78.1929 349.553 77.9173 351.225C79.0249 352.338 79.0475 352.208 80.8902 352.186C76.0739 353.491 74.8974 354.92 70.9944 357.181L71.283 358.976C72.6212 358.974 73.4358 359.091 74.7644 359.259C75.3149 358.976 75.3641 358.983 76.0393 358.742C78.3998 359.806 81.5654 358.185 86.1435 359.948L85.6766 361.709L87.6799 362.07C87.1304 362.354 85.6553 363.185 85.1517 363.275C83.9034 363.76 82.9401 364.237 81.6521 364.614L81.0566 364.791C79.4583 365.426 77.8105 365.869 76.2911 366.604C76.1061 367.587 76.0413 367.86 75.7197 368.804C75.1318 369.498 74.8541 369.764 74.4253 370.571C74.2317 371.939 74.2914 371.954 73.6616 373.128C72.4959 376.07 71.6027 379.385 70.4231 382.141C70.753 384.777 70.062 384.853 71.6071 386.876C72.5052 386.377 73.4156 385.901 74.3374 385.448C77.325 383.922 82.0466 381.072 84.9671 380.198C83.4735 381.963 83.0584 382.4 81.2323 383.771C81.301 384.67 81.3386 385.234 81.3163 386.147C80.7477 387.51 80.3392 388.45 79.6678 389.761C82.1395 389.724 80.7513 389.321 83.383 390.164C86.8299 381.459 93.5995 374.349 101.738 369.726C102.199 370.19 102.67 370.645 103.148 371.091L103.868 370.846C105.762 371.709 105.282 372.434 106.578 373.643C110.154 381.119 110.683 381.961 118.967 382.229L120.08 383.167C111.111 390.468 103.895 397.878 95.5439 405.706C64.778 434.547 39.3019 468.7 20.8736 506.657C10.0353 528.957 3.31722 552.283 1.0517 576.928C0.832363 579.314 0.534493 581.853 0 584.188L0 0Z"/></svg>
