<?xml version="1.0" encoding="utf-8" ?><svg xmlns="http://www.w3.org/2000/svg" xmlns:xlink="http://www.w3.org/1999/xlink" width="249" height="249" viewBox="0 0 249 249"><defs><linearGradient id="gradient_0" gradientUnits="userSpaceOnUse" x1="512.9917" y1="476.31424" x2="509.53217" y2="803.16742"><stop offset="0" stop-color="#FB8733"/><stop offset="1" stop-color="#FED133"/></linearGradient></defs><path fill="url(#gradient_0)" transform="scale(0.243164 0.243164)" d="M302.077 477.484L722.048 477.793C720.784 499.513 721.559 529.331 721.521 551.737L721.026 695.751C720.954 707.856 720.974 719.962 721.087 732.066C721.215 740.159 721.973 750.02 720.714 757.866C719.206 767.269 712.97 780.698 706.44 787.622C697.384 796.201 683.97 802.845 671.396 802.806C648.839 802.736 626.262 802.743 603.705 802.779L453.616 802.987L389.474 803.021C373.741 803.031 357.252 803.78 341.78 801.264C332.976 799.832 323.834 794.022 317.419 788.119C311.534 782.703 303.799 767.372 302.654 759.904C301.592 752.977 302.063 738.995 302.086 731.212L302.158 677.958L302.077 477.484Z"/><path fill="#F5731D" transform="scale(0.243164 0.243164)" d="M504.522 560.632C543.594 556.613 578.563 584.938 582.747 623.993C586.931 663.048 558.755 698.137 519.719 702.486C480.447 706.862 445.101 678.48 440.892 639.19C436.682 599.9 465.214 564.674 504.522 560.632Z"/><path fill="#FED723" transform="scale(0.243164 0.243164)" d="M503.544 588.143C527.631 583.566 550.875 599.357 555.495 623.436C560.115 647.515 544.366 670.787 520.295 675.45C496.164 680.125 472.819 664.327 468.187 640.187C463.556 616.047 479.395 592.731 503.544 588.143Z"/><defs><linearGradient id="gradient_1" gradientUnits="userSpaceOnUse" x1="511.19894" y1="456.08395" x2="512.18085" y2="214.04333"><stop offset="0" stop-color="#F87E3B"/><stop offset="1" stop-color="#FA5976"/></linearGradient></defs><path fill="url(#gradient_1)" transform="scale(0.243164 0.243164)" d="M499.524 213.584C505.736 213.286 513.32 213.441 519.58 213.533C523.965 213.659 528.51 216.417 531.848 219.181C550.815 234.89 569.55 251.063 588.506 266.783L710.204 367.463C729.309 383.443 749.186 398.834 767.924 415.326C775.401 421.907 784.136 427.734 790.469 435.323C791.114 440.737 791.045 443.866 790.374 449.236C788.507 451.783 785.883 453.566 783.372 455.513C775.784 456.234 761.325 455.776 753.236 455.742L698.86 455.628L524.75 455.923L339.904 455.827L275.392 455.908C264.026 455.934 251.789 456.267 240.519 455.902C231.55 449.774 228.523 437.893 237.587 430.304L451.855 252.592C462.229 244.098 472.289 234.799 482.804 226.463C486.882 223.23 495.178 215.487 499.524 213.584Z"/></svg>