<?xml version="1.0" encoding="utf-8" ?><svg xmlns="http://www.w3.org/2000/svg" xmlns:xlink="http://www.w3.org/1999/xlink" width="1024" height="1024" viewBox="0 0 1024 1024"><defs><linearGradient id="gradient_0" gradientUnits="userSpaceOnUse" x1="533.15204" y1="454.1008" x2="525.83313" y2="827.15369"><stop offset="0" stop-color="#72D0EA"/><stop offset="1" stop-color="#BEF6F1"/></linearGradient></defs><path fill="url(#gradient_0)" d="M555.452 453.952L645.065 453.971C656.586 453.977 682.516 453.164 691.945 455.214C700.692 457.17 708.681 461.629 714.937 468.047C720.914 474.163 725.057 481.832 726.892 490.184C728.692 498.104 728.187 514.002 728.194 522.671L728.194 584.042C728.182 591.161 727.686 608.64 728.296 615.045C728.995 628.851 728.02 643.312 728.395 657.177C728.474 660.09 728.459 663.488 728.337 666.387C727.88 693.676 728.508 721.189 728.32 748.465C728.244 759.518 729.199 781.833 727.002 791.301C724.965 800.092 720.416 808.102 713.908 814.354C695.358 832.313 670.19 827.478 646.378 827.975C616.176 828.605 585.612 827.353 555.427 828.056C539.075 827.6 520.579 828.047 504.053 828.06C473.923 827.523 443.497 828.648 413.37 828.026C388.379 827.51 364.763 832.891 345.296 813.657C338.831 807.264 334.344 799.143 332.374 790.267C330.573 782.124 331.13 757.375 331.121 747.411L330.924 666.441C330.769 649.515 330.913 631.97 331.071 615.039C331.697 587.476 330.6 559.524 331.074 531.945C331.294 519.077 330.034 502.743 332.413 490.434C335.782 473 354.362 455.551 372.325 454.519C387.23 453.663 403.264 454.03 418.44 454.026L504.06 454.017C520.246 453.96 539.556 453.398 555.452 453.952Z"/><defs><linearGradient id="gradient_1" gradientUnits="userSpaceOnUse" x1="639.32581" y1="828.26294" x2="642.77521" y2="665.22858"><stop offset="0" stop-color="#FEBE48"/><stop offset="1" stop-color="#FD9057"/></linearGradient></defs><path fill="url(#gradient_1)" d="M555.39 666.465L728.337 666.387C727.88 693.676 728.508 721.189 728.32 748.465C728.244 759.518 729.199 781.833 727.002 791.301C724.965 800.092 720.416 808.102 713.908 814.354C695.358 832.313 670.19 827.478 646.378 827.975C616.176 828.605 585.612 827.353 555.427 828.056L555.39 666.465Z"/><defs><linearGradient id="gradient_2" gradientUnits="userSpaceOnUse" x1="416.49716" y1="827.04327" x2="418.50916" y2="665.95099"><stop offset="0" stop-color="#FEBF47"/><stop offset="1" stop-color="#FD9157"/></linearGradient></defs><path fill="url(#gradient_2)" d="M330.924 666.441C388.26 666.507 446.745 667.007 504.022 666.405L504.053 828.06C473.923 827.523 443.497 828.648 413.37 828.026C388.379 827.51 364.763 832.891 345.296 813.657C338.831 807.264 334.344 799.143 332.374 790.267C330.573 782.124 331.13 757.375 331.121 747.411L330.924 666.441Z"/><defs><linearGradient id="gradient_3" gradientUnits="userSpaceOnUse" x1="641.79791" y1="614.42352" x2="640.97675" y2="454.06998"><stop offset="0" stop-color="#FC805F"/><stop offset="1" stop-color="#F95E72"/></linearGradient></defs><path fill="url(#gradient_3)" d="M555.452 453.952L645.065 453.971C656.586 453.977 682.516 453.164 691.945 455.214C700.692 457.17 708.681 461.629 714.937 468.047C720.914 474.163 725.057 481.832 726.892 490.184C728.692 498.104 728.187 514.002 728.194 522.671L728.194 584.042C728.182 591.161 727.686 608.64 728.296 615.045L555.283 615.159L555.452 453.952Z"/><defs><linearGradient id="gradient_4" gradientUnits="userSpaceOnUse" x1="417.11426" y1="614.53851" x2="418.15146" y2="454.45029"><stop offset="0" stop-color="#FB805F"/><stop offset="1" stop-color="#F85E72"/></linearGradient></defs><path fill="url(#gradient_4)" d="M331.071 615.039C331.697 587.476 330.6 559.524 331.074 531.945C331.294 519.077 330.034 502.743 332.413 490.434C335.782 473 354.362 455.551 372.325 454.519C387.23 453.663 403.264 454.03 418.44 454.026L504.06 454.017L504.049 615.252L331.071 615.039Z"/><defs><linearGradient id="gradient_5" gradientUnits="userSpaceOnUse" x1="529.42975" y1="447.54977" x2="529.97375" y2="328.13318"><stop offset="0" stop-color="#FD8152"/><stop offset="1" stop-color="#FA696C"/></linearGradient></defs><path fill="url(#gradient_5)" d="M529.813 408.582C533.373 399.069 541.222 383.628 546.339 374.725C556.85 356.439 574.384 334.891 595.733 329.43C608.043 326.201 621.136 328.078 632.043 334.637C657.669 349.864 662.26 379.947 647.382 404.632C646.697 405.683 645.97 406.707 645.203 407.7C625.773 432.419 579.257 444.583 548.683 447.805C508.67 452.023 455.852 441.72 423.902 416.407C389.269 388.969 401.882 332.388 449.005 328.173C456.634 327.503 464.309 328.74 471.341 331.773C499.602 343.681 518.8 381.232 529.813 408.582Z"/><path fill="#FEFEFE" d="M602.943 351.6C615.748 350.65 627.117 356.134 631.149 369.062C633.256 376.01 632.466 383.514 628.959 389.872C619.642 406.503 591.631 415.115 574.115 419.994C565 422.292 558.267 423.23 549.02 424.415C553.632 411.45 559.463 398.951 566.436 387.087C574.386 373.336 586.82 355.928 602.943 351.6Z"/><path fill="#FEFEFE" d="M449.034 351.621C454.133 351.164 459.572 351.871 464.097 354.248C485.614 365.551 503.38 402.464 511.275 424.735C505.189 423.846 499.13 422.782 493.105 421.543C471.911 416.369 435.7 407 428.648 383.58C424.257 368.995 434.543 354.91 449.034 351.621Z"/><path fill="#FA6B6A" d="M706.712 203.759C722.981 201.228 738.215 212.381 740.717 228.655C743.218 244.929 732.037 260.143 715.759 262.615C699.523 265.08 684.356 253.934 681.861 237.702C679.366 221.471 690.485 206.284 706.712 203.759Z"/><path fill="#FA6B6A" d="M525.919 196.206C529.89 195.731 533.439 195.827 537.169 197.448C540.603 198.939 543.733 201.979 544.977 205.559C547.337 212.347 547.092 262.659 546.222 271.813C546.014 274.003 545.703 276.066 544.64 278.03C542.289 282.373 538.588 284.628 533.928 285.899C531.25 286.522 528.755 286.526 526.094 285.755C521.591 284.451 517.702 281.578 515.586 277.333C514.5 275.154 514.209 272.114 514.025 269.695C513.449 262.096 512.963 210.687 515.01 205.413C516.958 200.398 521.266 198.167 525.919 196.206Z"/><path fill="#FEA644" d="M845.36 433.696C848.156 433.274 852.515 434.465 854.854 436.185C863.796 442.761 863.363 458.35 852.726 462.973C848.747 464.55 844.31 465.608 840.103 466.382C825.733 469.029 810.803 472.982 796.305 474.741C783.522 475.084 776.565 460.722 783.167 450.316C787.133 444.065 796.882 442.449 803.963 441.462C817.701 439.549 831.605 435.258 845.36 433.696Z"/><path fill="#FED42C" d="M253.587 585.203L255.197 585.61C257.68 587.903 262.486 601.745 264.238 606.141C268.488 605.733 285.317 601.354 286.56 605.416C285.363 609.44 276.335 619.076 273.127 622.747C276.155 626.233 285.279 636.13 286.326 639.867C286.117 640.777 286.25 641.18 285.563 641.519C281.774 643.382 268.866 640.087 264.651 639.278C261.061 645.898 259.185 653.698 255.816 660.706C255.421 660.681 254.133 660.588 253.908 660.379C249.926 656.682 247.251 645.077 244.985 639.958L244.725 639.385C239.953 640.329 235.167 641.379 230.383 642.229C227.651 642.714 223.446 643.816 222.416 640.631C223.234 636.956 232.197 626.579 235.13 622.697C231.82 617.609 224.38 610.667 222.561 605.281C222.361 604.69 222.962 604.423 223.561 603.89C228.054 602.853 238.987 605.279 244.68 605.773C246.555 601.097 251.156 589.014 253.587 585.203Z"/><defs><linearGradient id="gradient_6" gradientUnits="userSpaceOnUse" x1="837.95593" y1="268.04739" x2="829.84766" y2="334.05133"><stop offset="0" stop-color="#6DD0F2"/><stop offset="1" stop-color="#9EE5F2"/></linearGradient></defs><path fill="url(#gradient_6)" d="M833.411 266.228C837.478 268.603 840.676 280.841 842.952 286.133C846.805 285.4 861.067 281.99 863.749 284.158C864.125 287.457 854.46 297.681 852.043 301.519C854.953 305.052 858.061 308.439 860.935 311.988C862.45 313.86 865.212 316.533 863.275 318.636C858.895 319.73 848.597 316.824 843.095 316.181C840.355 322.462 837.834 329.531 835.077 336.044C829.615 335.6 828.515 320.504 824.641 317.553C820.544 314.432 807.81 322.372 804.122 318.367C803.789 314.092 813.093 305.19 816.401 300.813C813.67 297.498 804.258 287.62 803.95 284.462C807.117 281.136 818.08 285.824 824.914 284.957C828.36 281.912 829.465 271.673 833.411 266.228Z"/><path fill="#FA6B6A" d="M268.439 335.858C277.278 334.576 286.122 338.161 291.574 345.235C297.026 352.31 298.239 361.775 294.747 369.996C291.255 378.217 283.602 383.916 274.725 384.905C261.311 386.399 249.177 376.86 247.461 363.473C245.745 350.085 255.081 337.795 268.439 335.858Z"/><path fill="#FEA644" d="M188.528 444.127C194.555 443.317 233.334 453.471 241.268 455.77C251.034 458.598 254.303 476.404 238.321 482.839C236.723 483.047 235.104 483.034 233.51 482.8C221.27 480.953 207.709 476.027 195.348 473.876C189.221 472.81 180.637 470.801 178.751 464.04C176.115 454.593 179.025 447.438 188.528 444.127Z"/><path fill="#FED42C" d="M802.093 585.109C814.246 583.534 825.398 592.044 827.086 604.181C828.775 616.318 820.369 627.549 808.248 629.351C795.967 631.176 784.554 622.634 782.843 610.336C781.132 598.038 789.78 586.706 802.093 585.109Z"/><path fill="#96E1F0" d="M751.647 344.079C753.937 344.125 755.991 344.478 758.093 345.458C761.574 347.081 764.203 350.104 765.329 353.777C768.5 364.258 759.872 369.655 753.285 376.277C746.488 383.109 740.9 391.738 731.254 394.11C724.244 393.945 717.722 390.074 716.325 382.814C715.592 378.984 716.486 375.022 718.794 371.878C722.503 366.736 739.617 350.206 745.433 345.943C746.973 344.813 749.747 344.363 751.647 344.079Z"/><path fill="#FED42C" d="M333.436 228.596C340.177 227.848 345.178 229.316 349.185 234.993C353.94 241.727 362.143 248.49 365.34 255.987C368.953 264.457 364.45 271.227 356.38 274.282C345.77 276.129 342.587 271.588 336.441 263.904C332.539 259.025 326.266 253.662 323.843 247.842C319.964 238.524 324.755 231.949 333.436 228.596Z"/><path fill="#96E1F0" d="M436.361 211.121C446.049 210.305 454.56 217.505 455.361 227.194C456.162 236.883 448.949 245.383 439.259 246.17C429.59 246.955 421.112 239.76 420.313 230.092C419.513 220.424 426.694 211.935 436.361 211.121Z"/></svg>