<?xml version="1.0" encoding="utf-8" ?><svg xmlns="http://www.w3.org/2000/svg" xmlns:xlink="http://www.w3.org/1999/xlink" width="1024" height="1024" viewBox="0 0 1024 1024"><path fill="#F9A12E" d="M432.531 489.773C386.185 514.754 307.101 479.002 269.367 449.795C242.725 429.135 214.765 400.069 209.508 365.548C205.968 337.602 227.356 321.535 252.413 318.191C326.055 308.362 443.396 377.019 453.59 454.324C446.208 464.163 439.688 470.644 435.834 482.717C435.213 484.662 432.947 488.094 432.531 489.773Z"/><path fill="#FCD103" d="M237.481 342.29C244.003 341.434 249.992 346.003 250.891 352.519C251.789 359.035 247.259 365.055 240.749 365.995C234.179 366.945 228.092 362.364 227.185 355.788C226.278 349.211 230.899 343.154 237.481 342.29Z"/><defs><linearGradient id="gradient_0" gradientUnits="userSpaceOnUse" x1="332.71204" y1="532.37488" x2="329.60983" y2="706.63239"><stop offset="0" stop-color="#FB7E2A"/><stop offset="1" stop-color="#FF5974"/></linearGradient></defs><path fill="url(#gradient_0)" d="M349.932 532.664L350.353 532.594C355.859 531.645 361.683 529.672 367.268 528.656C388.19 524.848 411.345 523.932 431.004 533.169L432.741 533.852C433.509 536.487 434.604 537.976 435.469 540.222C439.011 549.419 442.325 556.209 448.938 563.714C450.4 565.374 451.962 567.805 453.66 569.304C447.901 626.761 380.305 674.738 330.352 693.679C301.077 704.779 262.804 712.727 233.199 700.209C206.275 688.825 204.675 658.616 216.576 635.523C240.818 586.631 292.3 552.793 342.46 535.275C344.422 534.484 347.298 533.74 349.391 533.131L349.932 532.664Z"/><path fill="#FC6D04" d="M349.932 532.664L350.353 532.594C355.859 531.645 361.683 529.672 367.268 528.656C388.19 524.848 411.345 523.932 431.004 533.169C430.922 534.392 430.994 534.434 430.497 535.529C427.542 536.682 426.954 534.205 423.979 534.164C422.642 534.145 419.509 537.041 418.001 537.265C414.801 537.742 410.798 537.147 407.494 537.255C394.227 537.687 380.82 536.947 367.568 536.266C364.666 536.117 359.451 534.55 356.46 534.097C352.96 533.567 353.252 534.678 349.932 532.664Z"/><path fill="#FC6D04" d="M342.46 535.275C344.422 534.484 347.298 533.74 349.391 533.131L350.525 533.907L350.624 534.765C348.562 536.258 344.819 535.867 342.46 535.275Z"/><path fill="#FA4B5E" d="M238.001 657.75C244.614 657.11 250.518 661.891 251.267 668.492C252.016 675.092 247.335 681.075 240.747 681.934C236.387 682.502 232.06 680.675 229.427 677.155C226.793 673.634 226.264 668.967 228.041 664.945C229.818 660.924 233.625 658.173 238.001 657.75Z"/><defs><linearGradient id="gradient_1" gradientUnits="userSpaceOnUse" x1="695.51422" y1="494.63193" x2="690.28143" y2="337.7258"><stop offset="0" stop-color="#FC7E1F"/><stop offset="1" stop-color="#FF5C6C"/></linearGradient></defs><path fill="url(#gradient_1)" d="M672.396 339.608C705.719 321.826 777.038 302.188 805.881 334.935C813.083 344.158 816.146 354.171 814.476 365.979C809.46 401.434 780.278 429.847 753.504 450.835C716.744 479.65 635.369 515.27 591.243 489.098C587.46 482.174 585.359 474.067 580.904 467.431C578.731 464.194 573.681 456.667 570.496 454.921C571.894 447.724 573.337 441.625 575.685 434.607C589.316 393.872 634.656 357.962 672.396 339.608Z"/><path fill="#FA4B5E" d="M672.396 339.608C705.719 321.826 777.038 302.188 805.881 334.935C800.467 334.229 800.932 337.742 795.877 337.393C782.316 336.456 677.848 336.835 673.683 341.672C672.39 340.572 672.799 341.241 672.396 339.608Z"/><path fill="#FA4B5E" d="M783.457 342.211C790.101 341.268 796.249 345.897 797.18 352.542C798.111 359.188 793.471 365.328 786.824 366.247C780.193 367.164 774.072 362.538 773.144 355.909C772.215 349.28 776.83 343.151 783.457 342.211Z"/><defs><linearGradient id="gradient_2" gradientUnits="userSpaceOnUse" x1="616.51184" y1="661.28766" x2="768.65936" y2="571.00092"><stop offset="0" stop-color="#FCD01B"/><stop offset="1" stop-color="#FE8F24"/></linearGradient></defs><path fill="url(#gradient_2)" d="M591.546 533.68C661.473 503.449 779.808 570.58 808.736 638.315C819.151 662.701 816.831 690.26 789.256 700.918C716.915 728.878 575.182 646.611 571.182 569.087C571.847 567.628 577.676 560.471 579.043 558.556C584.195 551.337 588.703 542.107 591.546 533.68Z"/><path fill="#FCD103" d="M783.225 657.739C789.868 656.728 796.066 661.311 797.044 667.959C798.023 674.607 793.409 680.782 786.757 681.728C780.15 682.668 774.027 678.093 773.055 671.491C772.083 664.889 776.628 658.743 783.225 657.739Z"/><path fill="#F9A12E" d="M491.617 591.363C501.985 593.918 522.299 594.792 532.263 591.556C537.091 594.065 543.807 600.25 547.341 604.467C576.644 639.432 584.183 695.414 581.155 739.516C578.731 774.813 566.804 820.819 539.348 844.608C531.058 851.791 520.834 856.453 509.72 855.465C496.169 854.261 483.476 845.089 475.125 834.698C446.794 799.444 439.751 740.749 443.629 697.175C446.288 667.296 455.562 632.182 474.178 608.611C479.68 601.645 484.926 596.897 491.617 591.363Z"/><path fill="#FC6D04" d="M510.422 815.205C516.975 814.341 523.024 818.855 524.062 825.383C525.099 831.911 520.748 838.078 514.25 839.289C509.89 840.102 505.432 838.484 502.608 835.063C499.784 831.643 499.04 826.959 500.664 822.832C502.288 818.704 506.024 815.784 510.422 815.205Z"/><path fill="#F9A12E" d="M491.8 432.226C462.738 411.28 451.263 376.55 445.722 342.018C438.249 291.972 443.66 235.293 472.368 192.379C479.478 181.749 494.334 170.457 506.983 169.083C552.44 164.146 573.776 229.699 578.792 264.953C585.834 314.443 580.726 372.517 551.128 414.284C546.97 420.003 538.499 428.481 532.338 431.983C519.769 428.971 504.398 429.365 491.8 432.226Z"/><path fill="#FA4B5E" d="M511.663 184.231C518.345 183.968 524.018 189.082 524.448 195.756C524.877 202.43 519.905 208.229 513.244 208.824C508.785 209.223 504.46 207.172 501.947 203.467C499.433 199.763 499.126 194.986 501.144 190.99C503.163 186.994 507.189 184.406 511.663 184.231Z"/><path fill="#F8EFE3" d="M491.8 432.226C504.398 429.365 519.769 428.971 532.338 431.983L533.225 432.42C541.127 436.244 546.701 436.834 555.398 442.551C559.428 445.201 568.398 453.857 570.496 454.921C573.681 456.667 578.731 464.194 580.904 467.431C585.359 474.067 587.46 482.174 591.243 489.098C592.928 499.387 594.656 508.267 593.904 518.852C593.673 522.098 591.322 531.537 591.546 533.68C588.703 542.107 584.195 551.337 579.043 558.556C577.676 560.471 571.847 567.628 571.182 569.087C563.848 577.015 552.109 583.815 542.108 587.807C540.293 588.532 533.298 590.901 532.263 591.556C522.299 594.792 501.985 593.918 491.617 591.363C469.448 583.851 471.257 583.155 453.66 569.304C451.962 567.805 450.4 565.374 448.938 563.714C442.325 556.209 439.011 549.419 435.469 540.222C434.604 537.976 433.509 536.487 432.741 533.852C432.958 532.171 430.585 518.706 430.512 515.31C430.321 506.348 431.327 498.585 432.531 489.773C432.947 488.094 435.213 484.662 435.834 482.717C439.688 470.644 446.208 464.163 453.59 454.324C469.782 440.517 471.05 439.671 491.8 432.226Z"/><path fill="#FC6D04" d="M505.524 446.818C541.438 443.195 573.495 469.357 577.144 505.268C580.794 541.179 554.656 573.255 518.747 576.931C482.802 580.61 450.685 554.439 447.032 518.491C443.379 482.543 469.573 450.446 505.524 446.818Z"/><path fill="#F8EFE3" d="M508.479 471.222C530.839 469.237 550.61 485.671 552.747 508.017C554.883 530.364 538.585 550.246 516.253 552.534C493.706 554.845 473.589 538.354 471.432 515.792C469.275 493.229 485.902 473.225 508.479 471.222Z"/><path fill="#FCD103" d="M508.012 489.76C520.34 487.487 532.154 495.708 534.307 508.058C536.46 520.407 528.125 532.141 515.755 534.174C503.554 536.179 492.015 527.982 489.892 515.801C487.768 503.62 495.852 492.002 508.012 489.76Z"/></svg>