<?xml version="1.0" encoding="utf-8" ?><svg xmlns="http://www.w3.org/2000/svg" xmlns:xlink="http://www.w3.org/1999/xlink" width="1024" height="1024" viewBox="0 0 1024 1024"><path fill="#030202" d="M372.146 208.987C373.506 204.531 373.343 198.931 374.141 194.268C380.586 156.58 401.785 125.093 434.936 105.913C463.987 89.2751 498.437 84.7957 530.777 93.4513C562.561 101.909 589.64 122.732 605.977 151.278C623.271 181.342 626.567 216.388 617.489 249.557C616.777 252.246 616 254.916 615.156 257.566C619.635 256.842 624.118 256.149 628.606 255.486C647.489 232.422 681.091 217.54 710.558 214.63C783.063 207.472 846.492 262.071 853.308 333.897C856.565 368.22 845.201 405.133 822.671 431.692C811.106 445.236 797.099 456.486 781.379 464.856C778.338 466.476 765.715 472.365 764.431 473.436C758.573 478.322 754.932 486.687 748.058 492.745C753.233 494.043 759.46 495.49 764.417 497.22C792.62 507.064 818.747 527.322 834.1 553.119C852.716 584.399 858.406 615.784 849.651 651.218C845.731 666.941 838.837 681.768 829.342 694.899C823.349 703.21 816.1 710.851 808.737 717.968C797.161 729.157 785.46 740.384 774.348 752.034C764.521 762.525 754.882 773.191 745.437 784.027C741.381 788.681 736.082 795.491 732.003 799.577C728.76 802.822 725.139 805.665 721.218 808.045C708.644 815.456 693.96 818.466 679.485 816.598C679.432 823.242 678.864 828.086 681.207 834.399C689.525 829.967 694.806 826.975 704.391 825.863C737.402 822.033 763.462 852.524 753.922 884.481C749.777 898.368 739.386 906.042 727.719 913.497C716.904 920.407 705.471 928.006 692.133 928.224C683.512 928.362 693.208 935.663 690.056 938.317C686.652 938.863 684.98 938.318 681.941 936.654C664.446 965.876 646.773 994.992 628.925 1024L627.32 1024C631.657 1016.06 636.86 1008.4 641.386 1000.58C653.877 978.995 667.853 957.672 680.563 936.336C678.83 934.733 676.638 933.324 676.653 930.915C677.478 930.123 683.007 928.128 685.316 926.863C673.099 913.524 670.968 901.867 667.216 883.952C666.464 880.361 666.415 867.746 664.795 865.699C662.386 868.566 653.826 891.463 651.52 897.119L619.913 975.342C613.539 991.375 607.248 1008.15 600.617 1024L599.203 1024C604.193 1009.77 610.643 994.625 616.213 980.57L642.711 913.871C652.084 890.837 661.661 868.322 670.251 844.966C665.098 843.51 650.813 838.181 650.801 831.85C651.053 831.413 651.306 830.977 651.558 830.541C653.841 830.522 656.724 830.373 658.79 829.62C665.848 827.046 668.559 821.478 671.722 815.409C666.717 813.596 662.632 812.004 657.971 809.365C643.307 800.933 632.56 787.059 628.063 770.752C624.959 789.848 621.083 809.625 617.655 828.744C610.555 868.82 603.14 908.838 595.411 948.797L585.929 999.806C584.589 1006.84 582.834 1017.3 581.048 1024L579.81 1024C582.554 1013.66 585.673 993.428 587.75 982.406L604.194 894.006L619.405 810.368L624.13 784.785C624.905 780.709 626.763 771.668 627.063 767.733C627.296 764.686 625.328 754.655 624.899 750.63C612.83 760.014 609.336 761.269 594.811 763.774C595.63 767.817 596.132 770.233 597.932 773.934C600.226 775.028 602.177 775.41 602.173 778.125C599.094 781.511 589.638 780.375 585.442 779.662C587.915 782.87 590.446 787.984 593.33 790.222C593.567 795.298 594.708 801.273 594.271 806.324C593.708 812.841 592.067 819.554 591.223 826.16C588.301 849.055 584.214 871.733 580.674 894.557C576.852 919.558 572.897 944.539 568.809 969.498C565.991 987.396 563.334 1006.28 559.772 1024L558.344 1024C568.442 958.811 579.657 894.072 589.294 828.646C589.515 827.783 589.769 826.867 589.926 825.996L590.901 820.785C590.352 821.844 587.902 826.455 587.646 827.274C577.862 840.396 568.911 855.435 552.84 861.312C554.498 865.281 554.901 866.223 558.011 869.419C554.762 871.235 553.455 871.56 549.909 872.645L543.704 961.422C542.519 979.866 541.838 1006.09 538.571 1024C538.087 1014.78 538.922 1005.18 539.584 995.966L542.224 958.987L546.169 899.568C546.863 890.117 547.005 881.709 548.437 872.189C546.213 871.386 543.382 870.419 542.109 868.352C542.547 865.431 546.011 865.445 547.395 862.649C547.175 858.947 541.277 856.838 538.729 854.138C533.181 848.26 529.369 841.344 524.998 834.658C524.091 832.904 523.136 831.175 522.132 829.474C522.28 831.796 522.311 834.125 522.59 836.436C522.448 843.396 523.128 850.158 523.222 857.061C523.706 892.736 523.284 928.324 524.564 964.001C525.278 983.893 524.591 1004.12 525.157 1024L523.406 1024C522.769 1000.7 523.027 977.554 522.673 954.25L520.706 861.632C520.557 852.053 520.843 842.235 520.67 832.548C520.463 820.936 515.886 817.879 514.845 806.754C514.064 798.415 518.526 792.543 518.237 786.017C517.798 776.115 517.142 765.824 516.573 755.893C515.485 738.819 514.763 721.724 514.405 704.62C510.936 715.645 505.175 726.713 501.007 737.859C494.994 753.936 489.727 771.208 484.376 787.572C483.594 789.964 485.27 801.4 485.585 804.661C486.653 816.661 487.857 828.65 489.194 840.623L502.215 967.468C503.081 976.742 504.025 986.008 505.046 995.266C506.218 1005.4 507.498 1013.79 507.623 1024L507.14 1024C505.276 1014.64 504.594 1005.76 503.584 996.305L499.304 955.925L487.42 840.817C485.717 824.177 484.305 806.896 482.312 790.373C475.863 801.159 466.739 808.219 454.979 812.389C458.609 821.141 459.611 819.826 466.551 824.859C466.945 825.145 466.531 825.799 466.303 826.453C463.23 829.264 457.582 831.002 453.511 831.668C460.624 861.271 466.008 893.094 472.843 923.149L487.49 987.624C490.034 998.688 493.848 1013.03 495.727 1024L494.263 1024C492.142 1013.47 489.625 1003.21 487.178 992.751C476.259 946.064 466.085 899.161 456.24 852.236C454.829 845.509 453.498 838.686 451.805 832.037C449.532 831.843 440.623 831.136 440.046 828.904C440.985 826.774 443.94 825.457 445.63 822.373C445.926 821.46 445.821 820.901 446.701 820.466C447.389 819.071 448.921 815.836 449.092 814.341C448.818 814.03 448.454 813.984 448.052 813.989L444.627 814.032L444.045 813.903C425.407 812.178 415.936 806.531 403.242 792.396C408.193 803.094 415.926 828.606 419.944 840.745L449.957 931.463L470.29 992.097C473.056 1000.34 478.876 1016.27 480.3 1024L479.375 1024C477.216 1018.26 475.026 1010.9 472.993 1004.9C467.648 989.2 462.398 973.469 457.244 957.706L421.332 850.106L408.191 810.698C404.67 800.013 402.545 789.683 395.259 780.872C389.193 773.536 383.786 765.691 377.24 758.7C375.073 768.232 371.911 775.655 365.266 783.041C362.214 786.432 354.095 789.495 353.578 794.172C355.357 797.833 360.677 797.359 364.474 800.208C366.139 804.424 357.039 808.288 353.956 809.687C357.561 816.486 361.206 824.765 364.586 831.86L392.786 892.461C413.31 936.167 434.917 980.17 454.957 1024L453.617 1024C442.551 1003.37 430.24 975.034 420.167 953.316L393.161 896.547C379.98 868.232 366.268 837.777 352.255 810.015C349.372 810.377 346.538 811.12 344.008 809.645C343.682 807.173 346.852 803.949 347.508 800.905C348.07 798.299 347.999 796.725 347.981 794.128C322.918 800.035 310.166 794.084 292.25 776.829C280.303 765.324 265.969 754.539 253.005 744.167C246.798 739.2 240.868 735.097 235.148 729.39C229.378 723.557 224.473 716.928 220.583 709.704C210 690.4 207.614 667.655 213.96 646.575C219.159 629.595 230.175 614.99 245.073 605.325C250.07 602.096 256.543 598.967 261.924 596.12C256.238 591.851 247.058 587.678 239.426 582.094C211.471 561.911 190.42 533.599 179.14 501.017C160.478 447.212 169.476 387.671 203.203 341.784C210.726 331.624 218.313 322.734 228.233 314.681C232.703 311.052 237.368 307.082 242.364 303.717C248.398 299.653 256.181 295.306 262.669 291.682C262.917 291.184 263.164 290.686 263.412 290.187C264.181 290.82 263.795 290.761 264.458 290.715C311.849 271.998 343.706 269.613 393.048 284.178C390.298 279.048 387.349 274.369 384.819 268.975C378.731 255.996 375.389 241.893 373.38 227.748C372.656 222.65 372.991 216.209 372.347 211.07L372.216 210.069L372.146 208.987ZM631.423 538.723C636.743 535.822 636.98 535.669 639.683 538.925C640.111 539.441 646.483 539.112 647.876 539.06C685.053 537.65 721.278 520.032 746.401 492.752C772.357 464.637 786.023 427.328 784.368 389.099C782.681 351.832 766.122 316.797 738.398 291.836C710.655 266.814 674.061 254.184 636.598 256.153C636.498 256.164 636.398 256.176 636.297 256.188C596.685 259.688 561.733 275.948 535.911 306.778C511.604 335.686 499.829 373.094 503.195 410.713C506.728 447.783 524.79 481.947 553.433 505.741C576.805 525.187 601.993 533.96 631.423 538.723ZM342.037 615.123C341.842 614.775 341.931 614.894 341.775 614.722C341.514 614.654 341.461 614.741 341.133 614.879C341.374 615.331 341.389 615.332 341.853 615.19L342.037 615.123ZM523.81 670.23C525.205 669.523 524.474 668.913 523.542 668.197L523.244 668.974C522.673 670.166 522.283 670.713 523.81 670.23ZM520.871 678.656C521.223 679.937 521.867 682.434 522.51 683.471C523.756 685.478 526.708 687.243 527.254 689.506C525.722 691.841 521.115 692.816 518.31 693.402L517.41 693.581C513.902 703.725 517.02 734.391 517.682 746.661L519.032 770.267C519.274 774.488 519.409 780.562 520.093 784.596C529.53 774.324 536.277 767.774 551.048 766.173C560.436 765.66 568.896 767.585 576.751 772.916C583.214 770.906 584.935 768.875 588.16 762.882C552.393 755.351 533.939 707.164 536.374 675.297C536.535 673.193 537.029 668.174 536.828 666.457C531.446 671.395 527.552 675.505 520.871 678.656ZM621.937 723.805C622.097 722.807 622.374 722.568 621.416 722.293C621.458 722.986 621.339 723.375 621.937 723.805ZM504.721 364.541C495.668 366.06 489.814 364.154 482.856 358.391C491.634 356.138 493.657 351.664 496.23 343.591C484.755 343.042 479.609 341.863 468.267 339.474C483.297 356.939 493.754 381.818 500.567 403.648C500.654 404.429 500.879 406.672 501.682 407.104C502.034 406.768 501.17 399.378 501.053 398.405C501.721 387.206 502.574 375.553 504.721 364.541ZM520.148 682.829C519.235 686.148 518.692 689.24 517.944 692.575C519.167 692.011 520.319 691.469 521.634 691.18C522.239 690.974 525.109 690.041 525.451 689.702C525.465 689.106 524.534 688.615 524.1 688.357C521.717 686.939 521.423 684.918 520.148 682.829ZM505.648 449.386C506.988 447.208 505.024 440.93 506.734 437.607C506.306 435.676 506.055 434.357 505.515 432.391C505.491 437.053 505.429 444.781 505.648 449.386ZM511.776 342.244C508.356 342.471 506.182 342.648 502.795 343.052C504.046 345.656 505.104 348.529 506.912 350.75L507.256 351.464C507.668 352.371 508.24 353.834 508.653 351.995C508.941 350.714 512.683 342.85 512.562 342.281C512.332 342.079 512.055 342.193 511.776 342.244ZM605.558 643.26C605.724 643.78 605.467 643.725 606.026 643.934C605.845 643.558 605.927 643.407 605.558 643.26ZM356.653 800.242L356.382 801.022C356.253 801.376 356.123 801.671 356.154 802.047C356.519 802.34 356.642 801.986 357.095 801.742L357.683 801.644C359.313 800.916 357.735 800.621 356.653 800.242ZM636.51 537.733C632.322 546.268 629.722 549.383 621.924 554.375C620.895 555.044 619.88 555.736 618.88 556.448C623.281 560.823 627.89 562.393 633.95 563.405C642.573 564.008 645.28 563.74 652.508 559.054C645.282 554.437 642.195 551.291 639.827 542.707C639.434 541.283 638.992 539.109 637.549 538.347C637.203 538.142 636.856 537.938 636.51 537.733Z"/><path fill="#F6AE17" d="M747.076 494.275C753.302 494.868 765.078 498.902 770.906 501.282C804.131 514.852 829.716 540.725 843.195 574.133C855.63 605.06 855.129 639.685 841.803 670.24C837.055 681.155 830.815 691.359 823.261 700.559C815.781 709.814 806.536 718.309 797.997 726.659C787.504 736.997 777.149 747.474 766.935 758.088C759.372 766.22 751.956 774.486 744.689 782.882C732.246 797.385 727.725 804.777 709.173 812.143C699.238 815.094 691.299 816.456 680.866 815.203C664.871 813.275 650.324 804.994 640.5 792.225C636.002 786.499 632.561 780.019 630.336 773.086C627.084 762.638 625.647 743.005 623.96 731.316C622.974 724.489 619.233 703.737 619.638 698.581C620.626 686.011 623.271 669.353 624.998 656.57C629.397 626.172 633.438 595.724 637.12 565.231L637.665 565.215C642.419 565.046 650.356 563.597 653.667 560.021C653.851 559.185 654.18 558.137 653.249 557.59C645.371 552.969 643.547 549.108 640.577 540.546C642.863 540.583 645.149 540.594 647.436 540.58C656.941 540.5 665.123 538.92 674.263 536.739C703.747 529.7 726.068 515.657 747.076 494.275Z"/><path fill="#B22440" d="M492.832 90.717C507.375 89.5638 527.956 93.4004 541.347 98.3398C572.132 109.687 597.051 132.952 610.483 162.887C623.913 193.01 624.942 227.21 613.347 258.087C563.754 271.426 536.115 295.384 512.95 340.74C510.172 340.935 507.396 341.17 504.625 341.447C494.209 341.76 479.666 341.893 469.827 338.124C465.045 336.291 457.146 326.127 452.65 321.707C448.367 317.474 443.788 313.551 438.947 309.968C430.666 303.8 422.985 298.532 413.9 293.548C410.062 290.794 399.013 287.706 396.104 284.601C382.981 270.596 375.381 238.819 374.211 221.575C372.206 188.475 383.457 155.939 405.481 131.148C428.154 105.496 459.122 92.7956 492.832 90.717Z"/><path fill="#DEC4A5" d="M716.836 215.709C732.517 214.631 751.526 217.885 766.234 223.168C798.534 234.734 824.904 258.676 839.526 289.711C854.655 321.572 856.338 358.177 844.196 391.291C829.459 431.25 802.07 454.115 764.56 471.321C767.252 466.794 769.341 462.818 771.738 458.153C783.308 434.347 787.978 407.777 785.219 381.453C781.718 344.151 763.357 309.826 734.272 286.208C705.206 262.572 667.974 251.388 630.695 255.095C653.545 230.878 683.821 217.974 716.836 215.709Z"/><path fill="#DEC4A5" d="M264.12 596.919C267.73 597.878 277.421 602.627 282.649 604.328C304.895 611.566 323.516 612.872 346.455 612.545C314.197 652.18 325.419 704.163 358.816 738.243C364.285 743.824 371.457 751.245 375.361 757.778C376.645 759.926 372.501 770.206 370.973 772.438C365.133 783.085 354.429 790.523 342.875 793.755C315.685 799.344 304.124 785.669 285.88 768.885C270.093 754.359 251.059 742.496 235.65 727.339C213.977 706.022 206.117 671.947 216.576 643.369C225.299 619.844 242.109 607.014 264.12 596.919ZM342.037 615.123C341.842 614.775 341.931 614.894 341.775 614.722C341.514 614.654 341.461 614.741 341.133 614.879C341.374 615.331 341.389 615.332 341.853 615.19L342.037 615.123Z"/><path fill="#DEC4A5" fill-opacity="0.88627452" d="M341.133 614.879C341.461 614.741 341.514 614.654 341.775 614.722C341.931 614.894 341.842 614.775 342.037 615.123L341.853 615.19C341.389 615.332 341.374 615.331 341.133 614.879Z"/><path fill="#B22440" d="M440.642 578.941C450.111 580.778 455.647 581.427 464.796 585.146C486.876 594.121 503.018 611.725 512.232 633.18C529.574 673.561 512.138 706.163 497.499 743.356C492.667 755.632 489.213 770.654 484.246 782.932C478.435 797.296 469.657 804.963 455.676 810.768C451.235 811.691 449.48 811.969 444.847 812.363C440.444 796.419 436.615 779.75 432.463 763.636C421.423 719.921 409.962 676.314 398.079 632.82C402.877 630.737 412.258 626.426 414.379 621.301C413.812 616.983 405.326 617.098 401.795 613.939C398.167 610.693 396.525 607.944 393.875 603.96C413.798 596.095 422.953 592.119 440.642 578.941Z"/><path fill="#A29AD4" d="M506.734 437.607C509.238 444.817 511.7 452.235 515.084 459.072C530.492 490.205 553.265 511.998 584.112 526.944C586.366 528.027 588.637 529.075 590.924 530.088C597.848 551.765 595.745 575.318 585.089 595.425C578.228 608.619 568.177 620.411 559.429 632.485C551.573 643.329 544.153 655.295 535.432 665.404C531.327 670.163 526.048 674.158 520.691 677.404C521.146 660.859 520.64 649.382 514.264 633.466C512.463 628.97 507.75 622.534 507.516 618.172C507.085 610.161 507.128 601.613 507.032 593.58L506.395 550.565C506.126 523.684 505.132 496.534 504.934 469.619C504.886 463.03 505.455 456.022 505.648 449.386C506.988 447.208 505.024 440.93 506.734 437.607ZM523.81 670.23C525.205 669.523 524.474 668.913 523.542 668.197L523.244 668.974C522.673 670.166 522.283 670.713 523.81 670.23Z"/><path fill="#A29AD4" fill-opacity="0.5529412" d="M523.542 668.197C524.474 668.913 525.205 669.523 523.81 670.23C522.283 670.713 522.673 670.166 523.244 668.974L523.542 668.197Z"/><path fill="#B22440" d="M384.531 606.596C385.123 606.572 384.719 606.561 385.723 606.823C384.309 619.573 381.862 622.146 372.727 630.386C380.718 634.389 387.815 635.412 396.565 633.254C401.524 651.445 406.316 669.681 410.94 687.96L443.146 812.057C430.568 811.809 422.348 807.752 412.824 800.001C402.871 790.569 391.79 773.545 382.559 762.455C361.093 736.663 334.628 715.021 329.955 679.628C327.614 661.9 330.179 643.037 338.514 626.893C341.149 621.789 345.191 616.692 348.697 612.066C361.185 611.621 372.487 609.616 384.531 606.596Z"/><path fill="#293468" d="M592.697 530.528C607.473 535.508 613.096 537.416 628.745 539.836C628.207 540.443 627.7 541.04 627.199 541.677C605.541 569.191 598.527 603.864 603.962 638.131C606.729 655.808 612.713 673.222 615.961 690.743C619.488 709.77 622.025 729.563 624.727 748.736C615.149 756.38 605.139 763.896 592.124 761.712C551.324 755.362 531.201 700.827 539.203 664.172C541.522 658.935 546.629 653.498 549.811 648.92C577.05 609.726 607.26 583.195 592.697 530.528Z"/><path fill="#DEC4A5" d="M706.996 827.195C713.263 826.816 719.541 827.739 725.433 829.907C736.34 833.91 745.856 842.416 750.616 853.067C755.403 863.574 755.778 875.563 751.656 886.349C745.314 902.565 722.499 916.653 707.132 923.304C685.319 932.547 679.42 922.044 673.132 902.028C667.865 885.265 663.821 861.492 672.442 845.13C675.735 845.433 681.237 846.073 684.252 845.279C687.426 842.628 684.029 838.909 682.257 836.077C691.025 830.271 696.63 828.03 706.996 827.195Z"/><path fill="#DEC4A5" d="M553.98 767.697C580.822 768.904 600.45 791.113 590.062 818.395C584.952 831.815 568.436 852.789 554.97 858.769C549.905 859.826 545.815 858.621 542.047 855.028C531.383 844.86 517.525 821.889 516.491 807.349C515.809 797.756 518.988 788.287 525.322 781.05C533.115 772.117 542.455 768.465 553.98 767.697Z"/><path fill="#A29AD4" d="M502.12 479.277C503.375 481.339 502.867 481.388 503.615 483.544C504.078 495.018 503.835 506.729 504.084 518.24L505.648 617.267C504.941 616.196 504.215 615.138 503.47 614.093C488.13 592.658 468.128 581.758 442.521 577.522C475.462 550.961 492.569 519.801 502.12 479.277Z"/><path fill="#F6AE17" d="M618.306 558.249C624.67 562.699 627.709 564.367 635.56 565.145L618.747 691.376L618.258 692.998L617.787 692.498C607.678 645.336 591.878 605.278 618.306 558.249Z"/><path fill="#F6AE17" d="M672.974 815.79C674.819 816.059 677.804 815.697 677.707 818C677.376 825.526 677.403 832.847 682.223 839.108C684.82 842.934 684.878 843.909 680.254 844.014C674.619 844.142 671.672 843.584 666.353 842.176C659.857 839.564 656.111 838.408 652.289 832.257C664.797 830.629 667.784 826.962 672.974 815.79Z"/><path fill="#B22440" d="M497.413 343.363C502.433 343.384 500.929 343.558 503.732 348.553C505.001 350.815 506.333 353.121 507.56 355.407C505.196 363.211 505.497 363.589 497.34 363.457C494.285 362.859 489.073 362.132 486.739 359.733C486.193 359.173 490.859 356.353 491.812 355.284C495.138 351.556 496.169 348.11 497.413 343.363Z"/><path fill="#B22440" d="M452.181 812.85C453.596 814.158 454.953 816.38 456.013 818C458.973 822.526 461.34 823.185 465.547 825.535C460.691 828.366 459.971 828.741 454.613 829.957C448.53 830.248 447.521 830.094 441.634 829.038C448.621 823.323 448.492 820.881 452.181 812.85Z"/><path fill="#293468" d="M590.441 762.717C594.946 764.864 593.62 772.946 598.255 775.747C598.671 775.999 599.906 776.93 600.159 777.424C599.333 779.701 591.41 779.248 589.375 779.245C589.047 779.156 588.721 779.064 588.396 778.967C583.177 777.416 583.777 777.724 579.148 774.711C586.254 769.994 586.049 770.061 590.441 762.717Z"/><path fill="#DEC4A5" d="M349.931 793.18C352.219 794.393 353.428 796.32 355.526 797.916C358.196 799.946 360.301 800.236 363.378 801.053C360.552 804.497 360.511 804.79 356.435 807.159L355.766 807.397C351.869 808.821 349.184 808.944 345.091 809.232L345.397 808.774C350.524 801.241 348.427 800.259 349.931 793.18ZM357.095 801.742L357.683 801.644C359.313 800.916 357.735 800.621 356.653 800.242L356.382 801.022C356.253 801.376 356.123 801.671 356.154 802.047C356.519 802.34 356.642 801.986 357.095 801.742Z"/><path fill="#DEC4A5" fill-opacity="0.015686275" d="M356.653 800.242C357.735 800.621 359.313 800.916 357.683 801.644L357.095 801.742C356.642 801.986 356.519 802.34 356.154 802.047C356.123 801.671 356.253 801.376 356.382 801.022L356.653 800.242Z"/><path fill="#DEC4A5" d="M550.846 861.345C552.581 863.001 553.414 866.534 555.102 868.746C556.18 870.159 549.054 870.111 548.759 870.114C540.879 867.997 545.933 867.326 549.644 862.818L550.846 861.345Z"/><path fill="#DEC4A5" d="M686.419 927.928C686.519 927.958 686.971 928.029 687.101 928.195C687.273 928.415 687.213 928.919 687.187 929.193C686.995 931.207 687.454 933.999 688.556 935.716C688.716 935.967 688.949 936.171 688.901 936.492C688.869 936.707 688.718 936.845 688.529 936.93C687 937.613 684.315 936.213 682.971 935.6C680.954 934.305 679.826 933.463 677.944 931.918C681.723 930.378 682.76 929.865 686.419 927.928Z"/><path fill="#A29AD4" fill-opacity="0.13333334" d="M520.148 682.829C521.423 684.918 521.717 686.939 524.1 688.357C524.534 688.615 525.465 689.106 525.451 689.702C525.109 690.041 522.239 690.974 521.634 691.18C520.319 691.469 519.167 692.011 517.944 692.575C518.692 689.24 519.235 686.148 520.148 682.829Z"/><path fill="#F6AE17" d="M630.344 541.058C631.212 541.694 631.225 541.801 631.971 542.682L631.575 543.355C628.507 548.697 626.495 549.994 621.642 553.224C623.838 549.746 627.497 543.828 630.344 541.058Z"/><path fill="#9895AF" fill-opacity="0.85490197" d="M505.515 432.391C506.055 434.357 506.306 435.676 506.734 437.607C505.024 440.93 506.988 447.208 505.648 449.386C505.429 444.781 505.491 437.053 505.515 432.391Z"/><path fill="#9895AF" d="M503.342 472.133C503.518 475.934 503.609 479.739 503.615 483.544C502.867 481.388 503.375 481.339 502.12 479.277C502.179 477.851 503.056 473.668 503.342 472.133Z"/><path fill="#E89523" d="M630.344 541.058C632.517 538.349 634.85 538.607 631.971 542.682C631.225 541.801 631.212 541.694 630.344 541.058Z"/><path fill="#CCC4CD" fill-opacity="0.06666667" d="M501.053 398.405C501.17 399.378 502.034 406.768 501.682 407.104C500.879 406.672 500.654 404.429 500.567 403.648C500.808 401.852 500.855 400.214 501.053 398.405Z"/><path fill="#030202" fill-opacity="0.98039216" d="M621.416 722.293C622.374 722.568 622.097 722.807 621.937 723.805C621.339 723.375 621.458 722.986 621.416 722.293Z"/><path fill="#030202" fill-opacity="0.98431373" d="M605.558 643.26C605.927 643.407 605.845 643.558 606.026 643.934C605.467 643.725 605.724 643.78 605.558 643.26Z"/><path fill="#030202" fill-opacity="0.96078432" d="M309.375 219.258L308.739 220.794C289.832 231.037 273.641 254.546 267.59 275.175C266.065 280.246 265.016 285.448 264.458 290.715C263.795 290.761 264.181 290.82 263.412 290.187C263.104 286.983 264.752 279.49 265.629 276.314C272.072 252.249 287.807 231.727 309.375 219.258Z"/><path fill="#030202" fill-opacity="0.96078432" d="M310.732 218.318C327.994 208.597 346.695 204.197 366.398 207.885L365.306 208.745C346.725 206.198 327.821 209.845 311.521 219.124L310.732 218.318Z"/><path fill="#FEFEFE" fill-opacity="0.98431373" d="M522.59 836.436C522.311 834.125 522.28 831.796 522.132 829.474C523.136 831.175 524.091 832.904 524.998 834.658L522.59 836.436Z"/><path fill="#FEFEFE" fill-opacity="0.98431373" d="M587.646 827.274C587.902 826.455 590.352 821.844 590.901 820.785L589.926 825.996C589.769 826.867 589.515 827.783 589.294 828.646L587.646 827.274Z"/><path fill="#030202" fill-opacity="0.24313726" d="M444.045 813.903L444.627 814.032C445.479 816.256 445.534 818.427 446.701 820.466C445.821 820.901 445.926 821.46 445.63 822.373C445.406 819.607 444.537 816.911 444.045 813.903Z"/><path fill="#070306" fill-opacity="0.7647059" d="M366.398 207.885C368.061 208.149 368.77 208.414 370.565 208.614L368.766 209.143C367.553 209.034 366.512 208.932 365.306 208.745L366.398 207.885Z"/><path fill="#070306" fill-opacity="0.63529414" d="M310.732 218.318L311.521 219.124C310.452 219.808 309.847 220.198 308.739 220.794L309.375 219.258C309.986 218.704 309.972 218.733 310.732 218.318Z"/><path fill="#070306" fill-opacity="0.53333336" d="M370.565 208.614C371.114 208.716 371.608 208.851 372.146 208.987L372.216 210.069C371.076 209.724 369.926 209.416 368.766 209.143L370.565 208.614Z"/></svg>