<?xml version="1.0" encoding="utf-8" ?><svg xmlns="http://www.w3.org/2000/svg" xmlns:xlink="http://www.w3.org/1999/xlink" width="1024" height="1024" viewBox="0 0 1024 1024"><path fill="#211E1E" d="M287.276 259.765C281.994 250.2 274.888 240.644 269.139 230.116C252.598 199.632 241.112 167.71 236.4 132.998C230.195 87.286 241.133 15.1144 297.703 8.32176C329.042 4.55871 357.404 22.7317 381.166 41.7254C404.174 27.0213 431.299 20.1006 458.54 21.9841C489.757 23.9268 518.644 38.4156 540.297 60.8141C542.081 62.5049 546.298 68.4182 548.417 69.3678C567.721 78.0214 582.205 86.0897 596.648 102.619C613.869 122.334 622.981 147.842 622.149 174.006C621.859 182.941 620.26 188.761 619.77 196.468L619.744 196.943C629.765 195.536 639.843 191.924 650.195 191.34C652.364 191.217 660.161 190.595 661.624 189.921C661.905 189.851 662.324 189.696 662.631 189.74C665.151 190.651 669.128 190.462 671.898 190.477C682.198 190.533 692.761 191.521 702.911 193.459C755.247 203.513 800.367 236.396 825.964 283.139C847.833 323.717 852.583 371.35 839.158 415.447C830.923 442.698 816.138 467.517 796.096 487.735C790.956 492.929 785.14 497.475 779.812 502.404L785.592 504.061C794.381 506.005 804.455 514.144 808.879 521.893C814.688 529.105 816.399 540.638 815.449 549.658C814.32 560.718 808.796 570.86 800.118 577.809C792.991 583.553 785.289 586.166 776.367 587.891C836.136 661.405 823.802 769.235 750.217 827.772C714.176 856.442 668.83 869.614 622.917 865.344C619.434 865.013 612.85 864.112 609.459 863.39L602.77 867.542C604.724 872.818 611.981 883.124 615.336 888.115C606.615 889.692 601.353 890.193 592.549 888.241C580.419 927.392 565.892 966.288 553.807 1005.51C552.018 1011.32 549.648 1018.39 547.397 1024L544.607 1024L589.413 887.303C586.108 885.861 581.9 884.207 579.011 882.196C576.089 880.941 574.198 879.438 571.619 878.247C578.314 875.247 587.012 869.335 593.348 865.261L588.673 858.183C581.76 855.818 574.955 853.148 568.277 850.182C562.108 881.947 553.166 916.903 545.956 948.804C542.205 966.035 538.271 983.226 534.155 1000.37C532.596 1007.02 530.455 1017.72 528.551 1024L525.792 1024C529.682 1009.07 533.109 992.287 536.525 977.138L554.335 898.295L561.487 866.342C562.481 861.94 564.219 853.108 565.852 849.19C556.264 844.308 545.863 836.434 537.664 832.571C536.224 851.665 533.389 873.337 531.114 892.395L522.489 965.116L517.76 1005.21C517.16 1010.21 516.345 1019.61 515.325 1024L512.862 1024C513.818 1019.05 514.735 1007.95 515.247 1002.54C516.042 994.005 516.999 985.49 518.117 976.996C524.131 928.119 528.911 878.737 535.17 829.855C515.543 815.753 502.604 798.64 489.614 778.798C489.087 791.597 491.394 809.624 491.934 823.368C493.832 862.895 496.026 902.407 498.514 941.902C499.988 962.691 501.802 983.333 502.209 1004.16C502.336 1010.69 503.443 1016.89 503.466 1024L500.689 1024C499.67 1002.59 497.896 981.368 496.488 960L490.874 865.002L487.427 803.487C486.947 793.978 486.762 782.621 485.859 773.371C485.592 770.632 479.048 756.457 477.37 752.466C473.054 756.091 467.611 763.163 463.045 767.276C457.448 772.318 451.618 776.606 446.09 781.581C448.039 788.305 450.351 802.549 451.662 809.728L461.44 864.28L474.978 938.129C480.537 966.637 485.447 995.268 489.705 1024L487.664 1024C486.358 1019.87 484.276 1007.03 483.455 1002.44L475.991 960.78L454.614 844.331C450.999 824.669 447.499 802.701 443.184 783.284C431.258 791.991 419.125 797.983 405.446 803.354C409.708 806.006 427.676 815.832 431.56 817.346C422.717 823.548 417.995 826.884 407.89 830.859C413.216 849.797 421.031 870.925 427.322 889.774C442.248 934.493 458.417 979.023 472.574 1024L469.773 1024C463.871 1005.08 455.902 983.521 449.369 964.472C434.056 920.327 419.177 876.032 404.734 831.595C398.929 832.047 391.51 832.313 385.7 832.036C388.293 823.864 393.098 815.296 396.034 806.858C378.271 811.583 359.886 813.543 341.525 812.669C295.93 810.318 253.126 789.991 222.49 756.14C159.925 686.911 162.558 580.037 230.416 514.53C232.686 512.339 235.092 510.233 237.44 508.121C218.126 491.709 203.18 472.583 194.165 448.697C180.689 412.748 182.135 372.905 198.18 338.027C212.061 308.213 235.569 283.936 264.92 269.101C272.21 265.379 279.64 262.635 287.276 259.765ZM535.384 61.6533C533.321 61.4632 531.785 61.5812 532.976 63.9813C534.901 64.4041 535.045 64.5612 535.24 62.555L535.384 61.6533ZM443.105 345.389C440.818 344.217 438.826 346.325 436.729 347.948C434.742 352.532 432.887 356.785 431.04 361.442C445.16 360.288 447.772 359.294 457.653 349.013C452.814 347.872 447.909 346.458 443.105 345.389ZM728.931 543.655C729.384 541.043 729.686 538.394 730.088 535.757C730.328 534.316 730.64 532.888 731.025 531.479C731.129 531.087 731.204 530.803 731.186 530.408C731.042 530.183 731.148 530.316 730.805 530.068C728.57 530.87 720.091 533.417 718.654 534.861C716.046 537.481 720.211 538.492 722.759 540.199C724.838 541.339 726.815 542.529 728.931 543.655ZM482.944 293.354C485.21 291.97 487.169 290.092 489.052 288.242C487.7 287.796 482.392 285.707 481.058 286.38C479.648 287.092 480.513 289.155 478.983 290.446L478.922 290.434L478.895 290.363C478.403 290.973 478.333 291.687 478.175 292.441L477.964 293.341C479.789 293.328 481.097 293.252 482.944 293.354ZM482.708 315.906C484.443 317.846 485.293 319.075 487.432 320.58C487.134 321.761 488.872 322.876 489.735 323.733C490.25 321.202 491.493 316.643 491.436 314.2C492.741 308.309 493.37 309.466 488.996 308.63L487.066 308.251C483.883 307.285 481.334 305.801 478.396 304.799C474.536 303.483 476 307.265 476.3 309.044C478.543 311.559 480.385 313.519 482.708 315.906ZM497.006 308.485C497.221 310.543 497.191 310.552 498.319 312.177C499.861 308.099 500.68 308.362 497.006 308.485ZM492.198 324.455C492.211 329.233 493.542 331.248 494.79 324.834L492.198 324.455ZM237.179 504.01C238.405 505.14 239.474 506.943 240.627 505.005C239.751 503.615 240.246 499.187 237.179 504.01ZM505.027 293.099C504.779 292.617 504.623 292.423 504.538 291.944C499.156 290.622 495.921 292.924 500.975 297.608C502.283 298.82 504.317 294.002 505.027 293.099Z"/><path fill="#11497B" d="M709.296 536.445C714.761 539.158 724.835 544.721 729.17 548.588C730.305 553.967 732.903 563.094 736.707 567.183C739.243 571.998 744.913 577.314 749.5 580.257C749.826 580.607 750.139 580.873 750.489 581.189C751.652 582.166 751.862 582.627 752.575 583.99L752.326 584.644C755.726 586.676 755.643 586.912 759.58 587.229C759.671 586.203 759.735 585.175 759.772 584.146C761.182 585.712 760.855 586.249 762.921 586.866C766.241 587.317 769.582 587.863 772.927 587.919C779.75 597.629 786.797 606.532 792.289 617.304C855.942 742.153 750.808 881.792 613.808 861.249C590.285 857.721 557.143 842.739 538.253 828.021C539.384 822.075 540.439 815.126 540.795 809.077C552.821 813.605 555.408 811.85 567.448 810.211C566.795 809.189 564.518 805.419 563.812 804.835C562.635 802.69 557.075 794.311 555.587 792.651C557.883 791.206 566.68 792.37 569.989 791.743C586.361 788.636 604.529 778.989 616.286 767.426C668.97 715.611 689.528 643.301 690.826 571.461C698.292 569.573 702.812 568.375 709.84 565.238C702.022 556.393 697.154 549.492 690.149 540.149C697.296 539.619 702.447 538.256 709.296 536.445Z"/><path fill="#ED3143" d="M752.326 584.644C755.726 586.676 755.643 586.912 759.58 587.229C759.882 590.192 760.154 591.171 759.803 594.152C756.3 592.505 752.968 592.172 750.023 589.24C749.375 588.595 748.475 587.926 747.729 587.391C749.437 586.452 750.703 585.768 752.326 584.644Z"/><path fill="#211E1E" d="M744.129 585.873C745.404 586.466 746.396 587.106 747.729 587.391C748.475 587.926 749.375 588.595 750.023 589.24C752.968 592.172 756.3 592.505 759.803 594.152C759.724 595.141 760.372 595.411 761.044 596.275C755.09 595.382 750.453 594.19 745.639 589.846C743.351 587.781 741.252 587.782 744.129 585.873Z"/><path fill="#1B1919" d="M759.772 584.146C761.182 585.712 760.855 586.249 762.921 586.866C763.767 589.25 764.416 593.231 763.891 595.702C763.798 596.143 761.315 596.242 761.044 596.275C760.372 595.411 759.724 595.141 759.803 594.152C760.154 591.171 759.882 590.192 759.58 587.229C759.671 586.203 759.735 585.175 759.772 584.146Z"/><path fill="#1B1919" d="M750.489 581.189C751.652 582.166 751.862 582.627 752.575 583.99L752.326 584.644C750.703 585.768 749.437 586.452 747.729 587.391C746.396 587.106 745.404 586.466 744.129 585.873C746.412 584.036 747.996 582.71 750.489 581.189Z"/><path fill="#ED3143" d="M785.592 504.061C794.381 506.005 804.455 514.144 808.879 521.893C807.553 521.365 807.487 521.116 806.316 520.516C805.943 520.906 807.514 523.177 807.845 523.679C810.017 526.98 811.519 531.012 812.542 534.818C812.952 536.345 813.424 537.737 813.12 539.236C812.928 540.919 813.865 544.34 812.829 545.875C810.701 573.153 786.456 590.946 760.058 583.152L759.772 584.146C759.735 585.175 759.671 586.203 759.58 587.229C755.643 586.912 755.726 586.676 752.326 584.644L752.575 583.99C751.862 582.627 751.652 582.166 750.489 581.189C750.139 580.873 749.826 580.607 749.5 580.257C744.913 577.314 739.243 571.998 736.707 567.183C737.934 567.296 740.599 570.794 739.505 568.391C738.684 566.586 736.712 565.392 735.887 562.709C734.957 559.685 733.323 558.862 734.198 555.409C731.917 545.393 731.479 538.016 735.802 528.44C737.905 527.276 740.626 526.013 742.837 525.024C755.261 519.467 765.942 512.32 777.147 504.643C777.986 504.343 783.882 504.34 785.592 504.061Z"/><path d="M785.592 504.061C794.381 506.005 804.455 514.144 808.879 521.893C807.553 521.365 807.487 521.116 806.316 520.516C805.943 520.906 807.514 523.177 807.845 523.679C810.017 526.98 811.519 531.012 812.542 534.818C812.952 536.345 813.424 537.737 813.12 539.236C812.928 540.919 813.865 544.34 812.829 545.875C811.989 536.211 811.844 532.577 806.44 523.494C801.135 514.58 793.186 508.497 782.993 506.051C780.465 505.444 779.638 505.726 777.147 504.643C777.986 504.343 783.882 504.34 785.592 504.061Z"/><path fill="#1B1919" d="M734.198 555.409C738.714 566.61 740.927 570.354 750.781 578.225C750.027 579.173 750.028 579.141 749.5 580.257C744.913 577.314 739.243 571.998 736.707 567.183C737.934 567.296 740.599 570.794 739.505 568.391C738.684 566.586 736.712 565.392 735.887 562.709C734.957 559.685 733.323 558.862 734.198 555.409Z"/><path fill="#360A0E" d="M753.679 583.069C762.535 585.484 756.119 583.469 760.058 583.152L759.772 584.146C759.735 585.175 759.671 586.203 759.58 587.229C755.643 586.912 755.726 586.676 752.326 584.644L752.575 583.99C752.943 583.683 753.311 583.376 753.679 583.069Z"/><path d="M750.781 578.225C754.678 580.556 756.588 580.389 753.679 583.069C753.311 583.376 752.943 583.683 752.575 583.99C751.862 582.627 751.652 582.166 750.489 581.189C750.139 580.873 749.826 580.607 749.5 580.257C750.028 579.141 750.027 579.173 750.781 578.225Z"/><path fill="#ED3143" d="M537.408 802.077C539.622 800.253 550.408 790.694 552.675 792.471C553.665 792.597 554.593 792.742 555.587 792.651C557.075 794.311 562.635 802.69 563.812 804.835C561.582 804.656 561.902 802.391 560.467 801.424L560.373 801.432C559.869 802.486 562.988 804.705 562.548 807.747L562.16 807.808C552.822 809.228 545.983 808.172 538.174 802.614L537.408 802.077Z"/><path fill="#1B1919" d="M552.675 792.471C553.665 792.597 554.593 792.742 555.587 792.651C557.075 794.311 562.635 802.69 563.812 804.835C561.582 804.656 561.902 802.391 560.467 801.424L560.373 801.432C559.869 802.486 562.988 804.705 562.548 807.747C561.031 805.98 554.545 795.356 552.675 792.471Z"/><path fill="#E2DFD6" d="M659.332 193.71C663.651 193.131 675.485 193.441 679.778 193.716C713.707 195.902 746.291 207.804 773.64 228.003C810.593 254.908 835.104 295.606 841.605 340.852C848.244 385.534 836.663 431.01 809.46 467.073C779.799 506.779 736.956 530.206 688.267 537.198C685.661 523.406 683.666 514.251 678.502 501.007C657.547 445.857 608.935 425.555 561.151 464.11C555.691 468.516 550.671 473.6 545.439 478.289L540.499 475.007C538.435 468.823 537.351 462.239 534.915 455.513C526.839 433.207 512.601 415.754 493.82 401.673C493.521 398.867 493.243 396.059 492.987 393.249C483.574 288.119 553.87 202.834 659.332 193.71Z"/><path fill="#E2DFD6" d="M302.79 11.2296C333.894 11.441 361.002 27.6255 383.514 48.1843C436.927 97.8329 474.518 171.995 478.514 245.178C480.973 290.208 467.735 341.304 414.18 342.784C382.568 342.016 353.916 322.887 330.657 302.701C279.633 257.793 244.216 188.836 238.731 121.052C235.122 76.4516 248.626 14.4977 302.79 11.2296Z"/><path d="M442.911 779.63C402.11 805.677 364.141 816.699 315.506 805.899C271.091 796.329 232.326 769.441 207.803 731.192C147.23 636.374 193.402 512.231 298.552 476.569C303.727 474.814 309.664 473.49 314.587 471.636C312.647 490.19 312.542 507.436 318.118 525.462C331.38 568.337 369.332 596.52 412.945 603.055C413.544 607.876 413.92 609.955 415.043 614.575C388.376 607.581 359.618 619.181 352.277 647.224C348.959 659.691 350.741 672.966 357.23 684.117C363.721 695.142 375.688 702.32 387.859 705.403C389.453 705.793 391.055 706.151 392.664 706.476C395.461 707.056 400.866 706.532 403.905 706.327L404.276 706.874L400.113 715.734C404.959 717.079 409.254 717.052 414.111 715.824C417.461 714.977 425.573 712.499 426.664 709.056C426.052 707.326 426.538 708.051 425.1 706.838C423.248 705.915 421.326 705.043 419.461 704.137C418.076 704.334 417.398 704.64 416.532 703.633C416.521 701.666 423.381 699.718 425.564 697.576C427.418 696.892 426.742 696.719 428.016 697.252C429.168 700.585 429.498 705.829 430.231 709.421C434.978 732.711 438.054 756.376 442.911 779.63Z"/><path fill="#ED3143" d="M606.131 447.692C618.95 445.973 634.295 451.274 644.629 458.719C667.18 474.967 680.423 509.067 684.561 535.72C694.979 602.824 676.713 682.672 637.252 737.972C621.159 760.524 598.047 783.888 569.929 788.481C556.518 790.96 539.831 785.237 529.507 776.72C503.377 755.162 492.531 715.959 489.137 683.403C482.066 615.584 498.375 543.472 540.534 489.097C555.806 469.542 580.978 450.377 606.131 447.692Z"/><path fill="#E2DFD6" d="M417.542 383.206C417.724 383.181 417.906 383.156 418.088 383.131C459.139 379.424 498.773 400.688 520.942 434.891C531.558 451.269 536.271 467.311 538.636 485.913C533.878 492.719 529.598 497.842 524.909 505.232C509.705 529.198 501.338 551.817 493.27 578.651C472.915 590.949 462.069 597.047 437.118 599.855C408.877 602.359 378.318 593.268 356.462 575.339C280.301 512.866 320.583 392.017 417.542 383.206Z"/><path d="M506.505 67.2191C513.237 66.5166 527.801 67.5539 534.229 69.014C563.07 75.7101 588.137 93.4484 604.046 118.42C619.1 142.37 621.916 170.617 615.682 197.9C608.912 201.284 598.209 204.209 590.533 207.972C562.191 221.866 541.284 239.937 522.878 265.233C517.504 272.362 512.971 280.014 508.348 287.64C503.165 287.362 485.816 284.345 480.854 282.675C487.878 236.846 473.84 180.158 454.316 138.872C448.746 127.095 440.559 113.144 433.701 101.95C452.812 82.3536 478.996 68.8791 506.505 67.2191Z"/><path d="M303.354 280.013C308.064 284.763 312.717 290.539 317.566 295.469C328.845 306.809 341.267 316.951 354.633 325.734C380.012 342.474 404.703 349.813 434.674 343.666C433.117 349.686 429.051 357.989 426.454 364.015C434.229 364.505 439.766 363.594 447.288 362.122C451.193 369.698 452.634 376.448 457.759 383.551C418.692 374.276 385.69 380.532 353.967 405.341C331.639 424.578 323.448 441.411 315.7 468.712C288.914 456.963 273.552 446.745 259.57 419.906C233.227 369.341 251.711 305.947 303.354 280.013Z"/><path fill="#E2DFD6" d="M289.302 262.581C293.227 267.703 297.244 272.753 301.353 277.729C277.389 289.316 259.047 309.998 250.407 335.175C240.546 362.837 242.318 393.315 255.319 419.647C267.59 444.513 284.074 458.017 308.67 469.354C283.442 477.235 260.861 487.628 240.627 505.005C239.751 503.615 240.246 499.187 237.179 504.01C207.84 477.5 190.441 446.449 188.421 406.102C186.194 368.288 199.45 331.196 225.139 303.358C244.188 282.346 262.924 271.918 289.302 262.581Z"/><path d="M458.648 599.775C465.622 597.238 472.82 594.506 479.82 592.113C480.645 601.274 482.081 612.173 482.295 621.211C482.764 640.955 482.49 660.688 483.048 680.477L484.037 713.607C484.345 721.923 484.962 731.661 484.52 739.859C481.513 741.999 480.43 743.208 477.89 745.873C476.906 746.91 475.887 748.017 474.888 749.028C469.721 756.891 453.267 771.349 445.21 776.726C441.839 759.378 439.396 741.375 436.354 723.921C434.68 714.313 433.394 703.747 430.767 694.392C443.713 681.717 448.96 665.24 444.76 647.259C441.288 632.391 430.804 623.418 418.232 615.8C417.506 612.065 416.971 607.748 416.411 603.944C419.241 603.911 444.433 603.068 444.956 603.233C445.028 604.609 435.351 617.622 433.692 620.231C440.86 621.296 446.944 622.983 454.086 622.018L457.47 621.296C458.773 620.208 460.641 619.374 462.176 618.416C465.689 616.223 468.03 614.276 470.978 611.425C466.374 609.501 463.576 608.094 459.262 605.595C455.231 603.811 451.926 603.715 458.648 599.775Z"/><path d="M458.648 599.775C465.622 597.238 472.82 594.506 479.82 592.113C480.645 601.274 482.081 612.173 482.295 621.211C482.764 640.955 482.49 660.688 483.048 680.477L484.037 713.607C484.345 721.923 484.962 731.661 484.52 739.859C481.513 741.999 480.43 743.208 477.89 745.873C474.188 732.257 471.945 715.062 469.687 700.898L457.47 621.296C458.773 620.208 460.641 619.374 462.176 618.416C465.689 616.223 468.03 614.276 470.978 611.425C466.374 609.501 463.576 608.094 459.262 605.595C455.231 603.811 451.926 603.715 458.648 599.775Z"/><path fill="#1B1919" d="M458.648 599.775C458.445 603.08 458.363 602.553 459.262 605.595C455.231 603.811 451.926 603.715 458.648 599.775Z"/><path fill="#1B1919" d="M454.086 622.018L457.47 621.296L469.687 700.898C471.945 715.062 474.188 732.257 477.89 745.873C476.906 746.91 475.887 748.017 474.888 749.028C470.542 732.185 466.956 707.405 464.352 689.606C461.112 667.455 456.9 644.042 454.086 622.018Z"/><path fill="#ED3143" d="M408.154 704.481L408.298 703.575C406.323 702.91 400.169 703.685 397.723 703.621C359.699 702.63 340.217 659.985 364.598 630.836C380.495 611.831 409.933 610.38 428.333 626.549C448.275 644.074 448.101 671.086 430.812 690.59C429.36 695.045 424.665 694.01 425.564 697.576C423.381 699.718 416.521 701.666 416.532 703.633C417.398 704.64 418.076 704.334 419.461 704.137C421.326 705.043 423.248 705.915 425.1 706.838C423.844 707.682 423.808 707.68 422.813 708.815C418.207 714.16 410.382 714.075 404.013 714.018C405.185 711.525 406.178 709.273 406.819 706.568C407.28 705.816 407.65 705.206 408.154 704.481Z"/><path fill="#ED3143" d="M416.952 705.958C417.794 705.339 418.69 704.846 419.461 704.137C421.326 705.043 423.248 705.915 425.1 706.838C423.844 707.682 423.808 707.68 422.813 708.815C418.207 714.16 410.382 714.075 404.013 714.018C405.185 711.525 406.178 709.273 406.819 706.568C414.24 707.568 411.782 703.724 416.952 705.958Z"/><path fill="#1B1919" d="M416.952 705.958C417.794 705.339 418.69 704.846 419.461 704.137C421.326 705.043 423.248 705.915 425.1 706.838C423.844 707.682 423.808 707.68 422.813 708.815C420.631 707.791 419.101 707.182 416.952 705.958Z"/><path fill="#360A0E" d="M408.154 704.481C413.327 705.188 411.202 702.525 412.067 702.209C419.369 699.541 424.944 695.522 430.812 690.59C429.36 695.045 424.665 694.01 425.564 697.576C423.381 699.718 416.521 701.666 416.532 703.633C417.398 704.64 418.076 704.334 419.461 704.137C418.69 704.846 417.794 705.339 416.952 705.958C411.782 703.724 414.24 707.568 406.819 706.568C407.28 705.816 407.65 705.206 408.154 704.481Z"/><path fill="#E2DFD6" d="M383.62 44.016C403.892 31.7749 425.611 24.616 449.414 24.6331C481.842 24.746 512.886 37.7823 535.673 60.8549C538.084 62.9469 540.604 65.7121 542.703 68.1212L536.493 66.6324C535.691 66.4646 534.891 66.2946 534.092 66.1102L533.983 66.0861C528.036 64.768 521.976 64.024 515.887 63.8642C481.623 62.945 455.804 76.2084 431.504 99.0598C420.768 83.8804 398.618 55.211 383.62 44.016ZM535.384 61.6533C533.321 61.4632 531.785 61.5812 532.976 63.9813C534.901 64.4041 535.045 64.5612 535.24 62.555L535.384 61.6533Z"/><path fill="#F0EAE5" fill-opacity="0.56470591" d="M532.976 63.9813C531.785 61.5812 533.321 61.4632 535.384 61.6533L535.24 62.555C535.045 64.5612 534.901 64.4041 532.976 63.9813Z"/><path fill="#F0EAE5" d="M535.673 60.8549C538.084 62.9469 540.604 65.7121 542.703 68.1212L536.493 66.6324C535.691 66.4646 534.891 66.2946 534.092 66.1102L533.983 66.0861C533.267 65.2257 532.836 65.1121 532.976 63.9813C534.901 64.4041 535.045 64.5612 535.24 62.555L535.384 61.6533L535.673 60.8549Z"/><path d="M472.063 310.495C478.159 313.511 489.172 327.278 492.023 333.107C490.302 344.848 488.621 357.228 488.452 369.114C488.318 378.581 489.362 388.591 490.064 398.082C480.931 392.985 473.216 388.72 463.142 385.682C459.183 383.65 452.383 365.848 449.924 360.522C455.879 356.76 458.842 352.934 462.952 347.335C457.765 346.296 445.173 344.058 441.388 341.518C441.124 338.604 444.202 339.82 446.232 338.568C457.879 331.383 465.007 321.677 472.063 310.495Z"/><path fill="#11497B" d="M494.707 729.246C496.27 730.437 502.326 746.162 504.248 749.808C513.616 767.577 522.909 777.346 539.8 787.546C539.416 790.85 539.052 793.614 538.456 796.882C535.863 799.331 533.445 800.781 530.468 802.725C532.711 803.754 534.534 804.751 536.68 805.932C536.587 811.154 536.218 816.41 535.906 821.626C535.753 823.161 535.74 823.477 535.31 825.013L534.537 825.227C518.934 815.676 494.927 786.227 488.729 768.616C487.772 765.898 487.268 742.247 488.922 738.354C489.848 736.173 493.103 731.485 494.707 729.246Z"/><path d="M400.19 805.307C402.049 804.611 401.391 805.008 403 805.995C408.292 809.223 414.207 811.753 419.766 814.498C420.536 814.878 426.722 817.253 425.167 818.695C421.694 821.914 408.511 828.138 404.013 828.613C391.467 829.939 388.338 831.817 394.372 818.715C395.178 816.888 396.418 814.109 397.246 812.074L399.607 806.162L400.19 805.307Z"/><path fill="#11497B" d="M579.552 879.604C578.621 878.753 578.413 878.605 578.564 878.486C581.523 876.167 595.121 867.349 598.047 867.641C600.294 872.61 606.484 880.068 609.631 885.908C595.623 886.508 592.25 886.03 579.552 879.604Z"/><path fill="#E2DFD6" d="M449.477 604.269C454.803 607.152 459.19 610.071 464.791 612.66L464.106 613.202C455.651 620.079 449.285 620.381 439.239 617.716C442.484 613.238 446.278 609.032 449.243 604.427L449.477 604.269Z"/><path fill="#F0EAE5" d="M689.466 544.887C693.852 548.626 698.469 556.804 702.73 561.062C704.517 562.847 705.062 563.577 702.804 564.556C698.494 566.229 695.053 567.045 690.547 567.864C690.215 560.782 689.42 551.751 689.466 544.887Z"/><path d="M478.969 301.913L479.622 301.478C480.245 301.072 480.86 300.652 481.486 300.251C483.23 299.133 492.221 291.201 493.155 291.485C494.059 291.76 494.599 294.16 494.841 294.833C496.576 297.747 498.887 300.554 500.29 303.412C498.793 304.113 497.294 305.097 495.883 305.982C488.535 305.995 485.511 305.077 478.969 301.913Z"/><path d="M487.462 695.321C489.234 699.812 489.249 707.473 490.695 712.493C491.683 715.921 492.62 720.99 493.255 724.53C491.739 727.032 491.424 727.747 489.525 730.184C484.259 743.22 487 696.547 487.462 695.321Z"/><path d="M490.726 584.476C492.762 585.564 490.358 590.642 489.913 593.236C489.417 596.127 488.104 600.552 487.57 603.496C487.214 605.462 486.33 615.082 485.684 615.708C485.494 615.719 485.619 615.73 485.277 615.623C484.574 606.442 484.382 599.063 482.555 589.947C485.466 587.467 487.542 586.423 490.726 584.476Z"/><path fill="#1B1919" d="M494.841 294.833C495.35 293.894 496.656 289.863 496.938 289.835C497.942 289.732 501.277 289.542 502.013 290.02C502.111 290.331 502.119 290.179 501.993 290.476C501.732 290.681 501.583 290.733 501.254 290.764C503.064 290.795 505.207 289.298 507.386 290.771C507.187 292.842 506.322 291.641 504.538 291.944C499.156 290.622 495.921 292.924 500.975 297.608C502.283 298.82 504.317 294.002 505.027 293.099L505.55 293.373C506.404 293.784 506.19 294.056 505.808 294.818L505.479 295.487C503.91 298.612 503.565 302.128 500.29 303.412C498.887 300.554 496.576 297.747 494.841 294.833Z"/><path fill="#F0EAE5" d="M492.198 324.455C493.162 320.208 493.35 315.283 494.419 310.98C494.82 309.368 494.382 309.198 496.255 308.699L497.006 308.485C497.221 310.543 497.191 310.552 498.319 312.177C497.007 315.399 495.447 321.373 494.79 324.834L492.198 324.455Z"/><path fill="#F0EAE5" fill-opacity="0.14117648" d="M487.066 308.251L488.996 308.63C493.37 309.466 492.741 308.309 491.436 314.2C490.699 314.643 490.657 314.571 490.07 313.761C487.668 310.442 481.811 312.215 485.781 315.374C488.406 317.462 487.95 317.644 487.432 320.58C485.293 319.075 484.443 317.846 482.708 315.906C484.264 311.07 484.238 311.709 487.066 308.251Z"/><path fill="#F0EAE5" fill-opacity="0.39607844" d="M487.432 320.58C487.95 317.644 488.406 317.462 485.781 315.374C481.811 312.215 487.668 310.442 490.07 313.761C490.657 314.571 490.699 314.643 491.436 314.2C491.493 316.643 490.25 321.202 489.735 323.733C488.872 322.876 487.134 321.761 487.432 320.58Z"/><path fill="#2A5A85" d="M480.656 748.683C481.818 747.003 482.862 745.754 484.139 744.164C484.3 747.322 484.475 750.215 484.543 753.392C484.77 754.521 485.799 761.153 484.829 761.407L484.826 761.373L484.778 761.357C484.053 760.281 483.979 759.647 483.707 758.376C482.524 755.267 481.722 751.868 480.656 748.683Z"/><path fill="#11497B" d="M484.543 753.392C484.77 754.521 485.799 761.153 484.829 761.407L484.826 761.373L484.778 761.357C484.053 760.281 483.979 759.647 483.707 758.376C484.53 756.712 484.299 755.457 484.543 753.392Z"/><path fill="#11497B" d="M591.23 858.582C595.909 860.215 600.065 861.704 604.892 862.866C602.944 864.127 600.92 865.264 598.829 866.27C598.59 866.436 598.745 866.308 598.331 866.744C594.973 862.634 595.467 862.76 591.23 858.582Z"/><path fill="#E2DFD6" fill-opacity="0.12941177" d="M436.729 347.948C438.826 346.325 440.818 344.217 443.105 345.389C443.101 345.395 442.839 345.658 442.927 345.764C443.419 346.357 444.456 346.374 444.723 347.188C444.725 347.449 444.727 347.71 444.728 347.971C444.819 348.975 444.424 350.008 444.524 351.005C444.608 351.835 444.084 352.484 443.513 353.001C442.976 353.561 442.176 353.429 441.795 352.741C441.462 352.229 441.357 351.605 441.3 351.003C441.22 350.155 440.818 348.914 440.05 348.409C439.423 347.997 437.539 348.029 436.729 347.948Z"/><path fill="#F0EAE5" fill-opacity="0.011764706" d="M505.027 293.099C504.317 294.002 502.283 298.82 500.975 297.608C495.921 292.924 499.156 290.622 504.538 291.944C504.623 292.423 504.779 292.617 505.027 293.099Z"/><path fill="#11497B" d="M542.53 788.255C543.631 788.765 544.747 789.244 545.875 789.691C547.748 790.432 548.67 790.759 546.442 791.897C541.115 795.273 542.028 794.032 542.53 788.255Z"/><path fill="#F0EAE5" d="M475.915 298.905L477.234 293.847C477.354 293.402 477.427 292.832 477.726 292.454L477.73 292.382L477.768 292.389C477.9 292.663 477.921 293.05 477.964 293.341C479.789 293.328 481.097 293.252 482.944 293.354C480.616 295.508 478.471 297.051 475.915 298.905Z"/><path fill="#E2DFD6" d="M449.243 604.427C448.933 603.6 448.724 603.04 447.892 602.693C447.778 602.645 446.531 602.366 446.642 601.899C446.706 601.628 447.208 601.513 447.435 601.46C449.688 600.934 451.819 600.014 453.969 599.177C452.252 601.058 451.045 602.215 449.477 604.269L449.243 604.427Z"/><path fill="#F0EAE5" fill-opacity="0.60000002" d="M237.179 504.01C240.246 499.187 239.751 503.615 240.627 505.005C239.474 506.943 238.405 505.14 237.179 504.01Z"/><path fill="#F0EAE5" fill-opacity="0.98431373" d="M492.198 324.455L494.79 324.834C493.542 331.248 492.211 329.233 492.198 324.455Z"/><path fill="#F0EAE5" fill-opacity="0.5529412" d="M497.006 308.485C500.68 308.362 499.861 308.099 498.319 312.177C497.191 310.552 497.221 310.543 497.006 308.485Z"/><path fill="#1B1919" d="M399.607 806.162C399.132 806.2 397.001 806.744 396.837 806.193C397.3 804.922 399.136 805.028 400.19 805.307L399.607 806.162Z"/><path fill="#211E1E" d="M656.969 160.841C647.754 158.988 641.289 156.181 634.368 149.755C603.68 121.263 622.436 70.1569 664.607 69.5672C677.055 69.3435 689.064 74.1621 697.905 82.9275C706.441 91.3943 711.616 102.852 711.588 114.936C711.514 127.38 706.503 139.286 697.655 148.038C687.834 157.762 675.712 161.34 662.161 161.194C664.195 165.231 667.79 168.967 668.35 172.514C667.493 173.856 667.287 173.499 665.224 174.054C664.846 174.178 664.467 174.302 664.089 174.426C656.7 174.988 651.925 173.119 645.672 169.727C649.099 166.786 653.317 163.825 656.969 160.841ZM650.166 169.911L653.498 170.507C655.812 170.917 655.773 170.874 658.233 170.998C663.547 171.086 668.278 171.823 663.318 166.328C661.425 164.231 661.685 163.294 659.081 163.555C654.085 165.284 653.85 165.695 650.166 169.911Z"/><path d="M659.724 72.5113C683.421 69.4274 705.127 86.1513 708.187 109.852C711.248 133.552 694.503 155.241 670.799 158.278C647.129 161.311 625.476 144.594 622.42 120.927C619.364 97.2595 636.06 75.5908 659.724 72.5113Z"/><path d="M659.081 163.555C661.685 163.294 661.425 164.231 663.318 166.328C668.278 171.823 663.547 171.086 658.233 170.998C655.773 170.874 655.812 170.917 653.498 170.507L650.166 169.911C653.85 165.695 654.085 165.284 659.081 163.555Z"/><path fill="#1B1919" fill-opacity="0.90980393" d="M664.089 174.426C664.467 174.302 664.846 174.178 665.224 174.054C664.713 177.805 663.653 186.45 662.631 189.74C662.324 189.696 661.905 189.851 661.624 189.921C662.037 186.89 662.6 183.339 663.186 180.34C663.552 178.379 663.853 176.406 664.089 174.426Z"/></svg>