<?xml version="1.0" encoding="utf-8" ?><svg xmlns="http://www.w3.org/2000/svg" xmlns:xlink="http://www.w3.org/1999/xlink" width="1024" height="1024" viewBox="0 0 1024 1024"><path fill="#CFA535" d="M0 292.868C1.10625 292.446 0.928226 292.514 1.72341 291.817L2.21552 292.732C4.78122 285.075 6.04785 275.569 8.17668 267.614C33.2565 173.888 98.3759 98.1967 185.265 55.5814C287.686 5.08869 411.225 5.54103 518.451 40.4816C580.494 60.699 639.674 96.1194 681.813 146.654C711.756 182.562 734.563 230.941 718.542 278.241C716.479 284.395 713.814 290.33 710.585 295.961C708.892 298.903 706.453 302.499 705.034 305.389C710.656 303.14 716.3 300.77 722.055 298.943C752.842 289.169 783.196 292.457 812.597 305.208C887.948 337.885 936.411 409.677 965.844 483.59C995.343 558.908 1006.59 640.139 998.677 720.639C995.032 757.769 987.928 792.638 973.028 827.116C962.16 852.654 948.519 876.92 932.349 899.477C900.465 943.398 851.113 985.158 800.307 1005.2C788.238 1010.07 775.836 1014.08 763.196 1017.19C760.996 1017.73 753.049 1019.34 752.006 1020.5C751.994 1020.75 751.977 1021.7 751.903 1021.89L751.062 1024L726.096 1024L727.842 1022.51C738.628 1018.91 748.708 1016.53 759.789 1012.41C803.949 996.141 843.687 969.759 875.819 935.375C964.982 841.061 980.639 696.583 947.961 575.249C920.361 472.772 852.293 339.007 730.409 336.071C702.494 335.398 664.397 357.253 645.407 377.495C650.822 375.284 656.064 372.456 661.672 370.207C691.839 358.357 725.458 358.851 755.264 371.582C789.558 386.359 816.498 414.265 830.059 449.058C842.384 480.602 841.227 518.412 827.651 549.366C812.694 582.939 784.948 609.148 750.579 622.169C718.639 634.436 683.147 633.59 651.829 619.816C644.304 616.457 634.929 611.517 628.116 606.889C584.804 577.469 562.531 520.578 576.678 469.846C578.62 462.884 582.21 455.67 585.21 449.069C579.144 454.923 571.19 464.182 565.137 470.591C545.817 491.35 526.338 511.959 506.701 532.418L392.421 648.822C367.205 674.069 342.138 699.464 317.221 725.006L315.592 724.417C323.89 714.078 336.857 700.237 345.901 690.358L381.76 650.792L493.309 528.114C513.925 505.671 536.283 483.112 556.293 460.265C557.169 459.64 557.878 458.836 558.63 458.07C559.146 457.615 559.652 457.148 560.147 456.67C561.123 455.633 562.108 454.604 563.102 453.584C564.029 452.581 571.565 444.988 571.281 444.3C570.328 443.713 562.903 451.796 561.831 452.907C560.912 453.827 560.3 454.433 559.286 455.249C559.071 455.545 558.923 455.877 558.754 456.207C557.688 457.199 557.149 457.664 556.203 458.782C555.924 459.048 555.646 459.314 555.367 459.58C531.336 481.426 508.474 504.287 484.845 526.166L292.585 701.098L291.232 700.702C300.179 692.1 309.531 682.201 318.364 673.326L361.3 630.66L468.495 524.993L539.745 455.104C550.89 444.254 566.745 430.35 576.654 418.964C565.654 424.141 562.104 427.94 549.004 431.811C517.949 440.988 483.515 434.452 455.55 419.035C424.242 401.898 401.113 372.924 391.338 338.597C371.761 269.463 416.518 193.123 484.664 172.875C584.987 143.066 687.728 248.869 642.57 346.845C638.607 355.444 633.535 361.439 629.134 369.299L628.875 369.769C736.289 267.408 658.863 162.979 553.354 107.803C549.801 105.945 546.294 104.118 542.654 102.403C517.36 90.5067 491.109 80.7614 464.179 73.2701C386.279 52.1145 288.51 48.5975 211.796 76.2125C182.571 86.5396 154.891 100.808 129.525 118.623C66.6807 163.485 23.1085 232.101 4.7097 306.318C3.54083 311.033 2.10728 318.433 0 322.575L0 292.868ZM711.422 606.512C746.096 603.979 770.898 587.284 793.181 561.613C810.45 541.719 817.275 512.001 815.457 486.182C811.413 428.753 757.316 383.126 700.432 386.207C645.48 390.219 590.653 447.045 595.027 503.533C599.85 565.82 649.225 608.526 711.422 606.512ZM527.177 410.966C587.396 406.623 632.791 354.443 628.758 294.202C624.724 233.961 572.777 188.299 512.517 192.023C451.817 195.775 405.749 248.183 409.812 308.863C413.875 369.542 466.519 415.341 527.177 410.966Z"/><path fill="#FEFEFE" d="M727.842 1022.51C733.068 1022.67 740.494 1021.72 745.746 1020.9C746.927 1020.72 749.581 1020.1 750.682 1020.21C751.163 1020.68 751.513 1021.34 751.903 1021.89L751.062 1024L726.096 1024L727.842 1022.51Z"/><path fill="#CFA535" d="M697.227 424.106C737.328 419.171 773.817 447.728 778.664 487.839C783.51 527.951 754.873 564.377 714.751 569.135C674.754 573.878 638.466 545.349 633.634 505.363C628.803 465.376 657.252 429.025 697.227 424.106ZM707.83 555.579C741.746 551.894 766.236 521.385 762.497 487.474C758.758 453.563 728.21 429.122 694.305 432.915C660.477 436.699 636.102 467.164 639.833 500.999C643.563 534.833 673.989 559.256 707.83 555.579Z"/><path fill="#CFA535" d="M511.414 227.962C551.545 224.28 587.033 253.899 590.588 294.041C594.143 334.183 564.413 369.577 524.26 373.007C484.285 376.421 449.081 346.852 445.542 306.887C442.002 266.923 471.461 231.626 511.414 227.962ZM526.775 365.406C560.436 363.18 585.93 334.107 583.741 300.444C581.551 266.781 552.505 241.255 518.84 243.408C485.123 245.564 459.55 274.664 461.743 308.379C463.936 342.093 493.063 367.635 526.775 365.406Z"/><path fill="#CFA535" d="M455.725 0L460.068 0C460.287 0.973289 460.436 0.872689 461.49 0.967895C473.162 2.02271 484.798 3.46885 496.43 4.95292C495.331 3.70401 493.845 1.60148 493.413 0L494.837 0C495.912 2.12962 496.451 3.20132 497.831 5.12879C561.456 15.6619 616.113 36.0891 671.569 69.1244C682.439 75.5996 701.929 87.7921 711.679 95.6557C716.88 64.0029 722.621 42.0316 749.916 21.9623C786.059 -4.61204 834.196 1.88134 860.556 38.6004C876.357 60.6116 879.612 86.8488 875.562 113.05C873.57 125.55 867.879 141.185 862.742 152.771C860.021 158.91 856.5 164.954 853.761 171.255C889.001 154.518 925.114 142.623 963.904 156.28C983.864 163.555 1002.98 177.84 1012.04 197.447C1021.16 217.189 1021.26 240.714 1014.03 261.013C1000.91 297.819 965.736 314.018 929.284 318.139C966.019 374.677 989.876 427.296 1005.64 493.122C1010.17 511.971 1013.58 531.069 1015.86 550.319C1017.07 560.15 1017.49 570.64 1019.23 580.353C1019.66 582.726 1022.45 586.076 1024 588.149L1024 592.479L1024 657.003C1022.1 658.022 1021.37 660.338 1020.15 662.567C1017.51 665.507 1017.98 675.545 1016.82 680.889C1015.7 678.803 1016.31 674.765 1015.91 671.423C1015.67 668.827 1015.83 665.43 1015.86 662.737C1017.07 535.201 977.274 413.379 908.343 306.732C885.471 271.345 857.865 234.861 828.282 205.04C816.168 216.373 799.563 230.022 785.294 238.763C790.698 247.657 792.369 255.1 789.051 265.311C788.344 267.489 786.53 269.356 785.931 271.602L784.023 273.592C782.989 273.792 780.206 276.34 779.08 277.141C759.311 291.193 738.273 276.251 741.29 252.951C742.224 245.738 744.113 243.31 747.456 236.854C720.341 196.103 708.851 157.923 710.243 108.59C705.337 105.577 700.591 102.141 695.637 99.1221C623.567 55.2072 545.152 22.0474 461.358 9.25995C455.686 8.3943 448.556 7.65437 443.174 5.72545C446.762 -2.64308 448.239 1.66945 455.725 0ZM784.48 237.724C788.29 234.612 793.135 229.751 796.815 226.265C805.978 217.64 814.978 208.844 823.811 199.882C792.408 171.618 762.207 143.273 726.912 119.724C722.033 116.469 717.634 113.109 712.537 110.07C713.618 121.418 713.537 132.764 714.669 144.088C718.178 179.212 731.555 204.818 749.506 234.513C760.597 225.057 775.451 226.423 784.48 237.724ZM834.58 199.883C841.173 207.414 848.465 214.725 855.224 222.208C867.625 235.834 879.498 249.931 890.817 264.468C899.86 276.003 908.425 288.523 917.258 300.243C920.534 304.59 924.513 311.043 927.803 314.915C934.008 313.623 941.374 312.181 947.373 310.485C964.612 305.612 985.016 292.464 994.896 277.193C1005.5 260.506 1009 240.277 1004.63 220.995C1000.07 201.351 987.897 184.32 970.791 173.638C955.33 163.951 933.073 158.144 914.813 159.709C888.58 161.457 851.489 179.786 834.58 199.883ZM714.771 97.1761C728.576 108.692 745.24 120.012 759.954 132.069C770.377 140.613 780.623 149.371 790.685 158.338C797.221 164.278 803.971 171.121 810.516 176.832C815.824 181.8 822.756 188.746 828.175 193.316C861.681 152.238 889.168 77.8136 839.927 37.5382C826.477 26.5369 804.266 18.9947 786.843 20.6955C783.322 21.1149 779.882 21.5391 776.411 22.2945C740.714 30.0653 718.389 62.0681 714.771 97.1761Z"/><path fill="#D6AC47" d="M710.243 108.59L712.537 110.07C713.618 121.418 713.537 132.764 714.669 144.088C718.178 179.212 731.555 204.818 749.506 234.513C748.759 235.304 748.058 235.956 747.456 236.854C720.341 196.103 708.851 157.923 710.243 108.59Z"/><path fill="#FEFEFE" d="M1020.15 662.567L1019.06 661.662C1018.78 659.903 1019.61 650.898 1019.72 648.451C1020.04 639.828 1020.23 631.2 1020.29 622.571C1020.28 613.983 1020.11 605.395 1019.8 596.812C1019.66 593.51 1018.9 585.205 1019.3 582.452C1019.77 584.55 1022.82 590.421 1024 592.479L1024 657.003C1022.1 658.022 1021.37 660.338 1020.15 662.567Z"/><path fill="#CFA535" d="M903.843 112.284C905.048 110.178 906.457 108.208 907.834 106.211C914.952 95.8878 922.028 85.327 927.378 73.9556C930.411 67.3696 932.915 60.5528 934.865 53.5696C938.451 40.7815 939.386 30.744 947.631 19.4313C966.239 -6.44207 1008.56 8.17873 1016.02 36.2182C1018.7 46.2839 1018.18 59.3139 1012.97 68.572C1002.61 86.9935 980.435 86.8737 962.363 91.8544C943.461 97.0637 925.147 108.08 909.95 120.424C908.332 121.238 904.786 123.98 903.528 125.264C892.063 133.91 883.385 145.282 873.272 154.799L872.547 153.377C875.829 148.91 885.217 139.355 887.083 134.882C887.006 133.929 886.941 132.975 886.886 132.02C886.948 131.499 887.025 130.98 887.035 130.457C887.196 129.474 895.883 118.52 897.04 117.409C898.316 118.266 898.218 118.216 899.746 118.492C901.497 116.206 902.58 114.838 903.843 112.284Z"/><path fill="#FEFEFE" d="M897.04 117.409C898.316 118.266 898.218 118.216 899.746 118.492C898.369 120.681 888.651 134.625 887.083 134.882C887.006 133.929 886.941 132.975 886.886 132.02C886.948 131.499 887.025 130.98 887.035 130.457C887.196 129.474 895.883 118.52 897.04 117.409Z"/><path fill="#CFA535" d="M912.602 123.991C935.047 106.877 961.036 91.6686 990.43 95.9935C1000.73 97.3628 1009.64 101.267 1016.12 109.548C1025.33 121.327 1021.04 136.45 1009.51 144.329C993.958 154.967 984.729 143.442 972.785 136.222C955.268 125.633 933.431 128.804 914.639 133.212C908.634 134.584 902.461 136.887 896.402 138.29C899.222 135.711 902.894 132.152 905.812 129.831C906.9 129.192 911.985 125.054 912.602 123.991Z"/><path fill="#CFA535" d="M884.672 131.143C894.895 105.609 903.81 77.5048 891.763 50.4997C888.435 43.0386 881.953 38.6338 880.101 30.9971C878.623 24.901 880.496 18.115 883.897 12.962C887.417 7.57556 892.986 3.86133 899.311 2.68034C914.635 -0.213947 927.948 15.1311 929.773 29.1202C933.55 58.0763 917.871 89.496 901.139 112.195C899.848 113.423 898.057 115.932 897.04 117.409C895.883 118.52 887.196 129.474 887.035 130.457C886.251 130.697 885.463 130.926 884.672 131.143Z"/><path fill="#FEFEFE" fill-opacity="0.60000002" d="M903.528 125.264C904.786 123.98 908.332 121.238 909.95 120.424C911.258 121.888 911.539 122.346 912.602 123.991C911.985 125.054 906.9 129.192 905.812 129.831C905.065 128.095 904.513 126.883 903.528 125.264Z"/><path fill="#FEFEFE" fill-opacity="0.70588237" d="M897.04 117.409C898.057 115.932 899.848 113.423 901.139 112.195L903.843 112.284C902.58 114.838 901.497 116.206 899.746 118.492C898.218 118.216 898.316 118.266 897.04 117.409Z"/><path fill="#D6AC47" fill-opacity="0.93333334" d="M884.672 131.143C885.463 130.926 886.251 130.697 887.035 130.457C887.025 130.98 886.948 131.499 886.886 132.02C885.193 131.036 884.349 134.549 883.337 134.278L883.297 134.19C883.43 133.511 884.373 131.912 884.672 131.143Z"/><path fill="#D6AC47" fill-opacity="0.90196079" d="M872.547 153.377L873.272 154.799C872.224 155.754 871.455 156.425 870.488 157.486L869.511 157.298C870.537 156.041 871.543 154.669 872.547 153.377Z"/><path fill="#D6AC47" fill-opacity="0.56862748" d="M869.511 157.298L870.488 157.486C870.211 157.821 868.283 160.351 867.743 160.151C867.534 159.675 867.996 159.15 868.299 158.778L869.511 157.298Z"/><path fill="#D6AC47" d="M785.931 271.602C791.055 274.484 795.283 278.798 800.323 281.824C823.875 295.963 850.103 306.823 877.067 312.262C883.059 313.47 909.006 316.748 909.44 317.248C906.098 318.325 899.205 318.204 895.655 317.9C860.481 314.893 825.086 302.093 795.853 282.356C791.783 279.608 787.949 276.495 784.023 273.592L785.931 271.602Z"/><defs><linearGradient id="gradient_0" gradientUnits="userSpaceOnUse" x1="484.16156" y1="0.28015035" x2="483.6178" y2="2.8826888"><stop offset="0" stop-color="white" stop-opacity="0.96470588"/><stop offset="1" stop-color="white"/></linearGradient></defs><path fill="url(#gradient_0)" d="M460.068 0L493.413 0C493.845 1.60148 495.331 3.70401 496.43 4.95292C484.798 3.46885 473.162 2.02271 461.49 0.967895C460.436 0.872689 460.287 0.973289 460.068 0Z"/><path fill="#D6AC47" fill-opacity="0.93725491" d="M1015.91 671.423C1016.31 674.765 1015.7 678.803 1016.82 680.889C1016.75 681.427 1016.68 681.964 1016.62 682.502C1016.34 684.828 1016.12 687.161 1015.96 689.499C1015.84 691.091 1015.58 692.23 1015.5 693.981L1015.16 694.024C1015.06 693.1 1014.98 692.175 1014.92 691.25C1015.22 685.677 1015.41 676.46 1015.91 671.423Z"/><path fill="#D6AC47" fill-opacity="0.87843138" d="M315.592 724.417L317.221 725.006C313.788 728.521 309.969 732.043 306.638 735.617L305.884 735.375C308.129 733.003 313.478 725.99 315.592 724.417Z"/><path fill="#F1E1BA" fill-opacity="0.98823529" d="M561.831 452.907C562.903 451.796 570.328 443.713 571.281 444.3C571.565 444.988 564.029 452.581 563.102 453.584L561.831 452.907Z"/><path fill="#D4BA80" fill-opacity="0.6901961" d="M289.331 702.515L290.583 703.028C288.547 705.04 286.168 707.067 284.061 709.114L283.198 708.722C285.254 706.645 287.185 704.503 289.331 702.515Z"/><path fill="#F9F4DB" fill-opacity="0.8509804" d="M561.831 452.907L563.102 453.584C562.108 454.604 561.123 455.633 560.147 456.67L559.286 455.249C560.3 454.433 560.912 453.827 561.831 452.907Z"/><path fill="#FEFEFE" fill-opacity="0.44705883" d="M558.754 456.207L558.63 458.07C557.878 458.836 557.169 459.64 556.293 460.265L556.247 459.7C556.344 459.274 556.453 459.108 556.203 458.782C557.149 457.664 557.688 457.199 558.754 456.207Z"/><path fill="#F1E1BA" fill-opacity="0.53333336" d="M283.198 708.722L284.061 709.114C283.612 709.539 281.27 712.009 280.707 711.734C280.258 711.102 282.769 709.071 283.198 708.722Z"/><path fill="#D6AC47" d="M291.232 700.702L292.585 701.098C291.884 701.759 291.255 702.336 290.583 703.028L289.331 702.515C289.988 701.907 290.584 701.312 291.232 700.702Z"/><path fill="#FEFEFE" fill-opacity="0.67450982" d="M559.286 455.249L560.147 456.67C559.652 457.148 559.146 457.615 558.63 458.07L558.754 456.207C558.923 455.877 559.071 455.545 559.286 455.249Z"/><path fill="#D4BA80" fill-opacity="0.57254905" d="M305.884 735.375L306.638 735.617C303.814 738.614 303.042 738.22 305.884 735.375Z"/><path fill="#CFA535" fill-opacity="0.9137255" d="M1014.51 695.441L1014.76 695.52L1015.19 697.42C1015.08 698.257 1015.08 699.025 1015.05 699.867L1014.35 699.114C1014.42 697.87 1014.49 696.687 1014.51 695.441Z"/><path fill="#D6AC47" fill-opacity="0.35294119" d="M1015.05 699.867C1014.91 700.291 1014.78 701.002 1014.29 701.153C1013.77 700.758 1014.12 699.601 1014.35 699.114L1015.05 699.867Z"/><path fill="#CFA535" fill-opacity="0.47058824" d="M1014.51 695.441C1014.5 693.462 1014.55 693.227 1014.92 691.25C1014.98 692.175 1015.06 693.1 1015.16 694.024L1014.76 695.52L1014.51 695.441Z"/><path fill="#D6AC47" fill-opacity="0.60784316" d="M1015.16 694.024L1015.5 693.981C1015.46 695.417 1015.41 696.006 1015.19 697.42L1014.76 695.52L1015.16 694.024Z"/><path fill="#FEFEFE" fill-opacity="0.29411766" d="M556.203 458.782C556.453 459.108 556.344 459.274 556.247 459.7L555.367 459.58C555.646 459.314 555.924 459.048 556.203 458.782Z"/></svg>