<?xml version="1.0" encoding="utf-8" ?><svg xmlns="http://www.w3.org/2000/svg" xmlns:xlink="http://www.w3.org/1999/xlink" width="1024" height="1024" viewBox="0 0 1024 1024"><path fill="#F2B61A" d="M86.1203 495.689C120.715 494.026 156.587 509.001 182.966 530.772C211.887 554.21 230.028 588.407 233.216 625.496C239.159 691.77 191.011 750.351 146.179 793.544C119.582 817.884 92.5159 840.793 68.5972 867.903C40.4369 899.821 23.6031 957.644 62.1924 989.099C73.3592 998.34 87.7659 1002.72 102.185 1001.25C117.95 999.592 132.401 991.707 142.323 979.345C151 968.479 154.907 956.367 153.478 942.324C151.741 925.249 136.065 907.097 117.71 909.598C115.946 909.838 113.504 910.151 112.349 911.675C124.3 914.29 134.471 919.63 133.579 933.791C133.137 941.296 129.686 948.306 124.007 953.232C118.083 958.296 110.316 960.502 102.614 959.829C94.7235 959.203 87.426 955.396 82.3982 949.282C76.0753 941.741 73.5411 932.364 74.5081 922.622C75.5502 912.196 80.6416 902.596 88.6876 895.884C98.0088 888.259 112.236 885.481 124.024 886.747C138.478 888.19 150.675 895.617 159.582 907.066C182.305 936.273 173.25 979.597 144.828 1001.27C79.4577 1051.13 3.6259 991.385 13.2183 915.428C14.2369 906.889 16.6504 898.574 20.3624 890.816C30.6871 869.366 57.1286 843.134 75.962 828.496C57.195 828.042 51.6086 829.573 33.875 820.76C-4.22538 801.825 -5.82933 739.594 37.3956 726.466C48.329 723.832 57.2065 724.087 67.4515 729.199C76.0819 733.611 83.5862 741.535 86.4535 750.877C90.2151 763.132 85.317 778.389 71.9252 781.936C61.2882 784.752 48.2963 779.69 46.1017 768.003C44.0523 757.089 51.1439 746.845 62.1374 745.2C62.3673 745.165 62.5972 745.129 62.8271 745.093C57.7441 742.433 54.29 741.573 48.578 741.796C16.8216 742.78 7.20042 783.7 30.3627 802.466C59.6883 826.226 99.6561 814.389 124.285 789.953C130.795 783.494 136.7 778.286 142.652 771.119C175.028 732.138 202.418 684.577 199.686 632.216C197.194 584.382 160.237 536.301 108.989 539.738C68.8543 542.138 39.7861 582.955 55.8491 621.176C66.7918 645.622 88.4467 662.215 116.631 660.292C150.966 657.95 177.36 613.627 147.964 587.851C137.754 578.899 118.53 579.319 109.654 592.056C111.449 591.24 113.792 590.13 115.68 589.705C121.427 588.423 127.447 589.44 132.453 592.54C138.046 596.075 141.616 601.585 143.012 608.012C144.561 615.438 142.95 623.173 138.566 629.363C129.086 642.966 109.793 642.647 97.2946 633.423C80.96 621.367 78.609 597.081 90.793 581.104C97.2579 572.72 106.82 567.286 117.331 566.023C146.145 562.457 168.547 585.472 171.618 613.016C173.338 629.222 168.499 645.443 158.182 658.06C147.248 671.651 131.355 680.332 114.01 682.186C92.3693 684.301 74.147 677.48 56.6331 665.146C11.7157 633.513 -2.98412 566.515 33.5794 523.059C46.7889 507.352 65.6784 497.512 86.1203 495.689Z"/><path fill="#F2B61A" d="M280.321 883.66C287.371 884.583 295.694 886.363 299.738 892.704C312.721 913.064 297.145 935.611 274.015 931.799C266.01 930.444 258.891 925.915 254.272 919.238C242.283 901.789 250.388 878.695 267.502 868.099C289.757 854.32 317.771 862.586 331.359 884.374C357.732 926.661 318.376 973.169 273.73 974.523C272.399 974.418 262.873 974.355 261.716 974.524L255.778 973.792L254.16 975.104C255.176 975.292 255.952 975.469 256.955 975.714C263.315 976.968 275.949 977.681 282.144 976.599C284.622 976.019 289.519 975.581 292.366 975.097C299.18 973.884 305.846 971.955 312.254 969.34C325.647 963.778 340.622 953.366 352.536 945.072C383.292 923.659 410.707 902.094 448.161 893.824C512.246 879.673 560.977 912.279 612.024 944.252C611.172 945.501 611.065 945.98 609.626 946.251L608.769 946.407C570.754 934.292 525.822 925.955 485.75 930.446C461.173 933.2 434.868 941.58 412.319 951.619C389.628 961.721 368.123 973.868 344.559 982.181C337.091 984.832 329.472 987.038 321.742 988.786C317.852 989.667 313.731 990.241 309.964 991.215C312.044 992.292 312.511 992.376 314.104 993.894L314.308 994.085C323.481 995.042 334.312 993.692 343.387 992.442C377.882 987.688 406.321 971.925 438.697 960.761C464.054 952.017 488.615 945.746 515.501 944.307C594.729 940.066 659.328 979.236 737.392 989.133C758.901 991.729 780.61 992.23 802.215 990.63C880.066 985.4 948.543 956.633 1009.84 909.109L1010.46 910.795C946.488 978.741 858.072 1018.38 764.788 1020.94C688.516 1023.59 622.749 986.46 547.952 980.064C492.761 975.344 442.418 997.365 390.058 1010.46C325.718 1026.4 269.129 1023.41 218.59 976.217C202.22 960.93 195.821 949.934 184.819 931.219C204.904 953.032 228.254 964.335 257.497 966.591C288.228 968.962 321.942 947.766 323.197 915.154C324.087 892.035 303.653 872.903 280.321 883.66Z"/><path fill="#FCF5C9" d="M225.875 964.224C235.807 969.111 244.273 971.223 254.894 973.584C255.19 973.65 255.484 973.72 255.778 973.792L254.16 975.104C244.606 974.386 234.037 968.988 225.476 965.127L225.875 964.224Z"/><path fill="#FEFEFD" d="M298.854 992.018C302.418 992.027 306.858 991.029 309.964 991.215C312.044 992.292 312.511 992.376 314.104 993.894L314.308 994.085C309.136 994.835 302.429 993.59 296.957 993.424C297.708 992.806 298.019 992.543 298.854 992.018Z"/><path fill="#F9D774" d="M214.761 958.814C217.574 960.062 223.389 962.503 225.875 964.224L225.476 965.127C222.776 964.109 218.674 961.823 216.37 960.049L214.761 958.814Z"/><path fill="#F9D774" d="M288.329 992.149C291.786 992.05 295.406 991.907 298.854 992.018C298.019 992.543 297.708 992.806 296.957 993.424C294.437 993.529 290.831 992.674 288.329 992.149Z"/><path fill="#F2B61A" d="M319.163 198.119C343.761 196.273 360.856 219.367 355.74 242.603C351.758 260.69 342.708 266.242 328.281 275.601C341.323 273.711 352.599 266.315 361.746 265.561C367.06 265.092 372.338 266.792 376.381 270.273C382.414 275.405 385.982 284.461 386.41 292.305C386.944 301.353 383.801 310.233 377.693 316.931C371.216 323.93 361.042 328.072 351.569 328.226C334.188 328.508 320.044 318.256 308.078 306.839L308.166 307.296C309.832 315.467 312.591 321.251 316.41 328.641C320.723 336.987 328.853 346.87 328.585 356.634C328.171 371.766 309.191 378.662 296.322 377.664C280.333 376.745 268.944 364.844 265.17 349.858C263.288 342.384 263.547 335.661 264.097 327.969C265.561 319.366 267.989 313.158 272.17 305.566C257.562 315.554 256.688 322.782 246.105 335.199C237.847 344.888 220.743 337.193 213.488 328.037C200.622 311.799 203.209 289.178 219.732 276.334C236.976 262.697 247.463 265.843 267.34 267.829C261.599 264.353 254.68 260.503 248.049 259.121C236.574 256.729 223.557 258.693 219.978 244.151C215.733 225.636 225.764 208.512 244.452 204.168C267.335 198.848 288.803 214.734 295.636 236.121C296.819 239.823 297.253 245.847 298.251 250.153C299.879 244.739 300.243 239.653 300.173 234.037C300.06 224.904 296.943 215.103 302.726 207.001C306.838 201.239 312.669 199.36 319.163 198.119Z"/><path fill="#F2B61A" d="M579.906 264.468C590.759 270.118 600.456 285.887 604.11 297.272C620.909 349.62 584.638 399.167 534.126 413.289C484.949 427.037 441.965 415.194 400.67 388.041C397.958 385.6 393.124 381.848 390.137 379.455C389.307 378.263 385.082 374.536 383.6 372.933L383.205 373.272L379.832 368.994C382.655 369.801 385.006 370.519 387.777 371.497C433.617 384.071 464.113 370.419 503.614 349.699C511.587 345.517 519.396 340.503 527.642 336.921C540.091 331.514 555.392 330.838 565.978 324.739C575.625 319.182 582.647 308.902 585.373 298.21C588.346 286.55 585.947 274.761 579.906 264.468Z"/><path fill="#F2B61A" d="M376.12 380.579C378.721 383.566 381.986 386.949 384.394 389.998C385.648 391.487 392.076 399.518 393.091 400.077C414.146 428.939 426.341 472.941 420.232 507.981C415.301 536.263 401.975 565.478 378.475 582.745C358.579 597.529 333.564 603.671 309.083 599.782C294.344 597.44 276.273 589.53 266.481 577.288C265.506 576.069 265.433 575.402 265.716 574.2C268.335 574.642 273.639 576.971 276.509 577.925C286.097 581.112 295.871 581.11 305.418 578.054C318.865 573.75 328.213 562.653 331.928 549.274C334.468 540.129 335.127 530.091 339.536 521.179C346.083 507.947 353.668 495.138 360.525 481.949C375.649 452.858 384.43 415.427 373.674 383.371L373.776 383.199C374.707 381.607 374.656 381.662 376.12 380.579Z"/><path fill="#F2B61A" d="M212.07 394.644C241.659 389.245 238.092 435.53 207.884 428.026C201.792 426.466 196.597 422.493 193.496 417.022C184.816 401.649 194.217 381.937 210.766 377.033C244.406 367.064 269.09 403.526 257.718 433.827C249.096 456.8 228.366 471.869 203.839 473.12C150.126 474.355 107.936 427.021 86.8699 381.907C54.8163 311.317 68.4441 221.237 114.883 160.105C117.161 157.106 121.305 150.092 124.479 148.634C124.535 149.921 124.52 151.138 124.636 152.42C122.982 161.785 122.582 171.408 120.534 180.588C119.858 183.614 115.201 189.865 113.578 192.853C112.241 195.316 110.815 198.14 109.5 200.603C98.6703 220.877 93.1257 241.098 89.2604 263.544C80.4939 314.453 91.6146 366.981 122.241 408.839C140.141 431.897 164.353 453.758 194.036 458.77C218.853 462.961 245.729 448.392 250.085 422.479C250.925 417.479 249.874 406.885 246.977 402.473C237.928 388.691 225.773 383.332 212.07 394.644Z"/><path fill="#F2B61A" d="M285.385 68.7061C308.583 66.4574 338.928 71.5038 361.243 78.1548C410.37 92.7969 469.471 135.018 475.728 189.682C477.746 206.117 473.013 222.667 462.612 235.55C445.01 257.241 413.121 263.949 390.714 245.343C382.984 238.924 377.85 230.775 377.063 220.562C376.392 211.745 379.347 203.035 385.244 196.446C395.023 185.394 411.659 182.633 422.975 193.007C426.944 196.604 429.288 201.655 429.472 207.009C430.481 233.902 391.991 234.375 393.908 205.903C385.458 221.509 390.446 233.881 405.228 242.575C435.725 254.85 464.367 228.243 462.204 197.802C459.391 158.231 422.636 125.697 389.903 108.385C340.195 82.336 281.973 77.8287 228.848 95.9169C220.539 98.6783 212.495 102.177 204.81 106.372C201.982 107.905 188.946 115.251 186.738 115.864C178.474 118.158 160.999 120.716 152.292 121.131C158.204 114.771 166.938 109.085 174.285 104.305C210.302 80.8731 243.077 71.55 285.385 68.7061Z"/><path fill="#F2B61A" d="M377.325 336.547C424.083 334.348 427.414 277.09 464.337 257.509C488.357 244.771 514.892 237.634 541.22 231.636C526.491 250.291 524.262 261.13 515.92 282.719C495.949 334.403 420.386 360.054 370.957 339.327C369.102 338.61 366.793 337.212 365.007 336.212L377.325 336.547Z"/><path fill="#F2B61A" d="M342.307 363.708C344.141 367.297 345.069 369.026 346.241 372.842C351.486 388.89 350.065 411.731 347.025 428.014C340.412 463.429 319.146 499.571 284.338 513.205C264.585 520.942 250.612 522.142 234.229 537.226C236.294 527.583 239.471 518.045 242.429 508.709C248.815 488.548 256.265 464.748 270.807 448.874C296.658 420.657 336.109 418.757 342.466 374.956C342.554 371.275 342.398 367.406 342.307 363.708Z"/><path fill="#F2B61A" d="M397.724 396.598L398.596 396.814C401.904 397.545 403.003 400.406 406.94 400.524C408.006 406.763 469.478 432.578 477.948 436.324C513.579 452.084 519.496 486.421 532.368 519.005C535.085 525.884 539.454 532.967 542.814 539.698C510.759 512.869 460.324 516.819 440.439 474.385C438.343 469.913 435.883 465.362 433.718 460.875C428.456 449.904 423.085 438.984 417.608 428.118C410.905 415.095 405.61 408.376 397.724 396.598Z"/><path fill="#F2B61A" d="M127.957 147.552C128.113 144.451 128.306 127.13 128.886 125.448L130.005 125.899C131.123 125.945 132.24 126.007 133.356 126.086C134.448 127.753 137.707 130.603 137.8 131.625L136.2 132.88C159.525 159.488 183.566 186.066 180.853 224.246C179.82 238.772 173.61 254.716 167.838 268.081C161.088 283.71 159.751 290.415 160.112 307.089C151.671 294.091 142.614 281.068 135.006 267.545C114.25 230.654 123.76 195.536 127.237 155.607C127.682 153.77 127.356 150.825 127.957 147.552Z"/><path fill="#FEFEFD" d="M130.005 125.899C131.123 125.945 132.24 126.007 133.356 126.086C134.448 127.753 137.707 130.603 137.8 131.625L136.2 132.88C134.649 131.367 131.331 127.626 130.005 125.899Z"/><path fill="#F2B61A" d="M133.356 126.086C146.693 124.905 158.14 124.108 171.569 122.177C201.784 117.833 223.168 114.523 252.502 127.643C271.953 136.342 288.838 146.96 309.636 152.413C292.938 157.106 280.701 163.453 265.346 170.497C238.931 182.612 207.658 181.794 182.507 167.072C171.123 160.619 161.103 152.79 151.308 144.094C148.358 141.476 140.411 133.359 137.8 131.625C137.707 130.603 134.448 127.753 133.356 126.086Z"/><path fill="#FEFEFD" fill-opacity="0.98823529" d="M375.799 379.634C377.554 379.94 377.825 380.005 379.471 380.667C381.671 385.031 383.901 380.681 386 380.246C386.941 380.051 387.194 381.924 387.977 382.738C391.67 384.364 391.228 383.786 392.548 387.442C392.133 389.315 390.723 390.248 388.787 389.548C386.422 388.692 386.484 389.601 384.394 389.998C381.986 386.949 378.721 383.566 376.12 380.579L375.799 379.634Z"/><path fill="#FEFEFD" fill-opacity="0.8392157" d="M392.548 387.442C394.18 388.256 396.15 390.492 397.237 391.896C394.463 392.873 396.133 395.406 397.724 396.598C395.552 397.558 394.102 398.004 393.091 400.077C392.076 399.518 385.648 391.487 384.394 389.998C386.484 389.601 386.422 388.692 388.787 389.548C390.723 390.248 392.133 389.315 392.548 387.442Z"/><path fill="#FEFEFD" fill-opacity="0.46666667" d="M390.137 379.455C393.124 381.848 397.958 385.6 400.67 388.041C399.267 389.614 398.88 389.774 398.308 391.705L397.237 391.896C396.15 390.492 394.18 388.256 392.548 387.442C391.228 383.786 391.67 384.364 387.977 382.738C388.307 381.491 389.178 380.305 390.137 379.455Z"/><path fill="#FEFEFD" fill-opacity="0.57647061" d="M261.716 974.524C262.873 974.355 272.399 974.418 273.73 974.523C277.857 975.916 277.898 976.004 282.144 976.599C275.949 977.681 263.315 976.968 256.955 975.714C258.842 975.501 259.883 975.183 261.716 974.524Z"/><path fill="#FEFEFD" fill-opacity="0.75294119" d="M383.205 373.272L383.6 372.933C385.082 374.536 389.307 378.263 390.137 379.455C389.178 380.305 388.307 381.491 387.977 382.738C387.194 381.924 386.941 380.051 386 380.246C383.901 380.681 381.671 385.031 379.471 380.667C387.383 376.471 383.09 377.572 383.176 374.118L383.205 373.272Z"/><path fill="#FEFEFD" fill-opacity="0.98823529" d="M397.724 396.598C396.133 395.406 394.463 392.873 397.237 391.896L398.308 391.705C399.757 392.977 405.976 399.167 406.94 400.524C403.003 400.406 401.904 397.545 398.596 396.814L397.724 396.598Z"/><path fill="#FEFEFD" fill-opacity="0.50588238" d="M127.957 147.552C127.356 150.825 127.682 153.77 127.237 155.607C127.182 155.28 127.131 154.953 127.083 154.626C126.962 153.744 126.993 153.2 126.063 152.887L124.636 152.42C124.52 151.138 124.535 149.921 124.479 148.634C125.837 148.313 126.928 148.406 127.957 147.552Z"/><path fill="#F0B93F" d="M612.024 944.252C613.802 944.924 616.256 947.244 617.833 948.557C614.91 947.947 611.565 946.893 608.769 946.407L609.626 946.251C611.065 945.98 611.172 945.501 612.024 944.252Z"/><path fill="#F0B93F" d="M371.934 376.464C373.224 377.609 374.342 378.935 375.799 379.634L376.12 380.579C374.656 381.662 374.707 381.607 373.776 383.199L373.674 383.371C373.393 381.817 372.381 378.146 371.934 376.464Z"/><path fill="#FEFEFD" fill-opacity="0.33333334" d="M255.778 973.792L261.716 974.524C259.883 975.183 258.842 975.501 256.955 975.714C255.952 975.469 255.176 975.292 254.16 975.104L255.778 973.792Z"/><path fill="#F0B93F" fill-opacity="0.98823529" d="M1011.65 907.607L1012.23 908.689C1011.66 909.408 1011.07 910.11 1010.46 910.795L1009.84 909.109C1010.46 908.507 1010.97 908.134 1011.65 907.607Z"/><path fill="#F0B93F" fill-opacity="0.88627452" d="M1011.65 907.607C1012.46 906.879 1013.31 906.169 1014.17 905.502L1013.87 905.699C1014.73 905.172 1014.4 905.268 1014.82 905.304C1015.12 905.796 1012.64 908.221 1012.23 908.689L1011.65 907.607Z"/><path fill="#F2B61A" d="M920.643 0L948.373 0C948.699 0.396461 949.025 0.792922 949.351 1.18938C953.758 2.53121 958.315 3.68659 962.723 5.00822C990.709 13.3981 1012.25 36.8996 1020.9 64.4901C1021.62 66.8073 1021.49 71.0777 1024 71.6816L1024 103.877C1021.78 105.253 1018.9 115.067 1017.46 118.207C1001.3 153.565 956.735 172.337 920.879 155.242C896.711 143.72 881.309 114.075 894.12 88.8163C903.44 70.4412 926.639 60.643 945.084 70.6917C967.326 81.45 967.101 115.274 943.369 123.365C928.703 128.366 917.439 118.549 913.294 104.149C913.089 106.193 912.797 109.291 912.918 111.282C914.105 130.795 934.234 144.445 952.749 143.739C966.405 143.629 983.019 136.157 991.873 125.704C1028.37 82.6269 992.352 25.7863 938.605 29.8342C887.713 33.6671 859.259 73.6073 829.851 109.821C817.439 125.106 806.757 139.559 793.412 153.889C756.749 194.186 710.761 232.527 653.876 235.542C615.736 237.564 577.235 220.808 549.733 195.126C521.253 168.53 503.037 135.608 501.288 96.1553C501.396 94.9856 502.169 84.1958 501.579 83.9476L501.319 84.0045L501.406 83.7885C500.331 86.2257 499.982 92.6325 500.151 95.2913C492.152 170.539 567.365 248.392 640.453 255.909C687.973 260.797 727.243 243.738 765.426 217.16C780.217 206.865 795.315 196.364 810.522 186.728C858.255 160.026 906.805 160.214 953.688 188.083C924.462 187.826 907.131 187.949 878.451 197.526C841.637 209.819 811.907 232.979 777.784 251.05C714.484 284.572 656.752 295.652 590.73 261.569C570.37 251.274 551.803 237.763 535.746 221.556C501.743 186.865 483.736 141.699 490.108 92.8363L489.669 92.6034C482.661 88.8317 475.376 83.6157 468.383 79.6481C458.985 74.3166 449.461 69.341 439.611 64.9076C372.083 34.8417 296.093 29.6494 225.104 50.2505C157.148 70.3871 105.159 111.725 71.1878 174.307C35.1139 240.569 26.7254 318.414 47.8545 390.84C59.4228 429.666 73.9237 451.099 96.3138 483.374C141.862 480.699 186.556 496.558 220.231 527.345C269.096 571.151 295.085 634.828 278.925 699.619C275.545 713.172 271.657 726.391 265.755 739.084C243.205 789.612 204.647 832.846 198.168 889.57C197.289 897.262 196.983 910.778 198.669 918.379C199.116 920.717 199.958 924.106 199.762 926.367L199.19 926.524C198.502 925.607 197.994 924.976 197.422 923.981C166.934 879.811 169.157 837.032 193.684 790.067C202.529 775.015 212.935 760.583 222.576 746.033C268.172 677.222 270.971 597.055 206.867 537.178C179.631 511.792 144.525 496.492 107.388 493.824C100.059 493.322 93.5366 493.71 86.2318 493.968C78.5447 486.827 69.7699 474.491 63.3986 465.938C27.7574 418.092 7.39823 363.519 4.02481 303.797C0.845166 247.505 17.4224 189.688 46.3159 141.444C58.0073 121.922 74.0501 103.072 89.2731 86.2297C90.3344 85.5143 91.1757 84.6765 92.0411 83.7367C119.374 59.3195 140.219 42.3658 174.383 27.6387C289.08 -21.8029 407.003 9.28605 502.092 83.1294C502.722 80.3608 503.392 77.6017 504.104 74.853C509.233 54.914 522.069 37.8274 539.791 27.3477C560.94 15.1086 588.854 12.173 612.33 18.6539C639.447 26.2034 662.493 44.1393 676.471 68.5712C686.882 87.0331 690.861 107.487 684.909 128.158C680.299 143.79 669.72 156.979 655.461 164.873C640.33 173.08 625.583 174.985 608.866 170.805C570.045 161.098 555.963 108.123 595.281 88.3477C604.27 83.8985 614.665 83.2298 624.15 86.4904C633.164 89.6143 641.23 96.3433 645.366 105.009C648.733 112.085 649.13 120.214 646.468 127.585C643.928 134.445 639.152 139.242 632.474 142.105C625.665 145.06 617.941 145.09 611.109 142.188C605.163 139.68 600.485 134.874 598.139 128.862C595.535 122.031 596.876 117.338 599.62 111.13C590.603 119.7 587.34 131.985 592.96 143.499C597.018 151.622 604.176 157.768 612.819 160.551C633.993 167.475 658.56 150.585 664.675 130.057C679.628 79.8615 621.944 36.4175 576.889 60.6966C563.429 67.8173 553.412 80.0687 549.109 94.6752C535.237 142.074 576.688 184.797 619.676 196.248C654.905 206.687 695.995 197.606 727.646 179.172C772.699 152.934 841.353 96.6584 810.451 37.9035C794.694 7.94273 744.479 12.8562 744.832 50.4057C744.875 54.9682 745.844 58.5596 748.351 62.4017L748.729 62.9689C756.413 39.105 784.155 45.2109 785.624 65.8893C786 71.3126 784.222 76.6655 780.674 80.785C770.611 92.3005 752.211 89.8378 741.687 80.1928C733.46 72.594 728.57 62.0518 728.082 50.8633C726.172 7.53756 784.916 -8.4002 812.752 20.0221C828.14 35.7346 830.916 49.9809 831.527 71.189C836.221 65.994 840.346 60.1147 844.97 54.8461C863.953 33.2175 883.805 11.1161 912.664 3.26345C915.093 2.6024 918.229 2.0919 920.486 1.14671L920.643 0Z"/><path fill="#F2B61A" d="M45.2164 68.8257C44.1643 67.3816 38.4054 64.8286 36.5199 63.766C33.3693 62.0799 30.5176 60.2431 27.8844 57.8003C17.7038 48.3561 12.3565 30.9505 23.6599 20.0509C34.8643 9.2468 51.0499 12.8834 60.8569 23.4C68.1981 31.2725 69.286 40.1926 68.9218 50.566L70.0368 51.8016C73.6047 39.3842 79.9146 24.4607 92.0461 18.6724C117.034 6.74976 129.203 25.3614 128.463 47.5794C123.632 51.9045 117.716 55.3644 112.627 59.5459C105.161 65.6797 98.2668 72.3612 91.2685 79.0127L83.7738 86.4393C72.8588 97.2984 63.4139 109.224 54.2062 121.335C45.9421 132.205 24.2602 127.395 15.1945 119.376C3.59081 109.112 3.72517 93.1827 13.9735 82.2483C21.8839 73.8082 33.1384 70.1657 44.3492 69.6378L45.2164 68.8257Z"/><path fill="#F9D774" d="M68.9218 50.566L70.0368 51.8016C69.8615 52.6498 69.3636 56.4302 68.7349 56.8713L68.6558 56.8313C68.1373 55.5679 68.5117 52.0787 68.9218 50.566Z"/><path fill="#FCF5C9" d="M45.2164 68.8257C46.5812 68.3022 48.8 68.5782 49.6609 69.7052C49.3333 70.4509 45.1052 69.7784 44.3492 69.6378L45.2164 68.8257Z"/><path fill="#FEFEFD" fill-opacity="0.090196081" d="M91.2685 79.0127C92.6769 81.3331 91.538 82.1471 92.0411 83.7367C91.1757 84.6765 90.3344 85.5143 89.2731 86.2297C88.9332 85.9269 89.0975 85.9973 88.8375 85.9169C86.782 86.8247 86.4357 87.4829 83.7738 86.4393L91.2685 79.0127Z"/><path fill="#FCF5C9" fill-opacity="0.95294118" d="M500.151 95.2913C499.982 92.6325 500.331 86.2257 501.406 83.7885L501.319 84.0045L501.579 83.9476C502.169 84.1958 501.396 94.9856 501.288 96.1553C501.156 95.7669 501.027 95.0047 500.746 94.7565C500.621 94.8255 500.308 95.1225 500.151 95.2913Z"/></svg>